<svg version="1.1" id="Layer_1" xmlns="http://www.w3.org/2000/svg" xmlns:xlink="http://www.w3.org/1999/xlink" x="0px" y="0px" viewBox="0 0 122.88 69.01" style="enable-background:new 0 0 122.88 69.01" xml:space="preserve"><style type="text/css"><![CDATA[
	.st0{fill-rule:evenodd;clip-rule:evenodd;fill:red;}
	.st1{fill:#242424;}
]]></style><g><path class="st0" d="M6.78,9.11H91.9c-0.15,0.81-0.25,1.65-0.3,2.49c-0.27,5.16,1.57,9.95,4.77,13.51 c3.06,3.4,7.37,5.69,12.26,6.12c0.34,0.05,0.69,0.08,1.05,0.08V31.3c0.73,0.02,1.45,0.01,2.16-0.05v30.98 c0,3.72-3.06,6.78-6.78,6.78H6.78C3.06,69.01,0,65.96,0,62.23V15.88C0,12.16,3.05,9.11,6.78,9.11L6.78,9.11L6.78,9.11z M110.97,0.02c6.94,0.37,12.26,6.29,11.89,13.23c-0.37,6.94-6.29,12.26-13.23,11.89c-6.94-0.37-12.26-6.29-11.89-13.23 C98.11,4.98,104.03-0.35,110.97,0.02L110.97,0.02z M110.71,4.71c2.18,0.12,4.1,1.1,5.45,2.6c1.35,1.5,2.12,3.51,2.01,5.69 c-0.12,2.18-1.1,4.1-2.6,5.45c-1.5,1.35-3.51,2.13-5.69,2.01c-2.18-0.12-4.11-1.1-5.45-2.6c-1.35-1.5-2.12-3.51-2.01-5.69 c0.12-2.18,1.1-4.11,2.6-5.45C106.53,5.37,108.54,4.59,110.71,4.71L110.71,4.71z M28.15,22.07v27.19h5.63v6.79h-15V22.07H28.15 L28.15,22.07L28.15,22.07z M46.4,22.07v33.98h-9.36V22.07H46.4L46.4,22.07L46.4,22.07z M73.28,22.07l-4.73,33.98H54.39l-5.42-33.98 h9.86c1.11,9.37,1.92,17.3,2.43,23.78c0.5-6.55,1.02-12.36,1.54-17.44l0.62-6.34H73.28L73.28,22.07L73.28,22.07z M75.86,22.07 h15.59v6.79h-6.22v6.49h5.82v6.44h-5.82v7.48h6.86v6.79H75.86V22.07L75.86,22.07L75.86,22.07z"/><path class="st1" d="M110.56,7.69c2.7,0.14,4.77,2.45,4.63,5.14c-0.14,2.7-2.45,4.77-5.14,4.63c-2.7-0.14-4.77-2.45-4.63-5.14 S107.86,7.55,110.56,7.69L110.56,7.69z"/></g></svg>