<svg xmlns="http://www.w3.org/2000/svg" viewBox="0 0 122.88 107.18"><defs><style>.a{fill:grey;}</style></defs><path d="M26.59,48l-6.54,3.49-.06,0a2.19,2.19,0,0,1-1.46.18,2.28,2.28,0,0,1-1.3-.82l0-.05L.56,29.17h0l-.08-.1L.4,29l0,0A2.25,2.25,0,0,1,0,27.29,2.2,2.2,0,0,1,1,25.86L37.88.45a1.92,1.92,0,0,1,.26-.17A2.23,2.23,0,0,1,39.67,0,2.2,2.2,0,0,1,41,.86a2.31,2.31,0,0,1,.19.28A49.25,49.25,0,0,0,48,10.7a25.2,25.2,0,0,0,7.45,5.64,16.48,16.48,0,0,0,3.37,1.17,13.1,13.1,0,0,0,3.34.32,13.27,13.27,0,0,0,3.28-.52,15.19,15.19,0,0,0,3.23-1.37,23,23,0,0,0,6.4-5.58A43.75,43.75,0,0,0,80.66,1.3s0,0,0,0l.06-.11A.76.76,0,0,1,80.8,1h0A2.23,2.23,0,0,1,82.21,0a2.26,2.26,0,0,1,1.68.33h0l38,25.27,0,0h0l0,0h0a2.24,2.24,0,0,1,.41,3.13l-16.76,22h0a2.2,2.2,0,0,1-1.23.83,2.24,2.24,0,0,1-1.5-.13l-7.38-3.4A129.3,129.3,0,0,0,93.6,61.4,135.75,135.75,0,0,0,93,75.31c0,4.88.33,9.75.83,14.61s1.2,9.7,2.06,14.57a.34.34,0,0,1,0,.1s0,.06,0,.09v0c0,.06,0,.11,0,.17a2.26,2.26,0,0,1-.65,1.58h0a2.24,2.24,0,0,1-1.57.65h0l-64.92.08h-.29a1.57,1.57,0,0,1-.3,0,2.25,2.25,0,0,1-1.4-1,2.17,2.17,0,0,1-.29-1.68,140.4,140.4,0,0,0,2.4-13.87,123.58,123.58,0,0,0,.88-14.36A122,122,0,0,0,29,62a125.71,125.71,0,0,0-2.4-14Z"/><path class="a" d="M19.61,46.65l.87-.53c.92-.56,2.07-1.26,3.26-1.9,2.65-1.41,5.4-2.36,6.33-.6h0c1.05,2,2,6.78,2.64,12.19a204.16,204.16,0,0,1,1.57,20.42,127.39,127.39,0,0,1-.8,14q-.72,6.36-2,12.54l59.61-.07c-.72-4.36-1.31-8.74-1.74-13.14-.45-4.69-.72-9.41-.76-14.16a140.52,140.52,0,0,1,.69-15.28,133.59,133.59,0,0,1,2.51-15.59,2.24,2.24,0,0,1,2.66-1.7h0l.23.07.15.06.08,0h0l8.29,3.82,14.25-18.71L83.54,5.49a44.91,44.91,0,0,1-5.6,8.4,26.87,26.87,0,0,1-7.07,5.95,19.78,19.78,0,0,1-4.2,1.77,17.54,17.54,0,0,1-4.37.68,18.11,18.11,0,0,1-4.39-.42,20.41,20.41,0,0,1-4.35-1.5,28.91,28.91,0,0,1-8.18-6,49.55,49.55,0,0,1-6.86-9L5.43,28.21,19.61,46.65Z"/></svg>