<?xml version="1.0" standalone="no"?>
<!DOCTYPE svg PUBLIC "-//W3C//DTD SVG 1.1//EN" "http://www.w3.org/Graphics/SVG/1.1/DTD/svg11.dtd" >
<svg xmlns="http://www.w3.org/2000/svg" xmlns:xlink="http://www.w3.org/1999/xlink" version="1.1">
<metadata>
Created by FontForge 20170731 at Fri Jan 20 16:46:45 2017
 By Aleksey,,,
(c) Copyright 2017, Type Network, Inc. Designed by Richard Lipton, aka Lipton Letter Design.
</metadata>
<defs>
<font id="BennetTextOne-Bold" horiz-adv-x="592" >
  <font-face 
    font-family="BennetTextOne"
    font-weight="700"
    font-stretch="normal"
    units-per-em="1000"
    panose-1="0 0 0 0 0 0 0 2 0 0"
    ascent="763"
    descent="-237"
    x-height="503"
    cap-height="665"
    bbox="-117 -355.364 1347 1022"
    underline-thickness="0"
    underline-position="0"
    unicode-range="U+0020-FEFF"
  />
<missing-glyph horiz-adv-x="500" 
d="M0 0v696h500v-696h-500zM50 646v-596h400v596h-400z" />
    <glyph glyph-name="f_f" unicode="ff" horiz-adv-x="747" 
d="M318 43q5 -2 5 -22.5t-5 -20.5h-287q-4 0 -4 20.5t4 22.5l68 39q-5 78 -5 185q0 42 1 91.5t1 54.5h-61q-4 0 -4 29t4 31l61 31q4 63 23.5 103t55.5 73q66 60 198 60q98 0 145 -38q9 8 29 20q50 28 113 28q66 0 102.5 -21t38.5 -55q4 -49 -35 -77q-25 -2 -38 5
q-9 10 -40 45.5t-43 46.5q-46 -2 -46 -103v-96l139 3q5 0 5 -45t-5 -45l-139 5q0 -243 -4 -331l95 -39q5 -2 5 -22.5t-5 -20.5h-311q-4 0 -4 20.5t4 22.5l62 39q-5 78 -5 185q0 42 1 91t1 53l-181 2q0 -243 -4 -331zM257 495h181q3 56 14 97q-6 1 -13 7q-9 9 -32 33
t-38.5 38t-27.5 20q-39 -5 -61.5 -47t-22.5 -113v-35z" />
    <glyph glyph-name="f_f_i" unicode="ffi" horiz-adv-x="1019" 
d="M318 43q5 -2 5 -22.5t-5 -20.5h-287q-4 0 -4 20.5t4 22.5l68 39q-5 78 -5 185q0 42 1 91.5t1 54.5h-61q-4 0 -4 29t4 31l61 31q4 63 23.5 103t55.5 73q66 60 198 60q112 0 155 -48q11 10 32 22q62 36 157 36q100 0 147 -30t47 -74q0 -43 -37 -73q-34 -2 -45 2
q-19 12 -67 63.5t-69 61.5q-41 -5 -67.5 -47.5t-26.5 -112.5v-45h158q94 13 176 13q4 -27 4 -222q0 -122 -4 -204l59 -39q3 -2 3 -22.5t-3 -20.5h-271q-4 0 -4 20.5t4 22.5l61 39q-4 80 -4 163q0 43 1 92t1 63l-10 11l-171 2q0 -243 -4 -331l65 -39q5 -2 5 -22.5t-5 -20.5
h-281q-4 0 -4 20.5t4 22.5l62 39q-5 78 -5 185q0 42 1 91t1 53l-181 2q0 -243 -4 -331zM257 495h181q3 56 14 97q-6 1 -13 7q-9 9 -32 33t-38.5 38t-27.5 20q-39 -5 -61.5 -47t-22.5 -113v-35z" />
    <glyph glyph-name="f_f_l" unicode="ffl" horiz-adv-x="1024" 
d="M318 43q5 -2 5 -22.5t-5 -20.5h-287q-4 0 -4 20.5t4 22.5l68 39q-5 78 -5 185q0 42 1 91.5t1 54.5h-61q-4 0 -4 29t4 31l61 31q4 63 23.5 103t55.5 73q66 60 198 60q105 0 151 -43q16 13 39 24q60 29 144 29q73 0 121 -25q51 7 99 9q4 -16 6.5 -44.5t3.5 -73.5t1.5 -76.5
t0 -90t-0.5 -77.5q-2 -212 -4 -290l61 -39q3 -2 3 -22.5t-3 -20.5h-274q-4 0 -4 20.5t4 22.5l59 39q-5 177 -5 283q0 114 4 236q-17 14 -53 52.5t-53 46.5q-74 -9 -74 -160v-45l122 3q3 0 3.5 -22.5t-1.5 -45t-5 -22.5l-119 5q0 -243 -4 -331l65 -39q5 -2 5 -22.5t-5 -20.5
h-281q-4 0 -4 20.5t4 22.5l62 39q-5 78 -5 185q0 42 1 91t1 53l-181 2q0 -243 -4 -331zM257 495h181q3 56 14 97q-6 1 -13 7q-9 9 -32 33t-38.5 38t-27.5 20q-39 -5 -61.5 -47t-22.5 -113v-35z" />
    <glyph glyph-name="f_b" unicode="fb" horiz-adv-x="987" 
d="M495 -10q-4 -2 -30 -2t-27 4q-5 63 -5 347q0 136 4 262q-17 14 -53 52.5t-53 46.5q-74 -9 -74 -160v-45l122 3q3 0 3.5 -22.5t-1.5 -45t-5 -22.5l-119 5q0 -243 -4 -331l65 -39q5 -2 5 -22.5t-5 -20.5h-287q-4 0 -4 20.5t4 22.5l68 39q-5 78 -5 185q0 42 1 91.5t1 54.5
h-61q-4 0 -4 29t4 31l61 31q9 125 74 183q71 63 195 63q73 0 121 -25q51 7 98 9q2 -7 3.5 -15.5t3 -20t2 -21t1 -27t1 -30t0.5 -37v-40.5v-49v-54q110 77 167 77q88 0 138 -59.5t50 -178.5q0 -138 -71.5 -214t-190.5 -76q-96 0 -164 31q-14 -24 -29 -30zM588 105
q12 -23 37 -34.5t53 -11.5q48 0 80 25q28 49 28 170q0 88 -22 122.5t-75 34.5q-44 0 -94 -22q0 -183 -7 -284z" />
    <glyph glyph-name="f_f_b" unicode="ffb" horiz-adv-x="1329" 
d="M837 -10q-4 -2 -30 -2t-27 4q-5 63 -5 347q0 136 4 262q-17 14 -53 52.5t-53 46.5q-74 -9 -74 -160v-45l122 3q3 0 3.5 -22.5t-1.5 -45t-5 -22.5l-119 5q0 -243 -4 -331l65 -39q5 -2 5 -22.5t-5 -20.5h-281q-4 0 -4 20.5t4 22.5l62 39q-5 78 -5 185q0 42 1 91t1 53
l-181 2q0 -243 -4 -331l65 -39q5 -2 5 -22.5t-5 -20.5h-287q-4 0 -4 20.5t4 22.5l68 39q-5 78 -5 185q0 42 1 91.5t1 54.5h-61q-4 0 -4 29t4 31l61 31q4 63 23.5 103t55.5 73q66 60 198 60q105 0 151 -43q14 11 29 19q61 34 154 34q73 0 121 -25q51 7 98 9q2 -7 3.5 -15.5
t3 -20t2 -21t1 -27t1 -30t0.5 -37v-40.5v-49v-54q110 77 167 77q88 0 138 -59.5t50 -178.5q0 -138 -71.5 -214t-190.5 -76q-96 0 -164 31q-14 -24 -29 -30zM257 495h181q3 56 14 97q-6 1 -13 7q-9 9 -32 33t-38.5 38t-27.5 20q-39 -5 -61.5 -47t-22.5 -113v-35zM1020 59
q48 0 80 25q28 49 28 170q0 88 -22 122.5t-75 34.5q-44 0 -94 -22q0 -183 -7 -284q12 -23 37 -34.5t53 -11.5z" />
    <glyph glyph-name="f_f_h" unicode="ffh" horiz-adv-x="1354" 
d="M318 43q5 -2 5 -22.5t-5 -20.5h-287q-4 0 -4 20.5t4 22.5l68 39q-5 78 -5 185q0 42 1 91.5t1 54.5h-61q-4 0 -4 29t4 31l61 31q4 63 23.5 103t55.5 73q66 60 198 60q105 0 151 -43q8 7 28 19q61 34 155 34q73 0 121 -25q51 7 99 9q11 -37 11 -158v-141q109 78 175 78
q151 0 156 -174q3 -98 -10 -257l67 -39q3 -2 3.5 -22.5t-3.5 -20.5h-279q-4 0 -3.5 20.5t3.5 22.5l53 39q5 97 5 197q0 78 -10.5 102t-54.5 24q-50 0 -102 -20q-2 -222 -4 -303l56 -39q3 -2 3 -22.5t-3 -20.5h-269q-4 0 -4 20.5t4 22.5l59 39q-5 177 -5 283q0 114 4 236
q-17 14 -53 52.5t-53 46.5q-74 -9 -74 -160v-45l122 3q3 0 3.5 -22.5t-1.5 -45t-5 -22.5l-119 5q0 -243 -4 -331l65 -39q5 -2 5 -22.5t-5 -20.5h-281q-4 0 -4 20.5t4 22.5l62 39q-5 78 -5 185q0 42 1 91t1 53l-181 2q0 -243 -4 -331zM257 495h181q3 56 14 97q-6 1 -13 7
q-9 9 -32 33t-38.5 38t-27.5 20q-39 -5 -61.5 -47t-22.5 -113v-35z" />
    <glyph glyph-name="f_f_k" unicode="ffk" horiz-adv-x="1344" 
d="M318 43q5 -2 5 -22.5t-5 -20.5h-287q-4 0 -4 20.5t4 22.5l68 39q-5 78 -5 185q0 42 1 91.5t1 54.5h-61q-4 0 -4 29t4 31l61 31q4 63 23.5 103t55.5 73q66 60 198 60q105 0 151 -43q10 8 29 19q61 34 154 34q73 0 121 -25q51 7 99 9q11 -37 11 -158q0 -229 -1 -307
l151 151l-37 30q-5 5 -5 29t6 24h248q6 0 5.5 -26.5t-5.5 -28.5l-127 -45l-68 -58q36 -64 77 -128q47 -75 88 -134l73 -40q4 -2 4 -22.5t-4 -20.5h-202q-29 34 -96 151q-15 25 -57 100l-51 -50q-1 -69 -3 -119l56 -39q3 -2 3 -22.5t-3 -20.5h-269q-4 0 -4 20.5t4 22.5l59 39
q-5 177 -5 283q0 114 4 236q-17 14 -53 52.5t-53 46.5q-74 -9 -74 -160v-45l122 3q3 0 3.5 -22.5t-1.5 -45t-5 -22.5l-119 5q0 -243 -4 -331l65 -39q5 -2 5 -22.5t-5 -20.5h-281q-4 0 -4 20.5t4 22.5l62 39q-5 78 -5 185q0 42 1 91t1 53l-181 2q0 -243 -4 -331zM257 495h181
q3 56 14 97q-6 1 -13 7q-9 9 -32 33t-38.5 38t-27.5 20q-39 -5 -61.5 -47t-22.5 -113v-35z" />
    <glyph glyph-name="f_h" unicode="fh" horiz-adv-x="1012" 
d="M318 43q5 -2 5 -22.5t-5 -20.5h-287q-4 0 -4 20.5t4 22.5l68 39q-5 78 -5 185q0 42 1 91.5t1 54.5h-61q-4 0 -4 29t4 31l61 31q9 125 74 183q71 63 195 63q73 0 121 -25q51 7 99 9q11 -37 11 -158v-141q109 78 175 78q151 0 156 -174q3 -98 -10 -257l67 -39
q3 -2 3.5 -22.5t-3.5 -20.5h-279q-4 0 -3.5 20.5t3.5 22.5l53 39q5 97 5 197q0 78 -10.5 102t-54.5 24q-50 0 -102 -20q-2 -222 -4 -303l56 -39q3 -2 3 -22.5t-3 -20.5h-269q-4 0 -4 20.5t4 22.5l59 39q-5 178 -5 283q0 116 4 236q-17 14 -53 52.5t-53 46.5q-74 -9 -74 -160
v-45l122 3q3 0 3.5 -22.5t-1.5 -45t-5 -22.5l-119 5q0 -243 -4 -331z" />
    <glyph glyph-name="f_i" unicode="fi" horiz-adv-x="677" 
d="M318 0h-287q-4 0 -4 20.5t4 22.5l68 39q-5 78 -5 185q0 42 1 91.5t1 54.5h-61q-4 0 -4 29t4 31l61 31q8 115 84 183q71 63 195 63q100 0 147 -30t47 -74q0 -43 -37 -73q-34 -2 -45 2q-19 12 -67 63.5t-69 61.5q-41 -5 -67.5 -47.5t-26.5 -112.5v-45h158q94 13 176 13
q4 -27 4 -222q0 -122 -4 -204l59 -39q3 -2 3 -22.5t-3 -20.5h-271q-4 0 -4 20.5t4 22.5l61 39q-4 80 -4 163q0 43 1 92t1 63l-10 11l-171 2q0 -243 -4 -331l65 -39q5 -2 5 -22.5t-5 -20.5z" />
    <glyph glyph-name="f_j" unicode="fj" horiz-adv-x="674" 
d="M595 264q0 -183 -4 -271q-3 -58 -26.5 -99.5t-65 -65.5t-82.5 -36.5t-95 -19.5q-5 -1 -11 21.5t-2 25.5l104 78q23 44 23 163l2 340l-10 11l-171 2q0 -243 -4 -331l65 -39q5 -2 5 -22.5t-5 -20.5h-287q-4 0 -4 20.5t4 22.5l68 39q-5 78 -5 185q0 42 1 91.5t1 54.5h-61
q-4 0 -4 29t4 31l61 31q8 115 84 183q71 63 195 63q100 0 147 -30t47 -74q0 -43 -37 -73q-34 -2 -45 2q-19 12 -67 63.5t-69 61.5q-41 -5 -67.5 -47.5t-26.5 -112.5v-45h158q94 13 173 13q7 -56 7 -244z" />
    <glyph glyph-name="f_k" unicode="fk" horiz-adv-x="1002" 
d="M318 43q5 -2 5 -22.5t-5 -20.5h-287q-4 0 -4 20.5t4 22.5l68 39q-5 78 -5 185q0 42 1 91.5t1 54.5h-61q-4 0 -4 29t4 31l61 31q9 125 74 183q71 63 195 63q73 0 121 -25q51 7 99 9q11 -37 11 -158q0 -229 -1 -307l151 151l-37 30q-5 5 -5 29t6 24h248q6 0 5.5 -26.5
t-5.5 -28.5l-127 -45l-68 -58q36 -64 77 -128q47 -75 88 -134l73 -40q4 -2 4 -22.5t-4 -20.5h-202q-29 34 -96 151q-15 25 -57 100l-51 -50q-1 -69 -3 -119l56 -39q3 -2 3 -22.5t-3 -20.5h-269q-4 0 -4 20.5t4 22.5l59 39q-5 178 -5 283q0 116 4 236q-17 14 -53 52.5
t-53 46.5q-74 -9 -74 -160v-45l122 3q3 0 3.5 -22.5t-1.5 -45t-5 -22.5l-119 5q0 -243 -4 -331z" />
    <glyph glyph-name="f_l" unicode="fl" horiz-adv-x="682" 
d="M318 43q5 -2 5 -22.5t-5 -20.5h-287q-4 0 -4 20.5t4 22.5l68 39q-5 78 -5 185q0 42 1 91.5t1 54.5h-61q-4 0 -4 29t4 31l61 31q9 125 74 183q71 63 195 63q73 0 121 -25q51 7 99 9q4 -16 6.5 -44.5t3.5 -73.5t1.5 -76.5t0 -90t-0.5 -77.5q-2 -212 -4 -290l61 -39
q3 -2 3 -22.5t-3 -20.5h-274q-4 0 -4 20.5t4 22.5l59 39q-5 178 -5 283q0 114 4 236q-17 14 -53 52.5t-53 46.5q-74 -9 -74 -160v-45l122 3q3 0 3.5 -22.5t-1.5 -45t-5 -22.5l-119 5q0 -243 -4 -331z" />
    <glyph glyph-name="f_t" unicode="ft" horiz-adv-x="771" 
d="M776 49q-22 -22 -68.5 -43t-94.5 -21q-94 0 -133 38t-43 132q-3 126 5 256l-185 2q0 -243 -4 -331l65 -39q5 -2 5 -22.5t-5 -20.5h-287q-4 0 -4 20.5t4 22.5l68 39q-5 78 -5 185q0 42 1 91.5t1 54.5h-61q-4 0 -4 29t4 31l61 31q8 115 84 183q71 63 195 63q86 0 130 -30.5
t44 -73.5v-8q18 2 39 0.5t21 -5.5q-4 -66 -4 -138l135 3q4 0 4 -45.5t-4 -45.5l-136 5q-5 -137 -5 -222q0 -75 16 -95t69 -20q36 0 80 14q3 1 8.5 -18.5t3.5 -21.5zM257 495h179l50 77q-10 0 -18 3q-19 13 -58 64t-59 61q-41 -5 -67.5 -47.5t-26.5 -112.5v-45z" />
    <glyph glyph-name=".notdef" horiz-adv-x="500" 
d="M0 0v696h500v-696h-500zM50 646v-596h400v596h-400z" />
    <glyph glyph-name=".null" horiz-adv-x="0" 
 />
    <glyph glyph-name="nonmarkingreturn" horiz-adv-x="333" 
 />
    <glyph glyph-name="space" unicode=" " horiz-adv-x="200" 
 />
    <glyph glyph-name="space" unicode="&#xa0;" horiz-adv-x="200" 
 />
    <glyph glyph-name="exclam" unicode="!" horiz-adv-x="338" 
d="M148 223q-24 101 -44 204q-27 122 -27 167q0 40 26 64t69 24t67 -23.5t24 -64.5q0 -54 -25 -167l-45 -204h-45zM169 -14q-40 0 -68.5 27.5t-28.5 67.5q0 42 28.5 70t68.5 28q42 0 69.5 -28t27.5 -70q0 -41 -27.5 -68t-69.5 -27z" />
    <glyph glyph-name="quotedbl" unicode="&#x22;" horiz-adv-x="431" 
d="M96 359q-55 222 -55 255q0 32 20 50t52 18t53.5 -18.5t21.5 -49.5q0 -15 -14 -78.5t-28 -119.5l-15 -57h-35zM299 359q-56 222 -56 255q0 32 20.5 50t53.5 18q32 0 52.5 -18.5t20.5 -49.5q0 -15 -14 -78.5t-28 -119.5l-14 -57h-35z" />
    <glyph glyph-name="numbersign" unicode="#" horiz-adv-x="561" 
d="M279 20q6 30 28 138h-113q-7 -35 -20 -89t-16 -69h-69q19 95 32 158h-101q-4 3 -1.5 22.5t9.5 42t10 22.5h101q7 29 15 71q2 10 6.5 30t6.5 30h-94q-5 3 -2.5 22.5t9.5 42t10 22.5h97q5 22 16.5 70.5t15.5 68.5h70q-4 -21 -13.5 -69t-14.5 -70h111q28 124 37 159h70
q-3 -13 -14 -68t-19 -91h94q5 -3 3 -22.5t-8 -42t-11 -22.5h-96l-9 -42q-3 -12 -9.5 -42.5t-9.5 -46.5h89q3 -3 1 -22.5t-8 -42t-11 -22.5h-91q-5 -24 -16.5 -71t-15.5 -67h-69zM229 314q-2 -10 -4.5 -21.5t-5.5 -25.5t-5 -22h111q3 15 9.5 45t9.5 46q2 7 5 20.5t4 19.5
h-111q-9 -46 -13 -62z" />
    <glyph glyph-name="dollar" unicode="$" horiz-adv-x="555" 
d="M250 -81v87q-103 3 -168 38q-35 19 -35 68v120q0 4 30 4t32 -4l45 -130q33 -26 96 -26v182q-103 24 -154 67t-51 127q0 77 56 125t149 54v69h65v-68q84 -3 137 -28q17 -8 25.5 -21t9 -19.5t0.5 -19.5v-115q0 -6 -29.5 -5.5t-31.5 5.5l-40 113q-24 18 -71 20v-172
q111 -26 158 -70t47 -121q0 -84 -55 -133t-150 -59v-88h-65zM250 403v158q-84 -7 -84 -77q0 -33 18 -49t66 -32zM315 77q40 5 61.5 26t21.5 57q0 32 -18 51.5t-65 32.5v-167z" />
    <glyph glyph-name="percent" unicode="%" horiz-adv-x="865" 
d="M246 -47l-75 42q250 366 447 685l75 -42q-233 -335 -447 -685zM217 653q80 0 129 -44.5t49 -129.5q0 -82 -52 -134t-130 -52q-79 0 -128.5 46.5t-49.5 132.5q0 79 53 130t129 51zM263 363q23 35 23 110q0 68 -16.5 95.5t-52.5 27.5q-25 0 -44 -12q-29 -34 -29 -111
q0 -69 16.5 -97.5t52.5 -28.5q30 0 50 16zM652 342q80 0 129 -44.5t49 -129.5q0 -82 -52 -134t-130 -52q-79 0 -128.5 46.5t-49.5 132.5q0 79 53 130t129 51zM698 52q23 35 23 110q0 68 -16.5 95.5t-52.5 27.5q-25 0 -44 -12q-29 -34 -29 -111q0 -69 16.5 -97.5t52.5 -28.5
q30 0 50 16z" />
    <glyph glyph-name="ampersand" unicode="&#x26;" horiz-adv-x="695" 
d="M601 203q0 -102 -75.5 -161.5t-198.5 -59.5q-278 0 -278 194q0 81 53 130.5t126 57.5v2q-63 15 -91 55.5t-28 84.5q0 74 64.5 121t173.5 47q76 0 126.5 -24.5t63.5 -62.5q5 -40 -22 -66.5t-59 -26.5q-20 0 -29 4q-4 11 -11.5 31.5t-17.5 45.5t-14 36q-11 8 -41 8
q-74 0 -74 -109q0 -122 133 -122h54q-7 24 -15 40h91q11 -12 25 -39q70 2 99 4v-88q-28 0 -69 3q14 -48 14 -105zM214 182q0 -64 31.5 -99t93.5 -35q59 0 103 22q44 45 44 128q0 55 -13 117q-63 5 -80 5q-93 0 -136 -34.5t-43 -103.5z" />
    <glyph glyph-name="quotesingle" unicode="'" horiz-adv-x="234" 
d="M99 359q-58 225 -58 258q0 30 20.5 47.5t55.5 17.5q33 0 54.5 -18t21.5 -47q0 -15 -14.5 -79.5t-28.5 -121.5l-15 -57h-36z" />
    <glyph glyph-name="parenleft" unicode="(" horiz-adv-x="434" 
d="M363 -166q-141 74 -219 193.5t-78 257.5q0 132 78 245.5t219 191.5l36 -35q-92 -82 -126.5 -177.5t-34.5 -224.5q0 -140 33.5 -237.5t127.5 -177.5z" />
    <glyph glyph-name="parenright" unicode=")" horiz-adv-x="434" 
d="M71 -166l-36 36q94 80 127.5 177.5t33.5 237.5q0 129 -34.5 224.5t-126.5 177.5l36 35q141 -78 219 -191.5t78 -245.5q0 -138 -78 -257.5t-219 -193.5z" />
    <glyph glyph-name="asterisk" unicode="*" horiz-adv-x="512" 
d="M173 300l-85 60l112 125l-143 32l35 101l129 -76l-19 161h107l-21 -161l132 76l35 -101l-144 -32l112 -124l-84 -61l-84 149z" />
    <glyph glyph-name="plus" unicode="+" horiz-adv-x="553" 
d="M233 104v173h-172v83h172v173h87v-173h172v-83h-172v-173h-87z" />
    <glyph glyph-name="comma" unicode="," horiz-adv-x="316" 
d="M73 -181q-2 -1 -9.5 6t-13.5 16t-4 10q96 74 95 147q-37 4 -57.5 28t-20.5 57q0 41 26.5 66t66.5 25q46 0 71.5 -29t25.5 -83q0 -45 -18 -84.5t-50.5 -71.5t-55.5 -49t-56 -38z" />
    <glyph glyph-name="hyphen" unicode="-" horiz-adv-x="361" 
d="M36 214v121h289v-121h-289z" />
    <glyph glyph-name="hyphen" unicode="&#x2011;" horiz-adv-x="361" 
d="M36 214v121h289v-121h-289z" />
    <glyph glyph-name="hyphen" unicode="&#x2010;" horiz-adv-x="361" 
d="M36 214v121h289v-121h-289z" />
    <glyph glyph-name="hyphen" unicode="&#xad;" horiz-adv-x="361" 
d="M36 214v121h289v-121h-289z" />
    <glyph glyph-name="period" unicode="." horiz-adv-x="316" 
d="M158 -14q-40 0 -68.5 27.5t-28.5 67.5q0 42 28.5 70t68.5 28q42 0 69.5 -28t27.5 -70q0 -41 -27.5 -68t-69.5 -27z" />
    <glyph glyph-name="slash" unicode="/" horiz-adv-x="397" 
d="M89 -139l-107 39q157 409 294 810l106 -37q-156 -405 -293 -812z" />
    <glyph glyph-name="zero" unicode="0" horiz-adv-x="659" 
d="M329 -18q-139 0 -218 85t-79 240q0 154 81.5 250t218.5 96t216 -84.5t79 -242.5q0 -155 -80.5 -249.5t-217.5 -94.5zM263 558q-45 -74 -45 -241q0 -143 22.5 -202t90.5 -59q41 0 64 18q46 68 46 243q0 140 -24.5 199t-85.5 59q-40 0 -68 -17z" />
    <glyph glyph-name="one" unicode="1" horiz-adv-x="411" 
d="M136 359q0 78 5 193l-90 7q-5 0 -5 30.5t5 31.5q56 10 239 20q4 -22 4 -281q0 -165 -5 -280l90 -32q4 -2 4 -25t-4 -23h-328q-4 0 -4 23t4 25l90 32q-5 115 -5 279z" />
    <glyph glyph-name="two" unicode="2" horiz-adv-x="564" 
d="M344 431q0 112 -106 112q-86 0 -151 -87q-2 -2 -14 7.5t-22 22.5t-8 19q18 48 85 98t154 50q101 0 158.5 -48t57.5 -147q0 -39 -13.5 -76.5t-28.5 -60.5t-43 -50.5t-38.5 -35.5t-34.5 -26q-21 -16 -68.5 -46t-52.5 -34v-7l324 2q5 -5 5 -32.5t-5 -59.5t-12 -32
q-148 2 -251 2q-185 0 -256 -2q-6 0 -6 24t6 27q163 125 224 188q96 104 96 192z" />
    <glyph glyph-name="three" unicode="3" horiz-adv-x="519" 
d="M470 190q0 -208 -314 -208q-80 0 -124 18q-12 4 -10 51q1 29 8 27q39 -14 92 -14q83 0 124.5 30t41.5 101q0 98 -122 95q-6 0 -18 -0.5t-18 -0.5t-8 15.5t1 31t10 16.5q73 9 113 34t40 77q0 38 -24 59t-66 21q-70 0 -115 -53q-2 -2 -13.5 8t-21 22.5t-7.5 17.5
q19 39 75.5 77t143.5 38q95 0 146.5 -39t51.5 -116q0 -69 -39.5 -106.5t-100.5 -50.5v-6q72 -7 113 -44t41 -101z" />
    <glyph glyph-name="four" unicode="4" horiz-adv-x="562" 
d="M530 48q4 -2 4 -25t-4 -23h-328q-4 0 -4 23t4 25l91 32q-1 33 -3 97h-269q-8 0 -8.5 33.5t7.5 42.5l315 379q6 8 54 8.5t48 -8.5q5 -225 5 -362h87q7 0 6.5 -46.5t-6.5 -46.5h-88q0 -47 -2 -97zM117 270h173q1 122 5 217z" />
    <glyph glyph-name="five" unicode="5" horiz-adv-x="487" 
d="M142 -18q-79 0 -122 18q-12 6 -10 50q1 25 8 23q37 -14 85 -14q169 0 169 140q0 69 -49 95.5t-150 26.5q-7 0 -13.5 6.5t-5.5 12.5l37 296h355q7 -5 7 -32t-6 -59t-13 -32h-296l-13 -110q42 2 67 2q257 0 257 -193q0 -112 -82 -171t-225 -59z" />
    <glyph glyph-name="six" unicode="6" 
d="M562 196q0 -89 -71.5 -151.5t-183.5 -62.5q-266 0 -266 271q0 120 60.5 212.5t160.5 140.5t223 49q9 0 9 -35.5t-8 -37.5q-92 -13 -167.5 -67t-95.5 -136q43 13 105 13q101 0 167.5 -48t66.5 -148zM406 195q-2 60 -34 91.5t-85 31.5q-46 0 -73 -8q-11 -58 -6 -121
q6 -75 32.5 -104.5t71.5 -29.5q42 0 67 18q29 40 27 122z" />
    <glyph glyph-name="seven" unicode="7" horiz-adv-x="469" 
d="M28 513q-7 0 -7.5 30.5t5 61.5t12.5 31h427q6 0 12.5 -11.5t4.5 -16.5q-95 -190 -154 -300q-95 -178 -178 -322q-6 -11 -55 -10q-35 0 -32 10q35 99 116 282q63 142 115 245h-266z" />
    <glyph glyph-name="eight" unicode="8" horiz-adv-x="561" 
d="M531 174q-3 -86 -79 -139t-189 -53q-233 0 -233 162q0 56 31.5 91.5t91.5 65.5q-46 28 -73 66.5t-26 104.5q2 81 68.5 131t172.5 50q91 0 155.5 -38.5t66.5 -111.5q2 -99 -108 -152q63 -26 94 -69t28 -108zM407 491q-2 37 -32 60.5t-80 23.5q-55 0 -84 -19
q-15 -18 -15 -53q0 -30 14.5 -49t48.5 -36q24 -12 90 -39q61 42 58 112zM389 142q0 51 -62 81q-22 11 -44 20t-42 16.5l-28 10.5q-65 -35 -65 -117q0 -47 32 -72t93 -25q57 0 86.5 26.5t29.5 59.5z" />
    <glyph glyph-name="nine" unicode="9" horiz-adv-x="591" 
d="M34 440q0 92 71 152.5t179 60.5q130 0 200.5 -64.5t70.5 -183.5q0 -183 -121 -302.5t-327 -119.5q-6 0 -6 34.5t5 35.5q97 12 168.5 61.5t96.5 145.5q-53 -16 -105 -16q-100 0 -166 48t-66 148zM189 441q1 -59 33.5 -91t85.5 -32q42 0 73 9q11 58 6 120q-6 72 -32 100.5
t-69 28.5q-45 0 -67 -15q-32 -36 -30 -120z" />
    <glyph glyph-name="colon" unicode=":" horiz-adv-x="326" 
d="M163 296q-40 0 -68.5 27.5t-28.5 67.5q0 42 28.5 70t68.5 28q42 0 69.5 -28t27.5 -70q0 -41 -27.5 -68t-69.5 -27zM163 -14q-40 0 -68.5 27.5t-28.5 67.5q0 42 28.5 70t68.5 28q42 0 69.5 -28t27.5 -70q0 -41 -27.5 -68t-69.5 -27z" />
    <glyph glyph-name="semicolon" unicode=";" horiz-adv-x="326" 
d="M163 296q-40 0 -68.5 27.5t-28.5 67.5q0 42 28.5 70t68.5 28q42 0 69.5 -28t27.5 -70q0 -41 -27.5 -68t-69.5 -27zM76 -181l-27 32q96 74 95 147q-37 4 -57.5 28t-20.5 57q0 41 26.5 66t66.5 25q46 0 71.5 -29t25.5 -83q0 -45 -18 -84.5t-50.5 -71.5t-55.5 -49t-56 -38z
" />
    <glyph glyph-name="less" unicode="&#x3c;" horiz-adv-x="553" 
d="M482 63l-411 184v76l411 184v-95l-292 -127l292 -127v-95z" />
    <glyph glyph-name="equal" unicode="=" horiz-adv-x="553" 
d="M71 354v81h411v-81h-411zM71 202v81h411v-81h-411z" />
    <glyph glyph-name="greater" unicode="&#x3e;" horiz-adv-x="553" 
d="M71 63v95l292 127l-292 127v95l411 -184v-76z" />
    <glyph glyph-name="question" unicode="?" horiz-adv-x="512" 
d="M176 223l-2 42q-5 90 82 158q31 25 43.5 49.5t12.5 62.5q0 33 -22.5 52.5t-63.5 19.5q-54 0 -84 -25q-2 -11 7.5 -51t8.5 -43q-3 -8 -26 -25t-41 -19q-29 0 -48.5 29.5t-19.5 64.5q0 58 65.5 101t168.5 43q108 0 166 -36t59 -106q1 -66 -27.5 -106t-96.5 -83
q-14 -9 -39 -24.5t-35 -22t-25 -18t-20.5 -19.5t-10.5 -19.5t-5 -24.5h-47zM208 -14q-40 0 -68.5 27.5t-28.5 67.5q0 42 28.5 70t68.5 28q42 0 69.5 -28t27.5 -70q0 -41 -27.5 -68t-69.5 -27z" />
    <glyph glyph-name="at" unicode="@" horiz-adv-x="870" 
d="M578 218q0 -25 6 -32q39 1 87 33q39 26 59.5 75.5t20.5 107.5q0 87 -41 143q-73 100 -225 100q-116 0 -197 -58q-69 -49 -106.5 -126t-37.5 -164q0 -137 72 -209q79 -83 225 -83q106 0 183 45q51 30 80 64l28 -28q-33 -46 -86 -78q-91 -55 -215 -55q-164 0 -265 82
q-113 92 -113 265q0 180 136 295q118 100 291 100q88 0 147 -20t105 -65q78 -73 78 -212q0 -60 -23.5 -114.5t-66.5 -91.5q-80 -67 -195 -67q-22 0 -32.5 9t-10.5 31q0 41 15 86l-6 2q-33 -60 -77 -95.5t-93 -35.5q-79 0 -79 87q0 67 30 140t85 121q82 71 173 71
q27 0 42 -15q11 16 13 18q4 4 25.5 7.5t38.5 1.5q4 -1 7.5 -6t2.5 -7q-19 -33 -48 -133q-33 -113 -33 -189zM510 335q20 90 40 136q-22 16 -58 16q-30 0 -52 -11q-45 -36 -73.5 -106t-28.5 -135q0 -24 7 -37q5 -4 17 -4q29 0 67 33q35 29 81 108z" />
    <glyph glyph-name="A" unicode="A" horiz-adv-x="763" 
d="M229 214l-46 -132l82 -39q4 -1 3.5 -22t-4.5 -21h-255q-3 0 -3.5 10.5t1 21t3.5 11.5l79 39l245 586q3 6 50.5 6t49.5 -6q35 -70 134 -308q59 -145 107 -278l79 -39q4 -2 4 -22.5t-5 -20.5h-353q-3 0 -3.5 10.5t1 21t3.5 11.5l82 39q-26 57 -55 132h-199zM254 277h149
q-47 122 -73 206z" />
    <glyph glyph-name="B" unicode="B" horiz-adv-x="725" 
d="M115 578l-81 39q-4 2 -4 25t4 23h381q231 0 231 -161q0 -35 -17.5 -70t-51.5 -56l-74 -26v-5q83 -10 133 -49.5t50 -108.5q0 -91 -72.5 -140t-196.5 -49h-383q-4 0 -4 20.5t4 22.5l81 39q-5 165 -5 265q0 84 5 231zM297 595v-226q89 0 125 5q38 42 38 114q-1 59 -37 95
q-33 12 -100 12h-26zM307 71q33 -7 64 -7q62 0 91 30t29 97q0 79 -65 116q-39 5 -129 5v-231z" />
    <glyph glyph-name="C" unicode="C" horiz-adv-x="680" 
d="M600 469l-71 116q-47 18 -114 18q-83 0 -126 -29q-55 -71 -55 -236q0 -145 42.5 -213.5t149.5 -68.5q64 0 104 15l79 125q1 2 6 3t10.5 1h11.5t9.5 -1.5t3.5 -3.5l-16 -135q-2 -18 -6.5 -25t-21.5 -15q-80 -38 -208 -38q-164 0 -263 86.5t-99 242.5q0 179 103.5 275
t265.5 96q117 0 201 -38q31 -14 32 -44l5 -131q0 -7 -20 -6.5t-23 6.5z" />
    <glyph glyph-name="D" unicode="D" horiz-adv-x="817" 
d="M34 665h341q84 0 154.5 -18.5t127.5 -55.5t89 -100.5t32 -146.5q0 -87 -30 -154.5t-81.5 -108t-116 -61t-137.5 -20.5h-379q-4 0 -4 20.5t4 22.5l81 39q-5 165 -5 265q0 84 5 231l-81 39q-4 2 -4 25t4 23zM390 69q88 0 138.5 65t50.5 206q0 171 -87 236q-37 12 -104 16
q-39 1 -89 1v-507l10 -10q33 -7 81 -7z" />
    <glyph glyph-name="E" unicode="E" horiz-adv-x="651" 
d="M607 21q-1 -6 -8 -13.5t-13 -7.5h-552q-4 0 -4 20.5t4 22.5l81 39q-5 165 -5 265q0 84 5 231l-81 39q-4 2 -4 25t4 23h538q3 0 9.5 -6t6.5 -9v-152q0 -3 -10 -4.5t-21 0t-13 4.5l-52 94l-193 6v-227l156 4l40 60q2 4 21 3.5t19 -5.5v-188q0 -4 -19.5 -4t-21.5 3l-40 62
l-155 4v-229l15 -16l190 10l73 123q1 2 6 2.5t11.5 0.5t13 -1t10.5 -2.5t4 -3.5z" />
    <glyph glyph-name="F" unicode="F" horiz-adv-x="620" 
d="M34 665h538q3 0 9.5 -6t6.5 -9v-159q0 -3 -10 -4.5t-21 -0.5t-13 5l-56 101l-189 6v-232l156 4l40 60q3 5 21.5 4t18.5 -6v-192q0 -4 -19.5 -4.5t-21.5 3.5l-39 66l-156 4v-223l102 -39q4 -2 4 -22.5t-4 -20.5h-367q-4 0 -4 20.5t4 22.5l81 39q-5 165 -5 265q0 84 5 231
l-81 39q-4 2 -4 25t4 23z" />
    <glyph glyph-name="G" unicode="G" horiz-adv-x="761" 
d="M491 67l7 9v162l-72 35q-3 1 -4 12t0.5 21t3.5 10h288q4 0 4 -20t-4 -23l-49 -32q4 -54 4 -108q0 -99 -8 -133q-2 -5 -24 -5.5t-27 5.5l-24 28q-82 -46 -188 -46q-166 0 -264 87t-98 247q0 93 31.5 165t85.5 115t121 64.5t142 21.5q131 0 215 -38q31 -15 32 -44l4 -131
q0 -7 -19 -6.5t-23 6.5l-73 116q-45 18 -123 18q-92 0 -140 -29q-55 -67 -55 -236q0 -158 41 -220t141 -62q38 0 75 11z" />
    <glyph glyph-name="H" unicode="H" horiz-adv-x="844" 
d="M810 0h-335q-4 0 -4 20.5t4 22.5l70 39v226h-246v-226l71 -39q3 -2 3.5 -22.5t-3.5 -20.5h-336q-4 0 -4 20.5t4 22.5l81 39q-5 165 -5 265q0 84 5 231l-81 39q-4 2 -4 25t4 23h336q2 0 3 -11.5t0 -23.5t-3 -13l-71 -39v-205h246v205l-71 39q-3 1 -3 24.5t3 23.5h336
q4 0 4 -23t-4 -25l-80 -39q4 -118 4 -230q0 -132 -4 -266l80 -39q4 -2 4 -22.5t-4 -20.5z" />
    <glyph glyph-name="I" unicode="I" horiz-adv-x="431" 
d="M312 347q0 -100 -5 -265l82 -39q3 -2 3.5 -22.5t-3.5 -20.5h-346q-4 0 -4 20.5t4 22.5l81 39q-5 165 -5 265q0 84 5 231l-81 39q-4 1 -4 24.5t4 23.5h347q2 0 2.5 -11.5t-0.5 -23.5t-3 -13l-82 -39q5 -148 5 -231z" />
    <glyph glyph-name="J" unicode="J" horiz-adv-x="404" 
d="M295 578q9 -194 5 -361q-3 -132 -13 -184t-43 -88q-34 -38 -109 -59.5t-149 -21.5q-6 0 -9.5 14.5t1.5 17.5q81 52 121 87q14 40 14 224v371l-85 39q-4 1 -4 24.5t4 23.5h352q4 0 4 -23.5t-4 -24.5z" />
    <glyph glyph-name="K" unicode="K" horiz-adv-x="785" 
d="M370 43q3 -2 3.5 -22.5t-3.5 -20.5h-336q-4 0 -4 20.5t4 22.5l81 39q-5 165 -5 265q0 84 5 231l-81 39q-4 2 -4 25t4 23h336q2 0 3 -11.5t0 -23.5t-3 -13l-71 -39v-259l249 266l-44 32q-4 2 -4 25t4 23h244q2 0 3.5 -11.5t0.5 -23.5t-4 -13l-103 -40l-156 -147l222 -348
l83 -39q5 -2 4.5 -22t-5.5 -21h-271l-6 48l-158 256l-59 -55v-167z" />
    <glyph glyph-name="L" unicode="L" horiz-adv-x="642" 
d="M34 0q-4 0 -4 20.5t4 22.5l81 39q-5 165 -5 265q0 84 5 231l-81 39q-4 2 -4 25t4 23h359q4 0 4 -23.5t-4 -24.5l-94 -39v-497l15 -16l191 10l72 134q2 5 23.5 5t21.5 -5l-15 -188q-1 -6 -8.5 -13.5t-13.5 -7.5h-551z" />
    <glyph glyph-name="M" unicode="M" horiz-adv-x="1012" 
d="M707 536l-226 -532q-2 -6 -25.5 -6.5t-27.5 6.5q-38 78 -117 269q-52 125 -103 265l-7 -453l87 -42q3 -2 3.5 -22.5t-3.5 -20.5h-258q-4 0 -4 20.5t4 22.5l92 42l12 493l-89 39q-3 1 -4 13t0.5 23.5t3.5 11.5h291q43 -87 95 -214q60 -149 83 -219l179 433h272
q4 0 4 -23.5t-4 -24.5l-82 -39q8 -124 9 -247q1 -137 -4 -249l82 -39q3 -2 3.5 -22.5t-3.5 -20.5h-332q-4 0 -4 20.5t4 22.5l74 39q-7 96 -8 226q-1 114 3 228z" />
    <glyph glyph-name="N" unicode="N" horiz-adv-x="786" 
d="M194 495l2 -410l93 -42q4 -2 4 -22.5t-4 -20.5h-259q-4 0 -4 20.5t4 22.5l87 42l3 475l-18 18l-78 39q-4 1 -4 24.5t4 23.5h265l8 -30q86 -93 163 -184q117 -137 152 -187l-2 314l-88 39q-4 2 -4 25t4 23h249q4 0 4 -23t-4 -25l-82 -39l-5 -583q0 -3 -12.5 -3.5
t-26.5 1.5t-19 6q-67 60 -226 245q-114 133 -206 251z" />
    <glyph glyph-name="O" unicode="O" horiz-adv-x="802" 
d="M402 -18q-170 0 -268 99t-98 251q0 153 97.5 251.5t268.5 98.5q170 0 267 -98.5t97 -251.5t-97 -251.5t-267 -98.5zM291 576q-57 -76 -57 -244q0 -153 43 -214t125 -61q63 0 108 27q57 74 57 248q0 146 -39.5 208.5t-125.5 62.5q-69 0 -111 -27z" />
    <glyph glyph-name="P" unicode="P" horiz-adv-x="689" 
d="M399 43q4 -2 4 -22.5t-4 -20.5h-365q-4 0 -4 20.5t4 22.5l81 39q-5 165 -5 265q0 83 5 230l-81 39q-4 2 -4 25.5t4 23.5h387q137 0 196.5 -54t59.5 -134q0 -93 -66 -156.5t-194 -64.5q-58 -1 -118 4v-178zM299 591v-262q29 -4 60 -4q62 0 92.5 33t30.5 113q0 72 -34 105
q-26 15 -102 15h-47z" />
    <glyph glyph-name="Q" unicode="Q" horiz-adv-x="802" 
d="M740 -73q3 -4 1 -18.5t-8.5 -30t-12.5 -14.5q-90 4 -210 41q-110 34 -208 92q-126 27 -196 117t-70 218q0 153 97.5 251.5t268.5 98.5q170 0 267 -98.5t97 -251.5q0 -119 -60.5 -206t-170.5 -120q38 -23 83 -42q63 -25 122 -37zM291 576q-57 -76 -57 -244q0 -153 43 -214
t125 -61q63 0 108 27q57 74 57 248q0 146 -39.5 208.5t-125.5 62.5q-69 0 -111 -27z" />
    <glyph glyph-name="R" unicode="R" horiz-adv-x="749" 
d="M34 0q-4 0 -4 20.5t4 22.5l81 39q-5 165 -5 265q0 84 5 231l-81 39q-4 2 -4 25t4 23h388q134 0 191.5 -48.5t57.5 -122.5q0 -76 -65 -131l-69 -36l146 -245l72 -39q5 -3 4 -22.5t-6 -20.5h-245l-6 38l-137 236q-33 0 -66 3v-195l71 -39q3 -2 3.5 -22.5t-3.5 -20.5h-336z
M482 468q0 80 -35 113q-32 12 -94 12h-54v-254q22 -4 59 -4q68 0 96 34t28 99z" />
    <glyph glyph-name="S" unicode="S" horiz-adv-x="590" 
d="M222 589q-18 -18 -18 -52q0 -31 12.5 -49t48.5 -36q31 -14 84 -34t80 -31q131 -56 131 -188q0 -90 -77.5 -153.5t-211.5 -63.5q-63 0 -124.5 15.5t-87.5 37.5q-13 10 -16 16.5t-3 18.5l2 137q0 7 20.5 7t23.5 -7l74 -138q35 -13 113 -13q134 0 134 91q0 29 -14 46.5
t-48 32.5q-23 10 -84 32t-95 40q-116 59 -113 184q2 90 70.5 145t186.5 55q119 0 185 -27q17 -6 21.5 -12t5.5 -22l8 -132q0 -6 -9 -8t-19.5 0.5t-14.5 7.5l-78 108q-22 10 -89 10q-68 0 -98 -18z" />
    <glyph glyph-name="T" unicode="T" horiz-adv-x="720" 
d="M452 588q5 -150 5 -241q0 -100 -5 -265l94 -39q4 -2 4 -22.5t-4 -20.5h-372q-4 0 -4 20.5t4 22.5l95 39q-5 165 -5 265q0 91 5 241h-146l-62 -117q-2 -5 -22 -4t-20 6l6 211q0 4 16.5 4t21.5 -4l32 -25h531l32 25q5 4 21.5 4t16.5 -4l5 -211q0 -5 -19.5 -6t-21.5 4
l-62 117h-146z" />
    <glyph glyph-name="U" unicode="U" horiz-adv-x="805" 
d="M631 303q2 137 -2 274l-98 40q-3 2 -3.5 25t3.5 23h255q4 0 4 -23t-4 -25l-79 -40q7 -165 2 -284q-5 -134 -28 -184q-30 -64 -104.5 -95.5t-158.5 -31.5q-193 0 -258 84q-28 35 -42 88.5t-15 142.5q-3 134 6 280l-85 40q-3 1 -4 13t0.5 23.5t3.5 11.5h354q4 0 4 -23.5
t-4 -24.5l-84 -40q-8 -139 -6 -264q1 -118 31 -174q37 -68 134 -68q95 0 143 44q31 49 35 188z" />
    <glyph glyph-name="V" unicode="V" horiz-adv-x="763" 
d="M283 578q39 -84 79 -183q57 -142 77 -205l142 388l-80 39q-4 2 -4 25t4 23h252q4 0 4.5 -23.5t-3.5 -24.5l-83 -39l-239 -581q-3 -6 -48.5 -6t-48.5 6q-35 63 -139 304q-51 122 -106 277l-81 39q-4 2 -4 25t4 23h352q4 0 4.5 -23.5t-3.5 -24.5z" />
    <glyph glyph-name="W" unicode="W" horiz-adv-x="1082" 
d="M795 2q-3 -7 -45.5 -7t-45.5 7q-32 73 -82 211q-47 130 -70 204l-160 -415q-2 -7 -45 -7t-46 7q-31 69 -117 312q-50 140 -87 263l-88 40q-4 1 -3.5 24.5t4.5 23.5h339q4 0 3 -23t-4 -25l-66 -39q28 -69 63 -172q42 -127 61 -191l108 295l-20 68l-78 39q-4 2 -3.5 25
t4.5 23h323q4 0 3.5 -23t-3.5 -25l-70 -35q31 -73 64 -167q37 -104 65 -195l106 358l-91 39q-4 2 -4 25t4 23h260q4 0 3.5 -23t-3.5 -25l-80 -39z" />
    <glyph glyph-name="X" unicode="X" horiz-adv-x="785" 
d="M286 43q3 -2 3.5 -22.5t-3.5 -20.5h-276q-4 0 -4 20.5t4 22.5l92 39l199 242q-94 134 -166 254l-94 39q-5 2 -5 25t5 23h362q4 0 4.5 -23.5t-2.5 -24.5l-61 -39q45 -59 106 -145l97 148l-67 36q-4 2 -3.5 25t4.5 23h271q4 0 4.5 -23.5t-3.5 -24.5l-99 -39l-164 -202
q112 -158 195 -294l89 -39q2 -1 3.5 -11.5t1 -21t-3.5 -10.5h-366q-4 0 -4 20.5t3 22.5l65 38q-48 62 -132 185l-130 -187z" />
    <glyph glyph-name="Y" unicode="Y" horiz-adv-x="733" 
d="M272 266q-9 16 -42.5 70.5t-52.5 86.5q-53 90 -86 154l-79 40q-4 2 -3.5 25t4.5 23h341q4 0 3.5 -23t-3.5 -25l-65 -36q19 -30 69 -116q30 -52 67 -121l130 237l-75 36q-4 1 -3.5 24.5t4.5 23.5h243q4 0 4.5 -23t-3.5 -25l-79 -40l-187 -309q0 -103 -4 -186l103 -39
q3 -2 3.5 -22.5t-3.5 -20.5h-392q-4 0 -4 20.5t4 22.5l110 39q-4 76 -4 184z" />
    <glyph glyph-name="Z" unicode="Z" horiz-adv-x="683" 
d="M234 337q72 102 194 260l-244 -5l-71 -118q-3 -6 -14.5 -7.5t-21.5 0.5t-10 7l19 172q1 6 11 12.5t21 6.5h515q8 0 11 -16.5t-1 -20.5q-42 -70 -199 -292q-94 -134 -199 -269l280 8l79 139q2 4 13.5 5.5t21.5 0t10 -5.5l-18 -193q0 -4 -9.5 -12.5t-18.5 -8.5h-567
q-7 0 -7.5 17t3.5 22q42 69 202 298z" />
    <glyph glyph-name="bracketleft" unicode="[" horiz-adv-x="424" 
d="M394 -96v-47l-303 -3q-7 210 -7 446q0 171 9 396l301 -3v-47l-145 -11q3 -84 3 -338q0 -286 -3 -382z" />
    <glyph glyph-name="backslash" unicode="\" horiz-adv-x="397" 
d="M308 -139q-137 407 -293 812l106 37q137 -401 294 -810z" />
    <glyph glyph-name="bracketright" unicode="]" horiz-adv-x="424" 
d="M333 -146l-303 3v47l145 11q-3 96 -3 382q0 254 3 338l-145 11v47l301 3q9 -225 9 -396q0 -236 -7 -446z" />
    <glyph glyph-name="asciicircum" unicode="^" horiz-adv-x="600" 
d="M350 665l165 -248h-59l-156 123l-157 -123h-58l166 248h99z" />
    <glyph glyph-name="underscore" unicode="_" horiz-adv-x="500" 
d="M0 -237v99h500v-99h-500z" />
    <glyph glyph-name="grave" unicode="`" horiz-adv-x="500" 
d="M309 581l-228 133l110 116l154 -213q4 -5 -13.5 -22t-22.5 -14z" />
    <glyph glyph-name="a" unicode="a" horiz-adv-x="579" 
d="M413 -12q-27 3 -48.5 21.5t-32.5 46.5q-87 -71 -154 -71q-63 0 -100 35.5t-39 92.5q-2 46 18 84t55 57q53 22 213 35v26q0 72 -15 90t-63 18q-78 0 -163 -31q-1 0 -3.5 4t-5 10.5t-4.5 14t-2.5 13t1.5 7.5q33 28 93 54t122 26q88 0 144.5 -40.5t59.5 -129.5
q3 -92 -2 -247l10 -15l68 -11q4 0 4.5 -20t-2.5 -22q-14 -12 -72 -30t-82 -18zM197 137q3 -64 56 -64q40 0 74 30q-2 78 -2 135q-51 -7 -100 -26q-29 -27 -28 -75z" />
    <glyph glyph-name="b" unicode="b" horiz-adv-x="629" 
d="M137 -10q-4 -2 -30 -2t-27 4q-5 62 -5 347q0 30 4 282l-77 41q-4 2 -4 25.5t5 24.5q141 22 223 22q2 -7 3.5 -15.5t3 -20t2 -21t1 -27t1 -30t0.5 -37v-40.5v-49v-54q110 77 167 77q88 0 138 -59.5t50 -178.5q0 -138 -71.5 -214t-190.5 -76q-96 0 -164 31q-14 -24 -29 -30
zM230 105q12 -23 37 -34.5t53 -11.5q48 0 80 25q28 49 28 170q0 88 -22 122.5t-75 34.5q-44 0 -94 -22q0 -183 -7 -284z" />
    <glyph glyph-name="c" unicode="c" horiz-adv-x="517" 
d="M397 338l-45 97q-18 8 -46 8q-42 0 -67 -17q-34 -47 -34 -167q0 -111 29.5 -148.5t108.5 -37.5q73 0 139 51q2 1 8.5 -7t11 -19t2.5 -16q-28 -45 -87.5 -72.5t-114.5 -27.5q-125 0 -199 63.5t-74 195.5t81.5 206t207.5 74q71 0 122 -27t63 -68q5 -41 -17.5 -67t-56.5 -26
q-22 0 -32 5z" />
    <glyph glyph-name="d" unicode="d" horiz-adv-x="640" 
d="M628 36q-15 -12 -73 -30t-82 -18q-26 2 -47.5 20.5t-32.5 47.5q-73 -66 -141 -66q-97 0 -157.5 56t-60.5 184q0 136 75.5 210.5t188.5 74.5q57 0 90 -17q0 65 4 123l-77 41q-4 2 -4 25.5t5 24.5q25 5 99 13.5t121 8.5q12 -41 12 -291q0 -193 -7 -339l11 -15l74 -11
q4 0 4.5 -20t-2.5 -22zM197 245q1 -101 24.5 -132t86.5 -31q44 0 80 18q-1 20 -1 312q-25 28 -75 28q-48 0 -83 -25q-34 -58 -32 -170z" />
    <glyph glyph-name="e" unicode="e" horiz-adv-x="552" 
d="M303 -18q-124 0 -199 63.5t-75 198.5q0 127 80.5 202t195.5 75q106 0 166 -69t54 -163q-1 -11 -14 -26t-20 -15l-291 1q0 -100 34 -138t114 -38q81 0 151 51q2 2 8.5 -6.5t11 -19.5t2.5 -16q-28 -43 -92.5 -71.5t-125.5 -28.5zM238 429q-29 -34 -36 -122l170 6
q0 68 -16.5 99t-60.5 31q-33 0 -57 -14z" />
    <glyph glyph-name="f" unicode="f" horiz-adv-x="405" 
d="M253 82l95 -39q5 -2 5 -22.5t-5 -20.5h-317q-4 0 -4 20.5t4 22.5l68 39q-5 78 -5 185q0 42 1 91.5t1 54.5h-61q-4 0 -4 29t4 31l61 31q9 128 72 190q56 56 150 56q66 0 102.5 -21t38.5 -55q4 -49 -35 -77q-25 -2 -38 5q-9 10 -38 43t-41 44q-21 -1 -35.5 -26.5
t-14.5 -76.5v-91l139 3q5 0 5 -45t-5 -45l-139 5q0 -243 -4 -331z" />
    <glyph glyph-name="g" unicode="g" horiz-adv-x="542" 
d="M251 -225q-234 0 -234 130q0 31 25 52t84 49q-64 26 -64 76q0 49 106 99q-123 39 -128 154q-5 87 54.5 135t152.5 48q63 0 113 -21h165q2 0 4 -16.5t1 -34t-4 -17.5l-85 -9q22 -25 25 -76q2 -41 -14 -74t-45 -52.5t-61 -31t-67 -15.5q-25 -3 -47 -1q-9 -1 -23 -8t-17 -15
q0 -20 26.5 -26.5t121.5 -15.5q103 -9 144.5 -37.5t40.5 -95.5q-1 -81 -82 -139t-192 -58zM329 346q-2 56 -22.5 79.5t-58.5 21.5q-29 -1 -50 -14q-24 -34 -22 -93q2 -55 23 -81t58 -24q34 2 55 18q20 34 17 93zM173 -9q-18 -11 -35.5 -30.5t-17.5 -32.5q0 -41 51.5 -63
t123.5 -22q59 0 90 19q26 26 26 56q0 28 -21 39t-88 18q-92 8 -129 16z" />
    <glyph glyph-name="h" unicode="h" horiz-adv-x="667" 
d="M303 43q3 -2 3 -22.5t-3 -20.5h-271q-4 0 -4 20.5t4 22.5l61 39q-5 178 -5 283q0 106 5 256l-76 41q-3 2 -3 26t4 25q131 21 222 21q11 -37 11 -158v-141q109 78 175 78q151 0 156 -174q3 -98 -10 -257l67 -39q3 -2 3.5 -22.5t-3.5 -20.5h-279q-4 0 -3.5 20.5t3.5 22.5
l53 39q5 97 5 197q0 78 -10.5 102t-54.5 24q-49 0 -102 -20q-2 -222 -4 -303z" />
    <glyph glyph-name="i" unicode="i" horiz-adv-x="337" 
d="M161 555q-41 0 -70 29t-29 70q0 40 29 69.5t70 29.5t70 -29t29 -70t-29 -70t-70 -29zM25 498q85 10 226 10q4 -27 4 -222q0 -122 -4 -204l59 -39q3 -2 3 -22.5t-3 -20.5h-271q-4 0 -4 20.5t4 22.5l61 39q-4 80 -4 163q0 75 2 151l-74 47q-3 2 -3 28t4 27z" />
    <glyph glyph-name="j" unicode="j" horiz-adv-x="333" 
d="M157 555q-41 0 -70 29.5t-29 69.5q0 41 29 70t70 29t70.5 -29t29.5 -70t-29.5 -70t-70.5 -29zM247 508q7 -56 7 -244q0 -183 -4 -271q-3 -58 -26.5 -99.5t-65 -65.5t-82.5 -36.5t-95 -19.5q-5 -1 -11 21.5t-2 25.5l104 78q23 44 23 163v336l-74 47q-3 2 -3 28t4 27
q100 10 225 10z" />
    <glyph glyph-name="k" unicode="k" horiz-adv-x="657" 
d="M303 43q3 -2 3 -22.5t-3 -20.5h-271q-4 0 -4 20.5t4 22.5l61 39q-5 178 -5 283q0 106 5 256l-76 41q-3 2 -3 26t4 25q147 21 222 21q11 -37 11 -158q0 -229 -1 -307l151 151l-37 30q-5 5 -5 29t6 24h248q6 0 5.5 -26.5t-5.5 -28.5l-127 -45l-68 -58q36 -64 77 -128
q47 -75 88 -134l73 -40q4 -2 4 -22.5t-4 -20.5h-202q-29 34 -96 151q-15 25 -57 100l-51 -50q-1 -69 -3 -119z" />
    <glyph glyph-name="l" unicode="l" horiz-adv-x="341" 
d="M255 372q-2 -212 -4 -290l61 -39q3 -2 3 -22.5t-3 -20.5h-276q-4 0 -4 20.5t4 22.5l61 39q-5 178 -5 283q0 106 5 256l-76 41q-3 2 -3 26t4 25q168 21 222 21q4 -16 6.5 -44.5t3.5 -73.5t1.5 -76.5t0 -90t-0.5 -77.5z" />
    <glyph glyph-name="m" unicode="m" horiz-adv-x="985" 
d="M307 43q3 -2 3 -22.5t-3 -20.5h-270q-4 0 -4 20.5t4 22.5l61 39q-4 80 -4 156q0 80 4 158l-76 47q-4 2 -3.5 28t4.5 27q85 10 221 10q7 -23 10 -67q104 72 165 72q105 0 140 -84q120 84 184 84q152 0 157 -174q3 -98 -10 -257l67 -39q3 -2 3.5 -22.5t-3.5 -20.5h-277
q-4 0 -3.5 20.5t3.5 22.5l51 39q4 116 4 197q0 79 -10 102.5t-55 23.5q-46 0 -100 -19q3 -14 5 -47q3 -98 -10 -257l62 -39q3 -2 3.5 -22.5t-3.5 -20.5h-267q-3 0 -3 20t3 23l50 39q5 97 5 197q0 78 -10.5 102t-54.5 24q-42 0 -95 -16q1 -20 1 -68q0 -139 -4 -239z" />
    <glyph glyph-name="n" unicode="n" horiz-adv-x="671" 
d="M307 43q3 -2 3 -22.5t-3 -20.5h-270q-4 0 -4 20.5t4 22.5l61 39q-4 80 -4 156q0 80 4 158l-76 47q-4 2 -3.5 28t4.5 27q85 10 221 10q7 -25 10 -73q110 78 175 78q152 0 157 -174q3 -98 -10 -257l67 -39q3 -2 3.5 -22.5t-3.5 -20.5h-280q-4 0 -3.5 20.5t3.5 22.5l54 39
q5 97 5 197q0 78 -10.5 102t-54.5 24q-47 0 -101 -19v-66q0 -138 -4 -238z" />
    <glyph glyph-name="o" unicode="o" horiz-adv-x="624" 
d="M310 521q125 0 205 -70.5t80 -190.5q0 -123 -80 -200.5t-201 -77.5q-129 0 -207 70.5t-78 196.5q0 121 79 196.5t202 75.5zM389 75q32 60 30 181q-2 102 -30 144.5t-81 42.5q-41 0 -69 -17q-37 -49 -34 -174q1 -106 27.5 -151.5t83.5 -45.5q46 0 73 20z" />
    <glyph glyph-name="p" unicode="p" horiz-adv-x="633" 
d="M328 -170q4 -2 4 -22.5t-4 -20.5h-301q-4 0 -4 20.5t4 22.5l61 39q-4 138 -4 280q0 121 4 247l-75 47q-4 2 -4 28t4 27q110 10 221 10q7 -26 10 -73q114 78 169 78q86 0 136 -59t50 -174q0 -145 -68 -217t-193 -72q-48 0 -94 19q0 -99 -2 -141zM245 350v-244
q25 -45 85 -45q48 0 78 23q28 53 28 170q0 86 -23 119t-74 33q-38 0 -94 -21v-35z" />
    <glyph glyph-name="q" unicode="q" horiz-adv-x="633" 
d="M624 -170q4 -2 4 -22.5t-4 -20.5h-305q-4 0 -4 20.5t4 22.5l86 39q-4 93 -5 185q-75 -64 -149 -64q-97 0 -157 57t-60 188q0 133 74.5 205.5t187.5 72.5q98 0 157 -31q9 13 29 29q4 4 41 3.5t37 -4.5q-5 -90 -5 -144v-221q0 -192 -5 -276zM197 251q1 -105 24.5 -137.5
t87.5 -32.5q45 0 91 23v50q0 148 6 241q-37 43 -96 43q-44 0 -80 -24q-35 -57 -33 -163z" />
    <glyph glyph-name="r" unicode="r" horiz-adv-x="489" 
d="M341 43q3 -1 3 -22t-3 -21h-304q-4 0 -4 20.5t4 22.5l61 39q-4 80 -4 161q0 75 4 153l-76 47q-4 2 -3.5 28t4.5 27q85 10 221 10q8 -27 11 -95q68 68 105 88q26 14 48 16q42 3 55.5 -16t11.5 -61q-5 -68 -23 -88q-18 -9 -28 -2q-59 31 -94 36q-48 -3 -74 -20v-46
q0 -138 -4 -238z" />
    <glyph glyph-name="s" unicode="s" horiz-adv-x="519" 
d="M242 -18q-54 0 -103 11.5t-68 24.5q-21 14 -25 37q-6 49 -1 115q1 5 22 5t26 -5l71 -105q46 -11 87 -11q97 0 97 60q0 26 -21 42t-83 29q-98 20 -144 62t-46 114q0 73 59.5 116.5t161.5 43.5q94 0 141 -18q16 -8 22.5 -15t9.5 -22q9 -58 8 -111q0 -6 -24 -5.5t-27 5.5
l-60 84q-34 8 -71 8q-52 0 -75 -13q-12 -15 -12 -37q0 -28 20.5 -43.5t86.5 -29.5q99 -22 142 -61t43 -106q0 -78 -66.5 -126.5t-170.5 -48.5z" />
    <glyph glyph-name="t" unicode="t" horiz-adv-x="421" 
d="M263 -15q-94 0 -133 38t-43 132q-3 126 5 257h-70q-2 0 -3 15t0 30t3 16l66 26l88 134q4 6 43.5 6t39.5 -6q-4 -66 -4 -138l135 3q4 0 4 -45.5t-4 -45.5l-136 5q-5 -138 -5 -222q0 -75 16 -95t69 -20q36 0 80 14q3 1 8.5 -18.5t3.5 -21.5q-22 -22 -68.5 -43t-94.5 -21z
" />
    <glyph glyph-name="u" unicode="u" horiz-adv-x="671" 
d="M653 37q-16 -13 -70 -31t-81 -18q-29 0 -51 21t-31 53q-106 -74 -173 -74q-75 0 -118 38t-50 129q-7 88 5 239l-67 39q-3 2 -3.5 28.5t3.5 27.5q23 4 114 12q43 4 100 6q4 -20 2 -144q-1 -71 0 -143q1 -37 1.5 -52t4 -35t10 -26.5t18 -12t30.5 -5.5q48 0 117 20
q-3 38 -3 126q0 71 7 160l-67 36q-4 2 -4 28.5t4 27.5q15 4 110 14l105 8q5 -19 5 -184q0 -52 -3 -133t-3 -89l10 -14l76 -11q4 -1 4.5 -20.5t-2.5 -20.5z" />
    <glyph glyph-name="v" unicode="v" horiz-adv-x="603" 
d="M350 3q-4 -8 -48 -8.5t-48 8.5q-38 65 -100 207q-52 119 -79 197l-64 41q-6 4 -6.5 29.5t6.5 25.5h289q4 0 3.5 -26.5t-3.5 -28.5l-57 -33q3 -7 22 -50t30 -71q24 -54 53 -130l99 247l-59 37q-4 3 -4 29t5 26h205q4 0 4 -26t-4 -29l-65 -41z" />
    <glyph glyph-name="w" unicode="w" horiz-adv-x="865" 
d="M629 3q-3 -7 -39.5 -7t-40.5 7q-20 36 -63 142q-38 94 -59 149l-122 -291q-3 -7 -39.5 -7t-40.5 7q-41 90 -89 219q-43 116 -61 185l-65 41q-5 3 -5.5 29t5.5 26h264q5 0 5 -25.5t-5 -29.5l-44 -36q19 -43 44 -111q21 -59 41 -125l83 201l-13 35l-49 36q-6 5 -6.5 30
t6.5 25h253q4 0 3.5 -26.5t-3.5 -28.5l-50 -36q20 -41 46 -111q28 -78 44 -126l81 236l-57 37q-3 2 -4 15.5t0.5 26.5t3.5 13h203q4 0 3.5 -26.5t-3.5 -28.5l-64 -41z" />
    <glyph glyph-name="x" unicode="x" horiz-adv-x="612" 
d="M244 43q5 -4 4.5 -23.5t-5.5 -19.5h-218q-6 0 -6 20.5t5 22.5l81 39l133 147q-67 87 -127 178l-81 41q-8 4 -8 29.5t8 25.5h286q6 0 5 -26t-5 -29l-45 -32q10 -12 38 -45t35 -42l67 86l-39 33q-6 5 -6 30t6 25h213q6 0 6 -26.5t-6 -28.5l-87 -41l-118 -124
q30 -40 140 -201l75 -39q7 -4 7 -23.5t-8 -19.5h-280q-6 0 -6 19.5t5 23.5l45 35q-42 50 -84 104l-78 -105z" />
    <glyph glyph-name="y" unicode="y" horiz-adv-x="597" 
d="M175 -107q58 24 85 95q-46 89 -95 199q-41 91 -89 220l-65 41q-6 4 -6 29.5t7 25.5h288q4 0 4 -26.5t-4 -28.5l-59 -36q19 -36 52 -117q13 -32 52 -136l98 253l-60 36q-4 2 -4 28.5t5 26.5h204q5 0 5.5 -26t-4.5 -29l-65 -41l-212 -482q-32 -73 -95.5 -115t-139.5 -34
q-14 4 -26 35.5t-12 55.5q0 6 9.5 16.5t17.5 10.5z" />
    <glyph glyph-name="z" unicode="z" horiz-adv-x="582" 
d="M507 198q4 6 16.5 7t23.5 -1.5t11 -5.5q0 -13 -18 -99q-20 -92 -43 -99h-450q-8 0 -8.5 19t4.5 26q30 45 158 207q76 93 153 178h-49q-87 0 -122 -10l-74 -97q-3 -3 -9.5 -5t-14.5 -2t-15.5 0.5t-12.5 2.5t-5 4q0 9 17 83q7 30 11.5 45t13.5 32t20 20h416q10 0 12.5 -19
t-2.5 -24q-39 -65 -149 -198q-23 -27 -58.5 -69t-60.5 -71.5t-45 -51.5h72q88 0 127 14z" />
    <glyph glyph-name="braceleft" unicode="{" horiz-adv-x="468" 
d="M165 276q164 -39 164 -176v-78q0 -30 2.5 -46t12.5 -35t34 -27t64 -8v-52h-57q-105 0 -159.5 43t-54.5 126v86q0 64 -23.5 96.5t-97.5 40.5v59q74 7 97.5 39.5t23.5 97.5v85q0 82 54.5 125.5t159.5 43.5h57v-52q-40 0 -64 -8.5t-34 -27.5t-12.5 -34.5t-2.5 -45.5v-77
q0 -139 -164 -175z" />
    <glyph glyph-name="bar" unicode="|" horiz-adv-x="357" 
d="M120 -236v1000h117v-1000h-117z" />
    <glyph glyph-name="braceright" unicode="}" horiz-adv-x="468" 
d="M303 276q-164 36 -164 175v77q0 30 -2.5 45.5t-12.5 34.5t-34 27.5t-64 8.5v52h57q105 0 159.5 -43.5t54.5 -125.5v-85q0 -65 23.5 -97.5t97.5 -39.5v-59q-74 -8 -97.5 -40.5t-23.5 -96.5v-86q0 -83 -54.5 -126t-159.5 -43h-57v52q40 0 64 8t34 27t12.5 35t2.5 46v78
q0 137 164 176z" />
    <glyph glyph-name="asciitilde" unicode="~" horiz-adv-x="600" 
d="M122 274l-40 35q83 134 154 134q30 0 84 -22q58 -23 75 -23q42 0 82 49l41 -32q-69 -131 -144 -131q-32 0 -97 29q-37 15 -64 15q-46 0 -91 -54z" />
    <glyph glyph-name="exclamdown" unicode="&#xa1;" horiz-adv-x="338" 
d="M169 682q40 0 68.5 -27.5t28.5 -67.5q0 -42 -28.5 -70t-68.5 -28q-42 0 -69.5 28t-27.5 70q0 41 27.5 68t69.5 27zM190 445q24 -101 44 -204q27 -122 27 -167q0 -40 -26 -64t-69 -24t-67 23.5t-24 64.5q0 54 25 167l45 204h45z" />
    <glyph glyph-name="cent" unicode="&#xa2;" horiz-adv-x="519" 
d="M493 149q-22 -35 -64 -59t-88 -32v-89h-62v86q-110 5 -174 65t-64 180q0 115 66 184t172 80v77h62v-76q60 -4 104.5 -29t55.5 -60q5 -39 -15 -63.5t-50 -24.5q-23 0 -31 4l-37 92q-5 2 -27 6v-349q70 2 131 48q2 1 8 -6.5t10.5 -18t2.5 -15.5zM204 317q0 -80 17.5 -119
t57.5 -50v343q-28 -4 -43 -13q-32 -44 -32 -161z" />
    <glyph glyph-name="sterling" unicode="&#xa3;" horiz-adv-x="581" 
d="M448 -14q-61 0 -180 37q-107 33 -113 34q-1 -1 -8.5 -9t-12 -12.5l-12.5 -12.5t-14.5 -13t-14.5 -10.5t-15.5 -8t-14.5 -2.5q-54 0 -50 51q2 35 43.5 66.5t96.5 30.5q5 12 7.5 29t3 36t0.5 42.5v49.5h-92l8 70h89q9 139 80.5 214t173.5 75q63 0 103 -22.5t47 -61.5
q1 -34 -16.5 -61.5t-39.5 -34.5q-13 -2 -25 0q-2 2 -14.5 26.5t-27.5 54.5t-22 40q-41 0 -64.5 -53t-33.5 -177h135l-7 -70h-137q-8 -40 -27 -72.5t-35.5 -49t-45.5 -41.5q72 -9 106 -12q80 -7 139 -3l57 89q1 2 6 3t11.5 1.5t13 0t10.5 -1.5t4 -2l-15 -135q-9 -85 -97 -85z
" />
    <glyph glyph-name="currency" unicode="&#xa4;" horiz-adv-x="500" 
d="M409 127l-55 56q-46 -32 -104 -32q-57 0 -103 32l-55 -56l-46 46l55 55q-32 46 -32 104t32 104l-55 55l46 46l55 -56q46 32 103 32q58 0 104 -32l55 56l46 -46l-55 -55q32 -48 32 -105t-32 -103l55 -55zM354 332q0 44 -30 75t-74 31q-43 0 -73 -31t-30 -75t30 -75t73 -31
t73.5 31t30.5 75z" />
    <glyph glyph-name="yen" unicode="&#xa5;" horiz-adv-x="661" 
d="M57 212v60h194q-11 17 -45 74h-149v60h115l-1 2q-32 58 -79 147l-77 30q-4 1 -3.5 26t4.5 25h299q4 0 4.5 -25t-3.5 -26l-59 -25q23 -38 60 -106q40 -73 58 -110l111 216l-52 25q-3 1 -3 26t4 25h211q4 0 4.5 -25t-3.5 -26l-83 -30l-84 -149h117v-60h-151l-42 -74h193
v-60h-194q0 -75 -3 -132l96 -32q4 -2 4 -25t-4 -23h-338q-4 0 -4 23t4 25l96 32q-3 54 -3 132h-194z" />
    <glyph glyph-name="brokenbar" unicode="&#xa6;" horiz-adv-x="357" 
d="M120 309v455h117v-455h-117zM120 -236v455h117v-455h-117z" />
    <glyph glyph-name="section" unicode="&#xa7;" horiz-adv-x="526" 
d="M232 -93q-70 0 -114 23.5t-44 74.5q0 35 23.5 56.5t63.5 21.5l39 -121q14 -12 42 -12q24 0 39.5 15t15.5 41q0 25 -12 53t-21 41.5t-40 51t-36 44.5q-32 40 -50 66t-35.5 72t-17.5 92q0 117 92 197q69 59 162 59q63 0 102 -24.5t39 -67.5q0 -33 -23.5 -54t-64.5 -21
l-48 116q-9 7 -31 7q-27 0 -40.5 -17t-13.5 -44q0 -70 79 -165q32 -40 47 -60t38 -56.5t32.5 -70t9.5 -69.5q0 -99 -56 -166q-69 -83 -177 -83zM353 -7q43 52 43 119q0 36 -14.5 72.5t-29 57.5t-42.5 56q-72 90 -95 131.5t-23 91.5q0 35 9 66q-45 -54 -45 -124
q0 -53 28 -103t88 -123q89 -105 89 -184q0 -35 -8 -60z" />
    <glyph glyph-name="dieresis" unicode="&#xa8;" horiz-adv-x="500" 
d="M366 745q34 0 57.5 -22.5t23.5 -55.5t-22 -56.5t-57 -23.5t-59 23t-24 54q0 35 24 58t57 23zM133 745q34 0 58 -22.5t24 -55.5t-23.5 -56.5t-57.5 -23.5q-36 0 -58.5 23t-22.5 54q0 34 24 57.5t56 23.5z" />
    <glyph glyph-name="copyright" unicode="&#xa9;" horiz-adv-x="822" 
d="M408 -9q-139 0 -237.5 93t-98.5 253q0 157 99 252t241 95q140 0 239 -94.5t99 -253.5q0 -154 -97.5 -249.5t-244.5 -95.5zM411 57q116 0 192 75.5t76 204.5t-78 205.5t-189 76.5q-114 0 -191.5 -76t-77.5 -206q0 -133 76.5 -206.5t191.5 -73.5zM529 403l-33 72
q-26 11 -64 11q-42 0 -76 -16q-34 -54 -34 -134q0 -159 119 -159q28 0 50 5l45 77q3 5 29 2q8 -1 8 -3l-9 -86q-1 -17 -18 -25q-48 -23 -116 -23q-93 0 -150.5 54.5t-57.5 150.5q0 93 59 153.5t153 60.5q60 0 112 -24q19 -8 20 -27l3 -89q0 -5 -19 -5t-21 5z" />
    <glyph glyph-name="ordfeminine" unicode="&#xaa;" horiz-adv-x="414" 
d="M284 323q-34 3 -49 39q-51 -41 -97 -41q-39 0 -61.5 22t-24.5 57q-3 62 45 87q35 16 132 22v16q0 45 -9 56t-39 11q-50 0 -101 -19q-1 0 -4.5 6.5t-5 13.5t0.5 10q21 18 58 34t75 16q55 0 90 -25t37 -80q2 -69 -2 -154l7 -9l42 -7q2 0 2.5 -12t-1.5 -14q-9 -7 -44.5 -18
t-50.5 -11zM150 415q1 -40 34 -40q24 0 46 18q-1 25 -1 85q-33 -6 -62 -17q-18 -16 -17 -46zM49 211v69h317v-69h-317z" />
    <glyph glyph-name="guillemotleft" unicode="&#xab;" horiz-adv-x="588" 
d="M288 31q-121 80 -247 190v59q120 104 247 190l34 -38l-161 -182l161 -181zM518 31q-121 80 -247 190v59q120 104 247 190l34 -38l-161 -182l161 -181z" />
    <glyph glyph-name="logicalnot" unicode="&#xac;" horiz-adv-x="553" 
d="M482 124h-87v173h-334v83h421v-256z" />
    <glyph glyph-name="registered" unicode="&#xae;" horiz-adv-x="532" 
d="M264 233q-90 0 -156.5 63.5t-66.5 161.5q0 95 66 160t159 65q91 0 158 -65t67 -161q0 -93 -65 -158.5t-162 -65.5zM266 284q73 0 122.5 50.5t49.5 123.5q0 75 -51.5 125t-120.5 50q-71 0 -122 -50t-51 -125q0 -77 50.5 -125.5t122.5 -48.5zM162 349q-2 0 -2 11t2 12
l25 11q-2 46 -2 81q0 30 2 74l-25 11q-2 1 -2 13.5t2 12.5h119q84 0 84 -57q0 -31 -25 -50l-20 -10l47 -79l22 -7q1 -1 1 -12t-1 -11h-79l-2 18l-41 72h-23v-56l24 -11q2 -1 2 -12t-2 -11h-106zM302 509q0 18 -12 28q-9 4 -32 4h-14v-73h17q23 0 32 10t9 31z" />
    <glyph glyph-name="macron" unicode="&#xaf;" horiz-adv-x="500" 
d="M84 621q-7 0 -7 53.5t7 53.5h332q7 0 6.5 -53.5t-6.5 -53.5h-332z" />
    <glyph glyph-name="degree" unicode="&#xb0;" horiz-adv-x="329" 
d="M164 400q-52 0 -89 37t-37 90t37.5 89.5t89.5 36.5t89 -37t37 -89t-37 -89.5t-90 -37.5zM165 470q23 0 39.5 17t16.5 40t-16.5 39.5t-39.5 16.5t-40 -16.5t-17 -39.5q0 -24 17 -40.5t40 -16.5z" />
    <glyph glyph-name="plusminus" unicode="&#xb1;" horiz-adv-x="553" 
d="M233 134v173h-172v83h172v173h87v-173h172v-83h-172v-173h-87zM61 87h431v-87h-431v87z" />
    <glyph glyph-name="acute" unicode="&#xb4;" horiz-adv-x="500" 
d="M218 581q-5 -3 -22.5 14t-13.5 22l154 213l110 -116z" />
    <glyph glyph-name="paragraph" unicode="&#xb6;" horiz-adv-x="658" 
d="M322 -22l-34 -20q-44 53 -54 168q-7 80 -3 129q-82 6 -137 56t-55 137q0 106 84.5 161.5t252.5 55.5h221q5 0 5.5 -28.5t-4.5 -29.5l-79 -9q4 -109 4 -294q0 -70 -5 -222l98 -39q4 -2 4 -22.5t-4 -20.5h-292q4 -19 -2 -22zM307 129q3 -48 8 -84l86 37q-1 78 -1 224
q0 169 5 287l-77 -6q-24 -81 -24 -260q0 -145 3 -198z" />
    <glyph glyph-name="periodcentered" unicode="&#xb7;" horiz-adv-x="316" 
d="M158 196q-40 0 -68.5 27.5t-28.5 67.5q0 42 28.5 70t68.5 28q42 0 69.5 -28t27.5 -70q0 -41 -27.5 -68t-69.5 -27z" />
    <glyph glyph-name="cedilla" unicode="&#xb8;" horiz-adv-x="500" 
d="M391 -170q0 -47 -50.5 -81.5t-115.5 -34.5q-45 0 -80 12.5t-48 28.5q-4 2 7.5 23t15.5 19q43 -23 108 -23q30 0 50.5 7.5t20.5 18.5q0 7 -11 11.5t-34.5 10.5t-39.5 13q-41 17 -55.5 35t-11.5 46q6 48 108 87h43q-48 -30 -53 -39q-2 -4 -2 -8q0 -8 10 -14t34 -14.5
t30 -11.5q41 -18 57.5 -36.5t16.5 -49.5z" />
    <glyph glyph-name="ordmasculine" unicode="&#xba;" horiz-adv-x="406" 
d="M202 653q77 0 126.5 -43.5t49.5 -118.5q0 -76 -49.5 -124t-124.5 -48q-80 0 -128 43.5t-48 121.5q0 75 49 122t125 47zM251 376q20 37 18 113q-3 116 -68 116q-27 0 -43 -11q-24 -31 -21 -108q1 -65 17 -93.5t51 -28.5q28 0 46 12zM50 211v69h307v-69h-307z" />
    <glyph glyph-name="guillemotright" unicode="&#xbb;" horiz-adv-x="588" 
d="M300 31l-34 38l161 181l-161 182l34 38q127 -86 247 -190v-59q-126 -110 -247 -190zM70 31l-34 38l161 181l-161 182l34 38q127 -86 247 -190v-59q-126 -110 -247 -190z" />
    <glyph glyph-name="onequarter" unicode="&#xbc;" horiz-adv-x="782" 
d="M201 -50l-68 43q268 378 466 688l67 -43q-172 -236 -465 -688zM109 494q0 26 3 101l-69 2q-2 0 -3 10t0 20.5t3 10.5q87 15 175 18q2 -14 2 -152q0 -66 -3 -141l69 -17q2 -1 2 -18.5t-2 -17.5h-243q-3 0 -3 17.5t3 18.5l69 17q-3 75 -3 131zM747 36q3 -1 4 -10
t-0.5 -17.5t-3.5 -8.5h-217q-4 0 -4 17.5t4 18.5l57 16q0 15 -2 39h-176q-3 1 -3 22t2 24q56 63 103 106q65 63 115 100q3 2 34 2t31 -2q1 -39 1 -200h47q4 0 4 -26t-4 -26h-48q0 -6 -0.5 -18.5t-0.5 -20.5zM473 143h111q0 59 3 112q-30 -25 -59 -54q-33 -33 -55 -58z" />
    <glyph glyph-name="onehalf" unicode="&#xbd;" horiz-adv-x="817" 
d="M201 -50l-68 43q268 378 466 688l67 -43q-172 -236 -465 -688zM109 494q0 26 3 101l-69 2q-2 0 -3 10t0 20.5t3 10.5q87 15 175 18q2 -14 2 -152q0 -66 -3 -141l69 -17q2 -1 2 -18.5t-2 -17.5h-243q-3 0 -3 17.5t3 18.5l69 17q-3 75 -3 131zM652 225q0 25 -14 40t-41 15
q-52 0 -88 -37q-1 -1 -9 6t-14 15.5t-5 11.5q14 26 53.5 51t101.5 25q63 0 98 -26t35 -76q0 -75 -87 -131q-43 -27 -61 -36v-4l165 2q3 -3 3 -21t-3.5 -39t-7.5 -21q-30 0 -84 0.5t-86 0.5q-89 0 -135 -1q-3 0 -3 19.5t2 21.5q63 36 118 84q22 19 31.5 28.5t20 29t10.5 42.5
z" />
    <glyph glyph-name="threequarters" unicode="&#xbe;" horiz-adv-x="797" 
d="M216 -50l-68 43q268 378 466 688l67 -43q-172 -236 -465 -688zM344 411q-1 -55 -54 -83t-144 -28q-76 0 -105 11q-2 1 -2.5 7t0 14t1.5 16t3 13t3 5q40 -8 76 -8q95 0 95 55q0 46 -78 43h-23q-4 0 -5.5 12t0.5 24t7 12q54 1 76.5 13.5t22.5 39.5q0 36 -54 36
q-46 0 -89 -33q-1 -1 -8.5 7.5t-14 18t-4.5 12.5q50 64 157 64q64 0 99 -22.5t35 -63.5q0 -35 -24.5 -57t-59.5 -29v-3q43 -3 67 -22t23 -54zM762 36q3 -1 4 -10t-0.5 -17.5t-3.5 -8.5h-217q-4 0 -4 17.5t4 18.5l57 16q0 15 -2 39h-176q-3 1 -3 22t2 24q56 63 103 106
q65 63 115 100q3 2 34 2t31 -2q1 -39 1 -200h47q4 0 4 -26t-4 -26h-48q0 -6 -0.5 -18.5t-0.5 -20.5zM488 143h111q0 59 3 112q-30 -25 -59 -54q-33 -33 -55 -58z" />
    <glyph glyph-name="questiondown" unicode="&#xbf;" horiz-adv-x="512" 
d="M309 682q40 0 68.5 -27.5t28.5 -67.5q0 -42 -28.5 -70t-68.5 -28q-42 0 -69.5 28t-27.5 70q0 41 27.5 68t69.5 27zM341 445l2 -42q5 -90 -82 -158q-31 -25 -43.5 -49.5t-12.5 -62.5q0 -33 22.5 -52.5t63.5 -19.5q54 0 84 25q2 11 -7.5 51t-8.5 43q3 8 26 25t41 19
q29 0 48.5 -29.5t19.5 -64.5q0 -58 -65.5 -101t-168.5 -43q-108 0 -166 36t-59 106q-1 66 27.5 106t96.5 83q14 9 39 24.5t35 22t25 18t20.5 19.5t10.5 19.5t5 24.5h47z" />
    <glyph glyph-name="Agrave" unicode="&#xc0;" horiz-adv-x="763" 
d="M450 724l-228 133l110 116l154 -213q4 -5 -13.5 -22t-22.5 -14zM229 214l-46 -132l82 -39q4 -1 3.5 -22t-4.5 -21h-255q-3 0 -3.5 10.5t1 21t3.5 11.5l79 39l245 586q3 6 50.5 6t49.5 -6q35 -70 134 -308q59 -145 107 -278l79 -39q4 -2 4 -22.5t-5 -20.5h-353
q-3 0 -3.5 10.5t1 21t3.5 11.5l82 39q-26 57 -55 132h-199zM254 277h149q-47 122 -73 206z" />
    <glyph glyph-name="Aacute" unicode="&#xc1;" horiz-adv-x="763" 
d="M341 724q-5 -3 -22.5 14t-13.5 22l154 213l110 -116zM229 214l-46 -132l82 -39q4 -1 3.5 -22t-4.5 -21h-255q-3 0 -3.5 10.5t1 21t3.5 11.5l79 39l245 586q3 6 50.5 6t49.5 -6q35 -70 134 -308q59 -145 107 -278l79 -39q4 -2 4 -22.5t-5 -20.5h-353q-3 0 -3.5 10.5t1 21
t3.5 11.5l82 39q-26 57 -55 132h-199zM254 277h149q-47 122 -73 206z" />
    <glyph glyph-name="Acircumflex" unicode="&#xc2;" horiz-adv-x="763" 
d="M565 748q1 -1 -8.5 -10t-20.5 -17t-13 -7l-138 109l-140 -109q-3 -2 -23.5 15t-18.5 19l147 201h70zM229 214l-46 -132l82 -39q4 -1 3.5 -22t-4.5 -21h-255q-3 0 -3.5 10.5t1 21t3.5 11.5l79 39l245 586q3 6 50.5 6t49.5 -6q35 -70 134 -308q59 -145 107 -278l79 -39
q4 -2 4 -22.5t-5 -20.5h-353q-3 0 -3.5 10.5t1 21t3.5 11.5l82 39q-26 57 -55 132h-199zM254 277h149q-47 122 -73 206z" />
    <glyph glyph-name="Atilde" unicode="&#xc3;" horiz-adv-x="763" 
d="M446 743q-11 0 -23.5 2.5t-20.5 5t-22.5 8t-20.5 7.5q-50 20 -67 20q-30 0 -51 -44q-3 -2 -14 -2t-23 2t-12 5q14 73 48.5 112t78.5 39q30 0 90 -24q45 -18 67 -18q31 0 47 40q1 2 6.5 2.5t13 0t15 -1.5t12.5 -2.5t5 -2.5q-41 -149 -129 -149zM229 214l-46 -132l82 -39
q4 -1 3.5 -22t-4.5 -21h-255q-3 0 -3.5 10.5t1 21t3.5 11.5l79 39l245 586q3 6 50.5 6t49.5 -6q35 -70 134 -308q59 -145 107 -278l79 -39q4 -2 4 -22.5t-5 -20.5h-353q-3 0 -3.5 10.5t1 21t3.5 11.5l82 39q-26 57 -55 132h-199zM254 277h149q-47 122 -73 206z" />
    <glyph glyph-name="Adieresis" unicode="&#xc4;" horiz-adv-x="763" 
d="M502 888q34 0 57.5 -22.5t23.5 -55.5t-22 -56.5t-57 -23.5t-59 23t-24 54q0 35 24 58t57 23zM269 888q34 0 58 -22.5t24 -55.5t-23.5 -56.5t-57.5 -23.5q-36 0 -58.5 23t-22.5 54q0 34 24 57.5t56 23.5zM229 214l-46 -132l82 -39q4 -1 3.5 -22t-4.5 -21h-255
q-3 0 -3.5 10.5t1 21t3.5 11.5l79 39l245 586q3 6 50.5 6t49.5 -6q35 -70 134 -308q59 -145 107 -278l79 -39q4 -2 4 -22.5t-5 -20.5h-353q-3 0 -3.5 10.5t1 21t3.5 11.5l82 39q-26 57 -55 132h-199zM254 277h149q-47 122 -73 206z" />
    <glyph glyph-name="Aring" unicode="&#xc5;" horiz-adv-x="763" 
d="M265 43q4 -1 3.5 -22t-4.5 -21h-255q-3 0 -3.5 10.5t1 21t3.5 11.5l79 39l243 582q-43 14 -68 48.5t-25 81.5q0 59 40 97t102 38t102 -37.5t40 -94.5q0 -47 -24 -82t-64 -49q36 -71 133 -306q59 -145 107 -278l79 -39q4 -2 4 -22.5t-5 -20.5h-353q-3 0 -3.5 10.5t1 21
t3.5 11.5l82 39q-26 57 -55 132h-199l-46 -132zM320 794q0 -31 16 -49t44 -18q29 0 45.5 18.5t16.5 48.5t-16.5 47t-46.5 17q-27 0 -43 -17.5t-16 -46.5zM334 668l-2 -4q21 -7 50 -7t53 9l-1 2q-2 6 -49.5 6t-50.5 -6zM254 277h149q-47 122 -73 206z" />
    <glyph glyph-name="AE" unicode="&#xc6;" horiz-adv-x="1049" 
d="M278 43q4 -1 3.5 -22t-4.5 -21h-274q-3 0 -3.5 10.5t1 21t3.5 11.5l98 39l320 518l-73 17q-4 1 -4 24.5t4 23.5h621q3 0 9.5 -6t6.5 -9v-152q0 -3 -10 -4.5t-21 0t-13 4.5l-52 94l-193 6v-227l156 4l40 60q2 4 21 3.5t19 -5.5v-188q0 -4 -19.5 -4t-21.5 3l-40 62l-155 4
v-229l15 -16l190 10l73 123q1 2 6 2.5t11.5 0.5t13 -1t10.5 -2.5t4 -3.5l-15 -173q-1 -6 -8 -13.5t-13 -7.5h-552q-4 0 -4 20.5t4 22.5l81 39q0 10 -1.5 67.5t-2.5 95.5h-215l-95 -163zM330 308h178v39q0 84 5 231h-19z" />
    <glyph glyph-name="Ccedilla" unicode="&#xc7;" horiz-adv-x="680" 
d="M545 -180q0 -47 -50.5 -81.5t-115.5 -34.5q-45 0 -80 12.5t-48 28.5q-4 2 7.5 23t15.5 19q43 -23 108 -23q30 0 50.5 7.5t20.5 18.5q0 7 -11 11.5t-34.5 10.5t-39.5 13q-41 17 -55.5 35t-11.5 46q4 41 82 76q-158 5 -252.5 91t-94.5 238q0 179 103.5 275t265.5 96
q117 0 201 -38q31 -14 32 -44l5 -131q0 -7 -20 -6.5t-23 6.5l-71 116q-47 18 -114 18q-83 0 -126 -29q-55 -71 -55 -236q0 -145 42.5 -213.5t149.5 -68.5q64 0 104 15l79 125q1 2 6 3t10.5 1h11.5t9.5 -1.5t3.5 -3.5l-16 -135q-2 -18 -6.5 -25t-21.5 -15q-70 -34 -171 -37
q-22 -14 -30 -21.5t-8 -15.5t10 -14t34 -14.5t30 -11.5q41 -18 57.5 -36.5t16.5 -49.5z" />
    <glyph glyph-name="Egrave" unicode="&#xc8;" horiz-adv-x="651" 
d="M426 734l-228 133l110 116l154 -213q4 -5 -13.5 -22t-22.5 -14zM607 21q-1 -6 -8 -13.5t-13 -7.5h-552q-4 0 -4 20.5t4 22.5l81 39q-5 165 -5 265q0 84 5 231l-81 39q-4 2 -4 25t4 23h538q3 0 9.5 -6t6.5 -9v-152q0 -3 -10 -4.5t-21 0t-13 4.5l-52 94l-193 6v-227l156 4
l40 60q2 4 21 3.5t19 -5.5v-188q0 -4 -19.5 -4t-21.5 3l-40 62l-155 4v-229l15 -16l190 10l73 123q1 2 6 2.5t11.5 0.5t13 -1t10.5 -2.5t4 -3.5z" />
    <glyph glyph-name="Eacute" unicode="&#xc9;" horiz-adv-x="651" 
d="M288 734q-5 -3 -22.5 14t-13.5 22l154 213l110 -116zM607 21q-1 -6 -8 -13.5t-13 -7.5h-552q-4 0 -4 20.5t4 22.5l81 39q-5 165 -5 265q0 84 5 231l-81 39q-4 2 -4 25t4 23h538q3 0 9.5 -6t6.5 -9v-152q0 -3 -10 -4.5t-21 0t-13 4.5l-52 94l-193 6v-227l156 4l40 60
q2 4 21 3.5t19 -5.5v-188q0 -4 -19.5 -4t-21.5 3l-40 62l-155 4v-229l15 -16l190 10l73 123q1 2 6 2.5t11.5 0.5t13 -1t10.5 -2.5t4 -3.5z" />
    <glyph glyph-name="Ecircumflex" unicode="&#xca;" horiz-adv-x="651" 
d="M530 768q1 -1 -8.5 -10t-20.5 -17t-13 -7l-138 109l-140 -109q-3 -2 -23.5 15t-18.5 19l147 201h70zM607 21q-1 -6 -8 -13.5t-13 -7.5h-552q-4 0 -4 20.5t4 22.5l81 39q-5 165 -5 265q0 84 5 231l-81 39q-4 2 -4 25t4 23h538q3 0 9.5 -6t6.5 -9v-152q0 -3 -10 -4.5t-21 0
t-13 4.5l-52 94l-193 6v-227l156 4l40 60q2 4 21 3.5t19 -5.5v-188q0 -4 -19.5 -4t-21.5 3l-40 62l-155 4v-229l15 -16l190 10l73 123q1 2 6 2.5t11.5 0.5t13 -1t10.5 -2.5t4 -3.5z" />
    <glyph glyph-name="Edieresis" unicode="&#xcb;" horiz-adv-x="651" 
d="M463 898q34 0 57.5 -22.5t23.5 -55.5t-22 -56.5t-57 -23.5t-59 23t-24 54q0 35 24 58t57 23zM230 898q34 0 58 -22.5t24 -55.5t-23.5 -56.5t-57.5 -23.5q-36 0 -58.5 23t-22.5 54q0 34 24 57.5t56 23.5zM607 21q-1 -6 -8 -13.5t-13 -7.5h-552q-4 0 -4 20.5t4 22.5l81 39
q-5 165 -5 265q0 84 5 231l-81 39q-4 2 -4 25t4 23h538q3 0 9.5 -6t6.5 -9v-152q0 -3 -10 -4.5t-21 0t-13 4.5l-52 94l-193 6v-227l156 4l40 60q2 4 21 3.5t19 -5.5v-188q0 -4 -19.5 -4t-21.5 3l-40 62l-155 4v-229l15 -16l190 10l73 123q1 2 6 2.5t11.5 0.5t13 -1
t10.5 -2.5t4 -3.5z" />
    <glyph glyph-name="Igrave" unicode="&#xcc;" horiz-adv-x="431" 
d="M283 734l-228 133l110 116l154 -213q4 -5 -13.5 -22t-22.5 -14zM312 347q0 -100 -5 -265l82 -39q3 -2 3.5 -22.5t-3.5 -20.5h-346q-4 0 -4 20.5t4 22.5l81 39q-5 165 -5 265q0 84 5 231l-81 39q-4 1 -4 24.5t4 23.5h347q2 0 2.5 -11.5t-0.5 -23.5t-3 -13l-82 -39
q5 -148 5 -231z" />
    <glyph glyph-name="Iacute" unicode="&#xcd;" horiz-adv-x="431" 
d="M152 734q-5 -3 -22.5 14t-13.5 22l154 213l110 -116zM312 347q0 -100 -5 -265l82 -39q3 -2 3.5 -22.5t-3.5 -20.5h-346q-4 0 -4 20.5t4 22.5l81 39q-5 165 -5 265q0 84 5 231l-81 39q-4 1 -4 24.5t4 23.5h347q2 0 2.5 -11.5t-0.5 -23.5t-3 -13l-82 -39q5 -148 5 -231z
" />
    <glyph glyph-name="Icircumflex" unicode="&#xce;" horiz-adv-x="431" 
d="M396 768q1 -1 -8.5 -10t-20.5 -17t-13 -7l-138 109l-140 -109q-3 -2 -23.5 15t-18.5 19l147 201h70zM312 347q0 -100 -5 -265l82 -39q3 -2 3.5 -22.5t-3.5 -20.5h-346q-4 0 -4 20.5t4 22.5l81 39q-5 165 -5 265q0 84 5 231l-81 39q-4 1 -4 24.5t4 23.5h347q2 0 2.5 -11.5
t-0.5 -23.5t-3 -13l-82 -39q5 -148 5 -231z" />
    <glyph glyph-name="Idieresis" unicode="&#xcf;" horiz-adv-x="431" 
d="M332 898q34 0 57.5 -22.5t23.5 -55.5t-22 -56.5t-57 -23.5t-59 23t-24 54q0 35 24 58t57 23zM99 898q34 0 58 -22.5t24 -55.5t-23.5 -56.5t-57.5 -23.5q-36 0 -58.5 23t-22.5 54q0 34 24 57.5t56 23.5zM312 347q0 -100 -5 -265l82 -39q3 -2 3.5 -22.5t-3.5 -20.5h-346
q-4 0 -4 20.5t4 22.5l81 39q-5 165 -5 265q0 84 5 231l-81 39q-4 1 -4 24.5t4 23.5h347q2 0 2.5 -11.5t-0.5 -23.5t-3 -13l-82 -39q5 -148 5 -231z" />
    <glyph glyph-name="Eth" unicode="&#xd0;" horiz-adv-x="817" 
d="M778 344q0 -87 -30 -154.5t-81.5 -108t-116 -61t-137.5 -20.5h-379q-4 0 -4 20.5t4 22.5l81 39q-4 109 -5 226h-71v65h71q0 70 5 205l-81 39q-4 2 -4 25t4 23h341q84 0 154.5 -18.5t127.5 -55.5t89 -100.5t32 -146.5zM309 76q33 -7 81 -7q88 0 138.5 65t50.5 206
q0 171 -87 236q-37 12 -104 16q-39 1 -89 1v-220h136v-65h-136v-222z" />
    <glyph glyph-name="Ntilde" unicode="&#xd1;" horiz-adv-x="786" 
d="M496 753q-11 0 -23.5 2.5t-20.5 5t-22.5 8t-20.5 7.5q-50 20 -67 20q-30 0 -51 -44q-3 -2 -14 -2t-23 2t-12 5q14 73 48.5 112t78.5 39q30 0 90 -24q45 -18 67 -18q31 0 47 40q1 2 6.5 2.5t13 0t15 -1.5t12.5 -2.5t5 -2.5q-41 -149 -129 -149zM194 495l2 -410l93 -42
q4 -2 4 -22.5t-4 -20.5h-259q-4 0 -4 20.5t4 22.5l87 42l3 475l-18 18l-78 39q-4 1 -4 24.5t4 23.5h265l8 -30q86 -93 163 -184q117 -137 152 -187l-2 314l-88 39q-4 2 -4 25t4 23h249q4 0 4 -23t-4 -25l-82 -39l-5 -583q0 -3 -12.5 -3.5t-26.5 1.5t-19 6q-67 60 -226 245
q-114 133 -206 251z" />
    <glyph glyph-name="Ograve" unicode="&#xd2;" horiz-adv-x="802" 
d="M471 744l-228 133l110 116l154 -213q4 -5 -13.5 -22t-22.5 -14zM402 -18q-170 0 -268 99t-98 251q0 153 97.5 251.5t268.5 98.5q170 0 267 -98.5t97 -251.5t-97 -251.5t-267 -98.5zM291 576q-57 -76 -57 -244q0 -153 43 -214t125 -61q63 0 108 27q57 74 57 248
q0 146 -39.5 208.5t-125.5 62.5q-69 0 -111 -27z" />
    <glyph glyph-name="Oacute" unicode="&#xd3;" horiz-adv-x="802" 
d="M380 744q-5 -3 -22.5 14t-13.5 22l154 213l110 -116zM402 -18q-170 0 -268 99t-98 251q0 153 97.5 251.5t268.5 98.5q170 0 267 -98.5t97 -251.5t-97 -251.5t-267 -98.5zM291 576q-57 -76 -57 -244q0 -153 43 -214t125 -61q63 0 108 27q57 74 57 248q0 146 -39.5 208.5
t-125.5 62.5q-69 0 -111 -27z" />
    <glyph glyph-name="Ocircumflex" unicode="&#xd4;" horiz-adv-x="802" 
d="M582 778q1 -1 -8.5 -10t-20.5 -17t-13 -7l-138 109l-140 -109q-3 -2 -23.5 15t-18.5 19l147 201h70zM402 -18q-170 0 -268 99t-98 251q0 153 97.5 251.5t268.5 98.5q170 0 267 -98.5t97 -251.5t-97 -251.5t-267 -98.5zM291 576q-57 -76 -57 -244q0 -153 43 -214t125 -61
q63 0 108 27q57 74 57 248q0 146 -39.5 208.5t-125.5 62.5q-69 0 -111 -27z" />
    <glyph glyph-name="Otilde" unicode="&#xd5;" horiz-adv-x="802" 
d="M463 763q-11 0 -23.5 2.5t-20.5 5t-22.5 8t-20.5 7.5q-50 20 -67 20q-30 0 -51 -44q-3 -2 -14 -2t-23 2t-12 5q14 73 48.5 112t78.5 39q30 0 90 -24q45 -18 67 -18q31 0 47 40q1 2 6.5 2.5t13 0t15 -1.5t12.5 -2.5t5 -2.5q-41 -149 -129 -149zM402 -18q-170 0 -268 99
t-98 251q0 153 97.5 251.5t268.5 98.5q170 0 267 -98.5t97 -251.5t-97 -251.5t-267 -98.5zM291 576q-57 -76 -57 -244q0 -153 43 -214t125 -61q63 0 108 27q57 74 57 248q0 146 -39.5 208.5t-125.5 62.5q-69 0 -111 -27z" />
    <glyph glyph-name="Odieresis" unicode="&#xd6;" horiz-adv-x="802" 
d="M517 908q34 0 57.5 -22.5t23.5 -55.5t-22 -56.5t-57 -23.5t-59 23t-24 54q0 35 24 58t57 23zM284 908q34 0 58 -22.5t24 -55.5t-23.5 -56.5t-57.5 -23.5q-36 0 -58.5 23t-22.5 54q0 34 24 57.5t56 23.5zM402 -18q-170 0 -268 99t-98 251q0 153 97.5 251.5t268.5 98.5
q170 0 267 -98.5t97 -251.5t-97 -251.5t-267 -98.5zM291 576q-57 -76 -57 -244q0 -153 43 -214t125 -61q63 0 108 27q57 74 57 248q0 146 -39.5 208.5t-125.5 62.5q-69 0 -111 -27z" />
    <glyph glyph-name="multiply" unicode="&#xd7;" horiz-adv-x="553" 
d="M422 110l-146 149l-147 -149l-58 57l149 149l-149 148l61 61l148 -149l145 149l57 -58l-145 -148l146 -148z" />
    <glyph glyph-name="Oslash" unicode="&#xd8;" horiz-adv-x="802" 
d="M402 -18q-101 0 -182 38l-63 -92l-54 35l62 91q-129 97 -129 278q0 153 97.5 251.5t268.5 98.5q96 0 171 -33l54 78l53 -37l-50 -73q66 -47 101 -121t35 -164q0 -153 -97 -251.5t-267 -98.5zM234 332q0 -93 17 -153l262 381q-39 43 -111 43q-69 0 -111 -27
q-57 -76 -57 -244zM567 332q0 106 -20 165l-265 -386q40 -54 120 -54q63 0 108 27q57 74 57 248z" />
    <glyph glyph-name="Ugrave" unicode="&#xd9;" horiz-adv-x="805" 
d="M498 734l-228 133l110 116l154 -213q4 -5 -13.5 -22t-22.5 -14zM631 303q2 137 -2 274l-98 40q-3 2 -3.5 25t3.5 23h255q4 0 4 -23t-4 -25l-79 -40q7 -165 2 -284q-5 -134 -28 -184q-30 -64 -104.5 -95.5t-158.5 -31.5q-193 0 -258 84q-28 35 -42 88.5t-15 142.5
q-3 134 6 280l-85 40q-3 1 -4 13t0.5 23.5t3.5 11.5h354q4 0 4 -23.5t-4 -24.5l-84 -40q-8 -139 -6 -264q1 -118 31 -174q37 -68 134 -68q95 0 143 44q31 49 35 188z" />
    <glyph glyph-name="Uacute" unicode="&#xda;" horiz-adv-x="805" 
d="M421 734q-5 -3 -22.5 14t-13.5 22l154 213l110 -116zM631 303q2 137 -2 274l-98 40q-3 2 -3.5 25t3.5 23h255q4 0 4 -23t-4 -25l-79 -40q7 -165 2 -284q-5 -134 -28 -184q-30 -64 -104.5 -95.5t-158.5 -31.5q-193 0 -258 84q-28 35 -42 88.5t-15 142.5q-3 134 6 280
l-85 40q-3 1 -4 13t0.5 23.5t3.5 11.5h354q4 0 4 -23.5t-4 -24.5l-84 -40q-8 -139 -6 -264q1 -118 31 -174q37 -68 134 -68q95 0 143 44q31 49 35 188z" />
    <glyph glyph-name="Ucircumflex" unicode="&#xdb;" horiz-adv-x="805" 
d="M625 768q1 -1 -8.5 -10t-20.5 -17t-13 -7l-138 109l-140 -109q-3 -2 -23.5 15t-18.5 19l147 201h70zM631 303q2 137 -2 274l-98 40q-3 2 -3.5 25t3.5 23h255q4 0 4 -23t-4 -25l-79 -40q7 -165 2 -284q-5 -134 -28 -184q-30 -64 -104.5 -95.5t-158.5 -31.5q-193 0 -258 84
q-28 35 -42 88.5t-15 142.5q-3 134 6 280l-85 40q-3 1 -4 13t0.5 23.5t3.5 11.5h354q4 0 4 -23.5t-4 -24.5l-84 -40q-8 -139 -6 -264q1 -118 31 -174q37 -68 134 -68q95 0 143 44q31 49 35 188z" />
    <glyph glyph-name="Udieresis" unicode="&#xdc;" horiz-adv-x="805" 
d="M558 898q34 0 57.5 -22.5t23.5 -55.5t-22 -56.5t-57 -23.5t-59 23t-24 54q0 35 24 58t57 23zM325 898q34 0 58 -22.5t24 -55.5t-23.5 -56.5t-57.5 -23.5q-36 0 -58.5 23t-22.5 54q0 34 24 57.5t56 23.5zM631 303q2 137 -2 274l-98 40q-3 2 -3.5 25t3.5 23h255q4 0 4 -23
t-4 -25l-79 -40q7 -165 2 -284q-5 -134 -28 -184q-30 -64 -104.5 -95.5t-158.5 -31.5q-193 0 -258 84q-28 35 -42 88.5t-15 142.5q-3 134 6 280l-85 40q-3 1 -4 13t0.5 23.5t3.5 11.5h354q4 0 4 -23.5t-4 -24.5l-84 -40q-8 -139 -6 -264q1 -118 31 -174q37 -68 134 -68
q95 0 143 44q31 49 35 188z" />
    <glyph glyph-name="Yacute" unicode="&#xdd;" horiz-adv-x="733" 
d="M361 734q-5 -3 -22.5 14t-13.5 22l154 213l110 -116zM272 266q-9 16 -42.5 70.5t-52.5 86.5q-53 90 -86 154l-79 40q-4 2 -3.5 25t4.5 23h341q4 0 3.5 -23t-3.5 -25l-65 -36q19 -30 69 -116q30 -52 67 -121l130 237l-75 36q-4 1 -3.5 24.5t4.5 23.5h243q4 0 4.5 -23
t-3.5 -25l-79 -40l-187 -309q0 -103 -4 -186l103 -39q3 -2 3.5 -22.5t-3.5 -20.5h-392q-4 0 -4 20.5t4 22.5l110 39q-4 76 -4 184z" />
    <glyph glyph-name="Thorn" unicode="&#xde;" horiz-adv-x="709" 
d="M399 43q4 -2 4 -22.5t-4 -20.5h-365q-4 0 -4 20.5t4 22.5l81 39q-5 165 -5 265q0 83 5 230l-81 39q-4 2 -4 25.5t4 23.5h346q4 0 4 -23.5t-4 -25.5l-81 -39v-43h122q137 0 196.5 -54t59.5 -134q0 -93 -66 -156.5t-194 -64.5q-58 -1 -118 4v-47zM299 460v-262q29 -4 60 -4
q62 0 92.5 33t30.5 113q0 72 -34 105q-26 15 -102 15h-47z" />
    <glyph glyph-name="germandbls" unicode="&#xdf;" horiz-adv-x="672" 
d="M306 350q0 19 5 35.5t16 32t19 25t24.5 25t21.5 20.5q36 38 36 96q0 89 -83 89q-45 0 -68 -23q-20 -28 -20 -107v-166q0 -207 -4 -295l26 -39q3 -5 3.5 -23.5t-4.5 -19.5h-247q-4 0 -4 20.5t4 22.5l68 39q-5 78 -5 185q0 42 1 91.5t1 54.5h-61q-4 0 -4 29t4 31l61 31
q8 124 73 181q73 65 182 65q95 0 144.5 -38t51.5 -98q1 -40 -9.5 -63.5t-46.5 -59.5q-5 -5 -20.5 -19.5t-22 -21.5t-13.5 -19.5t-7 -24.5q0 -24 21.5 -42t72.5 -36q75 -27 106 -66t31 -105q0 -80 -55.5 -125.5t-139.5 -45.5q-95 0 -130 24q-17 12 -18 36q-3 103 -2 112
q0 4 22.5 4t24.5 -4l50 -93q25 -11 57 -11t50.5 17.5t18.5 42.5q0 34 -20 49t-75 35q-8 3 -12 4q-63 24 -93.5 58.5t-30.5 89.5z" />
    <glyph glyph-name="agrave" unicode="&#xe0;" horiz-adv-x="579" 
d="M352 581l-228 133l110 116l154 -213q4 -5 -13.5 -22t-22.5 -14zM413 -12q-27 3 -48.5 21.5t-32.5 46.5q-87 -71 -154 -71q-63 0 -100 35.5t-39 92.5q-2 46 18 84t55 57q53 22 213 35v26q0 72 -15 90t-63 18q-78 0 -163 -31q-1 0 -3.5 4t-5 10.5t-4.5 14t-2.5 13t1.5 7.5
q33 28 93 54t122 26q88 0 144.5 -40.5t59.5 -129.5q3 -92 -2 -247l10 -15l68 -11q4 0 4.5 -20t-2.5 -22q-14 -12 -72 -30t-82 -18zM197 137q3 -64 56 -64q40 0 74 30q-2 78 -2 135q-51 -7 -100 -26q-29 -27 -28 -75z" />
    <glyph glyph-name="aacute" unicode="&#xe1;" horiz-adv-x="579" 
d="M211 581q-5 -3 -22.5 14t-13.5 22l154 213l110 -116zM413 -12q-27 3 -48.5 21.5t-32.5 46.5q-87 -71 -154 -71q-63 0 -100 35.5t-39 92.5q-2 46 18 84t55 57q53 22 213 35v26q0 72 -15 90t-63 18q-78 0 -163 -31q-1 0 -3.5 4t-5 10.5t-4.5 14t-2.5 13t1.5 7.5
q33 28 93 54t122 26q88 0 144.5 -40.5t59.5 -129.5q3 -92 -2 -247l10 -15l68 -11q4 0 4.5 -20t-2.5 -22q-14 -12 -72 -30t-82 -18zM197 137q3 -64 56 -64q40 0 74 30q-2 78 -2 135q-51 -7 -100 -26q-29 -27 -28 -75z" />
    <glyph glyph-name="acircumflex" unicode="&#xe2;" horiz-adv-x="579" 
d="M460 615q1 -1 -8.5 -10t-20.5 -17t-13 -7l-138 109l-140 -109q-3 -2 -23.5 15t-18.5 19l147 201h70zM413 -12q-27 3 -48.5 21.5t-32.5 46.5q-87 -71 -154 -71q-63 0 -100 35.5t-39 92.5q-2 46 18 84t55 57q53 22 213 35v26q0 72 -15 90t-63 18q-78 0 -163 -31
q-1 0 -3.5 4t-5 10.5t-4.5 14t-2.5 13t1.5 7.5q33 28 93 54t122 26q88 0 144.5 -40.5t59.5 -129.5q3 -92 -2 -247l10 -15l68 -11q4 0 4.5 -20t-2.5 -22q-14 -12 -72 -30t-82 -18zM197 137q3 -64 56 -64q40 0 74 30q-2 78 -2 135q-51 -7 -100 -26q-29 -27 -28 -75z" />
    <glyph glyph-name="atilde" unicode="&#xe3;" horiz-adv-x="579" 
d="M341 600q-11 0 -23.5 2.5t-20.5 5t-22.5 8t-20.5 7.5q-50 20 -67 20q-30 0 -51 -44q-3 -2 -14 -2t-23 2t-12 5q14 73 48.5 112t78.5 39q30 0 90 -24q45 -18 67 -18q31 0 47 40q1 2 6.5 2.5t13 0t15 -1.5t12.5 -2.5t5 -2.5q-41 -149 -129 -149zM413 -12q-27 3 -48.5 21.5
t-32.5 46.5q-87 -71 -154 -71q-63 0 -100 35.5t-39 92.5q-2 46 18 84t55 57q53 22 213 35v26q0 72 -15 90t-63 18q-78 0 -163 -31q-1 0 -3.5 4t-5 10.5t-4.5 14t-2.5 13t1.5 7.5q33 28 93 54t122 26q88 0 144.5 -40.5t59.5 -129.5q3 -92 -2 -247l10 -15l68 -11q4 0 4.5 -20
t-2.5 -22q-14 -12 -72 -30t-82 -18zM197 137q3 -64 56 -64q40 0 74 30q-2 78 -2 135q-51 -7 -100 -26q-29 -27 -28 -75z" />
    <glyph glyph-name="adieresis" unicode="&#xe4;" horiz-adv-x="579" 
d="M394 745q34 0 57.5 -22.5t23.5 -55.5t-22 -56.5t-57 -23.5t-59 23t-24 54q0 35 24 58t57 23zM161 745q34 0 58 -22.5t24 -55.5t-23.5 -56.5t-57.5 -23.5q-36 0 -58.5 23t-22.5 54q0 34 24 57.5t56 23.5zM413 -12q-27 3 -48.5 21.5t-32.5 46.5q-87 -71 -154 -71
q-63 0 -100 35.5t-39 92.5q-2 46 18 84t55 57q53 22 213 35v26q0 72 -15 90t-63 18q-78 0 -163 -31q-1 0 -3.5 4t-5 10.5t-4.5 14t-2.5 13t1.5 7.5q33 28 93 54t122 26q88 0 144.5 -40.5t59.5 -129.5q3 -92 -2 -247l10 -15l68 -11q4 0 4.5 -20t-2.5 -22q-14 -12 -72 -30
t-82 -18zM197 137q3 -64 56 -64q40 0 74 30q-2 78 -2 135q-51 -7 -100 -26q-29 -27 -28 -75z" />
    <glyph glyph-name="aring" unicode="&#xe5;" horiz-adv-x="579" 
d="M431 715q0 -63 -39.5 -101.5t-101.5 -38.5q-64 0 -103.5 38.5t-39.5 98.5q0 59 40 97t102 38t102 -37.5t40 -94.5zM228 712q0 -31 16 -49t44 -18q29 0 45.5 18.5t16.5 48.5t-16.5 47t-46.5 17q-27 0 -43 -17.5t-16 -46.5zM413 -12q-27 3 -48.5 21.5t-32.5 46.5
q-87 -71 -154 -71q-63 0 -100 35.5t-39 92.5q-2 46 18 84t55 57q53 22 213 35v26q0 72 -15 90t-63 18q-78 0 -163 -31q-1 0 -3.5 4t-5 10.5t-4.5 14t-2.5 13t1.5 7.5q33 28 93 54t122 26q88 0 144.5 -40.5t59.5 -129.5q3 -92 -2 -247l10 -15l68 -11q4 0 4.5 -20t-2.5 -22
q-14 -12 -72 -30t-82 -18zM197 137q3 -64 56 -64q40 0 74 30q-2 78 -2 135q-51 -7 -100 -26q-29 -27 -28 -75z" />
    <glyph glyph-name="ae" unicode="&#xe6;" horiz-adv-x="842" 
d="M811 85q-28 -43 -92.5 -71.5t-125.5 -28.5q-149 0 -216 81q-20 -27 -70.5 -54t-120.5 -27q-68 0 -106.5 35.5t-40.5 92.5q-2 46 18 85.5t55 58.5q55 22 213 35v26q0 72 -15 90t-63 18q-78 0 -163 -31q-1 0 -3.5 4t-5 10.5t-4.5 14t-2.5 13t1.5 7.5q33 28 93 54t122 26
q98 0 151 -46q71 46 159 46q106 0 166 -69t54 -163q-1 -11 -14 -26t-20 -15l-291 1q0 -100 34 -138t114 -38q81 0 151 51q2 2 8.5 -6.5t11 -19.5t2.5 -16zM528 432q-29 -34 -36 -122l170 6q0 68 -16.5 99t-60.5 31q-33 0 -57 -14zM253 73q51 0 98 35q-24 52 -26 133
q-51 -7 -100 -26q-29 -27 -28 -78q3 -64 56 -64z" />
    <glyph glyph-name="ccedilla" unicode="&#xe7;" horiz-adv-x="517" 
d="M438 -176q0 -47 -50.5 -81.5t-115.5 -34.5q-45 0 -80 12.5t-48 28.5q-4 2 7.5 23t15.5 19q43 -23 108 -23q30 0 50.5 7.5t20.5 18.5q0 7 -11 11.5t-34.5 10.5t-39.5 13q-41 17 -55.5 35t-11.5 46q4 38 75 73q-111 8 -175.5 71.5t-64.5 186.5q0 132 81.5 206t207.5 74
q71 0 122 -27t63 -68q5 -41 -17.5 -67t-56.5 -26q-22 0 -32 5l-45 97q-18 8 -46 8q-42 0 -67 -17q-34 -47 -34 -167q0 -111 29.5 -148.5t108.5 -37.5q73 0 139 51q2 1 8.5 -7t11 -19t2.5 -16q-25 -41 -77 -67.5t-105 -31.5q-32 -20 -32 -33q0 -8 10 -14t34 -14.5t30 -11.5
q41 -18 57.5 -36.5t16.5 -49.5z" />
    <glyph glyph-name="egrave" unicode="&#xe8;" horiz-adv-x="552" 
d="M373 581l-228 133l110 116l154 -213q4 -5 -13.5 -22t-22.5 -14zM303 -18q-124 0 -199 63.5t-75 198.5q0 127 80.5 202t195.5 75q106 0 166 -69t54 -163q-1 -11 -14 -26t-20 -15l-291 1q0 -100 34 -138t114 -38q81 0 151 51q2 2 8.5 -6.5t11 -19.5t2.5 -16
q-28 -43 -92.5 -71.5t-125.5 -28.5zM238 429q-29 -34 -36 -122l170 6q0 68 -16.5 99t-60.5 31q-33 0 -57 -14z" />
    <glyph glyph-name="eacute" unicode="&#xe9;" horiz-adv-x="552" 
d="M240 580q-5 -3 -22.5 14t-13.5 22l154 213l110 -116zM303 -18q-124 0 -199 63.5t-75 198.5q0 127 80.5 202t195.5 75q106 0 166 -69t54 -163q-1 -11 -14 -26t-20 -15l-291 1q0 -100 34 -138t114 -38q81 0 151 51q2 2 8.5 -6.5t11 -19.5t2.5 -16q-28 -43 -92.5 -71.5
t-125.5 -28.5zM238 429q-29 -34 -36 -122l170 6q0 68 -16.5 99t-60.5 31q-33 0 -57 -14z" />
    <glyph glyph-name="ecircumflex" unicode="&#xea;" horiz-adv-x="552" 
d="M475 610q1 -1 -8.5 -10t-20.5 -17t-13 -7l-138 109l-140 -109q-3 -2 -23.5 15t-18.5 19l147 201h70zM303 -18q-124 0 -199 63.5t-75 198.5q0 127 80.5 202t195.5 75q106 0 166 -69t54 -163q-1 -11 -14 -26t-20 -15l-291 1q0 -100 34 -138t114 -38q81 0 151 51
q2 2 8.5 -6.5t11 -19.5t2.5 -16q-28 -43 -92.5 -71.5t-125.5 -28.5zM238 429q-29 -34 -36 -122l170 6q0 68 -16.5 99t-60.5 31q-33 0 -57 -14z" />
    <glyph glyph-name="edieresis" unicode="&#xeb;" horiz-adv-x="552" 
d="M413 745q34 0 57.5 -22.5t23.5 -55.5t-22 -56.5t-57 -23.5t-59 23t-24 54q0 35 24 58t57 23zM180 745q34 0 58 -22.5t24 -55.5t-23.5 -56.5t-57.5 -23.5q-36 0 -58.5 23t-22.5 54q0 34 24 57.5t56 23.5zM303 -18q-124 0 -199 63.5t-75 198.5q0 127 80.5 202t195.5 75
q106 0 166 -69t54 -163q-1 -11 -14 -26t-20 -15l-291 1q0 -100 34 -138t114 -38q81 0 151 51q2 2 8.5 -6.5t11 -19.5t2.5 -16q-28 -43 -92.5 -71.5t-125.5 -28.5zM238 429q-29 -34 -36 -122l170 6q0 68 -16.5 99t-60.5 31q-33 0 -57 -14z" />
    <glyph glyph-name="igrave" unicode="&#xec;" horiz-adv-x="337" 
d="M222 581l-228 133l110 116l154 -213q4 -5 -13.5 -22t-22.5 -14zM251 508q4 -27 4 -222q0 -122 -4 -204l59 -39q3 -2 3 -22.5t-3 -20.5h-271q-4 0 -4 20.5t4 22.5l61 39q-4 80 -4 163q0 75 2 151l-74 47q-3 2 -3 28t4 27q85 10 226 10z" />
    <glyph glyph-name="iacute" unicode="&#xed;" horiz-adv-x="337" 
d="M86 581q-5 -3 -22.5 14t-13.5 22l154 213l110 -116zM251 508q4 -27 4 -222q0 -122 -4 -204l59 -39q3 -2 3 -22.5t-3 -20.5h-271q-4 0 -4 20.5t4 22.5l61 39q-4 80 -4 163q0 75 2 151l-74 47q-3 2 -3 28t4 27q85 10 226 10z" />
    <glyph glyph-name="icircumflex" unicode="&#xee;" horiz-adv-x="337" 
d="M186 816l135 -201q1 -1 -8.5 -10t-20.5 -17t-13 -7l-128 109l-130 -109q-3 -2 -23.5 15t-18.5 19l137 201h70zM251 508q4 -27 4 -222q0 -122 -4 -204l59 -39q3 -2 3 -22.5t-3 -20.5h-271q-4 0 -4 20.5t4 22.5l61 39q-4 80 -4 163q0 75 2 151l-74 47q-3 2 -3 28t4 27
q85 10 226 10z" />
    <glyph glyph-name="idieresis" unicode="&#xef;" horiz-adv-x="337" 
d="M263 745q34 0 57.5 -22.5t23.5 -55.5t-22 -56.5t-57 -23.5t-59 23t-24 54q0 35 24 58t57 23zM50 745q34 0 58 -22.5t24 -55.5t-23.5 -56.5t-57.5 -23.5q-36 0 -58.5 23t-22.5 54q0 34 24 57.5t56 23.5zM251 508q4 -27 4 -222q0 -122 -4 -204l59 -39q3 -2 3 -22.5
t-3 -20.5h-271q-4 0 -4 20.5t4 22.5l61 39q-4 80 -4 163q0 75 2 151l-74 47q-3 2 -3 28t4 27q85 10 226 10z" />
    <glyph glyph-name="eth" unicode="&#xf0;" horiz-adv-x="624" 
d="M314 -15q-129 0 -207 67.5t-78 188.5q0 116 79 188.5t202 72.5q34 0 67 -6q-20 48 -45 89l-108 -58l-33 59l101 55q-27 34 -59 63l45 40q43 -21 94 -61l98 53l35 -64l-79 -41q59 -56 113 -150q56 -96 56 -227q0 -119 -80 -194t-201 -75zM389 74q32 58 30 174
q-2 97 -30.5 138.5t-80.5 41.5q-41 0 -69 -17q-37 -47 -34 -167q1 -102 27.5 -145.5t83.5 -43.5q46 0 73 19z" />
    <glyph glyph-name="ntilde" unicode="&#xf1;" horiz-adv-x="671" 
d="M410 600q-11 0 -23.5 2.5t-20.5 5t-22.5 8t-20.5 7.5q-50 20 -67 20q-30 0 -51 -44q-3 -2 -14 -2t-23 2t-12 5q14 73 48.5 112t78.5 39q30 0 90 -24q45 -18 67 -18q31 0 47 40q1 2 6.5 2.5t13 0t15 -1.5t12.5 -2.5t5 -2.5q-41 -149 -129 -149zM307 43q3 -2 3 -22.5
t-3 -20.5h-270q-4 0 -4 20.5t4 22.5l61 39q-4 80 -4 156q0 80 4 158l-76 47q-4 2 -3.5 28t4.5 27q85 10 221 10q7 -25 10 -73q110 78 175 78q152 0 157 -174q3 -98 -10 -257l67 -39q3 -2 3.5 -22.5t-3.5 -20.5h-280q-4 0 -3.5 20.5t3.5 22.5l54 39q5 97 5 197
q0 78 -10.5 102t-54.5 24q-47 0 -101 -19v-66q0 -138 -4 -238z" />
    <glyph glyph-name="ograve" unicode="&#xf2;" horiz-adv-x="624" 
d="M383 581l-228 133l110 116l154 -213q4 -5 -13.5 -22t-22.5 -14zM310 521q125 0 205 -70.5t80 -190.5q0 -123 -80 -200.5t-201 -77.5q-129 0 -207 70.5t-78 196.5q0 121 79 196.5t202 75.5zM389 75q32 60 30 181q-2 102 -30 144.5t-81 42.5q-41 0 -69 -17
q-37 -49 -34 -174q1 -106 27.5 -151.5t83.5 -45.5q46 0 73 20z" />
    <glyph glyph-name="oacute" unicode="&#xf3;" horiz-adv-x="624" 
d="M257 581q-5 -3 -22.5 14t-13.5 22l154 213l110 -116zM310 521q125 0 205 -70.5t80 -190.5q0 -123 -80 -200.5t-201 -77.5q-129 0 -207 70.5t-78 196.5q0 121 79 196.5t202 75.5zM389 75q32 60 30 181q-2 102 -30 144.5t-81 42.5q-41 0 -69 -17q-37 -49 -34 -174
q1 -106 27.5 -151.5t83.5 -45.5q46 0 73 20z" />
    <glyph glyph-name="ocircumflex" unicode="&#xf4;" horiz-adv-x="624" 
d="M493 615q1 -1 -8.5 -10t-20.5 -17t-13 -7l-138 109l-140 -109q-3 -2 -23.5 15t-18.5 19l147 201h70zM310 521q125 0 205 -70.5t80 -190.5q0 -123 -80 -200.5t-201 -77.5q-129 0 -207 70.5t-78 196.5q0 121 79 196.5t202 75.5zM389 75q32 60 30 181q-2 102 -30 144.5
t-81 42.5q-41 0 -69 -17q-37 -49 -34 -174q1 -106 27.5 -151.5t83.5 -45.5q46 0 73 20z" />
    <glyph glyph-name="otilde" unicode="&#xf5;" horiz-adv-x="624" 
d="M374 600q-11 0 -23.5 2.5t-20.5 5t-22.5 8t-20.5 7.5q-50 20 -67 20q-30 0 -51 -44q-3 -2 -14 -2t-23 2t-12 5q14 73 48.5 112t78.5 39q30 0 90 -24q45 -18 67 -18q31 0 47 40q1 2 6.5 2.5t13 0t15 -1.5t12.5 -2.5t5 -2.5q-41 -149 -129 -149zM310 521q125 0 205 -70.5
t80 -190.5q0 -123 -80 -200.5t-201 -77.5q-129 0 -207 70.5t-78 196.5q0 121 79 196.5t202 75.5zM389 75q32 60 30 181q-2 102 -30 144.5t-81 42.5q-41 0 -69 -17q-37 -49 -34 -174q1 -106 27.5 -151.5t83.5 -45.5q46 0 73 20z" />
    <glyph glyph-name="odieresis" unicode="&#xf6;" horiz-adv-x="624" 
d="M428 745q34 0 57.5 -22.5t23.5 -55.5t-22 -56.5t-57 -23.5t-59 23t-24 54q0 35 24 58t57 23zM195 745q34 0 58 -22.5t24 -55.5t-23.5 -56.5t-57.5 -23.5q-36 0 -58.5 23t-22.5 54q0 34 24 57.5t56 23.5zM310 521q125 0 205 -70.5t80 -190.5q0 -123 -80 -200.5t-201 -77.5
q-129 0 -207 70.5t-78 196.5q0 121 79 196.5t202 75.5zM389 75q32 60 30 181q-2 102 -30 144.5t-81 42.5q-41 0 -69 -17q-37 -49 -34 -174q1 -106 27.5 -151.5t83.5 -45.5q46 0 73 20z" />
    <glyph glyph-name="divide" unicode="&#xf7;" horiz-adv-x="553" 
d="M277 409q-31 0 -51.5 20.5t-20.5 49.5q0 31 20.5 51.5t51.5 20.5q32 0 51 -19.5t19 -49.5q0 -31 -19 -52t-51 -21zM61 362h431v-87h-431v87zM277 84q-31 0 -51.5 19.5t-20.5 49.5q0 31 20.5 52t51.5 21t50.5 -20.5t19.5 -49.5q0 -32 -19 -52t-51 -20z" />
    <glyph glyph-name="oslash" unicode="&#xf8;" horiz-adv-x="624" 
d="M314 -18q-93 0 -161 38l-62 -73l-47 40l59 69q-74 72 -74 193t79 196.5t202 75.5q89 0 157 -37l55 64l49 -40l-52 -61q76 -73 76 -187q0 -123 -80 -200.5t-201 -77.5zM205 252q0 -29 4 -71l183 214q-27 48 -84 48q-41 0 -69 -17q-37 -49 -34 -174zM419 256q-2 47 -5 68
l-185 -216q26 -53 87 -53q46 0 73 20q32 60 30 181z" />
    <glyph glyph-name="ugrave" unicode="&#xf9;" horiz-adv-x="671" 
d="M381 581l-228 133l110 116l154 -213q4 -5 -13.5 -22t-22.5 -14zM653 37q-16 -13 -70 -31t-81 -18q-29 0 -51 21t-31 53q-106 -74 -173 -74q-75 0 -118 38t-50 129q-7 88 5 239l-67 39q-3 2 -3.5 28.5t3.5 27.5q23 4 114 12q43 4 100 6q4 -20 2 -144q-1 -71 0 -143
q1 -37 1.5 -52t4 -35t10 -26.5t18 -12t30.5 -5.5q48 0 117 20q-3 38 -3 126q0 71 7 160l-67 36q-4 2 -4 28.5t4 27.5q15 4 110 14l105 8q5 -19 5 -184q0 -52 -3 -133t-3 -89l10 -14l76 -11q4 -1 4.5 -20.5t-2.5 -20.5z" />
    <glyph glyph-name="uacute" unicode="&#xfa;" horiz-adv-x="671" 
d="M270 581q-5 -3 -22.5 14t-13.5 22l154 213l110 -116zM653 37q-16 -13 -70 -31t-81 -18q-29 0 -51 21t-31 53q-106 -74 -173 -74q-75 0 -118 38t-50 129q-7 88 5 239l-67 39q-3 2 -3.5 28.5t3.5 27.5q23 4 114 12q43 4 100 6q4 -20 2 -144q-1 -71 0 -143q1 -37 1.5 -52
t4 -35t10 -26.5t18 -12t30.5 -5.5q48 0 117 20q-3 38 -3 126q0 71 7 160l-67 36q-4 2 -4 28.5t4 27.5q15 4 110 14l105 8q5 -19 5 -184q0 -52 -3 -133t-3 -89l10 -14l76 -11q4 -1 4.5 -20.5t-2.5 -20.5z" />
    <glyph glyph-name="ucircumflex" unicode="&#xfb;" horiz-adv-x="671" 
d="M494 615q1 -1 -8.5 -10t-20.5 -17t-13 -7l-138 109l-140 -109q-3 -2 -23.5 15t-18.5 19l147 201h70zM653 37q-16 -13 -70 -31t-81 -18q-29 0 -51 21t-31 53q-106 -74 -173 -74q-75 0 -118 38t-50 129q-7 88 5 239l-67 39q-3 2 -3.5 28.5t3.5 27.5q23 4 114 12q43 4 100 6
q4 -20 2 -144q-1 -71 0 -143q1 -37 1.5 -52t4 -35t10 -26.5t18 -12t30.5 -5.5q48 0 117 20q-3 38 -3 126q0 71 7 160l-67 36q-4 2 -4 28.5t4 27.5q15 4 110 14l105 8q5 -19 5 -184q0 -52 -3 -133t-3 -89l10 -14l76 -11q4 -1 4.5 -20.5t-2.5 -20.5z" />
    <glyph glyph-name="udieresis" unicode="&#xfc;" horiz-adv-x="671" 
d="M432 745q34 0 57.5 -22.5t23.5 -55.5t-22 -56.5t-57 -23.5t-59 23t-24 54q0 35 24 58t57 23zM199 745q34 0 58 -22.5t24 -55.5t-23.5 -56.5t-57.5 -23.5q-36 0 -58.5 23t-22.5 54q0 34 24 57.5t56 23.5zM653 37q-16 -13 -70 -31t-81 -18q-29 0 -51 21t-31 53
q-106 -74 -173 -74q-75 0 -118 38t-50 129q-7 88 5 239l-67 39q-3 2 -3.5 28.5t3.5 27.5q23 4 114 12q43 4 100 6q4 -20 2 -144q-1 -71 0 -143q1 -37 1.5 -52t4 -35t10 -26.5t18 -12t30.5 -5.5q48 0 117 20q-3 38 -3 126q0 71 7 160l-67 36q-4 2 -4 28.5t4 27.5q15 4 110 14
l105 8q5 -19 5 -184q0 -52 -3 -133t-3 -89l10 -14l76 -11q4 -1 4.5 -20.5t-2.5 -20.5z" />
    <glyph glyph-name="yacute" unicode="&#xfd;" horiz-adv-x="597" 
d="M275 581q-5 -3 -22.5 14t-13.5 22l154 213l110 -116zM175 -107q58 24 85 95q-46 89 -95 199q-41 91 -89 220l-65 41q-6 4 -6 29.5t7 25.5h288q4 0 4 -26.5t-4 -28.5l-59 -36q19 -36 52 -117q13 -32 52 -136l98 253l-60 36q-4 2 -4 28.5t5 26.5h204q5 0 5.5 -26t-4.5 -29
l-65 -41l-212 -482q-32 -73 -95.5 -115t-139.5 -34q-14 4 -26 35.5t-12 55.5q0 6 9.5 16.5t17.5 10.5z" />
    <glyph glyph-name="thorn" unicode="&#xfe;" horiz-adv-x="628" 
d="M323 -170q4 -2 4 -22.5t-4 -20.5h-301q-4 0 -4 20.5t4 22.5l61 39q-4 138 -4 400q0 226 4 352l-76 41q-3 2 -3 26t4 25q168 21 222 21q10 -34 10 -299q112 78 168 78q86 0 135.5 -59t50.5 -174q1 -143 -68 -216t-193 -73q-48 0 -94 19q0 -101 -2 -141zM334 406
q-38 0 -94 -21v-279q23 -45 85 -45q48 0 78 23q28 53 28 170q0 86 -23 119t-74 33z" />
    <glyph glyph-name="ydieresis" unicode="&#xff;" horiz-adv-x="597" 
d="M433 745q34 0 57.5 -22.5t23.5 -55.5t-22 -56.5t-57 -23.5t-59 23t-24 54q0 35 24 58t57 23zM200 745q34 0 58 -22.5t24 -55.5t-23.5 -56.5t-57.5 -23.5q-36 0 -58.5 23t-22.5 54q0 34 24 57.5t56 23.5zM175 -107q58 24 85 95q-46 89 -95 199q-41 91 -89 220l-65 41
q-6 4 -6 29.5t7 25.5h288q4 0 4 -26.5t-4 -28.5l-59 -36q19 -36 52 -117q13 -32 52 -136l98 253l-60 36q-4 2 -4 28.5t5 26.5h204q5 0 5.5 -26t-4.5 -29l-65 -41l-212 -482q-32 -73 -95.5 -115t-139.5 -34q-14 4 -26 35.5t-12 55.5q0 6 9.5 16.5t17.5 10.5z" />
    <glyph glyph-name="Amacron" unicode="&#x100;" horiz-adv-x="763" 
d="M215 774q-7 0 -7 53.5t7 53.5h332q7 0 6.5 -53.5t-6.5 -53.5h-332zM229 214l-46 -132l82 -39q4 -1 3.5 -22t-4.5 -21h-255q-3 0 -3.5 10.5t1 21t3.5 11.5l79 39l245 586q3 6 50.5 6t49.5 -6q35 -70 134 -308q59 -145 107 -278l79 -39q4 -2 4 -22.5t-5 -20.5h-353
q-3 0 -3.5 10.5t1 21t3.5 11.5l82 39q-26 57 -55 132h-199zM254 277h149q-47 122 -73 206z" />
    <glyph glyph-name="amacron" unicode="&#x101;" horiz-adv-x="579" 
d="M112 621q-7 0 -7 53.5t7 53.5h332q7 0 6.5 -53.5t-6.5 -53.5h-332zM413 -12q-27 3 -48.5 21.5t-32.5 46.5q-87 -71 -154 -71q-63 0 -100 35.5t-39 92.5q-2 46 18 84t55 57q53 22 213 35v26q0 72 -15 90t-63 18q-78 0 -163 -31q-1 0 -3.5 4t-5 10.5t-4.5 14t-2.5 13
t1.5 7.5q33 28 93 54t122 26q88 0 144.5 -40.5t59.5 -129.5q3 -92 -2 -247l10 -15l68 -11q4 0 4.5 -20t-2.5 -22q-14 -12 -72 -30t-82 -18zM197 137q3 -64 56 -64q40 0 74 30q-2 78 -2 135q-51 -7 -100 -26q-29 -27 -28 -75z" />
    <glyph glyph-name="Abreve" unicode="&#x102;" horiz-adv-x="763" 
d="M386 738q-78 0 -121 53.5t-43 144.5q0 3 13.5 4.5t27.5 0t15 -4.5q20 -87 108 -87t107 87q1 4 28.5 4t27.5 -4q0 -90 -43.5 -144t-119.5 -54zM229 214l-46 -132l82 -39q4 -1 3.5 -22t-4.5 -21h-255q-3 0 -3.5 10.5t1 21t3.5 11.5l79 39l245 586q3 6 50.5 6t49.5 -6
q35 -70 134 -308q59 -145 107 -278l79 -39q4 -2 4 -22.5t-5 -20.5h-353q-3 0 -3.5 10.5t1 21t3.5 11.5l82 39q-26 57 -55 132h-199zM254 277h149q-47 122 -73 206z" />
    <glyph glyph-name="abreve" unicode="&#x103;" horiz-adv-x="579" 
d="M280 582q-78 0 -121 53.5t-43 144.5q0 3 13.5 4.5t27.5 0t15 -4.5q20 -87 108 -87t107 87q1 4 28.5 4t27.5 -4q0 -90 -43.5 -144t-119.5 -54zM413 -12q-27 3 -48.5 21.5t-32.5 46.5q-87 -71 -154 -71q-63 0 -100 35.5t-39 92.5q-2 46 18 84t55 57q53 22 213 35v26
q0 72 -15 90t-63 18q-78 0 -163 -31q-1 0 -3.5 4t-5 10.5t-4.5 14t-2.5 13t1.5 7.5q33 28 93 54t122 26q88 0 144.5 -40.5t59.5 -129.5q3 -92 -2 -247l10 -15l68 -11q4 0 4.5 -20t-2.5 -22q-14 -12 -72 -30t-82 -18zM197 137q3 -64 56 -64q40 0 74 30q-2 78 -2 135
q-51 -7 -100 -26q-29 -27 -28 -75z" />
    <glyph glyph-name="Aogonek" unicode="&#x104;" horiz-adv-x="763" 
d="M773 -174q-54 -94 -154 -94q-60 0 -93.5 27t-33.5 71q0 88 147 170h-239q-3 0 -3.5 10.5t1 21t3.5 11.5l82 39q-26 57 -55 132h-199l-46 -132l82 -39q4 -1 3.5 -22t-4.5 -21h-255q-3 0 -3.5 10.5t1 21t3.5 11.5l79 39l245 586q3 6 50.5 6t49.5 -6q35 -70 134 -308
q59 -145 107 -278l79 -39q4 -2 4 -22.5t-5 -20.5h-60q2 2 4 3t4 3h-51q-2 -1 -5.5 -3t-5.5 -3h54q-34 -28 -59.5 -64.5t-25.5 -67.5q0 -54 56 -54q44 0 77 38q1 2 10 -3.5t16.5 -13t5.5 -9.5zM254 277h149q-47 122 -73 206z" />
    <glyph glyph-name="aogonek" unicode="&#x105;" horiz-adv-x="579" 
d="M555 -176q-54 -94 -154 -94q-60 0 -93.5 27t-33.5 71q0 83 131 161q-52 11 -73 67q-87 -71 -154 -71q-63 0 -100 35.5t-39 92.5q-2 46 18 84t55 57q53 22 213 35v26q0 72 -15 90t-63 18q-78 0 -163 -31q-1 0 -3.5 4t-5 10.5t-4.5 14t-2.5 13t1.5 7.5q33 28 93 54t122 26
q88 0 144.5 -40.5t59.5 -129.5q3 -92 -2 -247l10 -15l68 -11q4 0 4.5 -20t-2.5 -22q-18 -14 -87 -35q-35 -26 -62.5 -64t-27.5 -71q0 -54 56 -54q44 0 77 38q1 2 10 -3.5t16.5 -13t5.5 -9.5zM197 137q3 -64 56 -64q40 0 74 30q-2 78 -2 135q-51 -7 -100 -26q-29 -27 -28 -75
z" />
    <glyph glyph-name="Cacute" unicode="&#x106;" horiz-adv-x="680" 
d="M347 744q-5 -3 -22.5 14t-13.5 22l154 213l110 -116zM600 469l-71 116q-47 18 -114 18q-83 0 -126 -29q-55 -71 -55 -236q0 -145 42.5 -213.5t149.5 -68.5q64 0 104 15l79 125q1 2 6 3t10.5 1h11.5t9.5 -1.5t3.5 -3.5l-16 -135q-2 -18 -6.5 -25t-21.5 -15
q-80 -38 -208 -38q-164 0 -263 86.5t-99 242.5q0 179 103.5 275t265.5 96q117 0 201 -38q31 -14 32 -44l5 -131q0 -7 -20 -6.5t-23 6.5z" />
    <glyph glyph-name="cacute" unicode="&#x107;" horiz-adv-x="517" 
d="M252 581q-5 -3 -22.5 14t-13.5 22l154 213l110 -116zM397 338l-45 97q-18 8 -46 8q-42 0 -67 -17q-34 -47 -34 -167q0 -111 29.5 -148.5t108.5 -37.5q73 0 139 51q2 1 8.5 -7t11 -19t2.5 -16q-28 -45 -87.5 -72.5t-114.5 -27.5q-125 0 -199 63.5t-74 195.5t81.5 206
t207.5 74q71 0 122 -27t63 -68q5 -41 -17.5 -67t-56.5 -26q-22 0 -32 5z" />
    <glyph glyph-name="Ccircumflex" unicode="&#x108;" horiz-adv-x="680" 
d="M574 778q1 -1 -8.5 -10t-20.5 -17t-13 -7l-138 109l-140 -109q-3 -2 -23.5 15t-18.5 19l147 201h70zM600 469l-71 116q-47 18 -114 18q-83 0 -126 -29q-55 -71 -55 -236q0 -145 42.5 -213.5t149.5 -68.5q64 0 104 15l79 125q1 2 6 3t10.5 1h11.5t9.5 -1.5t3.5 -3.5
l-16 -135q-2 -18 -6.5 -25t-21.5 -15q-80 -38 -208 -38q-164 0 -263 86.5t-99 242.5q0 179 103.5 275t265.5 96q117 0 201 -38q31 -14 32 -44l5 -131q0 -7 -20 -6.5t-23 6.5z" />
    <glyph glyph-name="ccircumflex" unicode="&#x109;" horiz-adv-x="517" 
d="M483 615q1 -1 -8.5 -10t-20.5 -17t-13 -7l-138 109l-140 -109q-3 -2 -23.5 15t-18.5 19l147 201h70zM397 338l-45 97q-18 8 -46 8q-42 0 -67 -17q-34 -47 -34 -167q0 -111 29.5 -148.5t108.5 -37.5q73 0 139 51q2 1 8.5 -7t11 -19t2.5 -16q-28 -45 -87.5 -72.5
t-114.5 -27.5q-125 0 -199 63.5t-74 195.5t81.5 206t207.5 74q71 0 122 -27t63 -68q5 -41 -17.5 -67t-56.5 -26q-22 0 -32 5z" />
    <glyph glyph-name="Cdotaccent" unicode="&#x10a;" horiz-adv-x="680" 
d="M406 749q-39 0 -63 24t-24 59q0 37 25.5 61.5t60.5 24.5q36 0 61.5 -24.5t25.5 -60.5q0 -35 -25 -59.5t-61 -24.5zM600 469l-71 116q-47 18 -114 18q-83 0 -126 -29q-55 -71 -55 -236q0 -145 42.5 -213.5t149.5 -68.5q64 0 104 15l79 125q1 2 6 3t10.5 1h11.5t9.5 -1.5
t3.5 -3.5l-16 -135q-2 -18 -6.5 -25t-21.5 -15q-80 -38 -208 -38q-164 0 -263 86.5t-99 242.5q0 179 103.5 275t265.5 96q117 0 201 -38q31 -14 32 -44l5 -131q0 -7 -20 -6.5t-23 6.5z" />
    <glyph glyph-name="cdotaccent" unicode="&#x10b;" horiz-adv-x="517" 
d="M307 586q-39 0 -63 24t-24 59q0 37 25.5 61.5t60.5 24.5q36 0 61.5 -24.5t25.5 -60.5q0 -35 -25 -59.5t-61 -24.5zM397 338l-45 97q-18 8 -46 8q-42 0 -67 -17q-34 -47 -34 -167q0 -111 29.5 -148.5t108.5 -37.5q73 0 139 51q2 1 8.5 -7t11 -19t2.5 -16
q-28 -45 -87.5 -72.5t-114.5 -27.5q-125 0 -199 63.5t-74 195.5t81.5 206t207.5 74q71 0 122 -27t63 -68q5 -41 -17.5 -67t-56.5 -26q-22 0 -32 5z" />
    <glyph glyph-name="Ccaron" unicode="&#x10c;" horiz-adv-x="680" 
d="M228 952q-1 1 8.5 10t20.5 17t13 7l138 -109l140 109q3 2 23.5 -15t18.5 -19l-147 -201h-70zM600 469l-71 116q-47 18 -114 18q-83 0 -126 -29q-55 -71 -55 -236q0 -145 42.5 -213.5t149.5 -68.5q64 0 104 15l79 125q1 2 6 3t10.5 1h11.5t9.5 -1.5t3.5 -3.5l-16 -135
q-2 -18 -6.5 -25t-21.5 -15q-80 -38 -208 -38q-164 0 -263 86.5t-99 242.5q0 179 103.5 275t265.5 96q117 0 201 -38q31 -14 32 -44l5 -131q0 -7 -20 -6.5t-23 6.5z" />
    <glyph glyph-name="ccaron" unicode="&#x10d;" horiz-adv-x="517" 
d="M128 789q-1 1 8.5 10t20.5 17t13 7l138 -109l140 109q3 2 23.5 -15t18.5 -19l-147 -201h-70zM397 338l-45 97q-18 8 -46 8q-42 0 -67 -17q-34 -47 -34 -167q0 -111 29.5 -148.5t108.5 -37.5q73 0 139 51q2 1 8.5 -7t11 -19t2.5 -16q-28 -45 -87.5 -72.5t-114.5 -27.5
q-125 0 -199 63.5t-74 195.5t81.5 206t207.5 74q71 0 122 -27t63 -68q5 -41 -17.5 -67t-56.5 -26q-22 0 -32 5z" />
    <glyph glyph-name="Dcaron" unicode="&#x10e;" horiz-adv-x="817" 
d="M218 942q-1 1 8.5 10t20.5 17t13 7l138 -109l140 109q3 2 23.5 -15t18.5 -19l-147 -201h-70zM34 665h341q84 0 154.5 -18.5t127.5 -55.5t89 -100.5t32 -146.5q0 -87 -30 -154.5t-81.5 -108t-116 -61t-137.5 -20.5h-379q-4 0 -4 20.5t4 22.5l81 39q-5 165 -5 265
q0 84 5 231l-81 39q-4 2 -4 25t4 23zM390 69q88 0 138.5 65t50.5 206q0 171 -87 236q-37 12 -104 16q-39 1 -89 1v-507l10 -10q33 -7 81 -7z" />
    <glyph glyph-name="dcaron" unicode="&#x10f;" horiz-adv-x="751" 
d="M628 36q-15 -12 -73 -30t-82 -18q-26 2 -47.5 20.5t-32.5 47.5q-73 -66 -141 -66q-97 0 -157.5 56t-60.5 184q0 136 75.5 210.5t188.5 74.5q57 0 90 -17q0 65 4 123l-77 41q-4 2 -4 25.5t5 24.5q25 5 99 13.5t121 8.5q12 -41 12 -291q0 -193 -7 -339l11 -15l74 -11
q4 0 4.5 -20t-2.5 -22zM622 442q-3 -2 -11 7t-14 20t-4 12q76 44 90 92q-40 0 -64.5 22.5t-24.5 56.5q0 33 26 57t62 24q40 0 65.5 -24t25.5 -71q0 -66 -44 -115.5t-107 -80.5zM197 245q1 -101 24.5 -132t86.5 -31q44 0 80 18q-1 20 -1 312q-25 28 -75 28q-48 0 -83 -25
q-34 -58 -32 -170z" />
    <glyph glyph-name="Dcroat" unicode="&#x110;" horiz-adv-x="817" 
d="M778 344q0 -87 -30 -154.5t-81.5 -108t-116 -61t-137.5 -20.5h-379q-4 0 -4 20.5t4 22.5l81 39q-4 109 -5 226h-71v65h71q0 70 5 205l-81 39q-4 2 -4 25t4 23h341q84 0 154.5 -18.5t127.5 -55.5t89 -100.5t32 -146.5zM309 76q33 -7 81 -7q88 0 138.5 65t50.5 206
q0 171 -87 236q-37 12 -104 16q-39 1 -89 1v-220h136v-65h-136v-222z" />
    <glyph glyph-name="dcroat" unicode="&#x111;" horiz-adv-x="640" 
d="M628 36q-15 -12 -73 -30t-82 -18q-26 2 -47.5 20.5t-32.5 47.5q-73 -66 -141 -66q-97 0 -157.5 56t-60.5 184q0 135 74.5 203t189.5 68q58 0 89 -17q1 19 1 56h-125v61h127q0 5 0.5 14t1.5 13l-77 37q-4 2 -4 24t5 23q25 5 99 13.5t121 8.5q8 -28 11 -133h78v-61h-77v-97
q0 -193 -7 -339l11 -15l74 -11q4 0 4.5 -20t-2.5 -22zM197 245q1 -101 24.5 -132t86.5 -31q44 0 80 18q-1 20 -1 302q-25 28 -75 28q-48 0 -83 -25q-34 -58 -32 -160z" />
    <glyph glyph-name="Emacron" unicode="&#x112;" horiz-adv-x="651" 
d="M178 774q-7 0 -7 53.5t7 53.5h332q7 0 6.5 -53.5t-6.5 -53.5h-332zM607 21q-1 -6 -8 -13.5t-13 -7.5h-552q-4 0 -4 20.5t4 22.5l81 39q-5 165 -5 265q0 84 5 231l-81 39q-4 2 -4 25t4 23h538q3 0 9.5 -6t6.5 -9v-152q0 -3 -10 -4.5t-21 0t-13 4.5l-52 94l-193 6v-227
l156 4l40 60q2 4 21 3.5t19 -5.5v-188q0 -4 -19.5 -4t-21.5 3l-40 62l-155 4v-229l15 -16l190 10l73 123q1 2 6 2.5t11.5 0.5t13 -1t10.5 -2.5t4 -3.5z" />
    <glyph glyph-name="emacron" unicode="&#x113;" horiz-adv-x="552" 
d="M128 621q-7 0 -7 53.5t7 53.5h332q7 0 6.5 -53.5t-6.5 -53.5h-332zM303 -18q-124 0 -199 63.5t-75 198.5q0 127 80.5 202t195.5 75q106 0 166 -69t54 -163q-1 -11 -14 -26t-20 -15l-291 1q0 -100 34 -138t114 -38q81 0 151 51q2 2 8.5 -6.5t11 -19.5t2.5 -16
q-28 -43 -92.5 -71.5t-125.5 -28.5zM238 429q-29 -34 -36 -122l170 6q0 68 -16.5 99t-60.5 31q-33 0 -57 -14z" />
    <glyph glyph-name="Ebreve" unicode="&#x114;" horiz-adv-x="651" 
d="M355 735q-78 0 -121 53.5t-43 144.5q0 3 13.5 4.5t27.5 0t15 -4.5q20 -87 108 -87t107 87q1 5 28.5 5t27.5 -5q0 -90 -43.5 -144t-119.5 -54zM607 21q-1 -6 -8 -13.5t-13 -7.5h-552q-4 0 -4 20.5t4 22.5l81 39q-5 165 -5 265q0 84 5 231l-81 39q-4 2 -4 25t4 23h538
q3 0 9.5 -6t6.5 -9v-152q0 -3 -10 -4.5t-21 0t-13 4.5l-52 94l-193 6v-227l156 4l40 60q2 4 21 3.5t19 -5.5v-188q0 -4 -19.5 -4t-21.5 3l-40 62l-155 4v-229l15 -16l190 10l73 123q1 2 6 2.5t11.5 0.5t13 -1t10.5 -2.5t4 -3.5z" />
    <glyph glyph-name="ebreve" unicode="&#x115;" horiz-adv-x="552" 
d="M300 582q-78 0 -121 53.5t-43 144.5q0 3 13.5 4.5t27.5 0t15 -4.5q20 -87 108 -87t107 87q1 4 28.5 4t27.5 -4q0 -90 -43.5 -144t-119.5 -54zM303 -18q-124 0 -199 63.5t-75 198.5q0 127 80.5 202t195.5 75q106 0 166 -69t54 -163q-1 -11 -14 -26t-20 -15l-291 1
q0 -100 34 -138t114 -38q81 0 151 51q2 2 8.5 -6.5t11 -19.5t2.5 -16q-28 -43 -92.5 -71.5t-125.5 -28.5zM238 429q-29 -34 -36 -122l170 6q0 68 -16.5 99t-60.5 31q-33 0 -57 -14z" />
    <glyph glyph-name="Edotaccent" unicode="&#x116;" horiz-adv-x="651" 
d="M358 739q-39 0 -63 24t-24 59q0 37 25.5 61.5t60.5 24.5q36 0 61.5 -24.5t25.5 -60.5q0 -35 -25 -59.5t-61 -24.5zM607 21q-1 -6 -8 -13.5t-13 -7.5h-552q-4 0 -4 20.5t4 22.5l81 39q-5 165 -5 265q0 84 5 231l-81 39q-4 2 -4 25t4 23h538q3 0 9.5 -6t6.5 -9v-152
q0 -3 -10 -4.5t-21 0t-13 4.5l-52 94l-193 6v-227l156 4l40 60q2 4 21 3.5t19 -5.5v-188q0 -4 -19.5 -4t-21.5 3l-40 62l-155 4v-229l15 -16l190 10l73 123q1 2 6 2.5t11.5 0.5t13 -1t10.5 -2.5t4 -3.5z" />
    <glyph glyph-name="edotaccent" unicode="&#x117;" horiz-adv-x="552" 
d="M306 586q-39 0 -63 24t-24 59q0 37 25.5 61.5t60.5 24.5q36 0 61.5 -24.5t25.5 -60.5q0 -35 -25 -59.5t-61 -24.5zM303 -18q-124 0 -199 63.5t-75 198.5q0 127 80.5 202t195.5 75q106 0 166 -69t54 -163q-1 -11 -14 -26t-20 -15l-291 1q0 -100 34 -138t114 -38
q81 0 151 51q2 2 8.5 -6.5t11 -19.5t2.5 -16q-28 -43 -92.5 -71.5t-125.5 -28.5zM238 429q-29 -34 -36 -122l170 6q0 68 -16.5 99t-60.5 31q-33 0 -57 -14z" />
    <glyph glyph-name="Eogonek" unicode="&#x118;" horiz-adv-x="651" 
d="M616 -174q-54 -94 -154 -94q-60 0 -93.5 27t-33.5 71q0 88 147 170h-448q-4 0 -4 20.5t4 22.5l81 39q-5 165 -5 265q0 84 5 231l-81 39q-4 2 -4 25t4 23h538q3 0 9.5 -6t6.5 -9v-152q0 -3 -10 -4.5t-21 0t-13 4.5l-52 94l-193 6v-227l156 4l40 60q2 4 21 3.5t19 -5.5
v-188q0 -4 -19.5 -4t-21.5 3l-40 62l-155 4v-229l15 -16l190 10l73 123q1 2 6 2.5t11.5 0.5t13 -1t10.5 -2.5t4 -3.5l-15 -173q-1 -6 -8 -13.5t-13 -7.5h-50q-34 -28 -59.5 -64.5t-25.5 -67.5q0 -54 56 -54q44 0 77 38q1 2 10 -3.5t16.5 -13t5.5 -9.5z" />
    <glyph glyph-name="eogonek" unicode="&#x119;" horiz-adv-x="552" 
d="M473 -176q-54 -94 -154 -94q-60 0 -93.5 27t-33.5 71q0 80 120 154h-9q-124 0 -199 63.5t-75 198.5q0 127 80.5 202t195.5 75q106 0 166 -69t54 -163q-1 -11 -14 -26t-20 -15l-291 1q0 -100 34 -138t114 -38q81 0 151 51q2 2 8.5 -6.5t11 -19.5t2.5 -16q-38 -57 -129 -85
q-34 -28 -59 -64t-25 -67q0 -54 56 -54q44 0 77 38q1 2 10 -3.5t16.5 -13t5.5 -9.5zM238 429q-29 -34 -36 -122l170 6q0 68 -16.5 99t-60.5 31q-33 0 -57 -14z" />
    <glyph glyph-name="Ecaron" unicode="&#x11a;" horiz-adv-x="651" 
d="M171 942q-1 1 8.5 10t20.5 17t13 7l138 -109l140 109q3 2 23.5 -15t18.5 -19l-147 -201h-70zM607 21q-1 -6 -8 -13.5t-13 -7.5h-552q-4 0 -4 20.5t4 22.5l81 39q-5 165 -5 265q0 84 5 231l-81 39q-4 2 -4 25t4 23h538q3 0 9.5 -6t6.5 -9v-152q0 -3 -10 -4.5t-21 0
t-13 4.5l-52 94l-193 6v-227l156 4l40 60q2 4 21 3.5t19 -5.5v-188q0 -4 -19.5 -4t-21.5 3l-40 62l-155 4v-229l15 -16l190 10l73 123q1 2 6 2.5t11.5 0.5t13 -1t10.5 -2.5t4 -3.5z" />
    <glyph glyph-name="ecaron" unicode="&#x11b;" horiz-adv-x="552" 
d="M120 789q-1 1 8.5 10t20.5 17t13 7l138 -109l140 109q3 2 23.5 -15t18.5 -19l-147 -201h-70zM303 -18q-124 0 -199 63.5t-75 198.5q0 127 80.5 202t195.5 75q106 0 166 -69t54 -163q-1 -11 -14 -26t-20 -15l-291 1q0 -100 34 -138t114 -38q81 0 151 51q2 2 8.5 -6.5
t11 -19.5t2.5 -16q-28 -43 -92.5 -71.5t-125.5 -28.5zM238 429q-29 -34 -36 -122l170 6q0 68 -16.5 99t-60.5 31q-33 0 -57 -14z" />
    <glyph glyph-name="Gcircumflex" unicode="&#x11c;" horiz-adv-x="761" 
d="M594 778q1 -1 -8.5 -10t-20.5 -17t-13 -7l-138 109l-140 -109q-3 -2 -23.5 15t-18.5 19l147 201h70zM491 67l7 9v162l-72 35q-3 1 -4 12t0.5 21t3.5 10h288q4 0 4 -20t-4 -23l-49 -32q4 -54 4 -108q0 -99 -8 -133q-2 -5 -24 -5.5t-27 5.5l-24 28q-82 -46 -188 -46
q-166 0 -264 87t-98 247q0 93 31.5 165t85.5 115t121 64.5t142 21.5q131 0 215 -38q31 -15 32 -44l4 -131q0 -7 -19 -6.5t-23 6.5l-73 116q-45 18 -123 18q-92 0 -140 -29q-55 -67 -55 -236q0 -158 41 -220t141 -62q38 0 75 11z" />
    <glyph glyph-name="gcircumflex" unicode="&#x11d;" horiz-adv-x="542" 
d="M443 615q1 -1 -8.5 -10t-20.5 -17t-13 -7l-138 109l-140 -109q-3 -2 -23.5 15t-18.5 19l147 201h70zM251 -225q-234 0 -234 130q0 31 25 52t84 49q-64 26 -64 76q0 49 106 99q-123 39 -128 154q-5 87 54.5 135t152.5 48q63 0 113 -21h165q2 0 4 -16.5t1 -34t-4 -17.5
l-85 -9q22 -25 25 -76q2 -41 -14 -74t-45 -52.5t-61 -31t-67 -15.5q-25 -3 -47 -1q-9 -1 -23 -8t-17 -15q0 -20 26.5 -26.5t121.5 -15.5q103 -9 144.5 -37.5t40.5 -95.5q-1 -81 -82 -139t-192 -58zM329 346q-2 56 -22.5 79.5t-58.5 21.5q-29 -1 -50 -14q-24 -34 -22 -93
q2 -55 23 -81t58 -24q34 2 55 18q20 34 17 93zM173 -9q-18 -11 -35.5 -30.5t-17.5 -32.5q0 -41 51.5 -63t123.5 -22q59 0 90 19q26 26 26 56q0 28 -21 39t-88 18q-92 8 -129 16z" />
    <glyph glyph-name="Gbreve" unicode="&#x11e;" horiz-adv-x="761" 
d="M411 745q-78 0 -121 53.5t-43 144.5q0 3 13.5 4.5t27.5 0t15 -4.5q20 -87 108 -87t107 87q1 5 28.5 5t27.5 -5q0 -90 -43.5 -144t-119.5 -54zM491 67l7 9v162l-72 35q-3 1 -4 12t0.5 21t3.5 10h288q4 0 4 -20t-4 -23l-49 -32q4 -54 4 -108q0 -99 -8 -133q-2 -5 -24 -5.5
t-27 5.5l-24 28q-82 -46 -188 -46q-166 0 -264 87t-98 247q0 93 31.5 165t85.5 115t121 64.5t142 21.5q131 0 215 -38q31 -15 32 -44l4 -131q0 -7 -19 -6.5t-23 6.5l-73 116q-45 18 -123 18q-92 0 -140 -29q-55 -67 -55 -236q0 -158 41 -220t141 -62q38 0 75 11z" />
    <glyph glyph-name="gbreve" unicode="&#x11f;" horiz-adv-x="542" 
d="M267 582q-78 0 -121 53.5t-43 144.5q0 3 13.5 4.5t27.5 0t15 -4.5q20 -87 108 -87t107 87q1 4 28.5 4t27.5 -4q0 -90 -43.5 -144t-119.5 -54zM251 -225q-234 0 -234 130q0 31 25 52t84 49q-64 26 -64 76q0 49 106 99q-123 39 -128 154q-5 87 54.5 135t152.5 48
q63 0 113 -21h165q2 0 4 -16.5t1 -34t-4 -17.5l-85 -9q22 -25 25 -76q2 -41 -14 -74t-45 -52.5t-61 -31t-67 -15.5q-25 -3 -47 -1q-9 -1 -23 -8t-17 -15q0 -20 26.5 -26.5t121.5 -15.5q103 -9 144.5 -37.5t40.5 -95.5q-1 -81 -82 -139t-192 -58zM329 346q-2 56 -22.5 79.5
t-58.5 21.5q-29 -1 -50 -14q-24 -34 -22 -93q2 -55 23 -81t58 -24q34 2 55 18q20 34 17 93zM173 -9q-18 -11 -35.5 -30.5t-17.5 -32.5q0 -41 51.5 -63t123.5 -22q59 0 90 19q26 26 26 56q0 28 -21 39t-88 18q-92 8 -129 16z" />
    <glyph glyph-name="Gdotaccent" unicode="&#x120;" horiz-adv-x="761" 
d="M416 749q-39 0 -63 24t-24 59q0 37 25.5 61.5t60.5 24.5q36 0 61.5 -24.5t25.5 -60.5q0 -35 -25 -59.5t-61 -24.5zM491 67l7 9v162l-72 35q-3 1 -4 12t0.5 21t3.5 10h288q4 0 4 -20t-4 -23l-49 -32q4 -54 4 -108q0 -99 -8 -133q-2 -5 -24 -5.5t-27 5.5l-24 28
q-82 -46 -188 -46q-166 0 -264 87t-98 247q0 93 31.5 165t85.5 115t121 64.5t142 21.5q131 0 215 -38q31 -15 32 -44l4 -131q0 -7 -19 -6.5t-23 6.5l-73 116q-45 18 -123 18q-92 0 -140 -29q-55 -67 -55 -236q0 -158 41 -220t141 -62q38 0 75 11z" />
    <glyph glyph-name="gdotaccent" unicode="&#x121;" horiz-adv-x="542" 
d="M262 586q-39 0 -63 24t-24 59q0 37 25.5 61.5t60.5 24.5q36 0 61.5 -24.5t25.5 -60.5q0 -35 -25 -59.5t-61 -24.5zM251 -225q-234 0 -234 130q0 31 25 52t84 49q-64 26 -64 76q0 49 106 99q-123 39 -128 154q-5 87 54.5 135t152.5 48q63 0 113 -21h165q2 0 4 -16.5t1 -34
t-4 -17.5l-85 -9q22 -25 25 -76q2 -41 -14 -74t-45 -52.5t-61 -31t-67 -15.5q-25 -3 -47 -1q-9 -1 -23 -8t-17 -15q0 -20 26.5 -26.5t121.5 -15.5q103 -9 144.5 -37.5t40.5 -95.5q-1 -81 -82 -139t-192 -58zM329 346q-2 56 -22.5 79.5t-58.5 21.5q-29 -1 -50 -14
q-24 -34 -22 -93q2 -55 23 -81t58 -24q34 2 55 18q20 34 17 93zM173 -9q-18 -11 -35.5 -30.5t-17.5 -32.5q0 -41 51.5 -63t123.5 -22q59 0 90 19q26 26 26 56q0 28 -21 39t-88 18q-92 8 -129 16z" />
    <glyph glyph-name="Gcommaaccent" unicode="&#x122;" horiz-adv-x="761" 
d="M491 67l7 9v162l-72 35q-3 1 -4 12t0.5 21t3.5 10h288q4 0 4 -20t-4 -23l-49 -32q4 -54 4 -108q0 -99 -8 -133q-2 -5 -24 -5.5t-27 5.5l-24 28q-82 -46 -188 -46q-166 0 -264 87t-98 247q0 93 31.5 165t85.5 115t121 64.5t142 21.5q131 0 215 -38q31 -15 32 -44l4 -131
q0 -7 -19 -6.5t-23 6.5l-73 116q-45 18 -123 18q-92 0 -140 -29q-55 -67 -55 -236q0 -158 41 -220t141 -62q38 0 75 11zM343 -355q-3 -2 -11 7t-14 20t-4 12q76 44 90 92q-40 0 -64.5 22.5t-24.5 56.5q0 33 26 57t62 24q40 0 65.5 -24t25.5 -71q0 -66 -44 -115.5t-107 -80.5
z" />
    <glyph glyph-name="gcommaaccent" unicode="&#x123;" horiz-adv-x="542" 
d="M320 853q3 2 11 -7t14 -20t4 -12q-76 -44 -90 -92q40 0 64.5 -22.5t24.5 -56.5q0 -33 -26 -57t-62 -24q-40 0 -65.5 24t-25.5 71q0 66 44 115.5t107 80.5zM251 -225q-234 0 -234 130q0 31 25 52t84 49q-64 26 -64 76q0 49 106 99q-123 39 -128 154q-5 87 54.5 135
t152.5 48q63 0 113 -21h165q2 0 4 -16.5t1 -34t-4 -17.5l-85 -9q22 -25 25 -76q2 -41 -14 -74t-45 -52.5t-61 -31t-67 -15.5q-25 -3 -47 -1q-9 -1 -23 -8t-17 -15q0 -20 26.5 -26.5t121.5 -15.5q103 -9 144.5 -37.5t40.5 -95.5q-1 -81 -82 -139t-192 -58zM329 346
q-2 56 -22.5 79.5t-58.5 21.5q-29 -1 -50 -14q-24 -34 -22 -93q2 -55 23 -81t58 -24q34 2 55 18q20 34 17 93zM173 -9q-18 -11 -35.5 -30.5t-17.5 -32.5q0 -41 51.5 -63t123.5 -22q59 0 90 19q26 26 26 56q0 28 -21 39t-88 18q-92 8 -129 16z" />
    <glyph glyph-name="Hcircumflex" unicode="&#x124;" horiz-adv-x="844" 
d="M603 768q1 -1 -8.5 -10t-20.5 -17t-13 -7l-138 109l-140 -109q-3 -2 -23.5 15t-18.5 19l147 201h70zM810 0h-335q-4 0 -4 20.5t4 22.5l70 39v226h-246v-226l71 -39q3 -2 3.5 -22.5t-3.5 -20.5h-336q-4 0 -4 20.5t4 22.5l81 39q-5 165 -5 265q0 84 5 231l-81 39
q-4 2 -4 25t4 23h336q2 0 3 -11.5t0 -23.5t-3 -13l-71 -39v-205h246v205l-71 39q-3 1 -3 24.5t3 23.5h336q4 0 4 -23t-4 -25l-80 -39q4 -118 4 -230q0 -132 -4 -266l80 -39q4 -2 4 -22.5t-4 -20.5z" />
    <glyph glyph-name="hcircumflex" unicode="&#x125;" horiz-adv-x="667" 
d="M332 792q1 -1 -8.5 -10t-20.5 -17t-13 -7l-138 109l-140 -109q-3 -2 -23.5 15t-18.5 19l147 201h70zM303 43q3 -2 3 -22.5t-3 -20.5h-271q-4 0 -4 20.5t4 22.5l61 39q-5 178 -5 283q0 106 5 256l-76 41q-3 2 -3 26t4 25q131 21 222 21q11 -37 11 -158v-141q109 78 175 78
q151 0 156 -174q3 -98 -10 -257l67 -39q3 -2 3.5 -22.5t-3.5 -20.5h-279q-4 0 -3.5 20.5t3.5 22.5l53 39q5 97 5 197q0 78 -10.5 102t-54.5 24q-49 0 -102 -20q-2 -222 -4 -303z" />
    <glyph glyph-name="Hbar" unicode="&#x126;" horiz-adv-x="844" 
d="M370 43q3 -2 3.5 -22.5t-3.5 -20.5h-336q-4 0 -4 20.5t4 22.5l81 39q-5 165 -5 265q0 73 1 102h-65v65h67q0 22 2 64l-81 39q-4 2 -4 25t4 23h336q2 0 3 -11.5t0 -23.5t-3 -13l-71 -39v-64h246v64l-71 39q-3 1 -3 24.5t3 23.5h336q4 0 4 -23t-4 -25l-80 -39
q1 -11 1.5 -32t0.5 -32h66v-65h-65q1 -28 1 -101q0 -132 -4 -266l80 -39q4 -2 4 -22.5t-4 -20.5h-335q-4 0 -4 20.5t4 22.5l70 39v226h-246v-226zM299 373h246v76h-246v-76z" />
    <glyph glyph-name="hbar" unicode="&#x127;" horiz-adv-x="667" 
d="M303 43q3 -2 3 -22.5t-3 -20.5h-271q-4 0 -4 20.5t4 22.5l61 39q-5 178 -5 283q0 96 3 175h-68v61h70q0 5 0.5 14.5t0.5 13.5l-77 36q-3 2 -3 24.5t4 23.5q131 21 222 21q11 -37 11 -133h119v-61h-119v-105q109 78 175 78q151 0 156 -174q3 -98 -10 -257l67 -39
q3 -2 3.5 -22.5t-3.5 -20.5h-279q-4 0 -3.5 20.5t3.5 22.5l53 39q5 97 5 197q0 78 -10.5 102t-54.5 24q-49 0 -102 -20q-2 -222 -4 -303z" />
    <glyph glyph-name="Itilde" unicode="&#x128;" horiz-adv-x="431" 
d="M278 753q-11 0 -23.5 2.5t-20.5 5t-22.5 8t-20.5 7.5q-50 20 -67 20q-30 0 -51 -44q-3 -2 -14 -2t-23 2t-12 5q14 73 48.5 112t78.5 39q30 0 90 -24q45 -18 67 -18q31 0 47 40q1 2 6.5 2.5t13 0t15 -1.5t12.5 -2.5t5 -2.5q-41 -149 -129 -149zM312 347q0 -100 -5 -265
l82 -39q3 -2 3.5 -22.5t-3.5 -20.5h-346q-4 0 -4 20.5t4 22.5l81 39q-5 165 -5 265q0 84 5 231l-81 39q-4 1 -4 24.5t4 23.5h347q2 0 2.5 -11.5t-0.5 -23.5t-3 -13l-82 -39q5 -148 5 -231z" />
    <glyph glyph-name="itilde" unicode="&#x129;" horiz-adv-x="337" 
d="M219 600q-11 0 -22.5 2.5t-18.5 5t-21 8t-19 7.5q-48 20 -63 20q-28 0 -48 -44q0 -1 -3 -1.5t-7.5 -0.5t-9.5 0.5t-9.5 1t-8.5 1t-6.5 2t-2.5 2.5q12 72 45 111.5t75 39.5q27 0 85 -24q40 -18 62 -18q30 0 45 40q2 4 26 2t24 -6q-39 -149 -123 -149zM251 508
q4 -27 4 -222q0 -122 -4 -204l59 -39q3 -2 3 -22.5t-3 -20.5h-271q-4 0 -4 20.5t4 22.5l61 39q-4 80 -4 163q0 75 2 151l-74 47q-3 2 -3 28t4 27q85 10 226 10z" />
    <glyph glyph-name="Imacron" unicode="&#x12a;" horiz-adv-x="431" 
d="M50 774q-7 0 -7 53.5t7 53.5h332q7 0 6.5 -53.5t-6.5 -53.5h-332zM312 347q0 -100 -5 -265l82 -39q3 -2 3.5 -22.5t-3.5 -20.5h-346q-4 0 -4 20.5t4 22.5l81 39q-5 165 -5 265q0 84 5 231l-81 39q-4 1 -4 24.5t4 23.5h347q2 0 2.5 -11.5t-0.5 -23.5t-3 -13l-82 -39
q5 -148 5 -231z" />
    <glyph glyph-name="imacron" unicode="&#x12b;" horiz-adv-x="337" 
d="M-5 621q-7 0 -7 53.5t7 53.5h312q7 0 6.5 -53.5t-6.5 -53.5h-312zM251 508q4 -27 4 -222q0 -122 -4 -204l59 -39q3 -2 3 -22.5t-3 -20.5h-271q-4 0 -4 20.5t4 22.5l61 39q-4 80 -4 163q0 75 2 151l-74 47q-3 2 -3 28t4 27q85 10 226 10z" />
    <glyph glyph-name="Ibreve" unicode="&#x12c;" horiz-adv-x="431" 
d="M216 735q-78 0 -121 53.5t-43 144.5q0 3 13.5 4.5t27.5 0t15 -4.5q20 -87 108 -87t107 87q1 5 28.5 5t27.5 -5q0 -90 -43.5 -144t-119.5 -54zM312 347q0 -100 -5 -265l82 -39q3 -2 3.5 -22.5t-3.5 -20.5h-346q-4 0 -4 20.5t4 22.5l81 39q-5 165 -5 265q0 84 5 231l-81 39
q-4 1 -4 24.5t4 23.5h347q2 0 2.5 -11.5t-0.5 -23.5t-3 -13l-82 -39q5 -148 5 -231z" />
    <glyph glyph-name="ibreve" unicode="&#x12d;" horiz-adv-x="337" 
d="M159 582q-78 0 -118.5 53t-40.5 145q0 3 13.5 4.5t27.5 0t15 -4.5q10 -46 35 -66.5t68 -20.5q83 0 102 87q1 4 28.5 4t27.5 -4q0 -91 -41 -144.5t-117 -53.5zM251 508q4 -27 4 -222q0 -122 -4 -204l59 -39q3 -2 3 -22.5t-3 -20.5h-271q-4 0 -4 20.5t4 22.5l61 39
q-4 80 -4 163q0 75 2 151l-74 47q-3 2 -3 28t4 27q85 10 226 10z" />
    <glyph glyph-name="Iogonek" unicode="&#x12e;" horiz-adv-x="431" 
d="M376 -172q-54 -94 -154 -94q-60 0 -93.5 27t-33.5 71q0 88 143 168h-195q-4 0 -4 20.5t4 22.5l81 39q-5 165 -5 265q0 84 5 231l-81 39q-4 1 -4 24.5t4 23.5h347q2 0 2.5 -11.5t-0.5 -23.5t-3 -13l-82 -39q5 -148 5 -231q0 -100 -5 -265l82 -39q3 -2 3.5 -22.5
t-3.5 -20.5h-95q-33 -27 -58 -63t-25 -67q0 -54 56 -54q44 0 77 38q1 2 10 -3.5t16.5 -13t5.5 -9.5z" />
    <glyph glyph-name="iogonek" unicode="&#x12f;" horiz-adv-x="337" 
d="M161 555q-41 0 -70 29t-29 70q0 40 29 69.5t70 29.5t70 -29t29 -70t-29 -70t-70 -29zM324 -174q-54 -94 -154 -94q-60 0 -93.5 27t-33.5 71q0 88 147 170h-151q-4 0 -4 20.5t4 22.5l61 39q-4 80 -4 163q0 75 2 151l-74 47q-3 2 -3 28t4 27q85 10 226 10q4 -27 4 -222
q0 -122 -4 -204l59 -39q3 -2 3 -22.5t-3 -20.5h-66q-34 -28 -59.5 -64.5t-25.5 -67.5q0 -54 56 -54q44 0 77 38q1 2 10 -3.5t16.5 -13t5.5 -9.5z" />
    <glyph glyph-name="Idotaccent" unicode="&#x130;" horiz-adv-x="431" 
d="M216 739q-39 0 -63 24t-24 59q0 37 25.5 61.5t60.5 24.5q36 0 61.5 -24.5t25.5 -60.5q0 -35 -25 -59.5t-61 -24.5zM312 347q0 -100 -5 -265l82 -39q3 -2 3.5 -22.5t-3.5 -20.5h-346q-4 0 -4 20.5t4 22.5l81 39q-5 165 -5 265q0 84 5 231l-81 39q-4 1 -4 24.5t4 23.5h347
q2 0 2.5 -11.5t-0.5 -23.5t-3 -13l-82 -39q5 -148 5 -231z" />
    <glyph glyph-name="dotlessi" unicode="&#x131;" horiz-adv-x="337" 
d="M251 508q4 -27 4 -222q0 -122 -4 -204l59 -39q3 -2 3 -22.5t-3 -20.5h-271q-4 0 -4 20.5t4 22.5l61 39q-4 80 -4 163q0 75 2 151l-74 47q-3 2 -3 28t4 27q85 10 226 10z" />
    <glyph glyph-name="IJ" unicode="&#x132;" horiz-adv-x="801" 
d="M312 347q0 -100 -5 -265l82 -39q3 -2 3.5 -22.5t-3.5 -20.5h-346q-4 0 -4 20.5t4 22.5l81 39q-5 165 -5 265q0 84 5 231l-81 39q-4 1 -4 24.5t4 23.5h347q2 0 2.5 -11.5t-0.5 -23.5t-3 -13l-82 -39q5 -148 5 -231zM692 578q9 -194 5 -361q-3 -132 -13 -184t-43 -88
q-34 -38 -109 -59.5t-149 -21.5q-6 0 -9.5 14.5t1.5 17.5q81 52 121 87q14 40 14 224v371l-85 39q-4 1 -4 24.5t4 23.5h352q4 0 4 -23.5t-4 -24.5z" />
    <glyph glyph-name="ij" unicode="&#x133;" horiz-adv-x="645" 
d="M161 555q-41 0 -70 29t-29 70q0 40 29 69.5t70 29.5t70 -29t29 -70t-29 -70t-70 -29zM469 555q-41 0 -70 29.5t-29 69.5q0 41 29 70t70 29t70.5 -29t29.5 -70t-29.5 -70t-70.5 -29zM25 498q85 10 226 10q4 -27 4 -222q0 -122 -4 -204l59 -39q3 -2 3 -22.5t-3 -20.5h-271
q-4 0 -4 20.5t4 22.5l61 39q-4 80 -4 163q0 75 2 151l-74 47q-3 2 -3 28t4 27zM559 508q7 -56 7 -244q0 -183 -4 -271q-3 -58 -26.5 -99.5t-65 -65.5t-82.5 -36.5t-95 -19.5q-5 -1 -11 21.5t-2 25.5l104 78q23 44 23 163v336l-74 47q-3 2 -3 28t4 27q100 10 225 10z" />
    <glyph glyph-name="Jcircumflex" unicode="&#x134;" horiz-adv-x="404" 
d="M386 768q1 -1 -8.5 -10t-20.5 -17t-13 -7l-138 109l-140 -109q-3 -2 -23.5 15t-18.5 19l147 201h70zM295 578q9 -194 5 -361q-3 -132 -13 -184t-43 -88q-34 -38 -109 -59.5t-149 -21.5q-6 0 -9.5 14.5t1.5 17.5q81 52 121 87q14 40 14 224v371l-85 39q-4 1 -4 24.5
t4 23.5h352q4 0 4 -23.5t-4 -24.5z" />
    <glyph glyph-name="jcircumflex" unicode="&#x135;" horiz-adv-x="333" 
d="M186 816l135 -201q1 -1 -8.5 -10t-20.5 -17t-13 -7l-128 109l-130 -109q-3 -2 -23.5 15t-18.5 19l137 201h70zM247 508q7 -56 7 -244q0 -183 -4 -271q-3 -58 -26.5 -99.5t-65 -65.5t-82.5 -36.5t-95 -19.5q-5 -1 -11 21.5t-2 25.5l104 78q23 44 23 163v336l-74 47
q-3 2 -3 28t4 27q100 10 225 10z" />
    <glyph glyph-name="Kcommaaccent" unicode="&#x136;" horiz-adv-x="785" 
d="M370 43q3 -2 3.5 -22.5t-3.5 -20.5h-336q-4 0 -4 20.5t4 22.5l81 39q-5 165 -5 265q0 84 5 231l-81 39q-4 2 -4 25t4 23h336q2 0 3 -11.5t0 -23.5t-3 -13l-71 -39v-259l249 266l-44 32q-4 2 -4 25t4 23h244q2 0 3.5 -11.5t0.5 -23.5t-4 -13l-103 -40l-156 -147l222 -348
l83 -39q5 -2 4.5 -22t-5.5 -21h-271l-6 48l-158 256l-59 -55v-167zM367 -355q-3 -2 -11 7t-14 20t-4 12q76 44 90 92q-40 0 -64.5 22.5t-24.5 56.5q0 33 26 57t62 24q40 0 65.5 -24t25.5 -71q0 -66 -44 -115.5t-107 -80.5z" />
    <glyph glyph-name="kcommaaccent" unicode="&#x137;" horiz-adv-x="657" 
d="M303 43q3 -2 3 -22.5t-3 -20.5h-271q-4 0 -4 20.5t4 22.5l61 39q-5 178 -5 283q0 106 5 256l-76 41q-3 2 -3 26t4 25q147 21 222 21q11 -37 11 -158q0 -229 -1 -307l151 151l-37 30q-5 5 -5 29t6 24h248q6 0 5.5 -26.5t-5.5 -28.5l-127 -45l-68 -58q36 -64 77 -128
q47 -75 88 -134l73 -40q4 -2 4 -22.5t-4 -20.5h-202q-29 34 -96 151q-15 25 -57 100l-51 -50q-1 -69 -3 -119zM287 -350q-3 -2 -11 7t-14 20t-4 12q76 44 90 92q-40 0 -64.5 22.5t-24.5 56.5q0 33 26 57t62 24q40 0 65.5 -24t25.5 -71q0 -66 -44 -115.5t-107 -80.5z" />
    <glyph glyph-name="kgreenlandic" unicode="&#x138;" horiz-adv-x="662" 
d="M307 43q3 -2 3 -22.5t-3 -20.5h-270q-4 0 -4 20.5t4 22.5l61 39q-4 80 -4 161q0 80 4 158l-76 47q-4 2 -3.5 28t4.5 27q85 10 221 10q12 -40 12 -188v-55l174 193q16 17 24 24.5t21 13t30 5.5q75 0 115 -8q5 -1 5 -25.5t-5 -25.5l-134 -44l-64 -55q43 -76 78 -131
q47 -75 88 -134l73 -40q4 -2 4 -22.5t-4 -20.5h-202q-29 34 -96 151q-15 25 -57 100l-51 -49q-2 -84 -3 -120z" />
    <glyph glyph-name="Lacute" unicode="&#x139;" horiz-adv-x="642" 
d="M159 734q-5 -3 -22.5 14t-13.5 22l154 213l110 -116zM34 0q-4 0 -4 20.5t4 22.5l81 39q-5 165 -5 265q0 84 5 231l-81 39q-4 2 -4 25t4 23h359q4 0 4 -23.5t-4 -24.5l-94 -39v-497l15 -16l191 10l72 134q2 5 23.5 5t21.5 -5l-15 -188q-1 -6 -8.5 -13.5t-13.5 -7.5h-551z
" />
    <glyph glyph-name="lacute" unicode="&#x13a;" horiz-adv-x="341" 
d="M84 773q-5 -3 -22.5 14t-13.5 22l154 213l110 -116zM255 372q-2 -212 -4 -290l61 -39q3 -2 3 -22.5t-3 -20.5h-276q-4 0 -4 20.5t4 22.5l61 39q-5 178 -5 283q0 106 5 256l-76 41q-3 2 -3 26t4 25q168 21 222 21q4 -16 6.5 -44.5t3.5 -73.5t1.5 -76.5t0 -90t-0.5 -77.5z
" />
    <glyph glyph-name="Lcommaaccent" unicode="&#x13b;" horiz-adv-x="642" 
d="M34 0q-4 0 -4 20.5t4 22.5l81 39q-5 165 -5 265q0 84 5 231l-81 39q-4 2 -4 25t4 23h359q4 0 4 -23.5t-4 -24.5l-94 -39v-497l15 -16l191 10l72 134q2 5 23.5 5t21.5 -5l-15 -188q-1 -6 -8.5 -13.5t-13.5 -7.5h-551zM307 -355q-3 -2 -11 7t-14 20t-4 12q76 44 90 92
q-40 0 -64.5 22.5t-24.5 56.5q0 33 26 57t62 24q40 0 65.5 -24t25.5 -71q0 -66 -44 -115.5t-107 -80.5z" />
    <glyph glyph-name="lcommaaccent" unicode="&#x13c;" horiz-adv-x="341" 
d="M255 372q-2 -212 -4 -290l61 -39q3 -2 3 -22.5t-3 -20.5h-276q-4 0 -4 20.5t4 22.5l61 39q-5 178 -5 283q0 106 5 256l-76 41q-3 2 -3 26t4 25q168 21 222 21q4 -16 6.5 -44.5t3.5 -73.5t1.5 -76.5t0 -90t-0.5 -77.5zM117 -355q-3 -2 -11 7t-14 20t-4 12q76 44 90 92
q-40 0 -64.5 22.5t-24.5 56.5q0 33 26 57t62 24q40 0 65.5 -24t25.5 -71q0 -66 -44 -115.5t-107 -80.5z" />
    <glyph glyph-name="Lcaron" unicode="&#x13d;" horiz-adv-x="642" 
d="M475 391q-3 -2 -11 7t-14 20t-4 12q76 44 90 92q-40 0 -64.5 22.5t-24.5 56.5q0 33 26 57t62 24q40 0 65.5 -24t25.5 -71q0 -66 -44 -115.5t-107 -80.5zM34 0q-4 0 -4 20.5t4 22.5l81 39q-5 165 -5 265q0 84 5 231l-81 39q-4 2 -4 25t4 23h359q4 0 4 -23.5t-4 -24.5
l-94 -39v-497l15 -16l191 10l72 134q2 5 23.5 5t21.5 -5l-15 -188q-1 -6 -8.5 -13.5t-13.5 -7.5h-551z" />
    <glyph glyph-name="lcaron" unicode="&#x13e;" horiz-adv-x="464" 
d="M255 372q-2 -212 -4 -290l61 -39q3 -2 3 -22.5t-3 -20.5h-276q-4 0 -4 20.5t4 22.5l61 39q-5 178 -5 283q0 106 5 256l-76 41q-3 2 -3 26t4 25q168 21 222 21q4 -16 6.5 -44.5t3.5 -73.5t1.5 -76.5t0 -90t-0.5 -77.5zM342 442q-3 -2 -11 7t-14 20t-4 12q76 44 90 92
q-40 0 -64.5 22.5t-24.5 56.5q0 33 26 57t62 24q40 0 65.5 -24t25.5 -71q0 -66 -44 -115.5t-107 -80.5z" />
    <glyph glyph-name="Ldot" unicode="&#x13f;" horiz-adv-x="642" 
d="M34 0q-4 0 -4 20.5t4 22.5l81 39q-5 165 -5 265q0 84 5 231l-81 39q-4 2 -4 25t4 23h359q4 0 4 -23.5t-4 -24.5l-94 -39v-497l15 -16l191 10l72 134q2 5 23.5 5t21.5 -5l-15 -188q-1 -6 -8.5 -13.5t-13.5 -7.5h-551zM520 264q-40 0 -68.5 27.5t-28.5 67.5q0 42 28.5 70
t68.5 28q42 0 69.5 -28t27.5 -70q0 -41 -27.5 -68t-69.5 -27z" />
    <glyph glyph-name="ldot" unicode="&#x140;" horiz-adv-x="476" 
d="M255 372q-2 -212 -4 -290l61 -39q3 -2 3 -22.5t-3 -20.5h-276q-4 0 -4 20.5t4 22.5l61 39q-5 178 -5 283q0 106 5 256l-76 41q-3 2 -3 26t4 25q168 21 222 21q4 -16 6.5 -44.5t3.5 -73.5t1.5 -76.5t0 -90t-0.5 -77.5zM405 267q-39 0 -63 24t-24 59q0 37 25.5 61.5
t60.5 24.5q36 0 61.5 -24.5t25.5 -60.5q0 -35 -25 -59.5t-61 -24.5z" />
    <glyph glyph-name="Lslash" unicode="&#x141;" horiz-adv-x="642" 
d="M585 0h-551q-4 0 -4 20.5t4 22.5l81 39q0 9 -1.5 64.5t-2.5 91.5l-68 -28l-26 70l93 37q0 89 5 261l-81 39q-4 2 -4 25t4 23h359q4 0 4 -23.5t-4 -24.5l-94 -39v-200l140 57l26 -70l-166 -67v-217l15 -16l191 10l72 134q2 5 23.5 5t21.5 -5l-15 -188q-1 -6 -8.5 -13.5
t-13.5 -7.5z" />
    <glyph glyph-name="lslash" unicode="&#x142;" horiz-adv-x="381" 
d="M332 43q3 -2 3 -22.5t-3 -20.5h-276q-4 0 -4 20.5t4 22.5l61 39q-4 99 -5 210l-73 -41l-32 65l105 59q0 101 5 246l-76 41q-3 2 -3 26t4 25q168 21 222 21q13 -48 11 -299l73 40l32 -65l-105 -58q-2 -196 -4 -270z" />
    <glyph glyph-name="Nacute" unicode="&#x143;" horiz-adv-x="786" 
d="M384 734q-5 -3 -22.5 14t-13.5 22l154 213l110 -116zM194 495l2 -410l93 -42q4 -2 4 -22.5t-4 -20.5h-259q-4 0 -4 20.5t4 22.5l87 42l3 475l-18 18l-78 39q-4 1 -4 24.5t4 23.5h265l8 -30q86 -93 163 -184q117 -137 152 -187l-2 314l-88 39q-4 2 -4 25t4 23h249
q4 0 4 -23t-4 -25l-82 -39l-5 -583q0 -3 -12.5 -3.5t-26.5 1.5t-19 6q-67 60 -226 245q-114 133 -206 251z" />
    <glyph glyph-name="nacute" unicode="&#x144;" horiz-adv-x="671" 
d="M269 581q-5 -3 -22.5 14t-13.5 22l154 213l110 -116zM307 43q3 -2 3 -22.5t-3 -20.5h-270q-4 0 -4 20.5t4 22.5l61 39q-4 80 -4 156q0 80 4 158l-76 47q-4 2 -3.5 28t4.5 27q85 10 221 10q7 -25 10 -73q110 78 175 78q152 0 157 -174q3 -98 -10 -257l67 -39
q3 -2 3.5 -22.5t-3.5 -20.5h-280q-4 0 -3.5 20.5t3.5 22.5l54 39q5 97 5 197q0 78 -10.5 102t-54.5 24q-47 0 -101 -19v-66q0 -138 -4 -238z" />
    <glyph glyph-name="Ncommaaccent" unicode="&#x145;" horiz-adv-x="786" 
d="M194 495l2 -410l93 -42q4 -2 4 -22.5t-4 -20.5h-259q-4 0 -4 20.5t4 22.5l87 42l3 475l-18 18l-78 39q-4 1 -4 24.5t4 23.5h265l8 -30q86 -93 163 -184q117 -137 152 -187l-2 314l-88 39q-4 2 -4 25t4 23h249q4 0 4 -23t-4 -25l-82 -39l-5 -583q0 -3 -12.5 -3.5
t-26.5 1.5t-19 6q-67 60 -226 245q-114 133 -206 251zM352 -355q-3 -2 -11 7t-14 20t-4 12q76 44 90 92q-40 0 -64.5 22.5t-24.5 56.5q0 33 26 57t62 24q40 0 65.5 -24t25.5 -71q0 -66 -44 -115.5t-107 -80.5z" />
    <glyph glyph-name="ncommaaccent" unicode="&#x146;" horiz-adv-x="671" 
d="M307 43q3 -2 3 -22.5t-3 -20.5h-270q-4 0 -4 20.5t4 22.5l61 39q-4 80 -4 156q0 80 4 158l-76 47q-4 2 -3.5 28t4.5 27q85 10 221 10q7 -25 10 -73q110 78 175 78q152 0 157 -174q3 -98 -10 -257l67 -39q3 -2 3.5 -22.5t-3.5 -20.5h-280q-4 0 -3.5 20.5t3.5 22.5l54 39
q5 97 5 197q0 78 -10.5 102t-54.5 24q-47 0 -101 -19v-66q0 -138 -4 -238zM273 -355q-3 -2 -11 7t-14 20t-4 12q76 44 90 92q-40 0 -64.5 22.5t-24.5 56.5q0 33 26 57t62 24q40 0 65.5 -24t25.5 -71q0 -66 -44 -115.5t-107 -80.5z" />
    <glyph glyph-name="Ncaron" unicode="&#x147;" horiz-adv-x="786" 
d="M252 942q-1 1 8.5 10t20.5 17t13 7l138 -109l140 109q3 2 23.5 -15t18.5 -19l-147 -201h-70zM194 495l2 -410l93 -42q4 -2 4 -22.5t-4 -20.5h-259q-4 0 -4 20.5t4 22.5l87 42l3 475l-18 18l-78 39q-4 1 -4 24.5t4 23.5h265l8 -30q86 -93 163 -184q117 -137 152 -187
l-2 314l-88 39q-4 2 -4 25t4 23h249q4 0 4 -23t-4 -25l-82 -39l-5 -583q0 -3 -12.5 -3.5t-26.5 1.5t-19 6q-67 60 -226 245q-114 133 -206 251z" />
    <glyph glyph-name="ncaron" unicode="&#x148;" horiz-adv-x="671" 
d="M157 789q-1 1 8.5 10t20.5 17t13 7l138 -109l140 109q3 2 23.5 -15t18.5 -19l-147 -201h-70zM307 43q3 -2 3 -22.5t-3 -20.5h-270q-4 0 -4 20.5t4 22.5l61 39q-4 80 -4 156q0 80 4 158l-76 47q-4 2 -3.5 28t4.5 27q85 10 221 10q7 -25 10 -73q110 78 175 78
q152 0 157 -174q3 -98 -10 -257l67 -39q3 -2 3.5 -22.5t-3.5 -20.5h-280q-4 0 -3.5 20.5t3.5 22.5l54 39q5 97 5 197q0 78 -10.5 102t-54.5 24q-47 0 -101 -19v-66q0 -138 -4 -238z" />
    <glyph glyph-name="Eng" unicode="&#x14a;" horiz-adv-x="786" 
d="M482 -140q-7 0 -12.5 20.5t-0.5 23.5q80 52 122 89q5 13 7 33q-54 50 -198 218q-114 133 -206 251l2 -410l93 -42q4 -2 4 -22.5t-4 -20.5h-259q-4 0 -4 20.5t4 22.5l87 42l3 475l-18 18l-78 39q-4 1 -4 24.5t4 23.5h265l8 -30q86 -93 163 -184q117 -137 152 -187l-2 314
l-88 39q-4 2 -4 25t4 23h249q4 0 4 -23t-4 -25l-82 -39l-3 -365q-1 -136 -9 -186t-38 -87q-52 -62 -157 -80z" />
    <glyph glyph-name="eng" unicode="&#x14b;" horiz-adv-x="661" 
d="M578 50q-4 -52 -29 -92t-64 -63.5t-78.5 -36.5t-84.5 -19q-5 -1 -12 20.5t-3 24.5l87 60q25 49 27 159q1 57 1 176q0 78 -10.5 102t-54.5 24q-47 0 -101 -19v-66q0 -138 -4 -238l55 -39q3 -2 3 -22.5t-3 -20.5h-270q-4 0 -4 20.5t4 22.5l61 39q-4 80 -4 156q0 80 4 158
l-76 47q-4 2 -3.5 28t4.5 27q85 10 221 10q7 -25 10 -73q110 78 175 78q153 0 157 -174q4 -143 -8 -289z" />
    <glyph glyph-name="Omacron" unicode="&#x14c;" horiz-adv-x="802" 
d="M235 784q-7 0 -7 53.5t7 53.5h332q7 0 6.5 -53.5t-6.5 -53.5h-332zM402 -18q-170 0 -268 99t-98 251q0 153 97.5 251.5t268.5 98.5q170 0 267 -98.5t97 -251.5t-97 -251.5t-267 -98.5zM291 576q-57 -76 -57 -244q0 -153 43 -214t125 -61q63 0 108 27q57 74 57 248
q0 146 -39.5 208.5t-125.5 62.5q-69 0 -111 -27z" />
    <glyph glyph-name="omacron" unicode="&#x14d;" horiz-adv-x="624" 
d="M146 621q-7 0 -7 53.5t7 53.5h332q7 0 6.5 -53.5t-6.5 -53.5h-332zM310 521q125 0 205 -70.5t80 -190.5q0 -123 -80 -200.5t-201 -77.5q-129 0 -207 70.5t-78 196.5q0 121 79 196.5t202 75.5zM389 75q32 60 30 181q-2 102 -30 144.5t-81 42.5q-41 0 -69 -17
q-37 -49 -34 -174q1 -106 27.5 -151.5t83.5 -45.5q46 0 73 20z" />
    <glyph glyph-name="Obreve" unicode="&#x14e;" horiz-adv-x="802" 
d="M402 745q-78 0 -121 53.5t-43 144.5q0 3 13.5 4.5t27.5 0t15 -4.5q20 -87 108 -87t107 87q1 5 28.5 5t27.5 -5q0 -90 -43.5 -144t-119.5 -54zM402 -18q-170 0 -268 99t-98 251q0 153 97.5 251.5t268.5 98.5q170 0 267 -98.5t97 -251.5t-97 -251.5t-267 -98.5zM291 576
q-57 -76 -57 -244q0 -153 43 -214t125 -61q63 0 108 27q57 74 57 248q0 146 -39.5 208.5t-125.5 62.5q-69 0 -111 -27z" />
    <glyph glyph-name="obreve" unicode="&#x14f;" horiz-adv-x="624" 
d="M313 582q-78 0 -121 53.5t-43 144.5q0 3 13.5 4.5t27.5 0t15 -4.5q20 -87 108 -87t107 87q1 4 28.5 4t27.5 -4q0 -90 -43.5 -144t-119.5 -54zM310 521q125 0 205 -70.5t80 -190.5q0 -123 -80 -200.5t-201 -77.5q-129 0 -207 70.5t-78 196.5q0 121 79 196.5t202 75.5z
M389 75q32 60 30 181q-2 102 -30 144.5t-81 42.5q-41 0 -69 -17q-37 -49 -34 -174q1 -106 27.5 -151.5t83.5 -45.5q46 0 73 20z" />
    <glyph glyph-name="Ohungarumlaut" unicode="&#x150;" horiz-adv-x="802" 
d="M324 744q-4 -3 -22.5 13.5t-15.5 21.5l113 215l111 -95zM503 749q-4 -3 -21.5 14t-13.5 23l134 201l106 -99zM402 -18q-170 0 -268 99t-98 251q0 153 97.5 251.5t268.5 98.5q170 0 267 -98.5t97 -251.5t-97 -251.5t-267 -98.5zM291 576q-57 -76 -57 -244q0 -153 43 -214
t125 -61q63 0 108 27q57 74 57 248q0 146 -39.5 208.5t-125.5 62.5q-69 0 -111 -27z" />
    <glyph glyph-name="ohungarumlaut" unicode="&#x151;" horiz-adv-x="624" 
d="M219 581q-4 -3 -22.5 13.5t-15.5 21.5l113 215l111 -95zM398 586q-4 -3 -21.5 14t-13.5 23l134 201l106 -99zM310 521q125 0 205 -70.5t80 -190.5q0 -123 -80 -200.5t-201 -77.5q-129 0 -207 70.5t-78 196.5q0 121 79 196.5t202 75.5zM389 75q32 60 30 181
q-2 102 -30 144.5t-81 42.5q-41 0 -69 -17q-37 -49 -34 -174q1 -106 27.5 -151.5t83.5 -45.5q46 0 73 20z" />
    <glyph glyph-name="OE" unicode="&#x152;" horiz-adv-x="1031" 
d="M966 0h-435q-57 -18 -129 -18q-170 0 -268 99t-98 251q0 153 97.5 251.5t268.5 98.5q68 0 127 -17h423q3 0 9.5 -6t6.5 -9v-152q0 -3 -10 -4.5t-21 0t-13 4.5l-52 94l-193 6v-227l156 4l40 60q2 4 21 3.5t19 -5.5v-188q0 -4 -19.5 -4t-21.5 3l-40 62l-155 4v-229l15 -16
l190 10l73 123q1 2 6 2.5t11.5 0.5t13 -1t10.5 -2.5t4 -3.5l-15 -173q-1 -6 -8 -13.5t-13 -7.5zM402 57q56 0 93 19q-5 165 -5 271q0 85 5 230q-36 26 -93 26q-69 0 -111 -27q-57 -76 -57 -244q0 -153 43 -214t125 -61z" />
    <glyph glyph-name="oe" unicode="&#x153;" horiz-adv-x="928" 
d="M897 82q-28 -43 -92.5 -71.5t-125.5 -28.5q-120 0 -190 56q-73 -56 -175 -56q-129 0 -207 70.5t-78 196.5q0 121 79 196.5t202 75.5q115 0 192 -60q75 60 179 60q106 0 166 -69t54 -163q-1 -11 -14 -26t-20 -15l-291 1q0 -100 34 -138t114 -38q81 0 151 51q2 2 8.5 -6.5
t11 -19.5t2.5 -16zM614 429q-29 -34 -36 -122l170 6q0 68 -16.5 99t-60.5 31q-33 0 -57 -14zM389 75q32 60 30 181q-2 102 -30 144.5t-81 42.5q-41 0 -69 -17q-37 -49 -34 -174q1 -106 27.5 -151.5t83.5 -45.5q46 0 73 20z" />
    <glyph glyph-name="Racute" unicode="&#x154;" horiz-adv-x="749" 
d="M321 734q-5 -3 -22.5 14t-13.5 22l154 213l110 -116zM34 0q-4 0 -4 20.5t4 22.5l81 39q-5 165 -5 265q0 84 5 231l-81 39q-4 2 -4 25t4 23h388q134 0 191.5 -48.5t57.5 -122.5q0 -76 -65 -131l-69 -36l146 -245l72 -39q5 -3 4 -22.5t-6 -20.5h-245l-6 38l-137 236
q-33 0 -66 3v-195l71 -39q3 -2 3.5 -22.5t-3.5 -20.5h-336zM482 468q0 80 -35 113q-32 12 -94 12h-54v-254q22 -4 59 -4q68 0 96 34t28 99z" />
    <glyph glyph-name="racute" unicode="&#x155;" horiz-adv-x="489" 
d="M205 581q-5 -3 -22.5 14t-13.5 22l154 213l110 -116zM341 43q3 -1 3 -22t-3 -21h-304q-4 0 -4 20.5t4 22.5l61 39q-4 80 -4 161q0 75 4 153l-76 47q-4 2 -3.5 28t4.5 27q85 10 221 10q8 -27 11 -95q68 68 105 88q26 14 48 16q42 3 55.5 -16t11.5 -61q-5 -68 -23 -88
q-18 -9 -28 -2q-59 31 -94 36q-48 -3 -74 -20v-46q0 -138 -4 -238z" />
    <glyph glyph-name="Rcommaaccent" unicode="&#x156;" horiz-adv-x="749" 
d="M34 0q-4 0 -4 20.5t4 22.5l81 39q-5 165 -5 265q0 84 5 231l-81 39q-4 2 -4 25t4 23h388q134 0 191.5 -48.5t57.5 -122.5q0 -76 -65 -131l-69 -36l146 -245l72 -39q5 -3 4 -22.5t-6 -20.5h-245l-6 38l-137 236q-33 0 -66 3v-195l71 -39q3 -2 3.5 -22.5t-3.5 -20.5h-336z
M482 468q0 80 -35 113q-32 12 -94 12h-54v-254q22 -4 59 -4q68 0 96 34t28 99zM347 -355q-3 -2 -11 7t-14 20t-4 12q76 44 90 92q-40 0 -64.5 22.5t-24.5 56.5q0 33 26 57t62 24q40 0 65.5 -24t25.5 -71q0 -66 -44 -115.5t-107 -80.5z" />
    <glyph glyph-name="rcommaaccent" unicode="&#x157;" horiz-adv-x="489" 
d="M341 43q3 -1 3 -22t-3 -21h-304q-4 0 -4 20.5t4 22.5l61 39q-4 80 -4 161q0 75 4 153l-76 47q-4 2 -3.5 28t4.5 27q85 10 221 10q8 -27 11 -95q68 68 105 88q26 14 48 16q42 3 55.5 -16t11.5 -61q-5 -68 -23 -88q-18 -9 -28 -2q-59 31 -94 36q-48 -3 -74 -20v-46
q0 -138 -4 -238zM122 -355q-3 -2 -11 7t-14 20t-4 12q76 44 90 92q-40 0 -64.5 22.5t-24.5 56.5q0 33 26 57t62 24q40 0 65.5 -24t25.5 -71q0 -66 -44 -115.5t-107 -80.5z" />
    <glyph glyph-name="Rcaron" unicode="&#x158;" horiz-adv-x="749" 
d="M188 942q-1 1 8.5 10t20.5 17t13 7l138 -109l140 109q3 2 23.5 -15t18.5 -19l-147 -201h-70zM34 0q-4 0 -4 20.5t4 22.5l81 39q-5 165 -5 265q0 84 5 231l-81 39q-4 2 -4 25t4 23h388q134 0 191.5 -48.5t57.5 -122.5q0 -76 -65 -131l-69 -36l146 -245l72 -39
q5 -3 4 -22.5t-6 -20.5h-245l-6 38l-137 236q-33 0 -66 3v-195l71 -39q3 -2 3.5 -22.5t-3.5 -20.5h-336zM482 468q0 80 -35 113q-32 12 -94 12h-54v-254q22 -4 59 -4q68 0 96 34t28 99z" />
    <glyph glyph-name="rcaron" unicode="&#x159;" horiz-adv-x="489" 
d="M78 789q-1 1 8.5 10t20.5 17t13 7l138 -109l140 109q3 2 23.5 -15t18.5 -19l-147 -201h-70zM341 43q3 -1 3 -22t-3 -21h-304q-4 0 -4 20.5t4 22.5l61 39q-4 80 -4 161q0 75 4 153l-76 47q-4 2 -3.5 28t4.5 27q85 10 221 10q8 -27 11 -95q68 68 105 88q26 14 48 16
q42 3 55.5 -16t11.5 -61q-5 -68 -23 -88q-18 -9 -28 -2q-59 31 -94 36q-48 -3 -74 -20v-46q0 -138 -4 -238z" />
    <glyph glyph-name="Sacute" unicode="&#x15a;" horiz-adv-x="590" 
d="M274 744q-5 -3 -22.5 14t-13.5 22l154 213l110 -116zM222 589q-18 -18 -18 -52q0 -31 12.5 -49t48.5 -36q31 -14 84 -34t80 -31q131 -56 131 -188q0 -90 -77.5 -153.5t-211.5 -63.5q-63 0 -124.5 15.5t-87.5 37.5q-13 10 -16 16.5t-3 18.5l2 137q0 7 20.5 7t23.5 -7
l74 -138q35 -13 113 -13q134 0 134 91q0 29 -14 46.5t-48 32.5q-23 10 -84 32t-95 40q-116 59 -113 184q2 90 70.5 145t186.5 55q119 0 185 -27q17 -6 21.5 -12t5.5 -22l8 -132q0 -6 -9 -8t-19.5 0.5t-14.5 7.5l-78 108q-22 10 -89 10q-68 0 -98 -18z" />
    <glyph glyph-name="sacute" unicode="&#x15b;" horiz-adv-x="519" 
d="M208 581q-5 -3 -22.5 14t-13.5 22l154 213l110 -116zM242 -18q-54 0 -103 11.5t-68 24.5q-21 14 -25 37q-6 49 -1 115q1 5 22 5t26 -5l71 -105q46 -11 87 -11q97 0 97 60q0 26 -21 42t-83 29q-98 20 -144 62t-46 114q0 73 59.5 116.5t161.5 43.5q94 0 141 -18
q16 -8 22.5 -15t9.5 -22q9 -58 8 -111q0 -6 -24 -5.5t-27 5.5l-60 84q-34 8 -71 8q-52 0 -75 -13q-12 -15 -12 -37q0 -28 20.5 -43.5t86.5 -29.5q99 -22 142 -61t43 -106q0 -78 -66.5 -126.5t-170.5 -48.5z" />
    <glyph glyph-name="Scircumflex" unicode="&#x15c;" horiz-adv-x="590" 
d="M488 778q1 -1 -8.5 -10t-20.5 -17t-13 -7l-138 109l-140 -109q-3 -2 -23.5 15t-18.5 19l147 201h70zM222 589q-18 -18 -18 -52q0 -31 12.5 -49t48.5 -36q31 -14 84 -34t80 -31q131 -56 131 -188q0 -90 -77.5 -153.5t-211.5 -63.5q-63 0 -124.5 15.5t-87.5 37.5
q-13 10 -16 16.5t-3 18.5l2 137q0 7 20.5 7t23.5 -7l74 -138q35 -13 113 -13q134 0 134 91q0 29 -14 46.5t-48 32.5q-23 10 -84 32t-95 40q-116 59 -113 184q2 90 70.5 145t186.5 55q119 0 185 -27q17 -6 21.5 -12t5.5 -22l8 -132q0 -6 -9 -8t-19.5 0.5t-14.5 7.5l-78 108
q-22 10 -89 10q-68 0 -98 -18z" />
    <glyph glyph-name="scircumflex" unicode="&#x15d;" horiz-adv-x="519" 
d="M447 615q1 -1 -8.5 -10t-20.5 -17t-13 -7l-138 109l-140 -109q-3 -2 -23.5 15t-18.5 19l147 201h70zM242 -18q-54 0 -103 11.5t-68 24.5q-21 14 -25 37q-6 49 -1 115q1 5 22 5t26 -5l71 -105q46 -11 87 -11q97 0 97 60q0 26 -21 42t-83 29q-98 20 -144 62t-46 114
q0 73 59.5 116.5t161.5 43.5q94 0 141 -18q16 -8 22.5 -15t9.5 -22q9 -58 8 -111q0 -6 -24 -5.5t-27 5.5l-60 84q-34 8 -71 8q-52 0 -75 -13q-12 -15 -12 -37q0 -28 20.5 -43.5t86.5 -29.5q99 -22 142 -61t43 -106q0 -78 -66.5 -126.5t-170.5 -48.5z" />
    <glyph glyph-name="Scedilla" unicode="&#x15e;" horiz-adv-x="590" 
d="M437 -181q0 -47 -50.5 -81.5t-115.5 -34.5q-45 0 -80 12.5t-48 28.5q-4 2 7.5 23t15.5 19q43 -23 108 -23q30 0 50.5 7.5t20.5 18.5q0 7 -11 11.5t-34.5 10.5t-39.5 13q-41 17 -55.5 35t-11.5 46q4 42 84 77h-6q-63 0 -124.5 15.5t-87.5 37.5q-13 10 -16 16.5t-3 18.5
l2 137q0 7 20.5 7t23.5 -7l74 -138q35 -13 113 -13q134 0 134 91q0 29 -14 46.5t-48 32.5q-23 10 -84 32t-95 40q-116 59 -113 184q2 90 70.5 145t186.5 55q119 0 185 -27q17 -6 21.5 -12t5.5 -22l8 -132q0 -6 -9 -8t-19.5 0.5t-14.5 7.5l-78 108q-22 10 -89 10
q-68 0 -98 -18q-18 -18 -18 -52q0 -31 12.5 -49t48.5 -36q31 -14 84 -34t80 -31q131 -56 131 -188q0 -78 -59.5 -138t-165.5 -75q-28 -17 -37 -24.5t-9 -16.5q0 -8 10 -14t34 -14.5t30 -11.5q41 -18 57.5 -36.5t16.5 -49.5z" />
    <glyph glyph-name="scedilla" unicode="&#x15f;" horiz-adv-x="519" 
d="M405 -175q0 -47 -50.5 -81.5t-115.5 -34.5q-45 0 -80 12.5t-48 28.5q-4 2 7.5 23t15.5 19q43 -23 108 -23q30 0 50.5 7.5t20.5 18.5q0 7 -11 11.5t-34.5 10.5t-39.5 13q-41 17 -55.5 35t-11.5 46q4 38 71 71q-51 1 -97 12.5t-64 23.5q-21 14 -25 37q-6 49 -1 115
q1 5 22 5t26 -5l71 -105q46 -11 87 -11q97 0 97 60q0 26 -21 42t-83 29q-98 20 -144 62t-46 114q0 73 59.5 116.5t161.5 43.5q94 0 141 -18q16 -8 22.5 -15t9.5 -22q9 -58 8 -111q0 -6 -24 -5.5t-27 5.5l-60 84q-34 8 -71 8q-52 0 -75 -13q-12 -15 -12 -37q0 -28 20.5 -43.5
t86.5 -29.5q99 -22 142 -61t43 -106q0 -68 -51.5 -114.5t-136.5 -57.5q-34 -21 -34 -34q0 -8 10 -14t34 -14.5t30 -11.5q41 -18 57.5 -36.5t16.5 -49.5z" />
    <glyph glyph-name="Scaron" unicode="&#x160;" horiz-adv-x="590" 
d="M137 952q-1 1 8.5 10t20.5 17t13 7l138 -109l140 109q3 2 23.5 -15t18.5 -19l-147 -201h-70zM222 589q-18 -18 -18 -52q0 -31 12.5 -49t48.5 -36q31 -14 84 -34t80 -31q131 -56 131 -188q0 -90 -77.5 -153.5t-211.5 -63.5q-63 0 -124.5 15.5t-87.5 37.5q-13 10 -16 16.5
t-3 18.5l2 137q0 7 20.5 7t23.5 -7l74 -138q35 -13 113 -13q134 0 134 91q0 29 -14 46.5t-48 32.5q-23 10 -84 32t-95 40q-116 59 -113 184q2 90 70.5 145t186.5 55q119 0 185 -27q17 -6 21.5 -12t5.5 -22l8 -132q0 -6 -9 -8t-19.5 0.5t-14.5 7.5l-78 108q-22 10 -89 10
q-68 0 -98 -18z" />
    <glyph glyph-name="scaron" unicode="&#x161;" horiz-adv-x="519" 
d="M88 789q-1 1 8.5 10t20.5 17t13 7l138 -109l140 109q3 2 23.5 -15t18.5 -19l-147 -201h-70zM242 -18q-54 0 -103 11.5t-68 24.5q-21 14 -25 37q-6 49 -1 115q1 5 22 5t26 -5l71 -105q46 -11 87 -11q97 0 97 60q0 26 -21 42t-83 29q-98 20 -144 62t-46 114
q0 73 59.5 116.5t161.5 43.5q94 0 141 -18q16 -8 22.5 -15t9.5 -22q9 -58 8 -111q0 -6 -24 -5.5t-27 5.5l-60 84q-34 8 -71 8q-52 0 -75 -13q-12 -15 -12 -37q0 -28 20.5 -43.5t86.5 -29.5q99 -22 142 -61t43 -106q0 -78 -66.5 -126.5t-170.5 -48.5z" />
    <glyph glyph-name="Tcaron" unicode="&#x164;" horiz-adv-x="720" 
d="M178 942q-1 1 8.5 10t20.5 17t13 7l138 -109l140 109q3 2 23.5 -15t18.5 -19l-147 -201h-70zM452 588q5 -150 5 -241q0 -100 -5 -265l94 -39q4 -2 4 -22.5t-4 -20.5h-372q-4 0 -4 20.5t4 22.5l95 39q-5 165 -5 265q0 91 5 241h-146l-62 -117q-2 -5 -22 -4t-20 6l6 211
q0 4 16.5 4t21.5 -4l32 -25h531l32 25q5 4 21.5 4t16.5 -4l5 -211q0 -5 -19.5 -6t-21.5 4l-62 117h-146z" />
    <glyph glyph-name="tcaron" unicode="&#x165;" horiz-adv-x="421" 
d="M324 539q-3 -2 -11 7t-14 20t-4 12q76 44 90 92q-40 0 -64.5 22.5t-24.5 56.5q0 33 26 57t62 24q40 0 65.5 -24t25.5 -71q0 -66 -44 -115.5t-107 -80.5zM263 -15q-94 0 -133 38t-43 132q-3 126 5 257h-70q-2 0 -3 15t0 30t3 16l66 26l88 134q4 6 43.5 6t39.5 -6
q-4 -66 -4 -138l135 3q4 0 4 -45.5t-4 -45.5l-136 5q-5 -138 -5 -222q0 -75 16 -95t69 -20q36 0 80 14q3 1 8.5 -18.5t3.5 -21.5q-22 -22 -68.5 -43t-94.5 -21z" />
    <glyph glyph-name="Tbar" unicode="&#x166;" horiz-adv-x="720" 
d="M546 43q4 -2 4 -22.5t-4 -20.5h-372q-4 0 -4 20.5t4 22.5l95 39q-4 109 -5 226h-127v65h127q0 77 5 215h-146l-62 -117q-2 -5 -22 -4t-20 6l6 211q0 4 16.5 4t21.5 -4l32 -25h531l32 25q5 4 21.5 4t16.5 -4l5 -211q0 -5 -19.5 -6t-21.5 4l-62 117h-146q5 -138 5 -215h128
v-65h-128q-1 -117 -5 -226z" />
    <glyph glyph-name="tbar" unicode="&#x167;" horiz-adv-x="441" 
d="M436 49q-22 -22 -68.5 -43t-94.5 -21q-94 0 -133 38t-43 132q-1 31 -1 100h-63v66h65q2 60 4 91h-70q-2 0 -3 15t0 30t3 16l66 26l88 134q4 6 43.5 6t39.5 -6q-4 -66 -4 -138l135 3q4 0 4 -45.5t-4 -45.5l-136 5q-1 -31 -3 -91h134v-66h-135q-1 -22 -1 -65q0 -75 16 -95
t69 -20q36 0 80 14q3 1 8.5 -18.5t3.5 -21.5z" />
    <glyph glyph-name="Utilde" unicode="&#x168;" horiz-adv-x="805" 
d="M509 753q-11 0 -23.5 2.5t-20.5 5t-22.5 8t-20.5 7.5q-50 20 -67 20q-30 0 -51 -44q-3 -2 -14 -2t-23 2t-12 5q14 73 48.5 112t78.5 39q30 0 90 -24q45 -18 67 -18q31 0 47 40q1 2 6.5 2.5t13 0t15 -1.5t12.5 -2.5t5 -2.5q-41 -149 -129 -149zM631 303q2 137 -2 274
l-98 40q-3 2 -3.5 25t3.5 23h255q4 0 4 -23t-4 -25l-79 -40q7 -165 2 -284q-5 -134 -28 -184q-30 -64 -104.5 -95.5t-158.5 -31.5q-193 0 -258 84q-28 35 -42 88.5t-15 142.5q-3 134 6 280l-85 40q-3 1 -4 13t0.5 23.5t3.5 11.5h354q4 0 4 -23.5t-4 -24.5l-84 -40
q-8 -139 -6 -264q1 -118 31 -174q37 -68 134 -68q95 0 143 44q31 49 35 188z" />
    <glyph glyph-name="utilde" unicode="&#x169;" horiz-adv-x="671" 
d="M388 600q-11 0 -23.5 2.5t-20.5 5t-22.5 8t-20.5 7.5q-50 20 -67 20q-30 0 -51 -44q-3 -2 -14 -2t-23 2t-12 5q14 73 48.5 112t78.5 39q30 0 90 -24q45 -18 67 -18q31 0 47 40q1 2 6.5 2.5t13 0t15 -1.5t12.5 -2.5t5 -2.5q-41 -149 -129 -149zM653 37q-16 -13 -70 -31
t-81 -18q-29 0 -51 21t-31 53q-106 -74 -173 -74q-75 0 -118 38t-50 129q-7 88 5 239l-67 39q-3 2 -3.5 28.5t3.5 27.5q23 4 114 12q43 4 100 6q4 -20 2 -144q-1 -71 0 -143q1 -37 1.5 -52t4 -35t10 -26.5t18 -12t30.5 -5.5q48 0 117 20q-3 38 -3 126q0 71 7 160l-67 36
q-4 2 -4 28.5t4 27.5q15 4 110 14l105 8q5 -19 5 -184q0 -52 -3 -133t-3 -89l10 -14l76 -11q4 -1 4.5 -20.5t-2.5 -20.5z" />
    <glyph glyph-name="Umacron" unicode="&#x16a;" horiz-adv-x="805" 
d="M273 774q-7 0 -7 53.5t7 53.5h332q7 0 6.5 -53.5t-6.5 -53.5h-332zM631 303q2 137 -2 274l-98 40q-3 2 -3.5 25t3.5 23h255q4 0 4 -23t-4 -25l-79 -40q7 -165 2 -284q-5 -134 -28 -184q-30 -64 -104.5 -95.5t-158.5 -31.5q-193 0 -258 84q-28 35 -42 88.5t-15 142.5
q-3 134 6 280l-85 40q-3 1 -4 13t0.5 23.5t3.5 11.5h354q4 0 4 -23.5t-4 -24.5l-84 -40q-8 -139 -6 -264q1 -118 31 -174q37 -68 134 -68q95 0 143 44q31 49 35 188z" />
    <glyph glyph-name="umacron" unicode="&#x16b;" horiz-adv-x="671" 
d="M147 621q-7 0 -7 53.5t7 53.5h332q7 0 6.5 -53.5t-6.5 -53.5h-332zM653 37q-16 -13 -70 -31t-81 -18q-29 0 -51 21t-31 53q-106 -74 -173 -74q-75 0 -118 38t-50 129q-7 88 5 239l-67 39q-3 2 -3.5 28.5t3.5 27.5q23 4 114 12q43 4 100 6q4 -20 2 -144q-1 -71 0 -143
q1 -37 1.5 -52t4 -35t10 -26.5t18 -12t30.5 -5.5q48 0 117 20q-3 38 -3 126q0 71 7 160l-67 36q-4 2 -4 28.5t4 27.5q15 4 110 14l105 8q5 -19 5 -184q0 -52 -3 -133t-3 -89l10 -14l76 -11q4 -1 4.5 -20.5t-2.5 -20.5z" />
    <glyph glyph-name="Ubreve" unicode="&#x16c;" horiz-adv-x="805" 
d="M445 735q-78 0 -121 53.5t-43 144.5q0 3 13.5 4.5t27.5 0t15 -4.5q20 -87 108 -87t107 87q1 5 28.5 5t27.5 -5q0 -90 -43.5 -144t-119.5 -54zM631 303q2 137 -2 274l-98 40q-3 2 -3.5 25t3.5 23h255q4 0 4 -23t-4 -25l-79 -40q7 -165 2 -284q-5 -134 -28 -184
q-30 -64 -104.5 -95.5t-158.5 -31.5q-193 0 -258 84q-28 35 -42 88.5t-15 142.5q-3 134 6 280l-85 40q-3 1 -4 13t0.5 23.5t3.5 11.5h354q4 0 4 -23.5t-4 -24.5l-84 -40q-8 -139 -6 -264q1 -118 31 -174q37 -68 134 -68q95 0 143 44q31 49 35 188z" />
    <glyph glyph-name="ubreve" unicode="&#x16d;" horiz-adv-x="671" 
d="M314 582q-78 0 -121 53.5t-43 144.5q0 3 13.5 4.5t27.5 0t15 -4.5q20 -87 108 -87t107 87q1 4 28.5 4t27.5 -4q0 -90 -43.5 -144t-119.5 -54zM653 37q-16 -13 -70 -31t-81 -18q-29 0 -51 21t-31 53q-106 -74 -173 -74q-75 0 -118 38t-50 129q-7 88 5 239l-67 39
q-3 2 -3.5 28.5t3.5 27.5q23 4 114 12q43 4 100 6q4 -20 2 -144q-1 -71 0 -143q1 -37 1.5 -52t4 -35t10 -26.5t18 -12t30.5 -5.5q48 0 117 20q-3 38 -3 126q0 71 7 160l-67 36q-4 2 -4 28.5t4 27.5q15 4 110 14l105 8q5 -19 5 -184q0 -52 -3 -133t-3 -89l10 -14l76 -11
q4 -1 4.5 -20.5t-2.5 -20.5z" />
    <glyph glyph-name="Uring" unicode="&#x16e;" horiz-adv-x="805" 
d="M589 858q0 -63 -39.5 -101.5t-101.5 -38.5q-64 0 -103.5 38.5t-39.5 98.5q0 59 40 97t102 38t102 -37.5t40 -94.5zM386 855q0 -31 16 -49t44 -18q29 0 45.5 18.5t16.5 48.5t-16.5 47t-46.5 17q-27 0 -43 -17.5t-16 -46.5zM631 303q2 137 -2 274l-98 40q-3 2 -3.5 25
t3.5 23h255q4 0 4 -23t-4 -25l-79 -40q7 -165 2 -284q-5 -134 -28 -184q-30 -64 -104.5 -95.5t-158.5 -31.5q-193 0 -258 84q-28 35 -42 88.5t-15 142.5q-3 134 6 280l-85 40q-3 1 -4 13t0.5 23.5t3.5 11.5h354q4 0 4 -23.5t-4 -24.5l-84 -40q-8 -139 -6 -264
q1 -118 31 -174q37 -68 134 -68q95 0 143 44q31 49 35 188z" />
    <glyph glyph-name="uring" unicode="&#x16f;" horiz-adv-x="671" 
d="M461 715q0 -63 -39.5 -101.5t-101.5 -38.5q-64 0 -103.5 38.5t-39.5 98.5q0 59 40 97t102 38t102 -37.5t40 -94.5zM258 712q0 -31 16 -49t44 -18q29 0 45.5 18.5t16.5 48.5t-16.5 47t-46.5 17q-27 0 -43 -17.5t-16 -46.5zM653 37q-16 -13 -70 -31t-81 -18q-29 0 -51 21
t-31 53q-106 -74 -173 -74q-75 0 -118 38t-50 129q-7 88 5 239l-67 39q-3 2 -3.5 28.5t3.5 27.5q23 4 114 12q43 4 100 6q4 -20 2 -144q-1 -71 0 -143q1 -37 1.5 -52t4 -35t10 -26.5t18 -12t30.5 -5.5q48 0 117 20q-3 38 -3 126q0 71 7 160l-67 36q-4 2 -4 28.5t4 27.5
q15 4 110 14l105 8q5 -19 5 -184q0 -52 -3 -133t-3 -89l10 -14l76 -11q4 -1 4.5 -20.5t-2.5 -20.5z" />
    <glyph glyph-name="Uhungarumlaut" unicode="&#x170;" horiz-adv-x="805" 
d="M361 734q-4 -3 -22.5 13.5t-15.5 21.5l113 215l111 -95zM540 739q-4 -3 -21.5 14t-13.5 23l134 201l106 -99zM631 303q2 137 -2 274l-98 40q-3 2 -3.5 25t3.5 23h255q4 0 4 -23t-4 -25l-79 -40q7 -165 2 -284q-5 -134 -28 -184q-30 -64 -104.5 -95.5t-158.5 -31.5
q-193 0 -258 84q-28 35 -42 88.5t-15 142.5q-3 134 6 280l-85 40q-3 1 -4 13t0.5 23.5t3.5 11.5h354q4 0 4 -23.5t-4 -24.5l-84 -40q-8 -139 -6 -264q1 -118 31 -174q37 -68 134 -68q95 0 143 44q31 49 35 188z" />
    <glyph glyph-name="uhungarumlaut" unicode="&#x171;" horiz-adv-x="671" 
d="M223 581q-4 -3 -22.5 13.5t-15.5 21.5l113 215l111 -95zM402 586q-4 -3 -21.5 14t-13.5 23l134 201l106 -99zM653 37q-16 -13 -70 -31t-81 -18q-29 0 -51 21t-31 53q-106 -74 -173 -74q-75 0 -118 38t-50 129q-7 88 5 239l-67 39q-3 2 -3.5 28.5t3.5 27.5q23 4 114 12
q43 4 100 6q4 -20 2 -144q-1 -71 0 -143q1 -37 1.5 -52t4 -35t10 -26.5t18 -12t30.5 -5.5q48 0 117 20q-3 38 -3 126q0 71 7 160l-67 36q-4 2 -4 28.5t4 27.5q15 4 110 14l105 8q5 -19 5 -184q0 -52 -3 -133t-3 -89l10 -14l76 -11q4 -1 4.5 -20.5t-2.5 -20.5z" />
    <glyph glyph-name="Uogonek" unicode="&#x172;" horiz-adv-x="805" 
d="M595 -184q-54 -94 -154 -94q-60 0 -93.5 27t-33.5 71q0 85 135 163q-11 -1 -31 -1q-193 0 -258 84q-28 35 -42 88.5t-15 142.5q-3 134 6 280l-85 40q-3 1 -4 13t0.5 23.5t3.5 11.5h354q4 0 4 -23.5t-4 -24.5l-84 -40q-8 -139 -6 -264q1 -118 31 -174q37 -68 134 -68
q95 0 143 44q31 49 35 188q2 137 -2 274l-98 40q-3 2 -3.5 25t3.5 23h255q4 0 4 -23t-4 -25l-79 -40q7 -165 2 -284q-5 -134 -28 -184q-40 -84 -160 -114q-35 -27 -63 -66t-28 -71q0 -54 56 -54q44 0 77 38q1 2 10 -3.5t16.5 -13t5.5 -9.5z" />
    <glyph glyph-name="uogonek" unicode="&#x173;" horiz-adv-x="671" 
d="M647 -176q-54 -94 -154 -94q-60 0 -93.5 27t-33.5 71q0 83 130 160q-27 2 -47 23t-29 51q-106 -74 -173 -74q-75 0 -118 38t-50 129q-7 88 5 239l-67 39q-3 2 -3.5 28.5t3.5 27.5q23 4 114 12q43 4 100 6q4 -20 2 -144q-1 -71 0 -143q1 -37 1.5 -52t4 -35t10 -26.5
t18 -12t30.5 -5.5q48 0 117 20q-3 38 -3 126q0 71 7 160l-67 36q-4 2 -4 28.5t4 27.5q15 4 110 14l105 8q5 -19 5 -184q0 -52 -3 -133t-3 -89l10 -14l76 -11q4 -1 4.5 -20.5t-2.5 -20.5q-17 -14 -79 -34q-36 -27 -64 -65.5t-28 -71.5q0 -54 56 -54q44 0 77 38q1 2 10 -3.5
t16.5 -13t5.5 -9.5z" />
    <glyph glyph-name="Wcircumflex" unicode="&#x174;" horiz-adv-x="1082" 
d="M753 768q1 -1 -8.5 -10t-20.5 -17t-13 -7l-138 109l-140 -109q-3 -2 -23.5 15t-18.5 19l147 201h70zM795 2q-3 -7 -45.5 -7t-45.5 7q-32 73 -82 211q-47 130 -70 204l-160 -415q-2 -7 -45 -7t-46 7q-31 69 -117 312q-50 140 -87 263l-88 40q-4 1 -3.5 24.5t4.5 23.5h339
q4 0 3 -23t-4 -25l-66 -39q28 -69 63 -172q42 -127 61 -191l108 295l-20 68l-78 39q-4 2 -3.5 25t4.5 23h323q4 0 3.5 -23t-3.5 -25l-70 -35q31 -73 64 -167q37 -104 65 -195l106 358l-91 39q-4 2 -4 25t4 23h260q4 0 3.5 -23t-3.5 -25l-80 -39z" />
    <glyph glyph-name="wcircumflex" unicode="&#x175;" horiz-adv-x="865" 
d="M628 615q1 -1 -8.5 -10t-20.5 -17t-13 -7l-138 109l-140 -109q-3 -2 -23.5 15t-18.5 19l147 201h70zM629 3q-3 -7 -39.5 -7t-40.5 7q-20 36 -63 142q-38 94 -59 149l-122 -291q-3 -7 -39.5 -7t-40.5 7q-41 90 -89 219q-43 116 -61 185l-65 41q-5 3 -5.5 29t5.5 26h264
q5 0 5 -25.5t-5 -29.5l-44 -36q19 -43 44 -111q21 -59 41 -125l83 201l-13 35l-49 36q-6 5 -6.5 30t6.5 25h253q4 0 3.5 -26.5t-3.5 -28.5l-50 -36q20 -41 46 -111q28 -78 44 -126l81 236l-57 37q-3 2 -4 15.5t0.5 26.5t3.5 13h203q4 0 3.5 -26.5t-3.5 -28.5l-64 -41z" />
    <glyph glyph-name="Ycircumflex" unicode="&#x176;" horiz-adv-x="733" 
d="M573 768q1 -1 -8.5 -10t-20.5 -17t-13 -7l-138 109l-140 -109q-3 -2 -23.5 15t-18.5 19l147 201h70zM272 266q-9 16 -42.5 70.5t-52.5 86.5q-53 90 -86 154l-79 40q-4 2 -3.5 25t4.5 23h341q4 0 3.5 -23t-3.5 -25l-65 -36q19 -30 69 -116q30 -52 67 -121l130 237l-75 36
q-4 1 -3.5 24.5t4.5 23.5h243q4 0 4.5 -23t-3.5 -25l-79 -40l-187 -309q0 -103 -4 -186l103 -39q3 -2 3.5 -22.5t-3.5 -20.5h-392q-4 0 -4 20.5t4 22.5l110 39q-4 76 -4 184z" />
    <glyph glyph-name="ycircumflex" unicode="&#x177;" horiz-adv-x="597" 
d="M501 615q1 -1 -8.5 -10t-20.5 -17t-13 -7l-138 109l-140 -109q-3 -2 -23.5 15t-18.5 19l147 201h70zM175 -107q58 24 85 95q-46 89 -95 199q-41 91 -89 220l-65 41q-6 4 -6 29.5t7 25.5h288q4 0 4 -26.5t-4 -28.5l-59 -36q19 -36 52 -117q13 -32 52 -136l98 253l-60 36
q-4 2 -4 28.5t5 26.5h204q5 0 5.5 -26t-4.5 -29l-65 -41l-212 -482q-32 -73 -95.5 -115t-139.5 -34q-14 4 -26 35.5t-12 55.5q0 6 9.5 16.5t17.5 10.5z" />
    <glyph glyph-name="Ydieresis" unicode="&#x178;" horiz-adv-x="733" 
d="M510 898q34 0 57.5 -22.5t23.5 -55.5t-22 -56.5t-57 -23.5t-59 23t-24 54q0 35 24 58t57 23zM277 898q34 0 58 -22.5t24 -55.5t-23.5 -56.5t-57.5 -23.5q-36 0 -58.5 23t-22.5 54q0 34 24 57.5t56 23.5zM272 266q-9 16 -42.5 70.5t-52.5 86.5q-53 90 -86 154l-79 40
q-4 2 -3.5 25t4.5 23h341q4 0 3.5 -23t-3.5 -25l-65 -36q19 -30 69 -116q30 -52 67 -121l130 237l-75 36q-4 1 -3.5 24.5t4.5 23.5h243q4 0 4.5 -23t-3.5 -25l-79 -40l-187 -309q0 -103 -4 -186l103 -39q3 -2 3.5 -22.5t-3.5 -20.5h-392q-4 0 -4 20.5t4 22.5l110 39
q-4 76 -4 184z" />
    <glyph glyph-name="Zacute" unicode="&#x179;" horiz-adv-x="683" 
d="M330 734q-5 -3 -22.5 14t-13.5 22l154 213l110 -116zM234 337q72 102 194 260l-244 -5l-71 -118q-3 -6 -14.5 -7.5t-21.5 0.5t-10 7l19 172q1 6 11 12.5t21 6.5h515q8 0 11 -16.5t-1 -20.5q-42 -70 -199 -292q-94 -134 -199 -269l280 8l79 139q2 4 13.5 5.5t21.5 0
t10 -5.5l-18 -193q0 -4 -9.5 -12.5t-18.5 -8.5h-567q-7 0 -7.5 17t3.5 22q42 69 202 298z" />
    <glyph glyph-name="zacute" unicode="&#x17a;" horiz-adv-x="582" 
d="M267 581q-5 -3 -22.5 14t-13.5 22l154 213l110 -116zM507 198q4 6 16.5 7t23.5 -1.5t11 -5.5q0 -13 -18 -99q-20 -92 -43 -99h-450q-8 0 -8.5 19t4.5 26q30 45 158 207q76 93 153 178h-49q-87 0 -122 -10l-74 -97q-3 -3 -9.5 -5t-14.5 -2t-15.5 0.5t-12.5 2.5t-5 4
q0 9 17 83q7 30 11.5 45t13.5 32t20 20h416q10 0 12.5 -19t-2.5 -24q-39 -65 -149 -198q-23 -27 -58.5 -69t-60.5 -71.5t-45 -51.5h72q88 0 127 14z" />
    <glyph glyph-name="Zdotaccent" unicode="&#x17b;" horiz-adv-x="683" 
d="M368 739q-39 0 -63 24t-24 59q0 37 25.5 61.5t60.5 24.5q36 0 61.5 -24.5t25.5 -60.5q0 -35 -25 -59.5t-61 -24.5zM234 337q72 102 194 260l-244 -5l-71 -118q-3 -6 -14.5 -7.5t-21.5 0.5t-10 7l19 172q1 6 11 12.5t21 6.5h515q8 0 11 -16.5t-1 -20.5q-42 -70 -199 -292
q-94 -134 -199 -269l280 8l79 139q2 4 13.5 5.5t21.5 0t10 -5.5l-18 -193q0 -4 -9.5 -12.5t-18.5 -8.5h-567q-7 0 -7.5 17t3.5 22q42 69 202 298z" />
    <glyph glyph-name="zdotaccent" unicode="&#x17c;" horiz-adv-x="582" 
d="M324 586q-39 0 -63 24t-24 59q0 37 25.5 61.5t60.5 24.5q36 0 61.5 -24.5t25.5 -60.5q0 -35 -25 -59.5t-61 -24.5zM507 198q4 6 16.5 7t23.5 -1.5t11 -5.5q0 -13 -18 -99q-20 -92 -43 -99h-450q-8 0 -8.5 19t4.5 26q30 45 158 207q76 93 153 178h-49q-87 0 -122 -10
l-74 -97q-3 -3 -9.5 -5t-14.5 -2t-15.5 0.5t-12.5 2.5t-5 4q0 9 17 83q7 30 11.5 45t13.5 32t20 20h416q10 0 12.5 -19t-2.5 -24q-39 -65 -149 -198q-23 -27 -58.5 -69t-60.5 -71.5t-45 -51.5h72q88 0 127 14z" />
    <glyph glyph-name="Zcaron" unicode="&#x17d;" horiz-adv-x="683" 
d="M187 942q-1 1 8.5 10t20.5 17t13 7l138 -109l140 109q3 2 23.5 -15t18.5 -19l-147 -201h-70zM234 337q72 102 194 260l-244 -5l-71 -118q-3 -6 -14.5 -7.5t-21.5 0.5t-10 7l19 172q1 6 11 12.5t21 6.5h515q8 0 11 -16.5t-1 -20.5q-42 -70 -199 -292q-94 -134 -199 -269
l280 8l79 139q2 4 13.5 5.5t21.5 0t10 -5.5l-18 -193q0 -4 -9.5 -12.5t-18.5 -8.5h-567q-7 0 -7.5 17t3.5 22q42 69 202 298z" />
    <glyph glyph-name="zcaron" unicode="&#x17e;" horiz-adv-x="582" 
d="M136 789q-1 1 8.5 10t20.5 17t13 7l138 -109l140 109q3 2 23.5 -15t18.5 -19l-147 -201h-70zM507 198q4 6 16.5 7t23.5 -1.5t11 -5.5q0 -13 -18 -99q-20 -92 -43 -99h-450q-8 0 -8.5 19t4.5 26q30 45 158 207q76 93 153 178h-49q-87 0 -122 -10l-74 -97q-3 -3 -9.5 -5
t-14.5 -2t-15.5 0.5t-12.5 2.5t-5 4q0 9 17 83q7 30 11.5 45t13.5 32t20 20h416q10 0 12.5 -19t-2.5 -24q-39 -65 -149 -198q-23 -27 -58.5 -69t-60.5 -71.5t-45 -51.5h72q88 0 127 14z" />
    <glyph glyph-name="florin" unicode="&#x192;" horiz-adv-x="561" 
d="M318 69q-15 -62 -44.5 -109t-64.5 -72.5t-69.5 -38t-66.5 -12.5q-55 0 -87.5 26.5t-32.5 65.5q3 24 16 43t29 25h24q2 0 15.5 -24t29 -51.5t21.5 -34.5q46 0 64 120q4 25 10.5 75.5t14 116t11.5 95.5h-94l8 70h96q21 115 58 181q61 108 191 108q128 0 143 -91
q-1 -26 -14 -46t-32 -26h-26q-2 0 -16 24t-30 53t-21 36q-39 0 -63 -91q-16 -62 -27 -148h118l-7 -70h-119q-22 -169 -35 -225z" />
    <glyph glyph-name="Scommaaccent" unicode="&#x218;" horiz-adv-x="590" 
d="M222 589q-18 -18 -18 -52q0 -31 12.5 -49t48.5 -36q31 -14 84 -34t80 -31q131 -56 131 -188q0 -90 -77.5 -153.5t-211.5 -63.5q-63 0 -124.5 15.5t-87.5 37.5q-13 10 -16 16.5t-3 18.5l2 137q0 7 20.5 7t23.5 -7l74 -138q35 -13 113 -13q134 0 134 91q0 29 -14 46.5
t-48 32.5q-23 10 -84 32t-95 40q-116 59 -113 184q2 90 70.5 145t186.5 55q119 0 185 -27q17 -6 21.5 -12t5.5 -22l8 -132q0 -6 -9 -8t-19.5 0.5t-14.5 7.5l-78 108q-22 10 -89 10q-68 0 -98 -18zM228 -355q-3 -2 -11 7t-14 20t-4 12q76 44 90 92q-40 0 -64.5 22.5
t-24.5 56.5q0 33 26 57t62 24q40 0 65.5 -24t25.5 -71q0 -66 -44 -115.5t-107 -80.5z" />
    <glyph glyph-name="scommaaccent" unicode="&#x219;" horiz-adv-x="519" 
d="M242 -18q-54 0 -103 11.5t-68 24.5q-21 14 -25 37q-6 49 -1 115q1 5 22 5t26 -5l71 -105q46 -11 87 -11q97 0 97 60q0 26 -21 42t-83 29q-98 20 -144 62t-46 114q0 73 59.5 116.5t161.5 43.5q94 0 141 -18q16 -8 22.5 -15t9.5 -22q9 -58 8 -111q0 -6 -24 -5.5t-27 5.5
l-60 84q-34 8 -71 8q-52 0 -75 -13q-12 -15 -12 -37q0 -28 20.5 -43.5t86.5 -29.5q99 -22 142 -61t43 -106q0 -78 -66.5 -126.5t-170.5 -48.5zM190 -355q-3 -2 -11 7t-14 20t-4 12q76 44 90 92q-40 0 -64.5 22.5t-24.5 56.5q0 33 26 57t62 24q40 0 65.5 -24t25.5 -71
q0 -66 -44 -115.5t-107 -80.5z" />
    <glyph glyph-name="Tcommaaccent" unicode="&#x21a;" horiz-adv-x="720" 
d="M452 588q5 -150 5 -241q0 -100 -5 -265l94 -39q4 -2 4 -22.5t-4 -20.5h-372q-4 0 -4 20.5t4 22.5l95 39q-5 165 -5 265q0 91 5 241h-146l-62 -117q-2 -5 -22 -4t-20 6l6 211q0 4 16.5 4t21.5 -4l32 -25h531l32 25q5 4 21.5 4t16.5 -4l5 -211q0 -5 -19.5 -6t-21.5 4
l-62 117h-146zM300 -355q-3 -2 -11 7t-14 20t-4 12q76 44 90 92q-40 0 -64.5 22.5t-24.5 56.5q0 33 26 57t62 24q40 0 65.5 -24t25.5 -71q0 -66 -44 -115.5t-107 -80.5z" />
    <glyph glyph-name="tcommaaccent" unicode="&#x21b;" horiz-adv-x="421" 
d="M263 -15q-94 0 -133 38t-43 132q-3 126 5 257h-70q-2 0 -3 15t0 30t3 16l66 26l88 134q4 6 43.5 6t39.5 -6q-4 -66 -4 -138l135 3q4 0 4 -45.5t-4 -45.5l-136 5q-5 -138 -5 -222q0 -75 16 -95t69 -20q36 0 80 14q3 1 8.5 -18.5t3.5 -21.5q-22 -22 -68.5 -43t-94.5 -21z
M159 -355q-3 -2 -11 7t-14 20t-4 12q76 44 90 92q-40 0 -64.5 22.5t-24.5 56.5q0 33 26 57t62 24q40 0 65.5 -24t25.5 -71q0 -66 -44 -115.5t-107 -80.5z" />
    <glyph glyph-name="dotlessj" unicode="&#x237;" horiz-adv-x="333" 
d="M247 508q7 -56 7 -244q0 -183 -4 -271q-3 -58 -26.5 -99.5t-65 -65.5t-82.5 -36.5t-95 -19.5q-5 -1 -11 21.5t-2 25.5l104 78q23 44 23 163v336l-74 47q-3 2 -3 28t4 27q100 10 225 10z" />
    <glyph glyph-name="circumflex" unicode="&#x2c6;" horiz-adv-x="500" 
d="M431 615q1 -1 -8.5 -10t-20.5 -17t-13 -7l-138 109l-140 -109q-3 -2 -23.5 15t-18.5 19l147 201h70z" />
    <glyph glyph-name="caron" unicode="&#x2c7;" horiz-adv-x="500" 
d="M69 789q-1 1 8.5 10t20.5 17t13 7l138 -109l140 109q3 2 23.5 -15t18.5 -19l-147 -201h-70z" />
    <glyph glyph-name="breve" unicode="&#x2d8;" horiz-adv-x="500" 
d="M250 582q-78 0 -121 53.5t-43 144.5q0 3 13.5 4.5t27.5 0t15 -4.5q20 -87 108 -87t107 87q1 4 28.5 4t27.5 -4q0 -90 -43.5 -144t-119.5 -54z" />
    <glyph glyph-name="dotaccent" unicode="&#x2d9;" horiz-adv-x="500" 
d="M251 586q-39 0 -63 24t-24 59q0 37 25.5 61.5t60.5 24.5q36 0 61.5 -24.5t25.5 -60.5q0 -35 -25 -59.5t-61 -24.5z" />
    <glyph glyph-name="ring" unicode="&#x2da;" horiz-adv-x="500" 
d="M392 715q0 -63 -39.5 -101.5t-101.5 -38.5q-64 0 -103.5 38.5t-39.5 98.5q0 59 40 97t102 38t102 -37.5t40 -94.5zM189 712q0 -31 16 -49t44 -18q29 0 45.5 18.5t16.5 48.5t-16.5 47t-46.5 17q-27 0 -43 -17.5t-16 -46.5z" />
    <glyph glyph-name="ogonek" unicode="&#x2db;" horiz-adv-x="500" 
d="M364 -150q1 2 10 -3.5t16.5 -13t5.5 -9.5q-54 -94 -154 -94q-60 0 -93.5 27t-33.5 71q0 92 158 176h51q-36 -27 -64.5 -66t-28.5 -72q0 -54 56 -54q44 0 77 38z" />
    <glyph glyph-name="tilde" unicode="&#x2dc;" horiz-adv-x="500" 
d="M313 600q-11 0 -23.5 2.5t-20.5 5t-22.5 8t-20.5 7.5q-50 20 -67 20q-30 0 -51 -44q-3 -2 -14 -2t-23 2t-12 5q14 73 48.5 112t78.5 39q30 0 90 -24q45 -18 67 -18q31 0 47 40q1 2 6.5 2.5t13 0t15 -1.5t12.5 -2.5t5 -2.5q-41 -149 -129 -149z" />
    <glyph glyph-name="hungarumlaut" unicode="&#x2dd;" horiz-adv-x="500" 
d="M172 581q-4 -3 -22.5 13.5t-15.5 21.5l113 215l111 -95zM351 586q-4 -3 -21.5 14t-13.5 23l134 201l106 -99z" />
    <glyph glyph-name="Delta" unicode="&#x394;" horiz-adv-x="603" 
d="M587 0h-570q-3 0 -3 22t2 26l250 583q2 5 46 5t46 -5l229 -582q2 -5 2 -27t-2 -22zM274 462l-153 -369h299z" />
    <glyph glyph-name="mu" unicode="&#x3bc;" horiz-adv-x="671" 
d="M197 -152q0 -27 -21 -44t-51 -17q-29 0 -49 16.5t-20 46.5q0 17 11 155t11 163q-6 75 6 226l-67 39q-3 2 -3.5 28.5t3.5 27.5q23 4 114 12q43 4 100 6q4 -20 2 -144q-1 -71 0 -143q1 -37 1.5 -52t4 -35t10 -26.5t18 -12t30.5 -5.5q48 0 117 20q-3 38 -3 126q0 71 7 160
l-67 36q-4 2 -4 28.5t4 27.5q15 4 110 14l105 8q5 -19 5 -184q0 -52 -3 -133t-3 -89l10 -14l76 -11q4 -1 4.5 -20.5t-2.5 -20.5q-16 -13 -70 -31t-81 -18q-29 0 -51 21t-31 53q-106 -74 -173 -74q-43 0 -72 15q4 -44 13 -92t9 -63z" />
    <glyph glyph-name="pi" unicode="&#x3c0;" horiz-adv-x="689" 
d="M677 517q-6 -16 -19.5 -63.5t-16.5 -55.5q-8 -21 -19.5 -26.5t-40.5 -5.5q-23 0 -37 1q-31 -112 -31 -203q0 -46 10.5 -64t37.5 -18q22 0 33.5 17t16.5 54q1 6 39 4q15 -1 15 -4q-7 -86 -46 -126t-115 -40q-142 0 -142 144q0 97 35 239l-97 8q-11 -94 -37 -201
q-18 -77 -26.5 -103.5t-21.5 -45.5q-28 -41 -106 -41q-62 0 -65 34q-2 25 21.5 43t72.5 35q56 84 94 280q-31 0 -45 -1q-35 -2 -55.5 -14t-27.5 -30t-9 -40t1 -45q0 -3 -23 -4t-24 2q-13 39 -13 81q0 60 25 98q51 78 200 78q23 0 121.5 -4t140.5 -4q43 0 60 3.5t29 17.5
q1 2 8 3t16.5 1h19t15.5 -1.5t6 -2.5z" />
    <glyph glyph-name="Wgrave" unicode="&#x1e80;" horiz-adv-x="1082" 
d="M619 734l-228 133l110 116l154 -213q4 -5 -13.5 -22t-22.5 -14zM795 2q-3 -7 -45.5 -7t-45.5 7q-32 73 -82 211q-47 130 -70 204l-160 -415q-2 -7 -45 -7t-46 7q-31 69 -117 312q-50 140 -87 263l-88 40q-4 1 -3.5 24.5t4.5 23.5h339q4 0 3 -23t-4 -25l-66 -39
q28 -69 63 -172q42 -127 61 -191l108 295l-20 68l-78 39q-4 2 -3.5 25t4.5 23h323q4 0 3.5 -23t-3.5 -25l-70 -35q31 -73 64 -167q37 -104 65 -195l106 358l-91 39q-4 2 -4 25t4 23h260q4 0 3.5 -23t-3.5 -25l-80 -39z" />
    <glyph glyph-name="wgrave" unicode="&#x1e81;" horiz-adv-x="865" 
d="M503 581l-228 133l110 116l154 -213q4 -5 -13.5 -22t-22.5 -14zM629 3q-3 -7 -39.5 -7t-40.5 7q-20 36 -63 142q-38 94 -59 149l-122 -291q-3 -7 -39.5 -7t-40.5 7q-41 90 -89 219q-43 116 -61 185l-65 41q-5 3 -5.5 29t5.5 26h264q5 0 5 -25.5t-5 -29.5l-44 -36
q19 -43 44 -111q21 -59 41 -125l83 201l-13 35l-49 36q-6 5 -6.5 30t6.5 25h253q4 0 3.5 -26.5t-3.5 -28.5l-50 -36q20 -41 46 -111q28 -78 44 -126l81 236l-57 37q-3 2 -4 15.5t0.5 26.5t3.5 13h203q4 0 3.5 -26.5t-3.5 -28.5l-64 -41z" />
    <glyph glyph-name="Wacute" unicode="&#x1e82;" horiz-adv-x="1082" 
d="M519 734q-5 -3 -22.5 14t-13.5 22l154 213l110 -116zM795 2q-3 -7 -45.5 -7t-45.5 7q-32 73 -82 211q-47 130 -70 204l-160 -415q-2 -7 -45 -7t-46 7q-31 69 -117 312q-50 140 -87 263l-88 40q-4 1 -3.5 24.5t4.5 23.5h339q4 0 3 -23t-4 -25l-66 -39q28 -69 63 -172
q42 -127 61 -191l108 295l-20 68l-78 39q-4 2 -3.5 25t4.5 23h323q4 0 3.5 -23t-3.5 -25l-70 -35q31 -73 64 -167q37 -104 65 -195l106 358l-91 39q-4 2 -4 25t4 23h260q4 0 3.5 -23t-3.5 -25l-80 -39z" />
    <glyph glyph-name="wacute" unicode="&#x1e83;" horiz-adv-x="865" 
d="M393 581q-5 -3 -22.5 14t-13.5 22l154 213l110 -116zM629 3q-3 -7 -39.5 -7t-40.5 7q-20 36 -63 142q-38 94 -59 149l-122 -291q-3 -7 -39.5 -7t-40.5 7q-41 90 -89 219q-43 116 -61 185l-65 41q-5 3 -5.5 29t5.5 26h264q5 0 5 -25.5t-5 -29.5l-44 -36q19 -43 44 -111
q21 -59 41 -125l83 201l-13 35l-49 36q-6 5 -6.5 30t6.5 25h253q4 0 3.5 -26.5t-3.5 -28.5l-50 -36q20 -41 46 -111q28 -78 44 -126l81 236l-57 37q-3 2 -4 15.5t0.5 26.5t3.5 13h203q4 0 3.5 -26.5t-3.5 -28.5l-64 -41z" />
    <glyph glyph-name="Wdieresis" unicode="&#x1e84;" horiz-adv-x="1082" 
d="M677 898q34 0 57.5 -22.5t23.5 -55.5t-22 -56.5t-57 -23.5t-59 23t-24 54q0 35 24 58t57 23zM444 898q34 0 58 -22.5t24 -55.5t-23.5 -56.5t-57.5 -23.5q-36 0 -58.5 23t-22.5 54q0 34 24 57.5t56 23.5zM795 2q-3 -7 -45.5 -7t-45.5 7q-32 73 -82 211q-47 130 -70 204
l-160 -415q-2 -7 -45 -7t-46 7q-31 69 -117 312q-50 140 -87 263l-88 40q-4 1 -3.5 24.5t4.5 23.5h339q4 0 3 -23t-4 -25l-66 -39q28 -69 63 -172q42 -127 61 -191l108 295l-20 68l-78 39q-4 2 -3.5 25t4.5 23h323q4 0 3.5 -23t-3.5 -25l-70 -35q31 -73 64 -167
q37 -104 65 -195l106 358l-91 39q-4 2 -4 25t4 23h260q4 0 3.5 -23t-3.5 -25l-80 -39z" />
    <glyph glyph-name="wdieresis" unicode="&#x1e85;" horiz-adv-x="865" 
d="M562 746q34 0 57.5 -22.5t23.5 -55.5t-22 -56.5t-57 -23.5t-59 23t-24 54q0 35 24 58t57 23zM329 746q34 0 58 -22.5t24 -55.5t-23.5 -56.5t-57.5 -23.5q-36 0 -58.5 23t-22.5 54q0 34 24 57.5t56 23.5zM629 3q-3 -7 -39.5 -7t-40.5 7q-20 36 -63 142q-38 94 -59 149
l-122 -291q-3 -7 -39.5 -7t-40.5 7q-41 90 -89 219q-43 116 -61 185l-65 41q-5 3 -5.5 29t5.5 26h264q5 0 5 -25.5t-5 -29.5l-44 -36q19 -43 44 -111q21 -59 41 -125l83 201l-13 35l-49 36q-6 5 -6.5 30t6.5 25h253q4 0 3.5 -26.5t-3.5 -28.5l-50 -36q20 -41 46 -111
q28 -78 44 -126l81 236l-57 37q-3 2 -4 15.5t0.5 26.5t3.5 13h203q4 0 3.5 -26.5t-3.5 -28.5l-64 -41z" />
    <glyph glyph-name="Ygrave" unicode="&#x1ef2;" horiz-adv-x="733" 
d="M444 734l-228 133l110 116l154 -213q4 -5 -13.5 -22t-22.5 -14zM272 266q-9 16 -42.5 70.5t-52.5 86.5q-53 90 -86 154l-79 40q-4 2 -3.5 25t4.5 23h341q4 0 3.5 -23t-3.5 -25l-65 -36q19 -30 69 -116q30 -52 67 -121l130 237l-75 36q-4 1 -3.5 24.5t4.5 23.5h243
q4 0 4.5 -23t-3.5 -25l-79 -40l-187 -309q0 -103 -4 -186l103 -39q3 -2 3.5 -22.5t-3.5 -20.5h-392q-4 0 -4 20.5t4 22.5l110 39q-4 76 -4 184z" />
    <glyph glyph-name="ygrave" unicode="&#x1ef3;" horiz-adv-x="597" 
d="M366 581l-228 133l110 116l154 -213q4 -5 -13.5 -22t-22.5 -14zM175 -107q58 24 85 95q-46 89 -95 199q-41 91 -89 220l-65 41q-6 4 -6 29.5t7 25.5h288q4 0 4 -26.5t-4 -28.5l-59 -36q19 -36 52 -117q13 -32 52 -136l98 253l-60 36q-4 2 -4 28.5t5 26.5h204q5 0 5.5 -26
t-4.5 -29l-65 -41l-212 -482q-32 -73 -95.5 -115t-139.5 -34q-14 4 -26 35.5t-12 55.5q0 6 9.5 16.5t17.5 10.5z" />
    <glyph glyph-name="uni2000" unicode="&#x2000;" horiz-adv-x="500" 
 />
    <glyph glyph-name="uni2001" unicode="&#x2001;" horiz-adv-x="1000" 
 />
    <glyph glyph-name="uni2002" unicode="&#x2002;" horiz-adv-x="500" 
 />
    <glyph glyph-name="uni2003" unicode="&#x2003;" horiz-adv-x="1000" 
 />
    <glyph glyph-name="uni2004" unicode="&#x2004;" horiz-adv-x="333" 
 />
    <glyph glyph-name="uni2005" unicode="&#x2005;" horiz-adv-x="250" 
 />
    <glyph glyph-name="uni2009" unicode="&#x2009;" horiz-adv-x="166" 
 />
    <glyph glyph-name="uni200A" unicode="&#x200a;" horiz-adv-x="100" 
 />
    <glyph glyph-name="uni200B" unicode="&#x200b;" horiz-adv-x="0" 
 />
    <glyph glyph-name="endash" unicode="&#x2013;" horiz-adv-x="500" 
d="M40 217v115h420v-115h-420z" />
    <glyph glyph-name="emdash" unicode="&#x2014;" horiz-adv-x="1000" 
d="M960 332v-115h-920v115h920z" />
    <glyph glyph-name="quoteleft" unicode="&#x2018;" horiz-adv-x="316" 
d="M229 682q2 1 9.5 -6.5t13.5 -16t4 -9.5q-76 -58 -79 -120q42 -3 62.5 -26.5t20.5 -58.5q0 -41 -26.5 -66t-66.5 -25q-46 0 -71.5 29t-25.5 83q0 41 16.5 78t44 64t50.5 44t48 30z" />
    <glyph glyph-name="quoteright" unicode="&#x2019;" horiz-adv-x="316" 
d="M101 354q-2 -1 -9.5 6.5t-13.5 16t-4 9.5q76 58 79 120q-42 3 -62.5 26.5t-20.5 58.5q0 41 26.5 66t66.5 25q46 0 71.5 -29t25.5 -83q0 -41 -16.5 -78t-44 -64t-50.5 -44t-48 -30z" />
    <glyph glyph-name="quotesinglbase" unicode="&#x201a;" horiz-adv-x="316" 
d="M94 -154q-2 -1 -9.5 6.5t-13.5 16t-4 9.5q76 58 79 120q-42 3 -62.5 26.5t-20.5 58.5q0 41 26.5 66t66.5 25q46 0 71.5 -29t25.5 -83q0 -41 -16.5 -78t-44 -64t-50.5 -44t-48 -30z" />
    <glyph glyph-name="quotedblleft" unicode="&#x201c;" horiz-adv-x="554" 
d="M467 682q2 1 9.5 -6.5t13.5 -16t4 -9.5q-76 -58 -79 -120q42 -3 62.5 -26.5t20.5 -58.5q0 -41 -26.5 -66t-66.5 -25q-46 0 -71.5 29t-25.5 83q0 41 16.5 78t44 64t50.5 44t48 30zM229 682q2 1 9.5 -6.5t13.5 -16t4 -9.5q-76 -58 -79 -120q42 -3 62.5 -26.5t20.5 -58.5
q0 -41 -26.5 -66t-66.5 -25q-46 0 -71.5 29t-25.5 83q0 41 16.5 78t44 64t50.5 44t48 30z" />
    <glyph glyph-name="quotedblright" unicode="&#x201d;" horiz-adv-x="554" 
d="M101 354q-2 -1 -9.5 6.5t-13.5 16t-4 9.5q76 58 79 120q-42 3 -62.5 26.5t-20.5 58.5q0 41 26.5 66t66.5 25q46 0 71.5 -29t25.5 -83q0 -41 -16.5 -78t-44 -64t-50.5 -44t-48 -30zM339 354q-2 -1 -9.5 6.5t-13.5 16t-4 9.5q76 58 79 120q-42 3 -62.5 26.5t-20.5 58.5
q0 41 26.5 66t66.5 25q46 0 71.5 -29t25.5 -83q0 -41 -16.5 -78t-44 -64t-50.5 -44t-48 -30z" />
    <glyph glyph-name="quotedblbase" unicode="&#x201e;" horiz-adv-x="554" 
d="M94 -154q-2 -1 -9.5 6.5t-13.5 16t-4 9.5q76 58 79 120q-42 3 -62.5 26.5t-20.5 58.5q0 41 26.5 66t66.5 25q46 0 71.5 -29t25.5 -83q0 -41 -16.5 -78t-44 -64t-50.5 -44t-48 -30zM332 -154q-2 -1 -9.5 6.5t-13.5 16t-4 9.5q76 58 79 120q-42 3 -62.5 26.5t-20.5 58.5
q0 41 26.5 66t66.5 25q46 0 71.5 -29t25.5 -83q0 -41 -16.5 -78t-44 -64t-50.5 -44t-48 -30z" />
    <glyph glyph-name="dagger" unicode="&#x2020;" horiz-adv-x="572" 
d="M257 -151q-4 35 -14.5 114t-18 140.5t-7.5 78.5q0 16 9.5 61t22.5 97t15 64l-184 -52q-3 -1 -4 36.5t0 75t4 36.5l184 -55l-49 238q0 3 35 4t70 -0.5t35 -3.5l-47 -238l184 55q3 1 4 -36.5t0 -75t-4 -36.5l-184 52q1 -3 23.5 -102t22.5 -121q0 -16 -8 -77.5t-18.5 -140
t-14.5 -114.5q0 -3 -28 -3t-28 3z" />
    <glyph glyph-name="daggerdbl" unicode="&#x2021;" horiz-adv-x="572" 
d="M305 120l182 52q3 1 4 -36.5t0 -75t-4 -36.5l-181 59l49 -222q0 -2 -35 -3.5t-70.5 -0.5t-34.5 4l51 222l-181 -59q-3 -1 -4 36.5t0 75t4 36.5l181 -52q-2 11 -23 71t-21 81t21 81t23 71l-181 -52q-3 -1 -4 36.5t0 75t4 36.5l181 -59l-51 222q-2 8 103 4q37 -2 37 -4
l-49 -222l181 59q3 1 4 -36.5t0 -75t-4 -36.5l-181 52q2 -12 22.5 -71.5t20.5 -80.5t-21 -81t-23 -71z" />
    <glyph glyph-name="bullet" unicode="&#x2022;" horiz-adv-x="389" 
d="M194 162q-59 0 -101 42.5t-42 101.5t42.5 101t101.5 42t101 -42t42 -101t-42.5 -101.5t-101.5 -42.5z" />
    <glyph glyph-name="ellipsis" unicode="&#x2026;" horiz-adv-x="880" 
d="M727 -14q-38 0 -65 26t-27 64q0 39 27 66t65 27q40 0 66 -26.5t26 -66.5q0 -38 -26 -64t-66 -26zM440 -14q-38 0 -65 26t-27 64q0 39 27 66t65 27q40 0 66 -26.5t26 -66.5q0 -38 -26 -64t-66 -26zM153 -14q-38 0 -65 26t-27 64q0 39 27 66t65 27q40 0 66 -26.5t26 -66.5
q0 -38 -26 -64t-66 -26z" />
    <glyph glyph-name="perthousand" unicode="&#x2030;" horiz-adv-x="1269" 
d="M246 -47l-75 42q250 366 447 685l75 -42q-233 -335 -447 -685zM217 653q80 0 129 -44.5t49 -129.5q0 -82 -52 -134t-130 -52q-79 0 -128.5 46.5t-49.5 132.5q0 79 53 130t129 51zM263 363q23 35 23 110q0 68 -16.5 95.5t-52.5 27.5q-25 0 -44 -12q-29 -34 -29 -111
q0 -69 16.5 -97.5t52.5 -28.5q30 0 50 16zM652 342q80 0 129 -44.5t49 -129.5q0 -82 -52 -134t-130 -52q-79 0 -128.5 46.5t-49.5 132.5q0 79 53 130t129 51zM1056 342q80 0 129 -44.5t49 -129.5q0 -82 -52 -134t-130 -52q-79 0 -128.5 46.5t-49.5 132.5q0 79 53 130t129 51
zM698 52q23 35 23 110q0 68 -16.5 95.5t-52.5 27.5q-25 0 -44 -12q-29 -34 -29 -111q0 -69 16.5 -97.5t52.5 -28.5q30 0 50 16zM1102 52q23 35 23 110q0 68 -16.5 95.5t-52.5 27.5q-25 0 -44 -12q-29 -34 -29 -111q0 -69 16.5 -97.5t52.5 -28.5q30 0 50 16z" />
    <glyph glyph-name="guilsinglleft" unicode="&#x2039;" horiz-adv-x="358" 
d="M288 31q-121 80 -247 190v59q120 104 247 190l34 -38l-161 -182l161 -181z" />
    <glyph glyph-name="guilsinglright" unicode="&#x203a;" horiz-adv-x="358" 
d="M70 31l-34 38l161 181l-161 182l34 38q127 -86 247 -190v-59q-126 -110 -247 -190z" />
    <glyph glyph-name="fraction" unicode="&#x2044;" horiz-adv-x="299" 
d="M-49 -50l-68 43q268 378 466 688l67 -43q-172 -236 -465 -688z" />
    <glyph glyph-name="Euro" unicode="&#x20ac;" horiz-adv-x="625" 
d="M558 8q-59 -26 -147 -26q-122 0 -202.5 61t-104.5 174h-72v60h64q-1 10 -1 32q0 7 0.5 19t0.5 18h-64v60h74q27 115 111.5 181t199.5 66q80 0 143 -34q15 -8 21.5 -17t6.5 -26l1 -121q0 -6 -25.5 -6t-27.5 6l-47 105q-29 16 -66 16q-49 0 -80 -20q-42 -63 -56 -150h192
v-60h-197q-1 -8 -1 -26v-43h198v-60h-195q7 -88 35.5 -123.5t96.5 -35.5q33 0 66 8l59 110q1 3 15 4t26.5 -0.5t12.5 -4.5l-12 -128q-2 -18 -6 -25.5t-19 -13.5z" />
    <glyph glyph-name="uni2117" unicode="&#x2117;" horiz-adv-x="822" 
d="M408 -9q-139 0 -237.5 93t-98.5 253q0 157 99 252t241 95q140 0 239 -94.5t99 -253.5q0 -154 -97.5 -249.5t-244.5 -95.5zM411 57q116 0 192 75.5t76 204.5t-78 205.5t-189 76.5q-114 0 -191.5 -76t-77.5 -206q0 -133 76.5 -206.5t191.5 -73.5zM448 171q2 -1 2 -19.5
t-2 -18.5h-190q-2 0 -2 18.5t2 19.5l49 18q-3 126 -3 147q0 18 3 138l-49 18q-2 1 -2 20.5t2 19.5h181q85 0 116 -30.5t31 -85.5q0 -57 -38 -94.5t-108 -37.5q-37 0 -52 3v-98zM388 477v-145q22 -2 34 -2q38 0 55.5 18t17.5 62q0 39 -18 60q-16 9 -45 9q-30 0 -44 -2z" />
    <glyph glyph-name="trademark" unicode="&#x2122;" horiz-adv-x="897" 
d="M242 620q3 -90 3 -102q0 -10 -3 -103l44 -17q2 -1 2 -17t-2 -16h-165q-1 0 -1 16t1 17l44 17q-2 62 -2 103q0 42 2 102h-60l-22 -50q-1 -2 -15 -1.5t-14 2.5l3 101q0 2 13 2t15 -2l12 -10h213l12 10q2 2 15.5 2t13.5 -2l2 -101q0 -2 -13.5 -2.5t-14.5 1.5l-23 50h-60z
M704 603l-108 -236q-1 -2 -16.5 -2t-17.5 2q-18 34 -57 124q-29 64 -45 110l-3 -186l32 -17q1 -1 1 -17t-1 -16h-118q-2 0 -2 16t2 17l43 17l5 198l-37 16q-2 1 -2 18.5t2 17.5h128q7 -14 49 -106q22 -49 42 -97l91 203h126q2 0 2 -17.5t-2 -18.5l-38 -16q3 -47 3 -97
q0 -70 -2 -101l46 -17q2 -1 2 -17t-2 -16h-158q-2 0 -2 16t2 17l37 17q-3 44 -3 95q0 67 1 93z" />
    <glyph glyph-name="estimated" unicode="&#x212e;" horiz-adv-x="716" 
d="M360 -14q-138 0 -224 96t-86 235q0 141 85.5 236t227.5 95t226.5 -95t86.5 -237h-490v-220q73 -71 174 -71q83 0 137.5 37.5t99.5 107.5l37 -23q-52 -79 -114.5 -120t-159.5 -41zM186 356h351v182q-74 71 -175 71q-107 0 -176 -71v-182z" />
    <glyph glyph-name="onethird" unicode="&#x2153;" horiz-adv-x="842" 
d="M206 -50l-68 43q268 378 466 688l67 -43q-172 -236 -465 -688zM109 494q0 26 3 101l-69 2q-2 0 -3 10t0 20.5t3 10.5q87 15 175 18q2 -14 2 -152q0 -66 -3 -141l69 -17q2 -1 2 -18.5t-2 -17.5h-243q-3 0 -3 17.5t3 18.5l69 17q-3 75 -3 131zM808 101q-1 -55 -54 -83
t-144 -28q-76 0 -105 11q-2 1 -2.5 7t0 14t1.5 16t3 13t3 5q40 -8 76 -8q95 0 95 55q0 46 -78 43h-23q-4 0 -5.5 12t0.5 24t7 12q54 1 76.5 13.5t22.5 39.5q0 36 -54 36q-46 0 -89 -33q-1 -1 -8.5 7.5t-14 18t-4.5 12.5q50 64 157 64q64 0 99 -22.5t35 -63.5
q0 -35 -24.5 -57t-59.5 -29v-3q43 -3 67 -22t23 -54z" />
    <glyph glyph-name="twothirds" unicode="&#x2154;" horiz-adv-x="914" 
d="M278 -50l-68 43q268 378 466 688l67 -43q-172 -236 -465 -688zM212 535q0 25 -14 40t-41 15q-52 0 -88 -37q-1 -1 -9 6t-14 15.5t-5 11.5q14 26 53.5 51t101.5 25q63 0 98 -26t35 -76q0 -75 -87 -131q-43 -27 -61 -36v-4l165 2q3 -3 3 -21t-3.5 -39t-7.5 -21
q-30 0 -84 0.5t-86 0.5q-89 0 -135 -1q-3 0 -3 19.5t2 21.5q63 36 118 84q22 19 31.5 28.5t20 29t10.5 42.5zM880 101q-1 -55 -54 -83t-144 -28q-76 0 -105 11q-2 1 -2.5 7t0 14t1.5 16t3 13t3 5q40 -8 76 -8q95 0 95 55q0 46 -78 43h-23q-4 0 -5.5 12t0.5 24t7 12
q54 1 76.5 13.5t22.5 39.5q0 36 -54 36q-46 0 -89 -33q-1 -1 -8.5 7.5t-14 18t-4.5 12.5q50 64 157 64q64 0 99 -22.5t35 -63.5q0 -35 -24.5 -57t-59.5 -29v-3q43 -3 67 -22t23 -54z" />
    <glyph glyph-name="oneeighth" unicode="&#x215b;" horiz-adv-x="858" 
d="M206 -50l-68 43q268 378 466 688l67 -43q-172 -236 -465 -688zM109 494q0 26 3 101l-69 2q-2 0 -3 10t0 20.5t3 10.5q87 15 175 18q2 -14 2 -152q0 -66 -3 -141l69 -17q2 -1 2 -18.5t-2 -17.5h-243q-3 0 -3 17.5t3 18.5l69 17q-3 75 -3 131zM807 102q0 -52 -45 -82
t-116 -30q-144 0 -144 90q0 30 21.5 51t53.5 30q-30 16 -45 35t-15 53q0 48 41 75.5t105 27.5t99 -20.5t35 -58.5q0 -53 -68 -78q78 -29 78 -93zM727 260q0 19 -16.5 30.5t-47.5 11.5q-36 0 -54 -11q-6 -7 -6 -20q0 -27 41 -44q9 -4 27.5 -10.5t21.5 -7.5q34 20 34 51z
M722 81q1 15 -9 23t-36 18q-17 7 -65 22q-39 -20 -39 -56q0 -46 79 -46q68 0 70 39z" />
    <glyph glyph-name="threeeighths" unicode="&#x215c;" horiz-adv-x="891" 
d="M239 -50l-68 43q268 378 466 688l67 -43q-172 -236 -465 -688zM344 411q-1 -55 -54 -83t-144 -28q-76 0 -105 11q-2 1 -2.5 7t0 14t1.5 16t3 13t3 5q40 -8 76 -8q95 0 95 55q0 46 -78 43h-23q-4 0 -5.5 12t0.5 24t7 12q54 1 76.5 13.5t22.5 39.5q0 36 -54 36
q-46 0 -89 -33q-1 -1 -8.5 7.5t-14 18t-4.5 12.5q50 64 157 64q64 0 99 -22.5t35 -63.5q0 -35 -24.5 -57t-59.5 -29v-3q43 -3 67 -22t23 -54zM840 102q0 -52 -45 -82t-116 -30q-144 0 -144 90q0 30 21.5 51t53.5 30q-30 16 -45 35t-15 53q0 48 41 75.5t105 27.5t99 -20.5
t35 -58.5q0 -53 -68 -78q78 -29 78 -93zM760 260q0 19 -16.5 30.5t-47.5 11.5q-36 0 -54 -11q-6 -7 -6 -20q0 -27 41 -44q9 -4 27.5 -10.5t21.5 -7.5q34 20 34 51zM755 81q1 15 -9 23t-36 18q-17 7 -65 22q-39 -20 -39 -56q0 -46 79 -46q68 0 70 39z" />
    <glyph glyph-name="fiveeighths" unicode="&#x215d;" horiz-adv-x="888" 
d="M236 -50l-68 43q268 378 466 688l67 -43q-172 -236 -465 -688zM123 359q85 0 85 54q0 29 -26 40t-92 11q-4 0 -7.5 3.5t-3.5 6.5l21 178h221q3 -3 3 -21t-2.5 -39t-5.5 -21h-183l-8 -60q21 3 59 3q74 0 111 -21.5t37 -71.5q0 -57 -51.5 -89t-143.5 -32q-56 0 -86 10
q-2 1 -2.5 7t0 14t1.5 16t2.5 13t2.5 5q30 -6 68 -6zM837 102q0 -52 -45 -82t-116 -30q-144 0 -144 90q0 30 21.5 51t53.5 30q-30 16 -45 35t-15 53q0 48 41 75.5t105 27.5t99 -20.5t35 -58.5q0 -53 -68 -78q78 -29 78 -93zM757 260q0 19 -16.5 30.5t-47.5 11.5
q-36 0 -54 -11q-6 -7 -6 -20q0 -27 41 -44q9 -4 27.5 -10.5t21.5 -7.5q34 20 34 51zM752 81q1 15 -9 23t-36 18q-17 7 -65 22q-39 -20 -39 -56q0 -46 79 -46q68 0 70 39z" />
    <glyph glyph-name="seveneighths" unicode="&#x215e;" horiz-adv-x="811" 
d="M159 -50l-68 43q268 378 466 688l67 -43q-172 -236 -465 -688zM33 571q-3 0 -3 20.5t2.5 40.5t6.5 20h275q5 0 8.5 -8t2.5 -12q-26 -52 -100 -162q-80 -121 -111 -162q-2 -2 -18 -2.5t-30.5 0t-13.5 2.5q48 98 87 162q40 66 66 101h-172zM760 102q0 -52 -45 -82t-116 -30
q-144 0 -144 90q0 30 21.5 51t53.5 30q-30 16 -45 35t-15 53q0 48 41 75.5t105 27.5t99 -20.5t35 -58.5q0 -53 -68 -78q78 -29 78 -93zM680 260q0 19 -16.5 30.5t-47.5 11.5q-36 0 -54 -11q-6 -7 -6 -20q0 -27 41 -44q9 -4 27.5 -10.5t21.5 -7.5q34 20 34 51zM675 81
q1 15 -9 23t-36 18q-17 7 -65 22q-39 -20 -39 -56q0 -46 79 -46q68 0 70 39z" />
    <glyph glyph-name="partialdiff" unicode="&#x2202;" horiz-adv-x="567" 
d="M199 627l34 41q67 -23 131 -78q174 -144 174 -363q0 -108 -71.5 -176.5t-180.5 -68.5q-116 0 -186.5 62t-70.5 171q0 105 71 170t182 65q28 0 61 -5q-20 51 -56 97q-41 54 -88 85zM353 70q27 51 27 152q0 154 -100 154q-36 0 -62 -16q-31 -39 -31 -142q0 -90 24 -127.5
t76 -37.5q41 0 66 17z" />
    <glyph glyph-name="product" unicode="&#x220f;" horiz-adv-x="707" 
d="M446 31v534h-185v-534l55 -35q4 -2 4 -22.5t-4 -20.5h-279q-4 0 -4 20.5t4 22.5l80 35q-5 175 -5 278q0 76 5 244l-80 35q-4 2 -4 25t4 23h633q2 0 3.5 -11.5t0.5 -23.5t-4 -13l-80 -35q5 -168 5 -243q0 -104 -5 -279l80 -35q4 -2 4 -22.5t-4 -20.5h-279q-4 0 -4 20.5
t4 22.5z" />
    <glyph glyph-name="summation" unicode="&#x2211;" horiz-adv-x="584" 
d="M174 67h270l49 96q2 5 26 5t24 -5l-15 -188q-1 -6 -8.5 -14t-13.5 -8h-478q-2 0 -2 22.5t2 25.5l239 270l-224 318q-3 4 -2.5 25.5t4.5 21.5h455q3 0 7.5 -4.5t4.5 -7.5v-158q0 -3 -11.5 -4.5t-24 -0.5t-14.5 5l-52 107l-185 3l168 -240q2 -10 0 -24z" />
    <glyph glyph-name="minus" unicode="&#x2212;" horiz-adv-x="553" 
d="M61 362h431v-87h-431v87z" />
    <glyph glyph-name="radical" unicode="&#x221a;" horiz-adv-x="644" 
d="M317 -7q-1 -3 -30 -3t-31 3l-142 265h-52q-5 0 -5 33.5t5 33.5h142l87 -170l298 503q1 2 16 -4t28 -14.5t11 -11.5z" />
    <glyph glyph-name="infinity" unicode="&#x221e;" horiz-adv-x="630" 
d="M590 317q0 -65 -37.5 -114.5t-99.5 -49.5q-87 0 -130 84q-27 -40 -65.5 -62t-76.5 -22q-67 0 -104 46t-37 118q0 71 42 118t104 47q87 0 128 -84q54 84 139 84q65 0 101 -43.5t36 -121.5zM274 331q-32 71 -93 71q-71 0 -71 -85q0 -82 68 -82q9 0 16.5 1.5t14.5 6t12 7.5
t11.5 11t9.5 11.5t9 14.5t7.5 14t8 15.5t7.5 14.5zM523 321q0 78 -58 78q-18 0 -32.5 -6t-25.5 -19.5t-18.5 -26.5t-19.5 -36q-1 -2 -2 -3.5t-2 -4t-2 -4.5q26 -68 91 -68q34 0 51.5 24t17.5 66z" />
    <glyph glyph-name="integral" unicode="&#x222b;" horiz-adv-x="561" 
d="M88 -113q46 0 64 120q4 26 10.5 78.5t14.5 118.5t12 97q21 164 67 244q61 108 191 108q128 0 143 -91q-1 -26 -14 -46t-32 -26h-26q-2 0 -16 24t-30 53t-21 36q-39 0 -63 -91q-16 -59 -34 -211q-21 -165 -36 -232q-15 -62 -44.5 -109t-64.5 -72.5t-69.5 -38t-66.5 -12.5
q-55 0 -87.5 26.5t-32.5 65.5q3 24 16 43t29 25h24q2 0 15.5 -24t29 -51.5t21.5 -34.5z" />
    <glyph glyph-name="approxequal" unicode="&#x2248;" horiz-adv-x="553" 
d="M96 324l-38 25q54 118 143 118q35 0 93 -18q59 -19 86 -19q43 0 79 44l37 -23q-45 -117 -134 -117q-24 0 -108 26q-41 13 -70 13q-26 0 -45.5 -11t-42.5 -38zM96 159l-38 25q53 116 145 116q30 0 91 -19t86 -19q40 0 79 47l37 -23q-45 -119 -134 -119q-31 0 -108 24
q-47 15 -70 15q-47 0 -88 -47z" />
    <glyph glyph-name="notequal" unicode="&#x2260;" horiz-adv-x="553" 
d="M482 202h-256l-74 -95l-52 38l45 57h-74v78h135l61 77h-196v78h257l75 95l51 -37l-45 -58h73v-78h-134l-61 -77h195v-78z" />
    <glyph glyph-name="lessequal" unicode="&#x2264;" horiz-adv-x="553" 
d="M484 123l-411 184v76l411 184v-95l-292 -127l292 -127v-95zM61 87h431v-87h-431v87z" />
    <glyph glyph-name="greaterequal" unicode="&#x2265;" horiz-adv-x="553" 
d="M69 123v95l292 127l-292 127v95l411 -184v-76zM492 87v-87h-431v87h431z" />
    <glyph glyph-name="lozenge" unicode="&#x25ca;" horiz-adv-x="577" 
d="M252 0l-203 318l203 318h73l203 -318l-203 -318h-73zM290 91l134 225l-136 229l-134 -226z" />
    <glyph glyph-name="Omega" unicode="&#xa7b6;" horiz-adv-x="707" 
d="M317 0h-272q-4 0 -9.5 5t-6.5 10l-14 152q0 2 10.5 3t22 0t13.5 -3l47 -72h94q-136 98 -136 262q0 125 80.5 210.5t207.5 85.5q130 0 208.5 -84.5t78.5 -211.5q0 -163 -137 -262h95l47 72q2 4 24 4t22 -4l-14 -152q-1 -5 -6.5 -10t-9.5 -5h-272v48q45 44 63 109.5
t18 185.5t-27 176t-90 56q-64 0 -91 -56.5t-27 -175.5q0 -120 18 -185.5t63 -109.5v-48z" />
    <glyph glyph-name="commaaccent" unicode="&#xf6c3;" horiz-adv-x="500" 
d="M192 -355q-3 -2 -11 7t-14 20t-4 12q76 44 90 92q-40 0 -64.5 22.5t-24.5 56.5q0 33 26 57t62 24q40 0 65.5 -24t25.5 -71q0 -66 -44 -115.5t-107 -80.5z" />
    <glyph glyph-name="uniFEFF" unicode="&#xfeff;" horiz-adv-x="0" 
 />
    <glyph glyph-name="uni00A0" horiz-adv-x="200" 
 />
    <glyph glyph-name="apple" horiz-adv-x="585" 
d="M400 601q-41 0 -67 -15v155l30 -8zM209 500h-53q-4 20 -4 38q0 107 121 127v-262l-45 14zM282 104l1 -189l-30 11l-49 141q14 2 29.5 7.5t32.5 19.5t17 32q-33 3 -68 12.5t-72 26.5t-60.5 48t-23.5 70q0 83 107 131l-10 85q17 -61 72 -83l8 -38l146 -38l15 129
q-32 -1 -56.5 -0.5t-39 10t-14.5 29.5q0 24 11.5 43.5t23.5 26.5l11 7v-37q81 -15 137 -53.5t56 -101.5q0 -33 -9.5 -57.5t-23 -36t-27.5 -19t-24 -8.5l-9 -1v-47q-26 29 -68 42l-5 30l-147 35l-17 -117q11 0 28.5 -0.5t47.5 -9t34 -24.5q3 -13 -3 -32t-13 -32zM460 148
q0 -56 -33.5 -96t-93.5 -46v269l32 -10l18 -93h50v51q27 -21 27 -75z" />
    <glyph glyph-name="checkmark" horiz-adv-x="631" 
d="M34 284q-2 2 28 22t32 18l133 -169l312 530q1 2 16.5 -5.5t30.5 -17t14 -10.5l-348 -659q-2 -2 -25.5 -2.5t-25.5 2.5z" />
    <glyph glyph-name="prime" horiz-adv-x="243" 
d="M83 373q-8 171 3 221q13 59 80 59q30 0 48.5 -14.5t15.5 -44.5q-2 -21 -28 -76.5t-52 -99.5l-25 -45h-42z" />
    <glyph glyph-name="primedbl" horiz-adv-x="436" 
d="M83 373q-8 171 3 221q13 59 80 59q30 0 48.5 -14.5t15.5 -44.5q-2 -21 -28 -76.5t-52 -99.5l-25 -45h-42zM276 373q-8 171 3 221q13 59 80 59q30 0 48.5 -14.5t15.5 -44.5q-2 -21 -28 -76.5t-51 -99.5l-26 -45h-42z" />
    <glyph glyph-name="schwa" horiz-adv-x="552" 
d="M249 524q124 0 199 -63.5t75 -198.5q0 -127 -80.5 -202t-195.5 -75q-106 0 -166 69t-54 163q1 11 14 26t20 15l291 -1q0 100 -34 138t-114 38q-81 0 -151 -51q-2 -2 -8.5 6.5t-11 19.5t-2.5 16q28 43 92.5 71.5t125.5 28.5zM314 77q29 34 36 122l-170 -6q0 -68 16.5 -99
t60.5 -31q33 0 57 14z" />
    <glyph glyph-name="space.em" horiz-adv-x="1000" 
 />
    <glyph glyph-name="space.en" horiz-adv-x="500" 
 />
    <glyph glyph-name="space.frac" horiz-adv-x="60" 
 />
    <glyph glyph-name="space.thin" horiz-adv-x="200" 
 />
    <glyph glyph-name="space.tab_thin" horiz-adv-x="296" 
 />
    <glyph glyph-name="hyphen.uc" horiz-adv-x="361" 
d="M36 268v121h289v-121h-289z" />
    <glyph glyph-name="endash.uc" horiz-adv-x="500" 
d="M40 272v115h420v-115h-420z" />
    <glyph glyph-name="emdash.uc" horiz-adv-x="1000" 
d="M960 387v-115h-920v115h920z" />
    <glyph glyph-name="parenleft.uc" horiz-adv-x="434" 
d="M363 -126q-141 74 -219 193.5t-78 257.5q0 132 78 245.5t219 191.5l36 -35q-92 -82 -126.5 -177.5t-34.5 -224.5q0 -140 33.5 -237.5t127.5 -177.5z" />
    <glyph glyph-name="parenright.uc" horiz-adv-x="434" 
d="M71 -126l-36 36q94 80 127.5 177.5t33.5 237.5q0 129 -34.5 224.5t-126.5 177.5l36 35q141 -78 219 -191.5t78 -245.5q0 -138 -78 -257.5t-219 -193.5z" />
    <glyph glyph-name="bracketleft.uc" horiz-adv-x="409" 
d="M394 -56v-47l-303 -3q-7 210 -7 446q0 171 9 396l301 -3v-47l-145 -11q3 -84 3 -338q0 -286 -3 -382z" />
    <glyph glyph-name="bracketright.uc" horiz-adv-x="409" 
d="M318 -106l-303 3v47l145 11q-3 96 -3 382q0 254 3 338l-145 11v47l301 3q9 -225 9 -396q0 -236 -7 -446z" />
    <glyph glyph-name="braceleft.uc" horiz-adv-x="468" 
d="M165 316q164 -39 164 -176v-78q0 -30 2.5 -46t12.5 -35t34 -27t64 -8v-52h-57q-105 0 -159.5 43t-54.5 126v86q0 64 -23.5 96.5t-97.5 40.5v59q74 7 97.5 39.5t23.5 97.5v85q0 82 54.5 125.5t159.5 43.5h57v-52q-40 0 -64 -8.5t-34 -27.5t-12.5 -34.5t-2.5 -45.5v-77
q0 -139 -164 -175z" />
    <glyph glyph-name="braceright.uc" horiz-adv-x="468" 
d="M303 316q-164 36 -164 175v77q0 30 -2.5 45.5t-12.5 34.5t-34 27.5t-64 8.5v52h57q105 0 159.5 -43.5t54.5 -125.5v-85q0 -65 23.5 -97.5t97.5 -39.5v-59q-74 -8 -97.5 -40.5t-23.5 -96.5v-86q0 -83 -54.5 -126t-159.5 -43h-57v52q40 0 64 8t34 27t12.5 35t2.5 46v78
q0 137 164 176z" />
    <glyph glyph-name="guilsinglleft.uc" horiz-adv-x="358" 
d="M288 101q-121 80 -247 190v59q120 104 247 190l34 -38l-161 -182l161 -181z" />
    <glyph glyph-name="guilsinglright.uc" horiz-adv-x="358" 
d="M70 101l-34 38l161 181l-161 182l34 38q127 -86 247 -190v-59q-126 -110 -247 -190z" />
    <glyph glyph-name="periodcentered.uc" horiz-adv-x="316" 
d="M158 236q-40 0 -68.5 27.5t-28.5 67.5q0 42 28.5 70t68.5 28q42 0 69.5 -28t27.5 -70q0 -41 -27.5 -68t-69.5 -27z" />
    <glyph glyph-name="bullet.uc" horiz-adv-x="389" 
d="M194 192q-59 0 -101 42.5t-42 101.5t42.5 101t101.5 42t101 -42t42 -101t-42.5 -101.5t-101.5 -42.5z" />
    <glyph glyph-name="guillemotleft.uc" horiz-adv-x="588" 
d="M288 101q-121 80 -247 190v59q120 104 247 190l34 -38l-161 -182l161 -181zM518 101q-121 80 -247 190v59q120 104 247 190l34 -38l-161 -182l161 -181z" />
    <glyph glyph-name="guillemotright.uc" horiz-adv-x="588" 
d="M300 101l-34 38l161 181l-161 182l34 38q127 -86 247 -190v-59q-126 -110 -247 -190zM70 101l-34 38l161 181l-161 182l34 38q127 -86 247 -190v-59q-126 -110 -247 -190z" />
    <glyph glyph-name="emdash.salt_em" horiz-adv-x="1000" 
d="M1000 332v-115h-1000v115h1000z" />
    <glyph glyph-name="endash.salt_en" horiz-adv-x="500" 
d="M0 217v115h500v-115h-500z" />
    <glyph glyph-name="emdash.uc_salt_em" horiz-adv-x="1000" 
d="M1000 387v-115h-1000v115h1000z" />
    <glyph glyph-name="endash.uc_salt_en" horiz-adv-x="500" 
d="M0 272v115h500v-115h-500z" />
    <glyph glyph-name="registered.salt_big" horiz-adv-x="822" 
d="M408 -9q-139 0 -237.5 93t-98.5 253q0 157 99 252t241 95q140 0 239 -94.5t99 -253.5q0 -154 -97.5 -249.5t-244.5 -95.5zM411 57q116 0 192 75.5t76 204.5t-78 205.5t-189 76.5q-114 0 -191.5 -76t-77.5 -206q0 -133 76.5 -206.5t191.5 -73.5zM427 187q2 -1 2 -19
t-2 -18h-177q-2 0 -2 18t2 19l48 18q-3 123 -3 144q0 18 3 135l-48 18q-2 1 -2 20t2 19h177q83 0 113.5 -30t30.5 -84q0 -81 -71 -112l56 -110l48 -18q4 -2 3.5 -19t-4.5 -18h-116l-4 29l-61 122q-32 0 -45 3v-99zM377 487v-142q22 -2 39 -2q66 0 66 78q0 39 -18 59
q-17 9 -43 9q-30 0 -44 -2z" />
    <glyph glyph-name="zero.dnom" horiz-adv-x="421" 
d="M212 352q78 0 126.5 -43.5t49.5 -133.5q1 -87 -49.5 -136t-128.5 -49q-79 0 -128 43.5t-49 131.5q0 87 51 137t128 50zM246 49q25 37 25 122q0 72 -14 100.5t-45 28.5q-21 0 -37 -9q-24 -40 -24 -120q0 -71 14.5 -101t46.5 -30q21 0 34 9z" />
    <glyph glyph-name="one.dnom" horiz-adv-x="315" 
d="M109 184q0 26 3 101l-69 2q-2 0 -3 10t0 20.5t3 10.5q87 15 175 18q2 -14 2 -152q0 -66 -3 -141l69 -17q2 -1 2 -18.5t-2 -17.5h-243q-3 0 -3 17.5t3 18.5l69 17q-3 75 -3 131z" />
    <glyph glyph-name="two.dnom" horiz-adv-x="377" 
d="M212 225q0 25 -14 40t-41 15q-52 0 -88 -37q-1 -1 -9 6t-14 15.5t-5 11.5q14 26 53.5 51t101.5 25q63 0 98 -26t35 -76q0 -75 -87 -131q-43 -27 -61 -36v-4l165 2q3 -3 3 -21t-3.5 -39t-7.5 -21q-30 0 -84 0.5t-86 0.5q-89 0 -135 -1q-3 0 -3 19.5t2 21.5q63 36 118 84
q22 19 31.5 28.5t20 29t10.5 42.5z" />
    <glyph glyph-name="three.dnom" horiz-adv-x="378" 
d="M344 101q-1 -55 -54 -83t-144 -28q-76 0 -105 11q-2 1 -2.5 7t0 14t1.5 16t3 13t3 5q40 -8 76 -8q95 0 95 55q0 46 -78 43h-23q-4 0 -5.5 12t0.5 24t7 12q54 1 76.5 13.5t22.5 39.5q0 36 -54 36q-46 0 -89 -33q-1 -1 -8.5 7.5t-14 18t-4.5 12.5q50 64 157 64
q64 0 99 -22.5t35 -63.5q0 -35 -24.5 -57t-59.5 -29v-3q43 -3 67 -22t23 -54z" />
    <glyph glyph-name="four.dnom" horiz-adv-x="421" 
d="M377 36q3 -1 4 -10t-0.5 -17.5t-3.5 -8.5h-217q-4 0 -4 17.5t4 18.5l57 16q0 15 -2 39h-176q-3 1 -3 22t2 24q56 63 103 106q65 63 115 100q3 2 34 2t31 -2q1 -39 1 -200h47q4 0 4 -26t-4 -26h-48q0 -6 -0.5 -18.5t-0.5 -20.5zM103 143h111q0 59 3 112q-30 -25 -59 -54
q-32 -33 -55 -58z" />
    <glyph glyph-name="five.dnom" horiz-adv-x="365" 
d="M123 50q85 0 85 54q0 29 -26 40t-92 11q-4 0 -7.5 3.5t-3.5 6.5l21 178h221q3 -3 3 -21t-2.5 -39t-5.5 -21h-183l-8 -60q21 3 59 3q74 0 111 -21.5t37 -71.5q0 -57 -51.5 -89t-143.5 -32q-56 0 -86 10q-2 1 -2.5 7t0 14t1.5 16t2.5 13t2.5 5q30 -6 68 -6z" />
    <glyph glyph-name="six.dnom" horiz-adv-x="386" 
d="M362 118q0 -59 -48 -94t-113 -35q-76 0 -122.5 36.5t-46.5 111.5q0 100 77.5 158t211.5 56q2 0 3.5 -12.5t0.5 -24.5t-3 -12q-58 -3 -102.5 -26t-60.5 -65q27 12 66 12q137 0 137 -105zM251 104q0 36 -15.5 50.5t-47.5 14.5q-21 0 -41 -9q-5 -17 -5 -43q1 -41 14.5 -59.5
t46.5 -18.5q21 0 33 7q15 22 15 58z" />
    <glyph glyph-name="seven.dnom" horiz-adv-x="308" 
d="M33 262q-3 0 -3 20t2.5 40.5t6.5 20.5h275q5 0 8.5 -8t2.5 -12q-26 -52 -100 -162q-80 -121 -111 -162q-2 -2 -18 -2.5t-30.5 0t-13.5 2.5q48 98 87 162q40 66 66 101h-172z" />
    <glyph glyph-name="eight.dnom" horiz-adv-x="404" 
d="M353 102q0 -52 -45 -82t-116 -30q-144 0 -144 90q0 30 21.5 51t53.5 30q-30 16 -45 35t-15 53q0 48 41 75.5t105 27.5t99 -20.5t35 -58.5q0 -53 -68 -78q78 -29 78 -93zM273 260q0 19 -16.5 30.5t-47.5 11.5q-36 0 -54 -11q-6 -7 -6 -20q0 -27 41 -44q9 -4 27.5 -10.5
t21.5 -7.5q34 20 34 51zM268 81q1 15 -9 23t-36 18q-17 7 -65 22q-39 -20 -39 -56q0 -46 79 -46q68 0 70 39z" />
    <glyph glyph-name="nine.dnom" horiz-adv-x="386" 
d="M32 223q0 59 48 94t113 35q76 0 122.5 -36.5t46.5 -111.5q0 -100 -77.5 -158t-211.5 -56q-2 0 -3.5 12t-0.5 24.5t3 12.5q58 3 102.5 26t60.5 65q-27 -12 -66 -12q-137 0 -137 105zM143 237q0 -36 15.5 -50.5t47.5 -14.5q21 0 41 9q5 17 5 43q-1 41 -14.5 59.5
t-46.5 18.5q-21 0 -33 -7q-15 -23 -15 -58z" />
    <glyph glyph-name="zero.numr" horiz-adv-x="421" 
d="M212 662q78 0 126.5 -43.5t49.5 -133.5q1 -87 -49.5 -136t-128.5 -49q-79 0 -128 43.5t-49 131.5q0 87 51 137t128 50zM246 359q25 37 25 122q0 72 -14 100.5t-45 28.5q-21 0 -37 -9q-24 -40 -24 -120q0 -71 14.5 -101t46.5 -30q21 0 34 9z" />
    <glyph glyph-name="one.numr" horiz-adv-x="315" 
d="M109 494q0 26 3 101l-69 2q-2 0 -3 10t0 20.5t3 10.5q87 15 175 18q2 -14 2 -152q0 -66 -3 -141l69 -17q2 -1 2 -18.5t-2 -17.5h-243q-3 0 -3 17.5t3 18.5l69 17q-3 75 -3 131z" />
    <glyph glyph-name="two.numr" horiz-adv-x="377" 
d="M212 535q0 25 -14 40t-41 15q-52 0 -88 -37q-1 -1 -9 6t-14 15.5t-5 11.5q14 26 53.5 51t101.5 25q63 0 98 -26t35 -76q0 -75 -87 -131q-43 -27 -61 -36v-4l165 2q3 -3 3 -21t-3.5 -39t-7.5 -21q-30 0 -84 0.5t-86 0.5q-89 0 -135 -1q-3 0 -3 19.5t2 21.5q63 36 118 84
q22 19 31.5 28.5t20 29t10.5 42.5z" />
    <glyph glyph-name="three.numr" horiz-adv-x="378" 
d="M344 411q-1 -55 -54 -83t-144 -28q-76 0 -105 11q-2 1 -2.5 7t0 14t1.5 16t3 13t3 5q40 -8 76 -8q95 0 95 55q0 46 -78 43h-23q-4 0 -5.5 12t0.5 24t7 12q54 1 76.5 13.5t22.5 39.5q0 36 -54 36q-46 0 -89 -33q-1 -1 -8.5 7.5t-14 18t-4.5 12.5q50 64 157 64
q64 0 99 -22.5t35 -63.5q0 -35 -24.5 -57t-59.5 -29v-3q43 -3 67 -22t23 -54z" />
    <glyph glyph-name="four.numr" horiz-adv-x="421" 
d="M377 346q3 -1 4 -10t-0.5 -17.5t-3.5 -8.5h-217q-4 0 -4 17.5t4 18.5l57 16q0 15 -2 39h-176q-3 1 -3 22t2 24q56 63 103 106q65 63 115 100q3 2 34 2t31 -2q1 -39 1 -200h47q4 0 4 -26t-4 -26h-48q0 -6 -0.5 -18.5t-0.5 -20.5zM103 453h111q0 59 3 112q-30 -25 -59 -54
q-32 -32 -55 -58z" />
    <glyph glyph-name="five.numr" horiz-adv-x="365" 
d="M123 359q85 0 85 54q0 29 -26 40t-92 11q-4 0 -7.5 3.5t-3.5 6.5l21 178h221q3 -3 3 -21t-2.5 -39t-5.5 -21h-183l-8 -60q21 3 59 3q74 0 111 -21.5t37 -71.5q0 -57 -51.5 -89t-143.5 -32q-56 0 -86 10q-2 1 -2.5 7t0 14t1.5 16t2.5 13t2.5 5q30 -6 68 -6z" />
    <glyph glyph-name="six.numr" horiz-adv-x="386" 
d="M362 429q0 -59 -48 -94t-113 -35q-76 0 -122.5 36.5t-46.5 111.5q0 100 77.5 158t211.5 56q2 0 3.5 -12t0.5 -24.5t-3 -12.5q-58 -3 -102.5 -26t-60.5 -65q27 12 66 12q137 0 137 -105zM251 415q0 36 -15.5 50.5t-47.5 14.5q-21 0 -41 -9q-5 -17 -5 -43q1 -41 14.5 -59.5
t46.5 -18.5q21 0 33 7q15 23 15 58z" />
    <glyph glyph-name="seven.numr" horiz-adv-x="308" 
d="M33 571q-3 0 -3 20.5t2.5 40.5t6.5 20h275q5 0 8.5 -8t2.5 -12q-26 -52 -100 -162q-80 -121 -111 -162q-2 -2 -18 -2.5t-30.5 0t-13.5 2.5q48 98 87 162q40 66 66 101h-172z" />
    <glyph glyph-name="eight.numr" horiz-adv-x="404" 
d="M353 412q0 -52 -45 -82t-116 -30q-144 0 -144 90q0 30 21.5 51t53.5 30q-30 16 -45 35t-15 53q0 48 41 75.5t105 27.5t99 -20.5t35 -58.5q0 -53 -68 -78q78 -29 78 -93zM273 570q0 19 -16.5 30.5t-47.5 11.5q-36 0 -54 -11q-6 -7 -6 -20q0 -27 41 -44q9 -4 27.5 -10.5
t21.5 -7.5q34 20 34 51zM268 391q1 15 -9 23t-36 18q-17 7 -65 22q-39 -20 -39 -56q0 -46 79 -46q68 0 70 39z" />
    <glyph glyph-name="nine.numr" horiz-adv-x="386" 
d="M32 533q0 59 48 94t113 35q76 0 122.5 -36.5t46.5 -111.5q0 -100 -77.5 -158t-211.5 -56q-2 0 -3.5 12t-0.5 24.5t3 12.5q58 3 102.5 26t60.5 65q-27 -12 -66 -12q-137 0 -137 105zM143 547q0 -36 15.5 -50.5t47.5 -14.5q21 0 41 9q5 17 5 43q-1 41 -14.5 59.5
t-46.5 18.5q-21 0 -33 -7q-15 -23 -15 -58z" />
    <glyph glyph-name="zero.sinf" horiz-adv-x="451" 
d="M227 242q78 0 126.5 -43.5t49.5 -133.5q1 -87 -49.5 -136t-128.5 -49q-79 0 -128 43.5t-49 131.5q0 87 51 137t128 50zM261 -61q25 37 25 122q0 72 -14 100.5t-45 28.5q-21 0 -37 -9q-24 -40 -24 -120q0 -71 14.5 -101t46.5 -30q21 0 34 9z" />
    <glyph glyph-name="one.sinf" horiz-adv-x="345" 
d="M124 74q0 26 3 101l-69 2q-2 0 -3 10t0 20.5t3 10.5q87 15 175 18q2 -14 2 -152q0 -66 -3 -141l69 -17q2 -1 2 -18.5t-2 -17.5h-243q-3 0 -3 17.5t3 18.5l69 17q-3 75 -3 131z" />
    <glyph glyph-name="two.sinf" horiz-adv-x="407" 
d="M227 115q0 25 -14 40t-41 15q-52 0 -88 -37q-1 -1 -9 6t-14 15.5t-5 11.5q14 26 53.5 51t101.5 25q63 0 98 -26t35 -76q0 -75 -87 -131q-43 -27 -61 -36v-4l165 2q3 -3 3 -21t-3.5 -39t-7.5 -21q-30 0 -84 0.5t-86 0.5q-89 0 -135 -1q-4 0 -4 19.5t3 21.5q63 36 118 84
q22 19 31.5 28.5t20 29t10.5 42.5z" />
    <glyph glyph-name="three.sinf" horiz-adv-x="408" 
d="M359 -9q-1 -55 -54 -83t-144 -28q-76 0 -105 11q-2 1 -2.5 7t0 14t1.5 16t3 13t3 5q40 -8 76 -8q95 0 95 55q0 46 -78 43h-23q-4 0 -5.5 12t0.5 24t7 12q54 1 76.5 13.5t22.5 39.5q0 36 -54 36q-46 0 -89 -33q-1 -1 -8.5 7.5t-14 18t-4.5 12.5q50 64 157 64
q64 0 99 -22.5t35 -63.5q0 -35 -24.5 -57t-59.5 -29v-3q43 -3 67 -22t23 -54z" />
    <glyph glyph-name="four.sinf" horiz-adv-x="451" 
d="M392 -74q3 -1 4 -10t-0.5 -17.5t-3.5 -8.5h-217q-4 0 -4 17.5t4 18.5l57 16q0 15 -2 39h-176q-3 1 -3 22t2 24q56 63 103 106q65 63 115 100q3 2 34 2t31 -2q1 -39 1 -200h47q4 0 4 -26t-4 -26h-48q0 -6 -0.5 -18.5t-0.5 -20.5zM118 33h111q0 59 3 112q-30 -25 -59 -54
q-33 -33 -55 -58z" />
    <glyph glyph-name="five.sinf" horiz-adv-x="395" 
d="M138 -60q85 0 85 54q0 29 -26 40t-92 11q-4 0 -7.5 3.5t-3.5 6.5l21 178h221q3 -3 3 -21t-2.5 -39t-5.5 -21h-183l-8 -60q21 3 59 3q74 0 111 -21.5t37 -71.5q0 -57 -51.5 -89t-143.5 -32q-56 0 -86 10q-2 1 -2.5 7t0 14t1.5 16t2.5 13t2.5 5q30 -6 68 -6z" />
    <glyph glyph-name="six.sinf" horiz-adv-x="416" 
d="M377 8q0 -59 -48 -94t-113 -35q-76 0 -122.5 36.5t-46.5 111.5q0 100 77.5 158t211.5 56q2 0 3.5 -12.5t0.5 -24.5t-3 -12q-58 -3 -102.5 -26t-60.5 -65q27 12 66 12q137 0 137 -105zM266 -6q0 36 -15.5 50.5t-47.5 14.5q-21 0 -41 -9q-5 -17 -5 -43q1 -41 14.5 -59.5
t46.5 -18.5q21 0 33 7q15 22 15 58z" />
    <glyph glyph-name="seven.sinf" horiz-adv-x="338" 
d="M48 152q-3 0 -3 20t2.5 40.5t6.5 20.5h275q5 0 8.5 -8t2.5 -12q-26 -52 -100 -162q-80 -121 -111 -162q-2 -2 -18 -2.5t-30.5 0t-13.5 2.5q48 98 87 162q40 66 66 101h-172z" />
    <glyph glyph-name="eight.sinf" horiz-adv-x="434" 
d="M368 -8q0 -52 -45 -82t-116 -30q-144 0 -144 90q0 30 21.5 51t53.5 30q-30 16 -45 35t-15 53q0 48 41 75.5t105 27.5t99 -20.5t35 -58.5q0 -53 -68 -78q78 -29 78 -93zM288 150q0 19 -16.5 30.5t-47.5 11.5q-36 0 -54 -11q-6 -7 -6 -20q0 -27 41 -44q9 -4 27.5 -10.5
t21.5 -7.5q34 20 34 51zM283 -29q1 15 -9 23t-36 18q-17 7 -65 22q-39 -20 -39 -56q0 -46 79 -46q68 0 70 39z" />
    <glyph glyph-name="nine.sinf" horiz-adv-x="416" 
d="M47 113q0 59 48 94t113 35q76 0 122.5 -36.5t46.5 -111.5q0 -100 -77.5 -158t-211.5 -56q-2 0 -3.5 12t-0.5 24.5t3 12.5q58 3 102.5 26t60.5 65q-27 -12 -66 -12q-137 0 -137 105zM158 127q0 -36 15.5 -50.5t47.5 -14.5q21 0 41 9q5 17 5 43q-1 41 -14.5 59.5
t-46.5 18.5q-21 0 -33 -7q-15 -23 -15 -58z" />
    <glyph glyph-name="zero.salt_slash" horiz-adv-x="659" 
d="M329 -18q-139 0 -218 85t-79 240q0 154 81.5 250t218.5 96t216 -84.5t79 -242.5q0 -155 -80.5 -249.5t-217.5 -94.5zM218 317q0 -86 6 -128l192 329q-26 57 -85 57q-40 0 -68 -17q-45 -74 -45 -241zM441 317q0 82 -7 131l-194 -331q24 -61 91 -61q41 0 64 18
q46 68 46 243z" />
    <glyph glyph-name="zero.lc_salt_slash" horiz-adv-x="610" 
d="M304 532q123 0 200 -78.5t77 -196.5q0 -119 -76.5 -197t-200.5 -78q-122 0 -198.5 78.5t-76.5 196.5t76.5 196.5t198.5 78.5zM149 257q0 -74 40 -120l193 272q-37 20 -78 20q-64 0 -109.5 -46t-45.5 -126zM462 257q0 74 -41 120l-193 -272q35 -20 76 -20q66 0 112 45.5
t46 126.5z" />
    <glyph glyph-name="zero.tab_salt_slash" 
d="M295 -18q-126 0 -201.5 85.5t-75.5 239.5q0 153 78 249.5t202 96.5q125 0 200 -85t75 -242q0 -153 -76.5 -248.5t-201.5 -95.5zM204 317q0 -59 3 -102l165 283q-20 77 -75 77q-34 0 -55 -17q-38 -78 -38 -241zM387 317q0 57 -3 101l-166 -284q18 -78 79 -78q32 0 52 18
q38 73 38 243z" />
    <glyph glyph-name="zero.lc_tab_salt_slash" 
d="M295 532q123 0 200 -78.5t77 -196.5q0 -119 -76.5 -197t-200.5 -78q-122 0 -198.5 78.5t-76.5 196.5t76.5 196.5t198.5 78.5zM140 257q0 -74 40 -120l193 272q-37 20 -78 20q-64 0 -109.5 -46t-45.5 -126zM453 257q0 74 -41 120l-193 -272q35 -20 76 -20q66 0 112 45.5
t46 126.5z" />
    <glyph glyph-name="zero.lc_tab" 
d="M295 532q123 0 200 -78.5t77 -196.5q0 -119 -76.5 -197t-200.5 -78q-122 0 -198.5 78.5t-76.5 196.5t76.5 196.5t198.5 78.5zM295 85q66 0 112 45.5t46 126.5q0 80 -46 126t-112 46q-64 0 -109.5 -46t-45.5 -126q0 -81 45.5 -126.5t109.5 -45.5z" />
    <glyph glyph-name="one.lc_tab" 
d="M217 256q0 2 4 174l-102 32q-5 2 -5 27.5t5 25.5h353q5 0 4.5 -25.5t-4.5 -27.5l-103 -32q5 -108 5 -171q0 -71 -5 -179l103 -32q4 -2 4 -25t-4 -23h-353q-4 0 -4 23t4 25l102 32q-4 168 -4 176z" />
    <glyph glyph-name="two.lc_tab" 
d="M319 334q0 83 -84 83q-65 0 -115 -59q-4 -3 -28 20.5t-21 30.5q17 41 75.5 82t138.5 41q93 0 148.5 -41.5t55.5 -122.5q0 -16 -3.5 -32t-8 -28.5t-13 -26t-15 -23t-19 -21t-19 -17.5t-20.5 -16t-18.5 -13t-17 -11.5t-13.5 -8.5q-16 -10 -81 -48v-6l270 2q5 -4 5 -30.5
t-5 -57.5t-11 -31q-138 2 -233 2q-171 0 -237 -2q-6 0 -5.5 24.5t5.5 26.5q125 85 189 143q80 75 80 140z" />
    <glyph glyph-name="three.lc_tab" 
d="M513 69q0 -105 -98.5 -156.5t-265.5 -51.5q-64 0 -104 11q-6 2 -8.5 20.5t-0.5 36t7 16.5q40 -7 82 -7q206 0 206 133q0 51 -39 75.5t-103 22.5q-5 0 -18 -0.5t-18 -0.5q-6 0 -8 15.5t1 31t10 16.5q86 12 129.5 38t43.5 76q0 77 -95 77q-77 0 -130 -53q-5 -5 -30.5 18.5
t-21.5 30.5q19 38 80.5 76t153.5 38q98 0 155.5 -37.5t57.5 -112.5q0 -64 -44.5 -107t-115.5 -55v-6q75 -7 124.5 -44.5t49.5 -100.5z" />
    <glyph glyph-name="four.lc_tab" 
d="M449 -131q0 -11 -71 -11.5t-71 11.5t-1 38.5t-2 67.5t-2 72h-279q-8 0 -8.5 33.5t7.5 42.5l325 389q6 8 54 8.5t48 -8.5q5 -225 5 -372h107q7 0 6.5 -46.5t-6.5 -46.5h-108q-1 -47 -2.5 -106.5t-1.5 -71.5zM119 140h183q2 135 5 227z" />
    <glyph glyph-name="five.lc_tab" 
d="M157 -139q-61 0 -92 11q-6 2 -8.5 21t-0.5 36t7 16q31 -7 75 -7q95 0 147 37t52 103q0 69 -53.5 95.5t-165.5 26.5q-7 0 -13.5 6.5t-5.5 12.5l37 296h375q7 -5 7 -32t-6 -59t-13 -32h-316l-13 -110q42 2 67 2q133 0 205.5 -49t71.5 -149q-1 -110 -100 -167.5t-257 -57.5z
" />
    <glyph glyph-name="six.lc_tab" 
d="M558 186q0 -88 -71 -146t-184 -58q-266 0 -266 265q0 112 69.5 199t169 129.5t205.5 43.5q9 0 9 -35.5t-8 -37.5q-42 -7 -75 -17t-72.5 -29t-69 -52.5t-46.5 -78.5q43 13 105 13q101 0 167.5 -48t66.5 -148zM402 185q-2 60 -34 91.5t-85 31.5q-46 0 -73 -8
q-11 -55 -6 -111q6 -75 32.5 -104.5t71.5 -29.5q42 0 67 18q29 40 27 112z" />
    <glyph glyph-name="seven.lc_tab" 
d="M59 392q-8 0 -8.5 31t5.5 61.5t14 30.5h470q6 0 13.5 -11.5t4.5 -16.5q-83 -153 -169 -300q-116 -198 -206 -322q-7 -11 -55 -10q-33 1 -31 10q38 96 133 282q73 144 134 245h-305z" />
    <glyph glyph-name="eight.lc_tab" 
d="M541 164q-3 -81 -79 -131.5t-189 -50.5q-233 0 -233 154q0 52 31.5 86t91.5 62q-46 27 -73 63.5t-26 98.5q2 77 68.5 125t172.5 48q91 0 155.5 -37t66.5 -106q2 -94 -108 -144q128 -50 122 -168zM417 464q-2 35 -31.5 55.5t-80.5 20.5q-59 0 -84 -16q-15 -16 -15 -48
q0 -28 14.5 -46.5t48.5 -34.5q28 -13 59 -25l31 -12q61 40 58 106zM399 137q0 26 -14.5 42t-47.5 31q-12 6 -114 45q-65 -33 -65 -107q0 -90 125 -90q57 0 86.5 24t29.5 55z" />
    <glyph glyph-name="nine.lc_tab" 
d="M31 329q0 86 71.5 144.5t178.5 58.5q130 0 200 -63.5t70 -190.5q0 -130 -62.5 -226.5t-162.5 -143t-222 -46.5q-6 0 -6 34.5t5 35.5q95 11 167 65.5t98 151.5q-53 -16 -105 -16q-100 0 -166 48t-66 148zM186 330q1 -59 33.5 -91t85.5 -32q42 0 73 9q11 55 6 110
q-6 72 -32 100.5t-69 28.5q-45 0 -67 -15q-31 -36 -30 -110z" />
    <glyph glyph-name="numbersign.lc_tab" 
d="M295 5q3 13 28 138h-112q-5 -22 -13 -55.5t-14 -58.5t-10 -44h-69q11 56 32 158h-101q-4 3 -1.5 22.5t9.5 42t10 22.5h101q11 52 13 61q2 10 6.5 30t6.5 30h-94q-5 3 -2.5 22.5t9.5 42t10 22.5h97q5 22 16.5 70.5t15.5 68.5h70q-4 -21 -13.5 -69t-14.5 -70h111
q28 124 37 159h70q-3 -13 -14 -68t-19 -91h94q5 -3 3 -22.5t-8 -42t-11 -22.5h-96l-9 -42q-6 -32 -17 -79h89q3 -3 1 -22.5t-8 -42t-11 -22.5h-91q-3 -11 -15 -63.5t-17 -74.5h-69zM243 289q-7 -35 -13 -59h111l9 42t8 39q1 6 4 19.5t5 20.5h-111q-9 -46 -13 -62z" />
    <glyph glyph-name="percent.lc_tab" 
d="M152 561q60 0 97.5 -38t37.5 -94q0 -59 -37 -97.5t-98 -38.5q-59 0 -96.5 39t-37.5 97q0 56 37.5 94t96.5 38zM84 -25l-58 52q21 23 67 73.5t60.5 66.5t49 54t47.5 53t41.5 47.5t45.5 52.5t44 51.5t52.5 62.5t57.5 69l58 -52q-240 -261 -465 -530zM152 365q26 0 43 16.5
t17 47.5q0 29 -17 45t-43 16q-23 0 -39.5 -16t-16.5 -45q0 -31 16.5 -47.5t39.5 -16.5zM438 250q60 0 97.5 -38t37.5 -94q0 -59 -37 -97.5t-98 -38.5q-59 0 -96.5 39t-37.5 97q0 56 37.5 94t96.5 38zM438 54q26 0 43 16.5t17 47.5q0 29 -17 45t-43 16q-23 0 -39.5 -16
t-16.5 -45q0 -31 16.5 -47.5t39.5 -16.5z" />
    <glyph glyph-name="plus.lc_tab" 
d="M252 56v173h-172v83h172v173h87v-173h172v-83h-172v-173h-87z" />
    <glyph glyph-name="minus.lc_tab" 
d="M80 312h431v-83h-431v83z" />
    <glyph glyph-name="divide.lc_tab" 
d="M296 359q-28 0 -46 18t-18 45q0 28 18 46t46 18t45.5 -17.5t17.5 -44.5q0 -28 -17.5 -46.5t-45.5 -18.5zM80 312h431v-83h-431v83zM296 55q-28 0 -46 17.5t-18 44.5q0 28 18 46.5t46 18.5t45.5 -18t17.5 -45q0 -29 -17.5 -46.5t-45.5 -17.5z" />
    <glyph glyph-name="multiply.lc_tab" 
d="M441 55l-146 149l-147 -149l-58 57l149 149l-149 148l61 61l148 -149l145 149l57 -58l-145 -148l146 -148z" />
    <glyph glyph-name="equal.lc_tab" 
d="M80 306v81h431v-81h-431zM80 154v81h431v-81h-431z" />
    <glyph glyph-name="less.lc_tab" 
d="M501 45l-411 184v76l411 184v-95l-292 -127l292 -127v-95z" />
    <glyph glyph-name="greater.lc_tab" 
d="M90 45v95l292 127l-292 127v95l411 -184v-76z" />
    <glyph glyph-name="dollar.lc_tab" 
d="M267 -81v82q-97 3 -158 36q-33 17 -33 64v113q0 4 28 4t30 -4l43 -122q31 -25 90 -25v172q-97 22 -145 63t-48 120q0 73 53 118t140 51v65h62v-64q78 -3 129 -27q16 -8 24 -20t8.5 -18t0.5 -18v-109q0 -5 -28 -5t-30 5l-37 107q-23 17 -67 19v-163q104 -25 148.5 -66
t44.5 -114q0 -79 -52 -125.5t-141 -55.5v-83h-62zM267 376v149q-79 -7 -79 -73q0 -30 17.5 -46t61.5 -30zM329 68q78 9 78 78q0 31 -17 49.5t-61 30.5v-158z" />
    <glyph glyph-name="cent.lc_tab" 
d="M503 108q-20 -34 -60 -58t-83 -32v-90h-57v87q-101 5 -160.5 65t-59.5 178q0 114 61 182t159 79v73h57v-72q57 -5 99.5 -29.5t52.5 -58.5q4 -40 -13.5 -64t-47.5 -24q-18 0 -28 5l-40 91q-7 3 -23 5v-345q30 2 64 15t59 33q2 1 8 -6.5t10 -18t2 -15.5zM234 275
q0 -83 15.5 -121.5t53.5 -48.5v341q-22 -3 -39 -14q-30 -43 -30 -157z" />
    <glyph glyph-name="sterling.lc_tab" 
d="M446 -11q-62 0 -143 28q-122 42 -129 44q-72 -72 -122 -72q-22 0 -34 12t-10 32q2 29 44.5 59.5t97.5 33.5q5 13 6.5 30.5t1.5 31.5t-0.5 40.5t-0.5 45.5h-91l9 70h85q10 132 78 202t184 72q63 1 102 -26.5t46 -74.5q-1 -28 -18.5 -48t-37.5 -26q-12 -2 -28 0
q-2 2 -13.5 25t-26.5 52t-21 39q-31 -1 -50.5 -18.5t-33.5 -65t-20 -131.5h140l-7 -70h-142q-9 -49 -33 -82.5t-62 -67.5q33 -4 119 -15q83 -11 116 -8l54 85q1 2 12.5 3t22 0.5t10.5 -2.5l-14 -126q-5 -44 -27 -58t-64 -14z" />
    <glyph glyph-name="yen.lc_tab" 
d="M38 191v60h178q-24 32 -50 71h-128v59h91q-30 47 -75 132l-66 30q-3 1 -3 26t3 25h282q4 0 4 -25t-3 -26l-56 -26q7 -10 59 -97q50 -84 63 -107l110 204l-60 26q-3 1 -3 26t4 25h214q3 0 3 -25t-2 -26l-79 -30l-79 -132h100v-59h-136l-42 -71h178v-60h-179q0 -47 -2 -111
l90 -32q3 -1 3.5 -24.5t-3.5 -23.5h-325q-4 0 -3.5 23.5t3.5 24.5l90 32q-3 46 -3 111h-178z" />
    <glyph glyph-name="Euro.lc_tab" 
d="M529 12q-61 -30 -154 -30q-239 0 -275 210h-66v59h60q-1 8 -1 26q0 16 2 42h-61v58h69q24 106 97.5 161.5t179.5 55.5q91 0 151 -31q26 -12 26 -40l1 -112q0 -5 -24.5 -5t-27.5 5l-49 94q-33 15 -72 15q-45 0 -77 -20q-34 -50 -44 -123h172v-58h-177q-1 -10 -1 -32
q0 -25 1 -36h177v-59h-173q9 -75 38 -107.5t88 -32.5q36 0 62 7l60 98q1 2 7 3t13.5 1.5t15 0t12.5 -2t5 -3.5l-12 -107q-2 -16 -6 -23t-17 -14z" />
    <glyph glyph-name="degree.lc_tab" horiz-adv-x="296" 
d="M148 328q-55 0 -94 39t-39 95t39.5 94.5t94.5 38.5t94 -39t39 -94t-39 -94.5t-95 -39.5zM149 398q26 0 44.5 19t18.5 45t-19 44.5t-44 18.5q-26 0 -45 -18.5t-19 -44.5q0 -27 18.5 -45.5t45.5 -18.5z" />
    <glyph glyph-name="florin.lc_tab" 
d="M331 59q-29 -114 -94.5 -168t-133.5 -54q-51 0 -82 23.5t-33 55.5q2 27 15 46t29 26h23q2 0 14.5 -22.5t27 -48t20.5 -32.5q44 0 61 115q5 30 16 135.5t14 133.5h-91l10 58h89q19 121 61 189q66 104 196 104q48 0 80 -20t40 -51q1 -33 -14 -55t-36 -29h-24
q-2 0 -14.5 22.5t-28 50t-19.5 34.5q-35 -3 -57 -88q-19 -74 -29 -157h110l-8 -58h-109q-20 -151 -33 -210z" />
    <glyph glyph-name="prime.lc_tab" horiz-adv-x="296" 
d="M111 313q-5 180 1 215q12 67 77 67q31 0 47.5 -17.5t11.5 -49.5q-3 -16 -29 -69.5t-51 -99.5l-24 -46h-33z" />
    <glyph glyph-name="primedbl.lc_tab" 
d="M163 313q-5 180 1 215q12 67 77 67q31 0 47.5 -17.5t11.5 -49.5q-3 -16 -29 -69.5t-51 -99.5l-24 -46h-33zM352 313q-5 180 1 215q12 67 77 67q31 0 47.5 -17.5t11.5 -49.5q-3 -16 -29 -69.5t-50 -99.5l-25 -46h-33z" />
    <glyph glyph-name="space.tab" 
 />
    <glyph glyph-name="zero.tab" 
d="M295 -18q-126 0 -201.5 85.5t-75.5 239.5q0 153 78 249.5t202 96.5q125 0 200 -85t75 -242q0 -153 -76.5 -248.5t-201.5 -95.5zM242 558q-38 -78 -38 -241q0 -142 19 -201.5t74 -59.5q32 0 52 18q38 73 38 243q0 139 -20 198.5t-70 59.5q-34 0 -55 -17z" />
    <glyph glyph-name="one.tab" 
d="M217 359q0 78 5 193l-110 7q-4 0 -4 30.5t4 31.5q48 9 259 20q4 -22 4 -281q0 -165 -5 -280l110 -32q4 -2 4 -25t-4 -23h-368q-4 0 -4 23t4 25l110 32q-5 115 -5 279z" />
    <glyph glyph-name="two.tab" 
d="M356 431q0 112 -106 112q-86 0 -151 -87q-2 -2 -14 7.5t-22 22.5t-8 19q18 48 85 98t154 50q101 0 158.5 -48t57.5 -147q0 -39 -13.5 -76.5t-28.5 -60.5t-43 -50.5t-38.5 -35.5t-34.5 -26q-21 -16 -68.5 -46t-52.5 -34v-7l324 2q5 -5 5 -32.5t-5 -59.5t-12 -32
q-148 2 -251 2q-185 0 -256 -2q-6 0 -6 24t6 27q163 125 224 188q96 104 96 192z" />
    <glyph glyph-name="three.tab" 
d="M526 190q2 -110 -86 -159t-258 -49q-83 0 -136 20q-13 4 -12 50q1 31 9 28q50 -16 112 -16q92 0 141 30t48 96q-1 103 -151 100q-6 0 -19.5 -0.5t-20.5 -0.5q-6 0 -8.5 15.5t1 31t11.5 16.5q91 9 138 33.5t47 77.5q0 80 -103 80q-83 0 -139 -53q-2 -2 -15 8t-23.5 22.5
t-8.5 17.5q21 39 83.5 77t157.5 38q218 0 218 -155q0 -69 -43.5 -106.5t-110.5 -50.5v-6q79 -7 123 -43.5t45 -101.5z" />
    <glyph glyph-name="four.tab" 
d="M550 48q4 -2 4 -25t-4 -23h-328q-4 0 -4 23t4 25l91 32q-1 33 -3 97h-269q-8 0 -8.5 33.5t7.5 42.5l315 379q6 8 54 8.5t48 -8.5q5 -225 5 -362h87q7 0 6.5 -46.5t-6.5 -46.5h-88q0 -47 -2 -97zM137 270h173q1 122 5 217z" />
    <glyph glyph-name="five.tab" 
d="M190 -18q-87 0 -134 18q-13 5 -12 48q2 26 9 25q42 -14 112 -14q96 0 138.5 35.5t42.5 104.5q0 70 -54 96t-178 26q-7 0 -14.5 6.5t-6.5 12.5l41 296h375q8 -5 8 -32t-6.5 -59t-14.5 -32h-311l-14 -110q46 2 74 2q278 0 278 -195q0 -112 -88 -170t-245 -58z" />
    <glyph glyph-name="six.tab" 
d="M563 196q0 -89 -71.5 -151.5t-183.5 -62.5q-266 0 -266 271q0 179 127.5 290t316.5 112q9 0 9 -35.5t-8 -37.5q-92 -13 -167.5 -67t-95.5 -136q43 13 105 13q101 0 167.5 -48t66.5 -148zM407 195q-2 60 -33.5 91.5t-85.5 31.5q-46 0 -73 -8q-11 -58 -6 -121
q6 -75 32.5 -104.5t71.5 -29.5q41 0 67 18q29 40 27 122z" />
    <glyph glyph-name="seven.tab" 
d="M70 513q-8 0 -8.5 30.5t5.5 61.5t14 31h470q6 0 13.5 -11.5t4.5 -16.5q-82 -152 -171 -299q-141 -233 -204 -323q-7 -11 -55 -10q-34 1 -31 10q49 123 128 282q77 153 136 245h-302z" />
    <glyph glyph-name="eight.tab" 
d="M546 174q-3 -86 -79 -139t-189 -53q-233 0 -233 162q0 56 31.5 91.5t91.5 65.5q-46 28 -73 66.5t-26 104.5q2 81 68.5 131t172.5 50q91 0 155.5 -38.5t66.5 -111.5q2 -99 -108 -152q63 -26 94 -69t28 -108zM422 491q-2 37 -32 60.5t-80 23.5q-55 0 -84 -19
q-15 -18 -15 -53q0 -30 14.5 -49t48.5 -36q24 -12 90 -39q61 42 58 112zM404 142q0 51 -62 81q-22 11 -44 20t-42 16.5l-28 10.5q-65 -35 -65 -117q0 -47 32 -72t93 -25q57 0 86.5 26.5t29.5 59.5z" />
    <glyph glyph-name="nine.tab" 
d="M35 440q0 92 71 152.5t179 60.5q134 0 202 -66t68 -191q0 -126 -61 -221t-161.5 -143.5t-224.5 -48.5q-6 0 -6 34.5t5 35.5q97 12 168.5 61.5t96.5 145.5q-53 -16 -105 -16q-100 0 -166 48t-66 148zM190 441q1 -59 33.5 -91t85.5 -32q42 0 73 9q11 58 6 120
q-6 72 -32 100.5t-69 28.5q-45 0 -67 -15q-32 -36 -30 -120z" />
    <glyph glyph-name="endash.tab" 
d="M86 217v115h419v-115h-419z" />
    <glyph glyph-name="parenleft.tab" 
d="M471 -166q-141 74 -219 193.5t-78 257.5q0 132 78 245.5t219 191.5l36 -35q-92 -82 -126.5 -177.5t-34.5 -224.5q0 -140 33.5 -237.5t127.5 -177.5z" />
    <glyph glyph-name="parenright.tab" 
d="M120 -166l-36 36q94 80 127.5 177.5t33.5 237.5q0 129 -34.5 224.5t-126.5 177.5l36 35q141 -78 219 -191.5t78 -245.5q0 -138 -78 -257.5t-219 -193.5z" />
    <glyph glyph-name="numbersign.tab" 
d="M294 20q6 30 28 138h-113q-7 -35 -20 -89t-16 -69h-69q19 95 32 158h-101q-4 3 -1.5 22.5t9.5 42t10 22.5h101q7 29 15 71q2 10 6.5 30t6.5 30h-94q-5 3 -2.5 22.5t9.5 42t10 22.5h97q5 22 16.5 70.5t15.5 68.5h70q-4 -21 -13.5 -69t-14.5 -70h111q28 124 37 159h70
q-3 -13 -14 -68t-19 -91h94q5 -3 3 -22.5t-8 -42t-11 -22.5h-96l-9 -42q-3 -12 -9.5 -42.5t-9.5 -46.5h89q3 -3 1 -22.5t-8 -42t-11 -22.5h-91q-5 -24 -16.5 -71t-15.5 -67h-69zM244 314q-2 -10 -4.5 -21.5t-5.5 -25.5t-5 -22h111q3 15 9.5 45t9.5 46q2 7 5 20.5t4 19.5
h-111q-9 -46 -13 -62z" />
    <glyph glyph-name="percent.tab" 
d="M152 653q73 0 115 -37.5t42 -111.5q0 -71 -45 -115.5t-116 -44.5t-113.5 39.5t-42.5 114.5q0 68 46 111.5t114 43.5zM95 28l-61 52q21 23 67 73.5t60.5 66.5t49 54t47.5 53t41.5 47.5t45.5 52.5t44 51.5t52.5 62.5t57.5 69l61 -52q-240 -261 -465 -530zM183 403
q19 35 19 96q0 57 -12 80t-38 23q-18 0 -29 -8q-23 -32 -23 -95q0 -58 12 -82t39 -24q19 0 32 10zM443 291q73 0 115 -37.5t42 -111.5q0 -71 -45 -115.5t-116 -44.5t-113.5 39.5t-42.5 114.5q0 68 46 111.5t114 43.5zM474 41q19 35 19 96q0 57 -12 80t-38 23q-18 0 -29 -8
q-23 -32 -23 -95q0 -58 12 -82t39 -24q19 0 32 10z" />
    <glyph glyph-name="period.tab" horiz-adv-x="296" 
d="M148 -14q-40 0 -68.5 27.5t-28.5 67.5q0 42 28.5 70t68.5 28q42 0 69.5 -28t27.5 -70q0 -41 -27.5 -68t-69.5 -27z" />
    <glyph glyph-name="comma.tab" horiz-adv-x="296" 
d="M61 -181l-27 32q96 74 95 147q-37 4 -57.5 28t-20.5 57q0 41 26.5 66t66.5 25q46 0 71.5 -29t25.5 -83q0 -45 -18 -84.5t-50.5 -71.5t-55.5 -49t-56 -38z" />
    <glyph glyph-name="colon.tab" horiz-adv-x="296" 
d="M148 296q-40 0 -68.5 27.5t-28.5 67.5q0 42 28.5 70t68.5 28q42 0 69.5 -28t27.5 -70q0 -41 -27.5 -68t-69.5 -27zM148 -14q-40 0 -68.5 27.5t-28.5 67.5q0 42 28.5 70t68.5 28q42 0 69.5 -28t27.5 -70q0 -41 -27.5 -68t-69.5 -27z" />
    <glyph glyph-name="semicolon.tab" horiz-adv-x="296" 
d="M148 296q-40 0 -68.5 27.5t-28.5 67.5q0 42 28.5 70t68.5 28q42 0 69.5 -28t27.5 -70q0 -41 -27.5 -68t-69.5 -27zM61 -181l-27 32q96 74 95 147q-37 4 -57.5 28t-20.5 57q0 41 26.5 66t66.5 25q46 0 71.5 -29t25.5 -83q0 -45 -18 -84.5t-50.5 -71.5t-55.5 -49t-56 -38z
" />
    <glyph glyph-name="periodcentered.tab" horiz-adv-x="296" 
d="M148 196q-40 0 -68.5 27.5t-28.5 67.5q0 42 28.5 70t68.5 28q42 0 69.5 -28t27.5 -70q0 -41 -27.5 -68t-69.5 -27z" />
    <glyph glyph-name="plus.tab" 
d="M252 104v173h-172v83h172v173h87v-173h172v-83h-172v-173h-87z" />
    <glyph glyph-name="minus.tab" 
d="M80 362h431v-87h-431v87z" />
    <glyph glyph-name="divide.tab" 
d="M296 409q-31 0 -51.5 20.5t-20.5 49.5q0 31 20.5 51.5t51.5 20.5q32 0 51 -19.5t19 -49.5q0 -31 -19 -52t-51 -21zM80 362h431v-87h-431v87zM296 84q-31 0 -51.5 19.5t-20.5 49.5q0 31 20.5 52t51.5 21t50.5 -20.5t19.5 -49.5q0 -32 -19 -52t-51 -20z" />
    <glyph glyph-name="multiply.tab" 
d="M441 110l-146 149l-147 -149l-58 57l149 149l-149 148l61 61l148 -149l145 149l57 -58l-145 -148l146 -148z" />
    <glyph glyph-name="equal.tab" 
d="M90 354v81h411v-81h-411zM90 202v81h411v-81h-411z" />
    <glyph glyph-name="less.tab" 
d="M501 63l-411 184v76l411 184v-95l-292 -127l292 -127v-95z" />
    <glyph glyph-name="greater.tab" 
d="M90 63v95l292 127l-292 127v95l411 -184v-76z" />
    </font>
</defs>
</svg>
