<svg xmlns="http://www.w3.org/2000/svg" width="117" height="120" fill="none" viewBox="0 0 117 120">
    <g filter="url(#filter0_b)">
        <path fill="#000" fill-opacity=".8" fill-rule="evenodd" d="M58.421 120c32.265 0 58.421-26.863 58.421-60S90.686 0 58.422 0C26.155 0 0 26.863 0 60s26.156 60 58.421 60z" clip-rule="evenodd"/>
    </g>
    <path fill="#fff" d="M54.866 70H52.57v-9.219c0-1.1.026-1.972.078-2.617-.15.156-.336.329-.557.518-.215.188-.944.787-2.187 1.796l-1.153-1.455 4.2-3.3h1.914V70zm14.265-7.139c0 2.48-.4 4.323-1.201 5.528-.795 1.204-2.012 1.806-3.653 1.806-1.588 0-2.793-.621-3.613-1.865-.82-1.243-1.23-3.066-1.23-5.469 0-2.52.397-4.375 1.191-5.566.8-1.198 2.018-1.797 3.652-1.797 1.595 0 2.803.625 3.623 1.875.82 1.25 1.23 3.08 1.23 5.488zm-7.373 0c0 1.947.198 3.337.595 4.17.404.834 1.045 1.25 1.924 1.25.88 0 1.52-.423 1.924-1.27.41-.846.615-2.23.615-4.15 0-1.914-.205-3.297-.615-4.15-.403-.86-1.045-1.29-1.924-1.29s-1.52.42-1.924 1.26c-.397.84-.595 2.234-.595 4.18z"/>
    <path fill="#fff" fill-rule="evenodd" d="M48.977 46.57c.547-.043 1.054-.3 1.411-.717.742-.867.64-2.172-.226-2.914l-5.404-4.632 5.402-4.635c.583-.473.863-1.226.732-1.966s-.654-1.35-1.364-1.594c-.71-.244-1.498-.083-2.056.42l-7.236 6.202c-.459.393-.723.967-.723 1.57 0 .604.264 1.178.723 1.57l7.236 6.203c.416.357.958.534 1.505.492zm-9.063-.43c-.888-.7-2.175-.558-2.888.32-3.764 4.734-5.803 10.608-5.781 16.656C31.24 77.654 42.799 89.56 57.33 89.988c14.532.428 26.77-10.778 27.622-25.29.852-14.514-9.99-27.074-24.473-28.35l3.12-2.674c.584-.473.864-1.226.733-1.966s-.654-1.35-1.364-1.594c-.71-.244-1.498-.083-2.056.42l-7.236 6.202c-.459.393-.723.967-.723 1.57 0 .604.264 1.178.723 1.57l7.236 6.203c.87.707 2.145.591 2.874-.26.73-.852.647-2.13-.186-2.88l-2.8-2.402c12.127 1.439 20.954 12.199 19.993 24.374-.961 12.175-11.367 21.417-23.57 20.935-12.203-.482-21.847-10.517-21.844-22.73-.02-5.117 1.706-10.087 4.89-14.092.69-.896.532-2.181-.356-2.883z" clip-rule="evenodd"/>
    <defs>
        <filter id="filter0_b" width="152.762" height="155.92" x="-17.96" y="-17.96" color-interpolation-filters="sRGB" filterUnits="userSpaceOnUse">
            <feFlood flood-opacity="0" result="BackgroundImageFix"/>
            <feGaussianBlur in="BackgroundImage" stdDeviation="8.98"/>
            <feComposite in2="SourceAlpha" operator="in" result="effect1_backgroundBlur"/>
            <feBlend in="SourceGraphic" in2="effect1_backgroundBlur" result="shape"/>
        </filter>
    </defs>
</svg>
