<svg xmlns="http://www.w3.org/2000/svg" width="24" height="24" fill="none" viewBox="0 0 24 24">
    <path fill="#fff" d="M3.772 4.8l-.547-.512.547.512zm1.06-.035l-.512.548.513-.548zM3.809 5.86l-.513.548.513-.548zm6.943 6.499l.524.536.562-.548-.573-.536-.513.548zM3.796 19.15l-.524-.537.524.537zm-.013 1.06l-.536.524.536-.523zm1.061.013l-.524-.537.524.537zm7.004-6.84l.512-.547-.523-.49-.513.501.524.537zm7.32 6.851l-.513.548.513-.548zm1.06-.035l.547.512-.547-.512zm-.035-1.06l.512-.548-.512.548zm-7.271-6.805l-.524-.536-.561.548.572.536.513-.547zm6.642-6.486l.524.537-.524-.537zm.013-1.06l.536-.525-.536.524zm-1.06-.013l-.525-.537.524.537zm-6.691 6.534l-.513.547.524.49.513-.5-.524-.537zM4.32 5.311l1.025-1.095c-.605-.566-1.554-.534-2.12.07L4.32 5.314zm0 0L3.225 4.288c-.566.604-.535 1.554.07 2.12L4.32 5.312zm6.944 6.499L4.32 5.313 3.295 6.407l6.944 6.498 1.025-1.095zM4.32 19.688l6.955-6.793-1.048-1.073-6.955 6.792 1.048 1.073zm0 0l-1.048-1.074c-.593.58-.604 1.529-.025 2.121l1.073-1.047zm0 0l-1.073 1.047c.579.593 1.528.605 2.121.026L4.32 19.688zm7.004-6.84l-7.004 6.84 1.048 1.073 7.004-6.84-1.048-1.073zm8.356 6.84l-7.32-6.851-1.025 1.095 7.32 6.85 1.025-1.095zm0 0l-1.025 1.095c.605.566 1.554.534 2.12-.07l-1.095-1.026zm0 0l1.095 1.024c.566-.604.535-1.554-.07-2.12l-1.025 1.096zm-7.27-6.805l7.27 6.805 1.025-1.096-7.27-6.804-1.026 1.095zm6.63-7.57l-6.642 6.486 1.048 1.073 6.642-6.486-1.048-1.074zm0 0l1.048 1.073c.593-.58.604-1.529.025-2.122L19.04 5.312zm0 0l1.073-1.049c-.579-.592-1.528-.603-2.12-.025l1.047 1.074zm-6.69 6.533l6.69-6.534-1.048-1.073-6.69 6.534 1.048 1.073zM4.32 5.312l6.993 6.545 1.025-1.095-6.993-6.545L4.32 5.313z"/>
</svg>
