<svg xmlns="http://www.w3.org/2000/svg" width="30" height="30" fill="none" viewBox="0 0 30 30">
    <path fill="#fff" d="M13.433 20h-1.148v-4.61c0-.55.013-.986.04-1.308-.075.078-.168.164-.279.259-.107.094-.472.394-1.094.898l-.576-.727 2.1-1.65h.957V20zm7.132-3.57c0 1.24-.2 2.162-.6 2.764-.397.603-1.006.904-1.826.904-.795 0-1.397-.311-1.807-.933-.41-.622-.615-1.533-.615-2.734 0-1.26.198-2.188.595-2.784.4-.598 1.01-.898 1.827-.898.797 0 1.401.313 1.811.938.41.625.615 1.54.615 2.744zm-3.686 0c0 .974.1 1.669.298 2.086.202.416.522.625.962.625.44 0 .76-.212.962-.635.205-.423.307-1.115.307-2.075 0-.957-.102-1.65-.307-2.076-.202-.43-.523-.644-.962-.644-.44 0-.76.21-.962.63-.199.42-.298 1.116-.298 2.09z"/>
    <path fill="#fff" d="M25.987 8.23c-.357-.44-1-.51-1.444-.16-.444.351-.523.994-.178 1.442 1.592 2.002 2.455 4.488 2.445 7.046.002 6.107-4.82 11.124-10.922 11.365-6.102.241-11.304-4.38-11.785-10.468C3.623 11.368 8.036 5.988 14.1 5.27l-1.4 1.2c-.417.376-.458 1.014-.094 1.44.365.426 1.002.484 1.438.13l3.618-3.1c.229-.197.36-.484.36-.786 0-.302-.131-.589-.36-.785L14.044.267c-.28-.252-.673-.332-1.028-.21-.356.122-.617.427-.682.797-.066.37.074.746.366.983l1.56 1.337C7.019 3.812 1.597 10.092 2.023 17.35c.426 7.256 6.545 12.859 13.811 12.645 7.266-.214 13.045-6.167 13.044-13.436.01-3.024-1.009-5.961-2.891-8.328z"/>
    <path fill="#fff" d="M19.305 7.926c.178.209.432.338.706.359.273.02.544-.068.752-.246l3.618-3.102c.23-.196.361-.483.361-.785 0-.302-.132-.588-.36-.785L20.762.266c-.28-.252-.673-.332-1.028-.21-.355.122-.616.427-.682.797-.066.37.075.746.366.983l2.7 2.317-2.7 2.316c-.434.372-.485 1.024-.114 1.457z"/>
</svg>
