<svg xmlns="http://www.w3.org/2000/svg" width="30" height="30" fill="none" viewBox="0 0 30 30">
    <path fill="#fff" d="M4.892 8.23c.356-.44 1-.51 1.444-.16.444.351.523.994.178 1.442C4.922 11.514 4.06 14 4.07 16.558c-.002 6.107 4.82 11.124 10.923 11.365 6.102.241 11.305-4.38 11.786-10.468.48-6.087-3.933-11.467-9.998-12.186l1.4 1.2c.417.376.458 1.014.094 1.44-.365.426-1.003.484-1.438.13l-3.618-3.1c-.23-.197-.361-.484-.361-.786 0-.302.132-.589.361-.785L16.836.267c.28-.252.673-.332 1.028-.21.356.122.617.427.683.797.065.37-.075.746-.367.983l-1.56 1.337c7.241.638 12.663 6.918 12.237 14.175-.426 7.256-6.545 12.859-13.812 12.645C7.78 29.78 2 23.827 2.001 16.558 1.99 13.534 3.01 10.597 4.892 8.23z"/>
    <path fill="#fff" d="M11.574 7.926c-.178.209-.432.338-.706.359-.273.02-.544-.068-.752-.246L6.497 4.937c-.229-.196-.36-.483-.36-.785 0-.302.131-.588.36-.785L10.116.266c.279-.252.672-.332 1.028-.21.355.122.616.427.682.797.066.37-.075.746-.366.983L8.759 4.153 11.46 6.47c.433.372.484 1.024.113 1.457zM13.433 20h-1.148v-4.61c0-.55.013-.986.04-1.308-.075.078-.168.164-.279.259-.107.094-.472.394-1.094.898l-.576-.727 2.1-1.65h.957V20zm7.132-3.57c0 1.24-.2 2.162-.6 2.764-.397.603-1.006.904-1.826.904-.795 0-1.397-.311-1.807-.933-.41-.622-.615-1.533-.615-2.734 0-1.26.198-2.188.595-2.784.4-.598 1.01-.898 1.827-.898.797 0 1.401.313 1.811.938.41.625.615 1.54.615 2.744zm-3.686 0c0 .974.1 1.669.298 2.086.202.416.522.625.962.625.44 0 .76-.212.962-.635.205-.423.307-1.115.307-2.075 0-.957-.102-1.65-.307-2.076-.202-.43-.523-.644-.962-.644-.44 0-.76.21-.962.63-.199.42-.298 1.116-.298 2.09z"/>
</svg>
