<svg xmlns="http://www.w3.org/2000/svg" width="117" height="120" fill="none" viewBox="0 0 117 120">
    <g filter="url(#filter0_b)">
        <path fill="#000" fill-opacity=".8" fill-rule="evenodd" d="M58.421 120c32.265 0 58.421-26.863 58.421-60S90.686 0 58.422 0C26.155 0 0 26.863 0 60s26.156 60 58.421 60z" clip-rule="evenodd"/>
    </g>
    <path fill="#fff" d="M54.866 70H52.57v-9.219c0-1.1.026-1.972.078-2.617-.15.156-.336.329-.557.518-.215.188-.944.787-2.187 1.796l-1.153-1.455 4.2-3.3h1.914V70zm14.265-7.139c0 2.48-.4 4.323-1.201 5.528-.795 1.204-2.012 1.806-3.653 1.806-1.588 0-2.793-.621-3.613-1.865-.82-1.243-1.23-3.066-1.23-5.469 0-2.52.397-4.375 1.191-5.566.8-1.198 2.018-1.797 3.652-1.797 1.595 0 2.803.625 3.623 1.875.82 1.25 1.23 3.08 1.23 5.488zm-7.373 0c0 1.947.198 3.337.595 4.17.404.834 1.045 1.25 1.924 1.25.88 0 1.52-.423 1.924-1.27.41-.846.615-2.23.615-4.15 0-1.914-.205-3.297-.615-4.15-.403-.86-1.045-1.29-1.924-1.29s-1.52.42-1.924 1.26c-.397.84-.595 2.234-.595 4.18z"/>
    <path fill="#fff" d="M79.974 46.46c-.713-.88-2-1.022-2.888-.32-.888.702-1.047 1.987-.356 2.883 3.184 4.005 4.91 8.975 4.89 14.092.003 12.213-9.64 22.248-21.844 22.73-12.203.482-22.609-8.76-23.57-20.935-.96-12.175 7.866-22.935 19.994-24.374l-2.8 2.402c-.834.75-.916 2.028-.187 2.88.729.851 2.004.967 2.874.26l7.236-6.202c.459-.393.723-.967.723-1.57 0-.604-.264-1.178-.723-1.57l-7.236-6.203c-.558-.503-1.345-.664-2.056-.42-.71.244-1.233.854-1.364 1.594-.131.74.149 1.492.732 1.966l3.121 2.674c-14.482 1.276-25.325 13.836-24.473 28.35.852 14.513 13.09 25.718 27.622 25.29 14.532-.428 26.09-12.334 26.086-26.872.022-6.047-2.017-11.922-5.781-16.655z"/>
    <path fill="#fff" d="M66.612 45.853c.357.416.864.674 1.411.716.547.042 1.089-.135 1.505-.492l7.236-6.202c.459-.393.723-.967.723-1.57 0-.604-.264-1.178-.723-1.57l-7.236-6.203c-.558-.503-1.345-.664-2.056-.42-.71.244-1.233.854-1.364 1.594-.131.74.149 1.493.732 1.966l5.401 4.635-5.403 4.632c-.867.742-.968 2.047-.226 2.914z"/>
    <defs>
        <filter id="filter0_b" width="152.762" height="155.92" x="-17.96" y="-17.96" color-interpolation-filters="sRGB" filterUnits="userSpaceOnUse">
            <feFlood flood-opacity="0" result="BackgroundImageFix"/>
            <feGaussianBlur in="BackgroundImage" stdDeviation="8.98"/>
            <feComposite in2="SourceAlpha" operator="in" result="effect1_backgroundBlur"/>
            <feBlend in="SourceGraphic" in2="effect1_backgroundBlur" result="shape"/>
        </filter>
    </defs>
</svg>
