<svg xmlns="http://www.w3.org/2000/svg" width="14" height="14" fill="none" viewBox="0 0 14 14">
    <path stroke="#fff" stroke-width=".7" d="M6.306 1.544c.382.971.771 1.54.937 1.754l.042.054c.35.428.725 1.062.849 1.676.04.205.057.422.055.64.2-.176.339-.374.45-.545.14-.212.297-.476.366-.817.267-.17.344-.13.398-.073 1.045 1.12 1.747 2.613 1.82 4.044.064 1.222-.337 2.399-1.394 3.237-1.207.957-2.968 1.194-4.48.802-.74-.19-1.42-.533-1.948-1.02-.473-.437-.82-.992-.972-1.66-.407-1.795.038-3.723.952-5.312l-.026.046.047.076c.464.738.87 1.086.906 1.116l.006.005c.024.019.178.139.467.297-.012-.166-.016-.334-.013-.504.021-1.475.556-2.8 1.538-3.816z" opacity=".7"/>
</svg>
