<svg xmlns="http://www.w3.org/2000/svg" width="30" height="30" fill="none" viewBox="0 0 30 30">
    <path fill="#fff" d="M20.24 14.091l-14.52-9.9c-.337-.23-.774-.254-1.134-.063-.36.19-.586.564-.586.972v19.8c0 .408.225.782.586.972.161.086.338.128.514.128.217 0 .434-.065.62-.19l14.52-9.9c.3-.206.48-.546.48-.91s-.18-.704-.48-.909zM6.2 22.818V7.181L17.667 15 6.2 22.818zM25.413 5.247c-.608 0-1.1.492-1.1 1.1v17.306c0 .608.492 1.1 1.1 1.1.607 0 1.1-.492 1.1-1.1V6.347c0-.608-.493-1.1-1.1-1.1z"/>
</svg>
