<svg xmlns="http://www.w3.org/2000/svg" width="30" height="30" fill="none" viewBox="0 0 30 30">
    <path fill="#fff" fill-rule="evenodd" stroke="#fff" d="M16.612 18.568c-.06.037-.13.066-.197.082-2.673.633-4.31-.784-4.9-2.188-.589-1.405-.452-3.566 1.873-5.029.058-.037.128-.066.195-.082.453-.108.875-.156 1.268-.156 1.93 0 3.144 1.175 3.633 2.343.59 1.406.454 3.567-1.872 5.03zm9.797-1.54l-1.183-1.06c-.125-.111-.197-.272-.197-.44v-1.157c0-.166.07-.325.193-.437l1.169-1.065c.553-.504.73-1.307.44-1.997l-.596-1.42c-.288-.69-.978-1.125-1.733-1.086l-1.626.09c-.17.013-.355-.06-.475-.197l-.776-.873c-.102-.115-.156-.265-.148-.42l.071-1.527c.034-.748-.408-1.441-1.101-1.725l-1.426-.583c-.694-.282-1.494-.1-1.993.46l-1.06 1.184c-.111.124-.272.196-.44.196h-1.157c-.166 0-.325-.07-.437-.193L12.87 3.61c-.503-.553-1.306-.73-1.997-.441l-1.421.596c-.69.29-1.126.986-1.084 1.734l.088 1.586c.01.168-.054.332-.172.45l-.82.82c-.116.117-.279.185-.445.172l-1.58-.074c-.745-.033-1.44.408-1.723 1.101l-.583 1.426c-.284.693-.1 1.494.459 1.993l1.183 1.06c.126.11.197.272.197.44v1.158c0 .165-.07.324-.193.436l-1.169 1.065c-.553.504-.73 1.307-.44 1.997l.595 1.42c.29.691.98 1.127 1.735 1.086l1.585-.088c.176-.007.333.053.451.172l.818.818c.118.117.18.28.173.446l-.074 1.58c-.035.747.408 1.44 1.1 1.724l1.426.583c.218.088.445.131.67.131.496 0 .981-.207 1.324-.59l1.06-1.184c.111-.125.272-.197.44-.197h1.157c.166 0 .326.07.437.193l1.065 1.169c.504.553 1.308.73 1.997.441l1.42-.596c.691-.29 1.127-.987 1.086-1.735l-.088-1.584c-.01-.168.053-.333.172-.452l.819-.819c.117-.117.281-.185.445-.172l1.579.073c.748.033 1.441-.406 1.725-1.1l.583-1.426c.283-.693.098-1.494-.46-1.993zm-.636 1.546l-.582 1.425c-.095.232-.335.388-.575.367l-1.58-.073c-.492-.02-.984.165-1.336.518l-.818.818c-.356.357-.544.85-.517 1.353l.088 1.585c.014.25-.131.482-.361.578l-1.421.596c-.23.096-.498.037-.666-.147l-1.064-1.169c-.336-.367-.813-.579-1.312-.579h-1.157c-.504 0-.985.216-1.322.591l-1.06 1.184c-.166.186-.432.248-.663.153L10 25.19c-.231-.095-.379-.326-.367-.575l.073-1.579c.023-.497-.165-.985-.517-1.337l-.819-.818c-.333-.333-.786-.52-1.255-.52l-.098.003-1.585.088c-.263.015-.482-.131-.578-.361l-.596-1.42c-.097-.231-.037-.499.147-.667l1.169-1.065c.368-.335.579-.813.579-1.31v-1.158c0-.505-.216-.987-.591-1.323l-1.184-1.058c-.185-.167-.247-.433-.152-.665L4.81 10c.094-.23.346-.382.574-.367l1.58.074c.507.02.984-.166 1.336-.518l.819-.818c.357-.357.545-.85.516-1.353l-.088-1.585c-.014-.25.132-.482.362-.578l1.42-.596c.229-.097.497-.038.666.147l1.065 1.169c.334.367.813.579 1.311.579h1.157c.505 0 .987-.216 1.322-.591l1.06-1.184c.164-.186.433-.249.663-.153L20 4.809c.232.094.379.325.367.575l-.071 1.527c-.022.465.137.912.446 1.26l.776.873c.361.408.885.62 1.425.594l1.625-.09c.259-.017.482.131.578.36l.596 1.421c.096.23.037.498-.147.666l-1.169 1.065c-.367.335-.58.813-.58 1.311v1.157c0 .504.216.986.592 1.322l1.183 1.059c.187.167.248.433.153.665zM13.31 10.2c-.193.046-.384.126-.553.232-2.76 1.738-3.16 4.511-2.332 6.487.69 1.644 2.367 3.067 4.74 3.067.479 0 .988-.059 1.522-.185.194-.046.385-.126.553-.231 2.764-1.739 3.164-4.512 2.335-6.49-.83-1.976-3.086-3.633-6.265-2.88z" clip-rule="evenodd"/>
</svg>
