<svg xmlns="http://www.w3.org/2000/svg" width="54" height="54" fill="none" viewBox="0 0 54 54">
    <rect width="52" height="52" x="1" y="1" stroke="#DDD" stroke-linecap="square" stroke-width=".964" rx="26"/>
    <path fill="#DDD" d="M31.387 21.669l-.34.34.34-.34zm-.34-.34l-.341.34-.34-.34.34-.341.34.34zm5.19 5.19l.341-.34.823.822h-1.164v-.482zm-20.118 0h-.482v-.482h.482v.482zm0 .964v.482h-.482v-.482h.482zm20.118 0V27h1.164l-.823.822-.34-.34zm-4.85 4.85l-.34-.34.34.34zm-.34.34l-.341.341-.34-.34.34-.341.34.34zm.68.682l.342.34-.341.341-.34-.34.34-.341zm.342-.34l.34.34-.34-.34zm5.332-5.333l-.341-.34.34-.34.34.339-.34.341zm0 0l.34.341-.34.34-.34-.34.34-.34zm.2-.2l-.341-.34.14-.141h.2v.482zm.282 0h.481v.483h-.481v-.482zm0-.281H37.4V27l.14-.141.342.34zm.199-.2l.34-.342.343.34-.342.343-.341-.341zm0 0l-.34.342-.341-.34.34-.342.341.34zm0 0l.34-.34.34.339-.338.34-.342-.34zm-.2-.2l-.34.341-.141-.141v-.2h.481zm0-.282v-.482h.482v.482h-.481zm-.282 0v.482h-.2l-.14-.141.34-.341zm-.2-.2l-.34-.34.34-.341.341.34-.34.341zm0 0l.342.34-.341.342-.341-.34.34-.341zm-5.331-5.331l-.341.34.34-.34zm-.341-.341l-.34-.34.34-.342.34.341-.34.34zm-.681 1.363l-.341-.341.681-.681.34.34-.68.682zm4.85 4.85l-4.85-4.85.68-.682 4.851 4.85-.681.682zM16.6 26.037h19.636v.964H16.601v-.964zm-.482 0h.482v.964h-.482v-.964zm-.482 1.446v-.964h.964v.964h-.964zm.964.482h-.482V27h.482v.963zm19.636 0H16.601V27h19.636v.963zm.341-.142l-4.85 4.85-.681-.68 4.85-4.851.681.681zm-4.85 4.85l-.34.341-.682-.681.34-.34.682.68zm-.34-.34l.68.681-.68.682-.682-.682.681-.681zm0 .681l.34-.34.681.681-.34.34-.682-.68zm.34-.34l5.332-5.332.681.681-5.332 5.332-.681-.681zm5.333-4.65l.68-.683-.68.683zm.88-.2l-.2.199-.681-.681.2-.2.681.681zm-.059.14H37.6v-.963h.282v.963zm.482-.763v.282h-.963V27.2h.963zm.059.14l-.2.2-.681-.681.2-.2.68.682zm-.001-.682l-.68.684.68-.684zm-.682.002l.684.68-.684-.68zm.001.68l-.2-.199.682-.681.2.2-.682.68zm.623-.822v.282h-.963v-.282h.963zm-.764-.482h.282v.964H37.6v-.964zm-.34.823l-.2-.2.681-.681.2.2-.681.68zm.482-.2l-.682-.681.682.68zm-5.333-6.013l5.332 5.332-.681.681-5.332-5.332.681-.681zm-.34-.34l.34.34-.681.681-.34-.34.68-.682zm-1.363.68l.681-.68.682.68-.682.682-.681-.681z"/>
</svg>
