<svg xmlns="http://www.w3.org/2000/svg" width="62" height="62" fill="none" viewBox="0 0 62 62">
    <g filter="url(#filter0_d)">
        <rect width="52" height="52" x="57" y="53" stroke="#DDD" stroke-linecap="square" stroke-width=".964" rx="26" transform="rotate(180 57 53)"/>
        <path fill="#DDD" d="M26.613 32.331l.34-.34-.34.34zm.34.34l.341-.34.34.34-.34.342-.34-.341zm-5.19-5.19l-.341.34-.823-.822h1.164v.482zm20.118 0h.482v.482h-.482v-.482zm0-.964v-.481h.482v.481h-.482zm-20.118 0V27h-1.164l.823-.822.34.34zm4.85-4.85l.34.34-.34-.34zm.34-.34l.341-.341.34.34-.34.341-.34-.34zm-.68-.682l-.342-.34.341-.341.34.34-.34.341zm-.342.34l-.34-.34.34.34zM20.6 26.319l.341.34-.34.34-.34-.339.34-.341zm0 0l-.34-.34.34-.34.34.338-.34.342zm-.2.2l.341.34-.14.141h-.2v-.482zm-.282 0h-.481v-.482h.482v.481zm0 .282h.482v.2l-.14.14-.341-.34zm-.199.2l-.34.34-.343-.34.342-.341.341.34zm0 0l.34-.343.341.34-.34.342-.341-.34zm0 0l-.34.34-.34-.34.338-.34.342.34zm.2.199l.34-.34.141.14v.2h-.482zm0 .282v.482h-.482v-.482h.482zm.282 0v-.482h.2l.14.141-.34.341zm.2.2l.34.34-.34.341-.341-.34.34-.341zm0 0l-.342-.34.341-.342.341.34-.34.342zm5.331 5.332l.341-.341-.34.34zm.341.34l.34.341-.34.34-.34-.34.34-.34zm.681-1.363l.341.341-.681.682-.34-.341.68-.681zm-4.85-4.85l4.85 4.85-.68.682-4.851-4.85.681-.682zm19.296.823H21.763v-.964h19.636v.964zm.482 0H41.4v-.964h.482v.964zm.482-1.446v.964h-.964v-.964h.964zm-.964-.481h.482v.963H41.4v-.963zm-19.636 0h19.636v.963H21.763v-.963zm-.341.14l4.85-4.85.681.682-4.85 4.85-.681-.681zm4.85-4.85l.34-.34.682.681-.34.34-.682-.68zm.34.341l-.68-.681.68-.682.682.682-.681.681zm0-.681l-.34.34-.681-.68.34-.342.682.682zm-.34.34l-5.332 5.332-.681-.68 5.332-5.333.681.681zm-5.333 4.65l-.68.683.68-.683zm-.88.2l.2-.199.681.681-.2.2-.681-.681zm.058-.14h.283v.963h-.282v-.963zm-.481.764v-.283h.963v.283h-.963zm-.059-.142l.2-.2.681.682-.2.2-.68-.681zm.001.683l.68-.684-.68.684zm.682-.002l-.684-.68.684.68zm-.001-.68l.2.2-.682.68-.2-.2.682-.68zm-.623.822v-.282h.963v.282h-.963zm.764.482h-.282v-.964h.282v.964zm.34-.823l.2.2-.681.681-.2-.2.681-.68zm-.482.2l.682.681-.682-.68zm5.333 6.013l-5.332-5.332.681-.681 5.332 5.332-.681.681zm.34.341l-.34-.34.681-.682.34.34-.68.682zm1.363-.681l-.681.681-.682-.681.682-.682.681.682z"/>
    </g>
    <defs>
        <filter id="filter0_d" width="60.964" height="60.964" x=".518" y=".518" color-interpolation-filters="sRGB" filterUnits="userSpaceOnUse">
            <feFlood flood-opacity="0" result="BackgroundImageFix"/>
            <feColorMatrix in="SourceAlpha" values="0 0 0 0 0 0 0 0 0 0 0 0 0 0 0 0 0 0 127 0"/>
            <feOffset dy="4"/>
            <feGaussianBlur stdDeviation="2"/>
            <feColorMatrix values="0 0 0 0 0 0 0 0 0 0 0 0 0 0 0 0 0 0 0.25 0"/>
            <feBlend in2="BackgroundImageFix" result="effect1_dropShadow"/>
            <feBlend in="SourceGraphic" in2="effect1_dropShadow" result="shape"/>
        </filter>
    </defs>
</svg>
