<svg xmlns="http://www.w3.org/2000/svg" width="30" height="30" fill="none" viewBox="0 0 30 30">
    <path fill="#fff" d="M20.67 7.054l-1.34 1.439c.902.827 1.622 1.832 2.115 2.952.492 1.12.747 2.33.747 3.555 0 1.223-.255 2.434-.747 3.554-.493 1.12-1.213 2.126-2.115 2.953l1.34 1.438c1.106-1.01 1.989-2.24 2.593-3.611.603-1.371.915-2.853.915-4.35 0-1.499-.312-2.98-.915-4.351-.604-1.37-1.487-2.6-2.592-3.612v.033z"/>
    <path stroke="#fff" stroke-width="2" d="M24 5.5c2.833 3 6.8 11 0 19"/>
    <path fill="#fff" d="M15.7 3.097c-.161-.078-.341-.11-.52-.092-.179.017-.35.083-.493.19L6.905 9.05H5.597c-.954 0-1.869.378-2.544 1.053C2.38 10.777 2 11.692 2 12.645v4.709c0 .954.379 1.869 1.053 2.543.675.675 1.59 1.054 2.544 1.054h1.308l7.782 5.853c.146.11.32.176.5.192.182.016.364-.018.527-.1.163-.081.3-.206.396-.361.096-.155.147-.334.147-.516V3.98c0-.184-.053-.365-.151-.521-.099-.156-.239-.282-.405-.362zm-1.405 20.927L7.82 19.185c-.17-.127-.376-.196-.588-.196H5.597c-.434 0-.85-.172-1.156-.479-.307-.307-.48-.723-.48-1.156v-4.709c0-.433.173-.85.48-1.156.306-.306.722-.479 1.156-.479h1.635c.212 0 .419-.068.588-.196l6.475-4.84v18.05z"/>
</svg>
