<svg xmlns="http://www.w3.org/2000/svg" width="30" height="30" fill="none" viewBox="0 0 30 30">
    <g fill="#00B228" clip-path="url(#clip0)">
        <path d="M24.993 16.637l-4.48-7.022c.635-.334 1.07-1 1.07-1.765 0-.838-.52-1.556-1.255-1.85l1.357-4.744c.059-.205.002-.425-.149-.575-.902-.903-2.371-.903-3.274 0-.216.216-.503.334-.808.334-.306 0-.593-.118-.81-.336l-.003-.003c-.9-.9-2.365-.902-3.268-.005l-.017.017c-.446.442-1.17.441-1.614-.003L11.738.68c-.903-.903-2.372-.903-3.274 0-.151.15-.208.37-.15.575L9.675 6c-.735.293-1.257 1.012-1.257 1.851 0 .766.435 1.431 1.07 1.765l-4.48 7.022c-1.733 2.716-1.843 6.025-.294 8.85C6.263 28.314 9.111 30 12.333 30h5.334c3.222 0 6.07-1.687 7.62-4.512 1.549-2.826 1.439-6.135-.294-8.851zM10.909 1.509l.004.005c.9.9 2.366.902 3.269.005l.017-.017c.445-.442 1.17-.441 1.615.004l.003.003c.902.903 2.371.903 3.274 0 .367-.367.924-.432 1.358-.194L19.15 5.858h-8.297L9.551 1.315c.434-.238.99-.173 1.358.194zm13.35 23.415c-1.34 2.445-3.805 3.904-6.592 3.904h-5.334c-2.788 0-5.252-1.46-6.592-3.904-1.34-2.444-1.245-5.307.254-7.657l4.736-7.424h1.632c.324 0 .586-.263.586-.586 0-.324-.262-.586-.586-.586H10.41c-.453 0-.82-.368-.82-.82 0-.453.367-.821.82-.821H19.59c.452 0 .82.368.82.82 0 .453-.368.82-.82.82h-1.953c-.324 0-.586.263-.586.587 0 .323.262.586.586.586h1.632l4.736 7.424c1.5 2.35 1.594 5.213.254 7.657z"/>
        <path d="M16.033 19.138c-.147-.052-.297-.107-.447-.163V16.32c.397.116.662.306.674.314.257.193.623.142.818-.115.195-.258.145-.625-.113-.82-.035-.027-.58-.431-1.38-.585v-.583c0-.323-.262-.586-.585-.586-.324 0-.586.263-.586.586v.58c-.1.018-.2.042-.302.073-.825.248-1.441.953-1.609 1.84-.153.811.107 1.593.678 2.04.31.243.697.465 1.233.701v3.398c-.462-.029-.77-.134-1.285-.47-.27-.178-.634-.102-.811.17-.177.27-.101.633.17.81.75.491 1.258.63 1.926.663v.606c0 .324.262.586.586.586.323 0 .586-.262.586-.586v-.667c1.254-.275 1.988-1.322 2.153-2.301.215-1.28-.454-2.394-1.706-2.836zm-2.129-.996c-.225-.176-.32-.521-.25-.9.066-.348.3-.768.76-.923v2.146c-.193-.103-.367-.21-.51-.323zm2.68 3.637c-.085.502-.424 1.035-.998 1.27v-2.827l.056.02c1.05.372.986 1.27.941 1.537zM15 9.844c.154 0 .305-.063.414-.172.11-.109.172-.26.172-.414 0-.154-.063-.305-.172-.414-.109-.11-.26-.172-.414-.172-.154 0-.305.063-.414.172-.11.109-.172.26-.172.414 0 .154.063.305.172.414.109.11.26.172.414.172z"/>
    </g>
    <defs>
        <clipPath id="clip0">
            <path fill="#fff" d="M0 0H30V30H0z"/>
        </clipPath>
    </defs>
</svg>
