<svg xmlns="http://www.w3.org/2000/svg" width="30" height="30" fill="none" viewBox="0 0 30 30">
    <g fill="#00B228" clip-path="url(#clip0)">
        <path d="M15 0c-2.404 0-4.364 1.955-4.364 4.352 0 2.398 1.96 4.359 4.364 4.359s4.364-1.955 4.364-4.353C19.364 1.961 17.404 0 15 0zm0 7.748c-1.872 0-3.39-1.518-3.39-3.39S13.128.968 15 .968s3.39 1.518 3.39 3.39c0 1.866-1.524 3.39-3.39 3.39zM16.937 9.68h-3.88c-2.404 0-4.364 1.954-4.364 4.352v7.258h1.937V30h8.722v-8.71h1.937v-7.258h.012c0-2.403-1.955-4.352-4.364-4.352zm3.401 10.641h-1.942v8.711H15.49v-6.774h-.968v6.774h-2.906v-8.71H9.68v-6.29c0-1.866 1.524-3.39 3.39-3.39h3.88c1.872 0 3.39 1.518 3.39 3.39v6.29zM5.309 5.32c-1.884 0-3.42 1.536-3.42 3.414 0 1.884 1.536 3.413 3.42 3.413s3.42-1.53 3.42-3.413c0-1.884-1.536-3.414-3.42-3.414zm0 5.859c-1.352 0-2.45-1.099-2.45-2.445 0-1.347 1.098-2.445 2.45-2.445s2.45 1.098 2.45 2.445c0 1.346-1.098 2.445-2.45 2.445z"/>
        <path d="M7.73 22.258v6.773H5.805v-4.836h-.968v4.836h-2.41v-6.773H1.004L.969 16.67c0-1.476 1.228-2.675 2.74-2.675h3.986v-.969H3.709C1.665 13.033 0 14.67 0 16.677l.041 6.55H1.46V30h7.24v-6.774h.968v-.968H7.73zM24.691 5.32c-1.884 0-3.419 1.53-3.419 3.414 0 1.884 1.535 3.413 3.42 3.413 1.883 0 3.419-1.53 3.419-3.413 0-1.884-1.536-3.414-3.42-3.414zm0 5.859c-1.352 0-2.45-1.099-2.45-2.445.005-1.347 1.104-2.445 2.45-2.445 1.353 0 2.451 1.098 2.451 2.445 0 1.346-1.098 2.445-2.45 2.445zM26.292 13.033H22.27v.969h4.022c1.511 0 2.74 1.198 2.74 2.669l-.036 5.587h-1.423v6.773h-2.41v-4.836h-.968v4.836H22.27v-6.773h-1.937v.968h.969V30h7.24v-6.774h1.417l.041-6.55c0-2.007-1.665-3.643-3.708-3.643z"/>
    </g>
    <defs>
        <clipPath id="clip0">
            <path fill="#fff" d="M0 0H30V30H0z"/>
        </clipPath>
    </defs>
</svg>
