<svg xmlns="http://www.w3.org/2000/svg" width="34" height="34" fill="none" viewBox="0 0 34 34">
    <path fill="#00B228" d="M30.519 5.369l-8.5-4.25c-.074-.037-.155-.057-.238-.056H12.22c-.083 0-.164.019-.238.056l-8.5 4.25c-.247.123-2.418 1.397-2.418 7.912v5.844c0 .14.055.276.155.376.1.1.235.155.376.155h4.781v12.75c0 .141.056.276.156.376.1.1.234.156.375.156h20.188c.14 0 .276-.056.375-.156.1-.1.156-.235.156-.376v-12.75h4.781c.141 0 .276-.056.376-.155.1-.1.156-.235.156-.376v-5.844c0-6.515-2.172-7.789-2.42-7.912zm-17.807-.565c.92 1.042 2.363 1.571 4.288 1.571 1.925 0 3.367-.529 4.288-1.571.694-.787.934-1.697 1.008-2.359l.999.5c-.161.948-.58 1.835-1.21 2.562-1.132 1.281-2.842 1.93-5.085 1.93s-3.954-.649-5.084-1.93c-.63-.727-1.05-1.614-1.21-2.563l.998-.499c.074.662.314 1.573 1.008 2.359zm.031-2.679h8.516c-.028.497-.175 1.304-.768 1.976-.71.804-1.884 1.212-3.491 1.212-1.6 0-2.773-.405-3.483-1.204-.594-.666-.743-1.482-.774-1.984zM2.125 13.281c0-4.722 1.193-6.356 1.66-6.815.608.436 2.52 2.567 2.588 12.128H2.125V13.28zm24.438 18.594H7.438v-12.75c0-5.365-.553-9.283-1.643-11.645-.349-.755-.708-1.247-1.026-1.567l4.952-2.476c.225 1.027.706 1.981 1.398 2.773C12.46 7.73 14.44 8.5 17 8.5c2.561 0 4.54-.77 5.88-2.29.693-.792 1.174-1.746 1.399-2.773l4.952 2.476c-.318.32-.677.812-1.026 1.567-1.09 2.362-1.642 6.28-1.642 11.645v12.75zm5.312-13.281h-4.248c.068-9.57 1.984-11.696 2.59-12.13.157.154.401.444.652.945.459.919 1.006 2.683 1.006 5.872v5.313z"/>
</svg>
