<svg xmlns="http://www.w3.org/2000/svg" width="32" height="28" fill="none" viewBox="0 0 32 28">
    <path fill="#00B228" d="M28.667 27.495H3.333C1.496 27.495 0 25.999 0 24.16v-2.666c0-.368.299-.667.667-.667h.666C2.804 20.828 4 19.632 4 18.162c0-1.471-1.196-2.667-2.667-2.667H.667c-.368 0-.667-.299-.667-.667v-2.666c0-1.838 1.496-3.334 3.333-3.334h25.334c1.837 0 3.333 1.496 3.333 3.334v2.666c0 .368-.299.667-.667.667h-.666c-1.471 0-2.667 1.196-2.667 2.667 0 .712.277 1.38.781 1.885.503.504 1.172.781 1.884.781h.667c.368 0 .667.299.667.667v2.666C32 26 30.504 27.495 28.667 27.495zM1.333 22.16v2c0 1.103.898 2 2 2h25.334c1.102 0 2-.897 2-2v-2h-.002c-1.068 0-2.072-.416-2.826-1.17-.756-.756-1.172-1.761-1.172-2.83 0-2.205 1.794-4 4-4v-2c0-1.102-.898-2-2-2H3.333c-1.102 0-2 .898-2 2v2c2.206 0 4 1.795 4 4 0 2.206-1.794 4-4 4z"/>
    <path fill="#00B228" d="M11.333 11.495c-.368 0-.667-.299-.667-.667V9.495c0-.368.3-.667.667-.667.368 0 .667.299.667.667v1.333c0 .368-.299.667-.667.667zM11.333 22.778c-.368 0-.667-.298-.667-.666v-2.255c0-.368.3-.667.667-.667.368 0 .667.297.667.667v2.256c0 .368-.299.665-.667.665zm0-5.64c-.368 0-.667-.299-.667-.667v-2.255c0-.368.3-.667.667-.667.368 0 .667.299.667.667v2.255c0 .369-.299.667-.667.667zM11.333 27.495c-.368 0-.667-.299-.667-.667v-1.333c0-.368.3-.667.667-.667.368 0 .667.299.667.667v1.333c0 .368-.299.667-.667.667z"/>
</svg>
