<svg xmlns="http://www.w3.org/2000/svg" width="34" height="34" fill="none" viewBox="0 0 34 34">
    <g fill="#00B228" clip-path="url(#clip0)">
        <path d="M33.172 17c.28 0 .478-.225.506-.478V10.39c0-.282-.225-.479-.506-.507h-1.35l-.591-4.022c-.028-.28-.281-.45-.563-.421l-7.621 1.125h-.029L.744 9.912s-.421.085-.421.478v6.104c0 .28.225.478.478.506 1.237 0 2.222.984 2.222 2.222 0 1.237-.985 2.222-2.222 2.222-.282 0-.478.225-.507.478v6.103c0 .281.225.478.507.506h32.344c.28 0 .478-.225.506-.506V21.95c0-.281-.225-.478-.478-.506-1.238 0-2.222-.985-2.222-2.222 0-1.238.984-2.222 2.222-2.222zM22.68 7.634l.197 1.322c.028.253.253.422.478.422h.084c.282-.028.45-.281.422-.562l-.197-1.322 6.666-.985.506 3.403H7.465l15.216-2.278zM32.693 22.4v5.175H25.41v-1.35c0-.281-.225-.506-.506-.506s-.506.225-.506.506v1.35H1.334V22.4c1.744-.281 2.953-1.913 2.672-3.656-.225-1.378-1.294-2.475-2.672-2.672v-5.175h23.09v1.322c0 .28.226.506.507.506s.506-.225.506-.506v-1.35h7.285v5.175c-1.744.28-2.954 1.912-2.672 3.656.168 1.406 1.237 2.475 2.643 2.7z"/>
        <path d="M24.903 19.98c-.281 0-.478.226-.506.479v3.262c0 .281.225.506.506.506.282 0 .507-.225.507-.506v-3.234c0-.281-.226-.506-.507-.506zM24.903 14.244c-.281 0-.478.225-.506.478v3.263c0 .281.225.506.506.506.282 0 .507-.225.507-.506v-3.263c0-.253-.226-.478-.507-.478zM6.678 15.031h6.103c.281 0 .506-.225.506-.506s-.225-.478-.506-.478H6.678c-.281 0-.506.225-.506.506s.225.478.506.478zM18.884 17.168H6.678c-.281 0-.506.225-.506.506 0 .282.225.506.506.506h12.206c.282 0 .507-.224.507-.506 0-.281-.225-.506-.507-.506zM18.884 20.291H6.678c-.281 0-.506.225-.506.506s.225.506.506.506h12.206c.282 0 .507-.225.507-.506s-.225-.506-.507-.506zM18.884 23.412H6.678c-.281 0-.506.225-.506.506 0 .282.225.507.506.507h12.206c.282 0 .507-.225.507-.507 0-.28-.225-.506-.507-.506z"/>
    </g>
    <defs>
        <clipPath id="clip0">
            <path fill="#fff" d="M0 0H34V34H0z"/>
        </clipPath>
    </defs>
</svg>
