<svg xmlns="http://www.w3.org/2000/svg" width="29" height="29" fill="none" viewBox="0 0 29 29">
    <g fill="#00B228" clip-path="url(#clip0)">
        <path d="M23.657 11.59H12.854c.5-.573.803-1.322.803-2.141 0-1.803-1.467-3.27-3.27-3.27-1.802 0-3.268 1.467-3.268 3.27 0 .819.304 1.568.803 2.142H5.343c-1.558 0-2.826 1.268-2.826 2.826v3.335c0 .312.253.565.565.565.313 0 .566-.253.566-.565v-3.335c0-.935.76-1.696 1.695-1.696H21.17c.935 0 1.695.761 1.695 1.696v3.052h-5.878c-1.558 0-2.826 1.268-2.826 2.826 0 1.559 1.268 2.827 2.826 2.827h5.879v3.052c0 .935-.761 1.696-1.696 1.696H5.343c-.935 0-1.695-.761-1.695-1.696v-3.34c0-.312-.254-.565-.566-.565-.312 0-.565.253-.565.566v3.339C2.517 27.732 3.785 29 5.343 29h18.314c1.558 0 2.826-1.268 2.826-2.826V14.417c0-1.558-1.268-2.826-2.826-2.826zm-13.27-4.28c1.18 0 2.14.96 2.14 2.139 0 1.179-.96 2.138-2.14 2.138-1.178 0-2.137-.96-2.137-2.138 0-1.18.959-2.139 2.138-2.139zm13.042 5.411h.228c.935 0 1.695.761 1.695 1.696v3.052h-1.356v-3.052c0-.636-.211-1.223-.567-1.696zm-8.138 7.575c0-.936.761-1.696 1.696-1.696h8.366v3.391h-8.366c-.935 0-1.696-.76-1.696-1.695zm8.366 7.574h-.228c.356-.473.567-1.06.567-1.696v-3.052h1.357v3.052c0 .935-.761 1.696-1.696 1.696z"/>
        <path d="M16.843 19.73c-.15 0-.296.06-.4.166-.106.105-.166.251-.166.4 0 .148.06.294.165.4.106.104.251.165.4.165.15 0 .295-.06.4-.166.105-.105.166-.25.166-.4 0-.148-.06-.294-.166-.399-.105-.105-.25-.166-.4-.166zM18.612 7.782c1.803 0 3.269-1.467 3.269-3.269s-1.466-3.269-3.269-3.269c-1.802 0-3.269 1.467-3.269 3.269s1.467 3.269 3.27 3.269zm0-5.407c1.18 0 2.139.959 2.139 2.138 0 1.18-.96 2.138-2.139 2.138-1.179 0-2.138-.959-2.138-2.138 0-1.18.959-2.138 2.138-2.138zM13.092 5.572c.312 0 .565-.253.565-.565V.565c0-.312-.253-.565-.565-.565-.313 0-.566.253-.566.565v4.442c0 .312.253.565.566.565zM10.378 3.617c.312 0 .566-.253.566-.565V.565c0-.312-.254-.565-.566-.565-.312 0-.565.253-.565.565v2.487c0 .312.253.565.565.565zM3.082 20.86c.149 0 .295-.06.4-.165.105-.105.166-.25.166-.4 0-.148-.06-.294-.166-.399-.105-.105-.25-.166-.4-.166-.148 0-.294.06-.4.166-.104.105-.165.251-.165.4 0 .148.06.294.166.4.105.104.25.165.4.165z"/>
        <rect width="2" height="8" x="2" y="17" rx="1"/>
    </g>
    <defs>
        <clipPath id="clip0">
            <path fill="#fff" d="M0 0H29V29H0z"/>
        </clipPath>
    </defs>
</svg>
