<svg xmlns="http://www.w3.org/2000/svg" width="244" height="244" fill="none" viewBox="0 0 244 244">
    <mask id="yw9p5om24a" width="244" height="244" x="0" y="0" maskUnits="userSpaceOnUse">
        <g fill="#fff" clip-path="url(#clip0)" opacity=".4">
            <path d="M190.614 24.285L13.09 71.853c-1.886.508-3.494 1.743-4.47 3.434-.978 1.692-1.243 3.701-.74 5.589L43.51 213.842c.507 1.887 1.742 3.494 3.434 4.471 1.691.977 3.701 1.242 5.588.739l177.525-47.568c1.886-.507 3.494-1.742 4.47-3.434.977-1.691 1.243-3.701.739-5.589L199.637 29.495c-.508-1.886-1.743-3.494-3.434-4.47-1.692-.977-3.702-1.243-5.589-.74zM13.124 79.471c-.133-.497-.063-1.026.194-1.471.257-.445.68-.77 1.177-.904L192.018 29.53c.497-.133 1.026-.063 1.471.194.445.257.77.68.904 1.177l4.014 14.98-181.27 48.572-4.014-14.981zm216.898 84.395c.133.497.063 1.026-.194 1.471-.257.445-.681.77-1.177.904L51.126 213.808c-.496.133-1.025.063-1.47-.194-.446-.257-.77-.68-.904-1.176L18.542 99.695l181.271-48.571 30.209 112.742z"/>
            <path d="M41.078 134.361l156.551-41.948c.696-.186 1.288-.641 1.648-1.264.36-.624.458-1.365.271-2.06l-6.161-22.996c-.187-.695-.641-1.288-1.265-1.648-.623-.36-1.364-.457-2.059-.271L33.511 106.122c-.695.186-1.288.641-1.648 1.264-.36.624-.457 1.365-.27 2.06l6.16 22.996c.187.695.642 1.288 1.265 1.648.624.36 1.365.457 2.06.271zm-3.54-23.698L188.846 70.12l4.757 17.752-151.308 40.543-4.757-17.752zM199.025 97.622L97.248 124.893c-.696.187-1.288.641-1.648 1.265-.36.623-.458 1.364-.271 2.059l6.161 22.996c.186.695.641 1.288 1.265 1.648.623.36 1.364.458 2.059.271l101.778-27.271c.695-.186 1.288-.641 1.648-1.265.36-.623.458-1.364.271-2.059l-6.161-22.996c-.187-.695-.642-1.288-1.265-1.648-.623-.36-1.364-.457-2.06-.271zm3.54 23.698l-96.534 25.867-4.757-17.753 96.535-25.866 4.756 17.752zM207.988 131.073L106.21 158.344c-.695.187-1.288.642-1.648 1.265-.36.623-.457 1.364-.271 2.06l6.162 22.995c.186.696.641 1.288 1.264 1.648.624.36 1.364.458 2.06.272l101.778-27.272c.695-.186 1.288-.641 1.648-1.264.359-.624.457-1.365.271-2.06l-6.162-22.996c-.186-.695-.641-1.288-1.265-1.648-.623-.36-1.364-.457-2.059-.271zm3.54 23.698l-96.535 25.867-4.756-17.753 96.534-25.866 4.757 17.752zM59.004 201.26l44.318-11.875c.695-.187 1.288-.642 1.648-1.265.36-.623.457-1.364.271-2.06l-15.124-56.445c-.187-.695-.642-1.288-1.265-1.648-.623-.36-1.364-.457-2.06-.271l-44.318 11.875c-.695.186-1.288.641-1.648 1.265-.36.623-.457 1.364-.271 2.059l15.124 56.445c.187.696.642 1.289 1.265 1.648.623.36 1.364.458 2.06.272zM46.5 144.112l39.075-10.47 13.72 51.202-39.076 10.47-13.72-51.202zM183.088 38.143l-6.554 1.756c-.696.186-1.288.641-1.648 1.265-.36.623-.458 1.364-.271 2.06.186.695.641 1.287 1.264 1.647.624.36 1.364.458 2.06.271l6.554-1.756c.695-.186 1.288-.641 1.648-1.264.36-.624.457-1.365.271-2.06-.186-.695-.641-1.288-1.264-1.648-.624-.36-1.365-.457-2.06-.271zM163.051 43.512l-6.554 1.756c-.696.187-1.288.641-1.648 1.265-.36.623-.458 1.364-.272 2.06.187.695.642 1.287 1.265 1.647.623.36 1.364.458 2.06.272l6.554-1.757c.695-.186 1.288-.64 1.648-1.264.36-.624.457-1.364.271-2.06-.186-.695-.641-1.288-1.265-1.648-.623-.36-1.364-.457-2.059-.271zM143.014 48.881l-6.554 1.756c-.696.187-1.289.642-1.648 1.265-.36.623-.458 1.364-.272 2.06.187.695.642 1.288 1.265 1.648.623.36 1.364.457 2.06.27l6.554-1.756c.695-.186 1.288-.64 1.648-1.264.36-.623.457-1.364.271-2.06-.186-.695-.641-1.288-1.265-1.648-.623-.36-1.364-.457-2.059-.27z"/>
        </g>
    </mask>
    <g mask="url(#yw9p5om24a)">
        <rect width="420" height="200" x="-224" y="10" fill="url(#paint0_linear)" opacity=".8" rx="20"/>
    </g>
    <defs>
        <linearGradient id="paint0_linear" x1="-14" x2="-14" y1="10" y2="210" gradientUnits="userSpaceOnUse">
            <stop offset=".001" stop-color="#5BEF9A"/>
            <stop offset="1" stop-color="#2BBDAA"/>
        </linearGradient>
        <clipPath id="clip0">
            <path fill="#fff" d="M0 0H198.521V198.521H0z" transform="rotate(-15 195.519 25.725)"/>
        </clipPath>
    </defs>
</svg>
