<svg xmlns="http://www.w3.org/2000/svg" width="54" height="36" fill="none" viewBox="0 0 54 36">
    <path fill="#FFCC21" d="M52.985 7.284l-1.81 18.202L50 27.004c1.037 1.91.9 1.224.723 3.004-.435 3.49-2.908 5.527-5.422 5.527H7.81c-2.841 0-5.065-2.453-5.42-5.5l-.143-1.44.99-1.607-1.298-1.502L.17 7.67c-.473-4.178 4.02-6.109 6.094-3.718 4.99 5.771 5.524 6.91 7.2 6.71.63-.077 1.08-.36 1.455-.705C25.079.18 24.414.813 24.519.73c1.214-.936 2.802-.971 4.04-.109.09.062-.58-.499 9.816 8.264.7.563 1.565.727 2.396.418.668-.25.585-.274 6.293-5.9 2.198-2.205 6.375-.108 5.92 3.88z"/>
    <path fill="#886836" d="M51.174 25.48l-.31 3.108H2.246l-.308-3.108h49.236z"/>
    <path fill="#886836" d="M51.176 25.48l-.31 3.108H26.579V25.48h24.597z"/>
</svg>
