<svg xmlns="http://www.w3.org/2000/svg" width="216" height="256" fill="none" viewBox="0 0 216 256">
    <g opacity=".4">
        <mask id="hsuju4f55a" width="256" height="256" x="0" y="0" maskUnits="userSpaceOnUse">
            <g clip-path="url(#clip0)">
                <path fill="#fff" d="M123.514 111.257l-.159.043c-1.27.286-2.616-.017-3.639-.82l-15.338-12.04-23.022 6.168c-6.923 1.855-14.066-2.269-15.921-9.192L54.219 53.559c-1.855-6.923 2.27-14.067 9.192-15.922l75.343-20.188c6.923-1.855 14.066 2.27 15.921 9.193l11.216 41.857c1.855 6.923-2.269 14.066-9.192 15.921l-21.121 5.66-9.3 18.902c-.551 1.126-1.559 1.952-2.764 2.275zm-57.86-65.248c-2.31.619-3.683 2.996-3.063 5.307l11.215 41.857c.62 2.31 2.997 3.683 5.307 3.064l25.114-6.73c1.315-.352 2.728-.066 3.797.777l12.838 10.073 7.806-15.873c.553-1.117 1.561-1.944 2.766-2.267l23.021-6.168c2.311-.62 3.684-2.997 3.065-5.307l-11.216-41.857c-.619-2.31-2.997-3.683-5.307-3.064L65.655 46.009zM192.728 101.683l-.168.045c-1.277.289-2.615-.017-3.64-.828l-8.991-7.102c-1.879-1.488-2.196-4.211-.716-6.088 1.478-1.886 4.201-2.203 6.089-.717l4.781 3.78 7.793-15.852c.559-1.128 1.567-1.954 2.772-2.277l6.279-1.683c2.311-.619 3.683-2.996 3.064-5.307l-11.215-41.857c-.619-2.31-2.997-3.683-5.308-3.064l-16.742 4.486c-2.311.62-4.688-.753-5.308-3.064-.619-2.31.754-4.688 3.065-5.307l16.742-4.486c6.923-1.855 14.067 2.27 15.922 9.192l11.216 41.857c1.855 6.923-2.27 14.067-9.193 15.922l-4.378 1.173-9.3 18.902c-.551 1.126-1.559 1.952-2.764 2.275zM58.786 137.573c-1.205.323-2.491.112-3.531-.588l-17.505-11.72-4.379 1.173c-6.923 1.855-14.066-2.269-15.921-9.192L6.234 75.389c-1.855-6.923 2.27-14.067 9.193-15.922l16.742-4.486c2.31-.619 4.689.754 5.308 3.064.619 2.31-.754 4.688-3.064 5.307L17.67 67.84c-2.31.619-3.684 2.996-3.064 5.307l11.215 41.857c.62 2.31 2.997 3.683 5.307 3.064l6.279-1.682c1.205-.323 2.491-.112 3.531.588l14.675 9.831 2.251-5.663c.886-2.221 3.411-3.31 5.631-2.425 2.22.886 3.308 3.403 2.424 5.632l-4.235 10.645c-.474 1.213-1.488 2.149-2.73 2.535l-.168.045zM206.186 151.911c-9.233 2.474-18.754-3.023-21.229-12.256-2.474-9.234 3.023-18.755 12.257-21.229s18.755 3.023 21.229 12.256c2.474 9.234-3.023 18.755-12.257 21.229zm-6.729-25.114c-4.613 1.236-7.364 6.002-6.128 10.615 1.236 4.612 6.002 7.364 10.614 6.128 4.613-1.236 7.364-6.002 6.128-10.614-1.235-4.613-6.001-7.365-10.614-6.129zM246.701 185.918c-2.31.619-4.688-.754-5.307-3.064l-2.243-8.372c-1.855-6.923-8.999-11.047-15.922-9.192l-25.114 6.729c-2.31.619-4.688-.753-5.307-3.064-.619-2.31.754-4.688 3.064-5.307l25.114-6.729c11.536-3.091 23.445 3.785 26.536 15.32l2.244 8.372c.619 2.31-.754 4.688-3.065 5.307zM72.244 187.802c-9.233 2.474-18.754-3.023-21.228-12.257-2.475-9.233 3.022-18.754 12.256-21.228 9.234-2.475 18.755 3.022 21.229 12.256s-3.023 18.755-12.257 21.229zm-6.729-25.114c-4.612 1.236-7.364 6.002-6.128 10.614 1.236 4.613 6.002 7.365 10.614 6.129 4.613-1.236 7.364-6.002 6.129-10.615-1.236-4.612-6.002-7.364-10.615-6.128zM54.16 237.508c-2.31.619-4.688-.753-5.307-3.064l-2.243-8.371c-3.09-11.536 3.785-23.445 15.32-26.536l25.115-6.73c2.31-.619 4.688.754 5.307 3.065.62 2.31-.754 4.688-3.064 5.307l-25.114 6.729c-6.923 1.855-11.048 8.999-9.193 15.922l2.244 8.371c.619 2.311-.754 4.688-3.065 5.307zM140.337 174.042c-13.846 3.71-28.133-4.539-31.844-18.385-3.71-13.846 4.539-28.133 18.385-31.843 13.846-3.71 28.134 4.538 31.844 18.384 3.71 13.847-4.539 28.134-18.385 31.844zm-11.216-41.857c-9.233 2.474-14.73 11.995-12.256 21.229s11.995 14.731 21.229 12.256c9.233-2.474 14.73-11.995 12.256-21.228-2.474-9.234-11.995-14.731-21.229-12.257zM196.774 217.242c-2.311.619-4.688-.754-5.307-3.064l-4.486-16.743c-1.856-6.923-8.999-11.048-15.922-9.192l-50.228 13.458c-6.923 1.855-11.048 8.999-9.193 15.922l4.486 16.743c.62 2.31-.753 4.688-3.064 5.307-2.31.619-4.688-.754-5.307-3.064l-4.486-16.743c-3.091-11.536 3.785-23.445 15.321-26.536l50.228-13.459c11.535-3.091 23.445 3.785 26.536 15.321l4.486 16.743c.619 2.31-.754 4.688-3.064 5.307z"/>
            </g>
        </mask>
        <g mask="url(#hsuju4f55a)">
            <rect width="420" height="200" x="-260" y="18" fill="url(#paint0_linear)" opacity=".8" rx="20"/>
        </g>
    </g>
    <defs>
        <linearGradient id="paint0_linear" x1="-250" x2="93.872" y1="30.5" y2="253.198" gradientUnits="userSpaceOnUse">
            <stop offset=".001" stop-color="#FFF06D"/>
            <stop offset="1" stop-color="#FFBD13"/>
        </linearGradient>
        <clipPath id="clip0">
            <path fill="#fff" d="M0 0H208V208H0z" transform="rotate(-15 207.149 24.851)"/>
        </clipPath>
    </defs>
</svg>
