<svg xmlns="http://www.w3.org/2000/svg" width="174" height="148" fill="none" viewBox="0 0 174 148">
    <g opacity=".3">
        <rect width="192" height="91" x="3.564" y="57.428" stroke="#fff" stroke-width="5" rx="7.5" transform="rotate(-16.385 3.564 57.428)"/>
        <path fill="#fff" d="M79.34 92.208L73.3 71.66l4.357-1.28 4.983 16.948 8.334-2.45 1.058 3.597-12.69 3.732zm25.868-7.606l-6.041-20.547 4.356-1.28 6.042 20.546-4.357 1.28zm24.802-29.615l4.398-1.294-.943 22.6-4.75 1.397-13.012-18.497 4.399-1.293 7.46 11.09c.427.658.895 1.437 1.404 2.336.515.886.856 1.509 1.022 1.867-.15-.892-.242-2.504-.276-4.835l.298-13.371zm34.467 12.188l-11.834 3.48-6.041-20.547 11.833-3.48 1.05 3.57-7.477 2.199 1.327 4.51 6.956-2.044 1.05 3.57-6.957 2.044 1.558 5.299 7.477-2.199 1.058 3.598z"/>
        <circle cx="46.958" cy="91.573" r="9.5" fill="#fff" transform="rotate(-16.385 46.958 91.573)"/>
    </g>
</svg>
