<svg xmlns="http://www.w3.org/2000/svg" width="341" height="313" fill="none" viewBox="0 0 341 313">
    <mask id="z14fowudla" width="341" height="341" x="0" y="0" maskUnits="userSpaceOnUse">
        <g clip-path="url(#clip0)">
            <path fill="#fff" d="M113.844 126.837c1.075 1.862 3.454 2.498 5.314 1.424l40.433-23.344c1.861-1.074 2.499-3.452 1.424-5.314-5.448-9.437-15.731-14.35-25.933-13.484.774-3.632.317-7.541-1.683-11.005-4.291-7.433-13.827-9.987-21.259-5.696-7.431 4.29-9.987 13.826-5.696 21.259 2 3.463 5.156 5.814 8.689 6.96-5.851 8.402-6.737 19.764-1.289 29.2zm-.661-40.05c-2.145-3.716-.869-8.485 2.848-10.63 3.716-2.146 8.485-.867 10.629 2.848 2.145 3.715.869 8.484-2.848 10.63-3.716 2.145-8.484.866-10.629-2.849zm14.52 9.586c8.135-4.697 18.291-2.83 24.289 3.947l-33.016 19.061c-2.869-8.583.591-18.311 8.727-23.008zM181.371 119.298c1.075 1.862 3.454 2.498 5.315 1.424l40.432-23.344c1.861-1.074 2.5-3.452 1.424-5.314-5.448-9.437-15.731-14.35-25.933-13.484.775-3.632.317-7.541-1.683-11.005-4.291-7.433-13.827-9.987-21.258-5.696-7.432 4.29-9.988 13.826-5.697 21.259 2 3.463 5.156 5.814 8.69 6.96-5.852 8.401-6.738 19.764-1.29 29.2zm-.661-40.05c-2.145-3.716-.868-8.485 2.848-10.63 3.717-2.146 8.485-.867 10.63 2.848 2.144 3.715.868 8.483-2.848 10.63-3.717 2.145-8.485.866-10.63-2.849zm14.52 9.586c8.136-4.697 18.291-2.83 24.289 3.947l-33.016 19.061c-2.869-8.583.592-18.311 8.727-23.008zM241.918 169.699c-7.432 4.291-9.988 13.826-5.697 21.259 2 3.463 5.156 5.814 8.69 6.96-5.852 8.402-6.738 19.764-1.29 29.2 1.075 1.863 3.454 2.499 5.315 1.424l40.432-23.343c1.861-1.075 2.5-3.453 1.424-5.315-5.448-9.437-15.731-14.35-25.933-13.483.775-3.633.317-7.542-1.683-11.006-4.291-7.433-13.827-9.986-21.258-5.696zm1.042 17.368c-2.145-3.715-.868-8.483 2.848-10.629 3.717-2.146 8.485-.867 10.63 2.848 2.144 3.715.868 8.484-2.848 10.629-3.717 2.146-8.485.867-10.63-2.848zm38.809 13.534l-33.016 19.062c-2.869-8.583.592-18.312 8.727-23.009 8.136-4.697 18.291-2.83 24.289 3.947zM203.328 281.829c1.075 1.863 3.454 2.499 5.315 1.424l40.432-23.343c1.861-1.075 2.5-3.453 1.424-5.315-5.448-9.437-15.731-14.35-25.933-13.483.775-3.633.317-7.542-1.683-11.006-4.291-7.433-13.827-9.986-21.258-5.696-7.432 4.291-9.988 13.826-5.697 21.259 2 3.463 5.156 5.814 8.69 6.96-5.852 8.402-6.738 19.764-1.29 29.2zm-.661-40.051c-2.145-3.715-.868-8.483 2.848-10.629 3.717-2.146 8.485-.867 10.63 2.848 2.145 3.715.868 8.484-2.848 10.629-3.717 2.146-8.485.867-10.63-2.848zm14.52 9.587c8.136-4.697 18.291-2.83 24.289 3.947l-33.016 19.062c-2.869-8.584.592-18.312 8.727-23.009zM257.32 118.873c.774-3.633.317-7.542-1.683-11.005-4.291-7.433-13.827-9.987-21.258-5.696-7.432 4.29-9.988 13.826-5.697 21.259 2 3.463 5.156 5.814 8.69 6.96-5.852 8.401-6.738 19.764-1.29 29.2 1.075 1.862 3.454 2.498 5.315 1.424l40.432-23.344c1.861-1.074 2.5-3.452 1.424-5.314-5.448-9.437-15.731-14.35-25.933-13.484zm-21.899.667c-2.145-3.715-.868-8.484 2.848-10.629 3.717-2.146 8.485-.867 10.63 2.848 2.144 3.715.868 8.483-2.848 10.629-3.717 2.146-8.485.867-10.63-2.848zm5.793 32.595c-2.869-8.583.592-18.311 8.727-23.008 8.136-4.697 18.291-2.83 24.289 3.947l-33.016 19.061zM73.55 181.548c1.076 1.862 3.455 2.498 5.316 1.424l40.432-23.344c1.861-1.074 2.499-3.452 1.424-5.314-5.448-9.437-15.731-14.35-25.933-13.484.774-3.633.317-7.541-1.683-11.005-4.291-7.433-13.827-9.987-21.259-5.696-7.431 4.29-9.987 13.826-5.696 21.259 2 3.463 5.156 5.814 8.69 6.96-5.852 8.401-6.738 19.764-1.29 29.2zm-.66-40.051c-2.145-3.715-.868-8.484 2.848-10.629 3.716-2.146 8.485-.867 10.63 2.848 2.144 3.715.868 8.483-2.849 10.629-3.716 2.146-8.484.867-10.63-2.848zm14.52 9.587c8.135-4.697 18.291-2.83 24.289 3.947l-33.016 19.061c-2.87-8.583.591-18.311 8.727-23.008zM135.801 289.368c1.075 1.863 3.454 2.499 5.314 1.424l40.433-23.343c1.861-1.075 2.499-3.453 1.424-5.315-5.448-9.437-15.731-14.35-25.933-13.483.774-3.633.317-7.542-1.683-11.006-4.291-7.433-13.827-9.986-21.259-5.696-7.431 4.291-9.987 13.826-5.696 21.259 2 3.463 5.156 5.814 8.689 6.96-5.851 8.402-6.737 19.764-1.289 29.2zm-.661-40.051c-2.145-3.715-.869-8.483 2.848-10.629 3.717-2.146 8.485-.867 10.629 2.848 2.145 3.715.869 8.484-2.848 10.629-3.716 2.146-8.484.867-10.629-2.848zm14.52 9.587c8.135-4.697 18.291-2.83 24.289 3.947l-33.016 19.062c-2.869-8.583.591-18.312 8.727-23.009zM81.09 249.075c1.076 1.863 3.454 2.499 5.315 1.424l40.433-23.343c1.86-1.075 2.499-3.453 1.424-5.315-5.449-9.436-15.732-14.35-25.933-13.483.774-3.633.316-7.542-1.683-11.005-4.292-7.434-13.828-9.987-21.26-5.697-7.43 4.291-9.987 13.826-5.695 21.259 2 3.463 5.156 5.814 8.689 6.96-5.852 8.402-6.738 19.764-1.29 29.2zm-.66-40.051c-2.145-3.714-.869-8.483 2.848-10.629 3.716-2.146 8.484-.867 10.629 2.848 2.145 3.715.868 8.484-2.848 10.63-3.717 2.145-8.485.866-10.63-2.849zm14.52 9.587c8.135-4.697 18.29-2.83 24.289 3.947L86.223 241.62c-2.87-8.583.59-18.312 8.726-23.009zM133.437 191.899c11.799 20.437 38.024 27.464 58.461 15.665 20.437-11.799 27.464-38.025 15.665-58.462-11.799-20.436-38.025-27.464-58.462-15.664-20.436 11.799-27.464 38.024-15.664 58.461zm19.555-51.723c16.72-9.653 38.178-3.905 47.832 12.817 9.654 16.722 3.904 38.179-12.816 47.832-16.721 9.654-38.178 3.905-47.833-12.817-9.654-16.721-3.903-38.178 12.817-47.832z"/>
        </g>
    </mask>
    <g mask="url(#z14fowudla)">
        <rect width="420" height="200" x="-185" y="33" fill="url(#paint0_linear)" opacity=".8" rx="20"/>
    </g>
    <defs>
        <linearGradient id="paint0_linear" x1="-175" x2="168.872" y1="45.5" y2="268.198" gradientUnits="userSpaceOnUse">
            <stop offset=".001" stop-color="#3EA3EE"/>
            <stop offset="1" stop-color="#4743D3"/>
        </linearGradient>
        <clipPath id="clip0">
            <path fill="#fff" d="M0 0H249V249H0z" transform="rotate(-30 233.337 61.663)"/>
        </clipPath>
    </defs>
</svg>
