<svg xmlns="http://www.w3.org/2000/svg" width="226" height="256" fill="none" viewBox="0 0 226 256">
    <mask id="yhpiusx8ra" width="255" height="254" x="0" y="0" maskUnits="userSpaceOnUse">
        <rect width="189" height="189" x="4.338" y="74.734" stroke="#fff" stroke-width="6" rx="7" transform="rotate(-21.92 4.338 74.734)"/>
        <rect width="105" height="9" x="49.33" y="100.824" fill="#fff" rx="4.5" transform="rotate(-21.92 49.33 100.824)"/>
        <path stroke="#fff" stroke-width="4" d="M69.696 141.949s5.997-9.275 13.24-11.223c7.242-1.947 6.775 5.944 15.114 4.22 8.338-1.724 4.305-14.412 11.718-14.956 7.413-.543 11.552 7.146 18.316 4.188 6.764-2.958 4.922-15.199 14.185-18.104 9.264-2.905 27.441 3.08 27.441 3.08M77.56 170.978s5.997-9.275 13.24-11.223c7.243-1.947 6.776 5.945 15.114 4.221 8.338-1.725 4.305-14.413 11.719-14.956 7.413-.544 11.551 7.145 18.315 4.187 6.764-2.957 4.922-15.199 14.186-18.104 9.263-2.905 27.441 3.08 27.441 3.08M89.05 195.226s5.998-9.275 13.241-11.223c7.242-1.947 6.775 5.945 15.114 4.221 8.338-1.725 4.305-14.413 11.718-14.956 7.413-.544 11.552 7.145 18.316 4.187 6.764-2.957 4.922-15.199 14.185-18.104 9.264-2.905 27.441 3.08 27.441 3.08"/>
    </mask>
    <g mask="url(#yhpiusx8ra)">
        <rect width="420" height="200" x="-250" y="-.002" fill="url(#paint0_linear)" opacity=".8" rx="20"/>
    </g>
    <defs>
        <linearGradient id="paint0_linear" x1="-250" x2="119.335" y1="18.331" y2="244.881" gradientUnits="userSpaceOnUse">
            <stop stop-color="#894EE9"/>
            <stop offset="1" stop-color="#4402B2"/>
        </linearGradient>
    </defs>
</svg>
