<svg xmlns="http://www.w3.org/2000/svg" width="26" height="26" fill="none" viewBox="0 0 26 26">
    <rect width="24" height="24.018" x="1" y="1" stroke="#DDD" stroke-linecap="square" stroke-width=".667" rx="12"/>
    <path fill="#DDD" d="M15.01 10.373l.235-.236-.236.236zm-.155-.154l-.236.236-.236-.236.236-.236.236.236zm2.773 2.774l.235-.235-.235.236zm.007.008l.236-.236.569.57h-.805V13zm-9.671 0H7.63v-.334h.334v.334zm0 .436v.334H7.63v-.334h.334zm9.29 0v-.333h.806l-.57.57-.235-.237zm-2.245 2.248l.236.236-.236-.236zm-.154.154l-.236.236-.236-.236.236-.236.236.236zm.309.309l.236.236-.236.236-.236-.236.236-.236zm.154-.155l-.236-.235.236.235zm2.554-2.556l-.236-.236.098-.097h.138v.333zm.128 0h.334v.334H18v-.334zm0-.128h-.333v-.138l.097-.098.236.236zm.09-.09l.236-.236.236.236-.235.236-.236-.236zm-.09-.09l-.236.235-.097-.097v-.139H18zM18 13v-.334h.334v.334H18zm-.07 0v.333h-.806l.57-.57.235.237zm.16-.162l.237-.236.236.236-.236.236-.236-.236zm-.154-.154l.236-.236-.236.236zm-2.618-2.62l.236-.236-.236.236zm-.154-.155l-.236-.236.236-.236.236.236-.236.236zm-.39.7l-.155-.155.472-.472.154.154-.472.472zm2.618 2.62l-2.619-2.62.472-.473 2.618 2.62-.471.472zm.007.006l-.007-.007.471-.471.008.007-.472.471zm-9.217-.569h9.453v.667H8.182v-.667zm-.218 0h.218v.667h-.218v-.667zm-.334.77v-.436h.667v.436H7.63zm.552.334h-.218v-.667h.218v.667zm9.073 0H8.182v-.667h9.073v.667zm.236-.098l-2.246 2.248-.472-.472L17.02 13.2l.472.472zm-2.246 2.248l-.154.154-.472-.472.154-.154.472.472zm-.154-.318l.309.309-.472.472-.309-.309.472-.472zm-.163.309l.154-.154.472.471-.154.155-.472-.472zm.154-.154l2.554-2.556.472.471-2.554 2.556-.472-.471zM18 13.77h-.128v-.667H18v.667zm.334-.462v.128h-.667v-.128h.667zm-.57-.236l.09-.09.473.471-.09.091-.473-.472zm.09.382l-.09-.09.472-.473.09.09-.471.473zm.48-.454v.127h-.667v-.127h.667zm-.405-.334H18v.667h-.07v-.667zm.398.408l-.162.162-.471-.472.161-.162.472.472zm-.155-.626l.155.155-.472.471-.154-.154.471-.472zm-2.618-2.62l2.618 2.62-.471.472-2.619-2.62.472-.472zm-.154-.155l.154.155-.472.471-.154-.154.472-.472zm-.78.309l.308-.309.472.472-.31.309-.47-.472z"/>
</svg>
