<svg xmlns="http://www.w3.org/2000/svg" width="26" height="26" fill="none" viewBox="0 0 26 26">
    <g opacity="1">
        <rect width="24" height="24" stroke="#fff" stroke-linecap="square" stroke-width=".436" rx="12" transform="matrix(-1 0 0 1 25 1)"/>
        <path fill="#fff" d="M10.99 10.373l.155.154-.155-.154zm.155-.154l.154.154.154-.154-.154-.155-.154.155zM8.363 13l-.155-.155-.372.373h.527V13zm9.673 0h.218v-.219h-.218v.219zm0 .436v.218h.218v-.218h-.218zm-9.291 0v-.218h-.527l.373.372.154-.154zm2.246 2.246l.154-.155-.154.155zm.154.154l.154.154.155-.154-.155-.154-.154.154zm-.309.308l-.154.155.154.154.155-.154-.155-.155zm-.154-.154l.154-.154-.154.154zm-2.554-2.554l.154-.154-.064-.064h-.09v.218zm-.128 0H7.78v.218H8v-.218zm0-.128h.218v-.09l-.064-.065L8 13.31zm-.09-.09l-.155-.155-.154.155.154.154.155-.154zm.09-.09l.154.154.064-.064v-.09H8zM8 13v-.219H7.78v.219H8zm.073 0v.218H8.6l-.373-.373-.154.155zm-.164-.164l-.154-.154-.154.154.154.154.154-.154zm.154-.154l.155.154-.155-.154zm2.619-2.619l.154.155-.154-.155zm.154-.154l.154-.154-.154-.154-.154.154.154.154zm.309.617l.154-.154-.309-.309-.154.155.309.308zm-2.619 2.618l2.619-2.618-.31-.308-2.617 2.618.308.308zm-.01.01l.01-.01-.308-.308-.01.01.309.308zm9.302-.373H8.363v.437h9.455v-.437zm.218 0h-.218v.437h.218v-.437zm.218.655V13h-.436v.436h.436zm-.436.218h.218v-.436h-.218v.436zm-9.073 0h9.073v-.436H8.745v.436zm-.154-.064l2.245 2.246.309-.309-2.246-2.245-.308.308zm2.245 2.246l.155.154.308-.308-.154-.155-.309.309zm.155-.154l-.309.308.309.309.308-.309-.308-.308zm0 .308l-.155-.154-.308.308.154.155.309-.309zm-.155-.154l-2.554-2.554-.308.308 2.554 2.554.308-.308zM8 13.655h.128v-.436H8v.436zm-.219-.346v.128h.437v-.128H7.78zm.373-.155l-.09-.09-.309.309.09.09.309-.309zm-.09.219l.09-.09-.309-.308-.09.09.309.308zM7.78 13v.128h.437V13H7.78zm.292-.219H8v.437h.073v-.437zm-.318.21l.164.163.308-.309-.164-.163-.308.308zm.154-.464l-.154.155.308.308.155-.154-.309-.309zm2.618-2.618L7.91 12.528l.309.309 2.618-2.618-.309-.309zm.155-.154l-.155.154.309.309.154-.155-.308-.308zm.617.308l-.309-.308-.308.308.308.309.309-.309z"/>
    </g>
</svg>
