<svg xmlns="http://www.w3.org/2000/svg" width="288" height="287" fill="none" viewBox="0 0 288 287">
    <mask id="fm3e480pca" width="288" height="287" x="0" y="0" maskUnits="userSpaceOnUse">
        <g fill="#fff" clip-path="url(#clip0)">
            <path d="M225.767 96.217c1.42-.82 1.758-2.53 1.163-3.89l-17.874-30.959c-.82-1.42-2.53-1.758-4.032-1.08l-6.817 3.936L183.5 45.638c-.962-1.338-2.732-1.453-4.07-.49l-35.206 27.9-.142.081-102.716 81.836s-1.884 1.656-.736 3.644l17.791 30.817c.82 1.42 2.53 1.758 3.89 1.162 6.25-3.608 14.09-1.507 17.697 4.742 3.607 6.248 1.507 14.088-4.742 17.696-1.42.82-1.758 2.53-1.162 3.89l17.792 30.816c.82 1.421 2.53 1.759 4.032 1.081l163.313-94.289c1.42-.82 1.759-2.53 1.081-4.032l-17.71-30.675c-.82-1.42-2.53-1.758-3.89-1.162-6.249 3.607-14.089 1.507-17.697-4.742-3.607-6.248-1.506-14.088 4.742-17.696zM145.494 79.51l4.848 6.1c.879 1.196 2.507 1.392 3.644.736l.426-.246c1.338-.962 1.452-2.731.49-4.07l-4.848-6.1 30.787-24.402 12.478 15.707L75.307 135.37l70.187-55.86zm93.601 45.367l15.086 26.13-36.781 21.236-3.935-6.817c-.82-1.42-2.612-1.9-4.032-1.08-1.42.82-1.901 2.612-1.081 4.032l3.936 6.816-116.45 67.233-15.086-26.131c7.985-6.503 9.336-18.265 2.832-26.25-5.153-6.303-13.747-8.726-21.28-5.702l-15.086-26.13L163.81 90.899l3.853 6.675c.82 1.42 2.612 1.9 4.032 1.08 1.42-.82 1.9-2.612 1.08-4.032l-3.935-6.816 36.781-21.236 15.086 26.13c-7.985 6.504-9.336 18.266-2.832 26.251 4.952 6.609 13.464 8.889 21.22 5.926z"/>
            <path d="M192.707 135.376c-1.421.82-1.759 2.53-1.163 3.89l9.511 16.473c.82 1.42 2.612 1.9 4.032 1.081 1.42-.82 1.9-2.612 1.081-4.032l-9.429-16.332c-.82-1.42-2.612-1.9-4.032-1.08zM175.981 106.405c-1.42.82-1.758 2.53-1.162 3.89l9.511 16.473c.819 1.421 2.611 1.901 4.032 1.081 1.42-.82 1.9-2.612 1.08-4.032l-9.511-16.474c-.738-1.278-2.53-1.758-3.95-.938zM86.253 163.51l30.817-17.792c1.42-.82 1.9-2.612 1.08-4.032-.82-1.42-2.53-1.758-3.95-.938L83.383 158.54c-1.42.82-1.9 2.612-1.08 4.032.82 1.42 2.53 1.758 3.95.938zM154.117 138.72l-61.633 35.583c-1.42.82-1.9 2.612-1.08 4.033.82 1.42 2.612 1.9 4.032 1.08l61.633-35.584c1.42-.82 1.9-2.612 1.08-4.032-.82-1.42-2.612-1.9-4.032-1.08zM163.218 154.483l-61.633 35.584c-1.42.82-1.9 2.612-1.08 4.032.82 1.42 2.612 1.9 4.032 1.081l61.633-35.584c1.42-.82 1.9-2.612 1.08-4.032-.82-1.421-2.612-1.901-4.032-1.081zM172.319 170.247l-61.633 35.584c-1.42.82-1.9 2.612-1.08 4.032.82 1.42 2.612 1.9 4.032 1.08l61.633-35.584c1.42-.82 1.9-2.612 1.08-4.032-.82-1.42-2.612-1.9-4.032-1.08z"/>
        </g>
    </mask>
    <g mask="url(#fm3e480pca)">
        <rect width="420" height="200" x="-175" y="50" fill="url(#paint0_linear)" opacity=".8" rx="20"/>
    </g>
    <defs>
        <linearGradient id="paint0_linear" x1="-175" x2="194.335" y1="68.333" y2="294.883" gradientUnits="userSpaceOnUse">
            <stop stop-color="#BF5FE9"/>
            <stop offset="1" stop-color="#FF5F8B"/>
        </linearGradient>
        <clipPath id="clip0">
            <path fill="#fff" d="M0 0H209.896V209.896H0z" transform="rotate(-30 196.208 51.076)"/>
        </clipPath>
    </defs>
</svg>
